<svg width="64" height="53" viewBox="0 0 64 53" fill="none" xmlns="http://www.w3.org/2000/svg">
<path d="M54 40.9165H21.9C21.6 40.9165 21.4 40.8165 21.2 40.6165C18.8 38.3165 15.2 38.3165 12.8 40.6165C12.6 40.8165 12.4 40.9165 12.1 40.9165H3C2.4 40.9165 2 40.5165 2 39.9165V18.9165C2 12.8165 6.9 7.9165 13 7.9165H22C22.6 7.9165 23 8.3165 23 8.9165V9.9165H31V8.9165C31 8.3165 31.4 7.9165 32 7.9165H50C52.8 7.9165 55 10.1165 55 12.9165V19.9165C55 20.5165 54.6 20.9165 54 20.9165C53.4 20.9165 53 20.5165 53 19.9165V12.9165C53 11.2165 51.7 9.9165 50 9.9165H33V10.9165C33 11.5165 32.6 11.9165 32 11.9165H22C21.4 11.9165 21 11.5165 21 10.9165V9.9165H13C8 9.9165 4 13.9165 4 18.9165V38.9165H11.7C14.7 36.2165 19.2 36.2165 22.3 38.9165H53V24.9165C53 24.3165 53.4 23.9165 54 23.9165C54.6 23.9165 55 24.3165 55 24.9165V39.9165C55 40.5165 54.6 40.9165 54 40.9165Z" fill="#4D6990"/>
<path d="M10.1 44.9165H1C0.4 44.9165 0 44.5165 0 43.9165V39.9165C0 39.3165 0.4 38.9165 1 38.9165H12.1C12.5 38.9165 12.9 39.1165 13 39.5165C13.1 39.9165 13.1 40.3165 12.8 40.6165C11.9 41.5165 11.3 42.7165 11.1 44.0165C11 44.5165 10.6 44.9165 10.1 44.9165ZM2 42.9165H9.3C9.5 42.2165 9.7 41.5165 10.1 40.9165H2V42.9165Z" fill="#4D6990"/>
<path d="M57 44.9165H23.9C23.4 44.9165 23 44.5165 22.9 44.0165C22.7 42.7165 22.1 41.5165 21.2 40.6165C20.9 40.3165 20.8 39.9165 21 39.5165C21.2 39.1165 21.5 38.9165 21.9 38.9165H57C57.6 38.9165 58 39.3165 58 39.9165V43.9165C58 44.5165 57.6 44.9165 57 44.9165ZM24.7 42.9165H56V40.9165H23.9C24.3 41.5165 24.6 42.2165 24.7 42.9165Z" fill="#4D6990"/>
<path d="M55 52.9165C54.4 52.9165 54 52.5165 54 51.9165V43.9165C54 43.3165 54.4 42.9165 55 42.9165C55.6 42.9165 56 43.3165 56 43.9165V51.9165C56 52.5165 55.6 52.9165 55 52.9165Z" fill="#4D6990"/>
<path d="M17 52.9165C12.6 52.9165 9 49.3165 9 44.9165C9 44.5165 9 44.1165 9.1 43.7165C9.3 42.0165 10.1 40.4165 11.4 39.2165C14.5 36.1165 19.4 36.1165 22.6 39.2165C23.8 40.4165 24.7 42.0165 24.9 43.7165C25 44.1165 25 44.5165 25.1 44.8165C25 49.3165 21.4 52.9165 17 52.9165ZM17 38.9165C15.5 38.9165 14 39.5165 12.8 40.6165C11.9 41.5165 11.3 42.7165 11.1 44.0165C11 44.3165 11 44.6165 11 44.9165C11 48.2165 13.7 50.9165 17 50.9165C20.3 50.9165 23 48.2165 23 44.9165C23 44.6165 22.9 44.4165 22.9 44.1165V44.0165C22.7 42.7165 22.1 41.5165 21.2 40.6165C20 39.5165 18.5 38.9165 17 38.9165Z" fill="#4D6990"/>
<path d="M17 48.9165C14.8 48.9165 13 47.1165 13 44.9165C13 42.7165 14.8 40.9165 17 40.9165C19.2 40.9165 21 42.7165 21 44.9165C21 47.1165 19.2 48.9165 17 48.9165ZM17 42.9165C15.9 42.9165 15 43.8165 15 44.9165C15 46.0165 15.9 46.9165 17 46.9165C18.1 46.9165 19 46.0165 19 44.9165C19 43.8165 18.1 42.9165 17 42.9165Z" fill="#4D6990"/>
<path d="M49 40.9165H37C36.4 40.9165 36 40.5165 36 39.9165V17.9165C36 16.2165 37.3 14.9165 39 14.9165H47C48.7 14.9165 50 16.2165 50 17.9165V39.9165C50 40.5165 49.6 40.9165 49 40.9165ZM38 38.9165H48V17.9165C48 17.3165 47.6 16.9165 47 16.9165H39C38.4 16.9165 38 17.3165 38 17.9165V38.9165Z" fill="#4D6990"/>
<path d="M40 27.9165H39C38.4 27.9165 38 27.5165 38 26.9165C38 26.3165 38.4 25.9165 39 25.9165H40C40.6 25.9165 41 26.3165 41 26.9165C41 27.5165 40.6 27.9165 40 27.9165Z" fill="#4D6990"/>
<path d="M26 26.9165H10C9.4 26.9165 9 26.5165 9 25.9165V17.9165C9 17.3165 9.4 16.9165 10 16.9165H26C26.6 16.9165 27 17.3165 27 17.9165V25.9165C27 26.5165 26.6 26.9165 26 26.9165ZM11 24.9165H25V18.9165H11V24.9165Z" fill="#4D6990"/>
<path d="M18 26.9165C17.4 26.9165 17 26.5165 17 25.9165V17.9165C17 17.3165 17.4 16.9165 18 16.9165C18.6 16.9165 19 17.3165 19 17.9165V25.9165C19 26.5165 18.6 26.9165 18 26.9165Z" fill="#4D6990"/>
<path d="M57 52.9165H53C52.4 52.9165 52 52.5165 52 51.9165C52 51.3165 52.4 50.9165 53 50.9165H57C57.6 50.9165 58 51.3165 58 51.9165C58 52.5165 57.6 52.9165 57 52.9165Z" fill="#4D6990"/>
<path d="M63 42.9165H57C56.4 42.9165 56 42.5165 56 41.9165C56 41.3165 56.4 40.9165 57 40.9165H63C63.6 40.9165 64 41.3165 64 41.9165C64 42.5165 63.6 42.9165 63 42.9165Z" fill="#4D6990"/>
<path d="M63 44.9165C62.4 44.9165 62 44.5165 62 43.9165V39.9165C62 39.3165 62.4 38.9165 63 38.9165C63.6 38.9165 64 39.3165 64 39.9165V43.9165C64 44.5165 63.6 44.9165 63 44.9165Z" fill="#4D6990"/>
<path d="M32 9.91655C31.7 9.91655 31.4 9.81655 31.2 9.61655L25.2 2.61655C24.8 2.21655 24.9 1.51655 25.3 1.21655C25.7 0.816554 26.4 0.916554 26.7 1.31655L32.7 8.31655C33.1 8.71655 33 9.41655 32.6 9.71655C32.5 9.81655 32.2 9.91655 32 9.91655Z" fill="#4D6990"/>
</svg>
