<svg width="66" height="58" viewBox="0 0 66 58" fill="none" xmlns="http://www.w3.org/2000/svg">
<path d="M56.1698 6.15817L55.3858 1.71584C55.3858 1.45453 55.2116 1.28032 55.0374 1.10611C54.8632 0.931903 54.6019 0.931902 54.3406 1.01901C33 5.72265 11.8336 1.10611 11.6594 1.01901C11.3981 0.931902 11.1368 1.01901 10.9626 1.10611C10.7884 1.28032 10.6142 1.45453 10.6142 1.71584L9.91732 6.15817L1.03266 52.3235C0.94556 52.5848 1.03266 52.9333 1.29398 53.1075C1.6424 53.4559 10.1786 61.1211 24.8993 55.0238C25.1606 54.9367 25.3348 54.6754 25.4219 54.3269C26.7285 46.7489 29.8642 36.2092 32.9129 36.2092H33.0871C36.1358 36.2092 39.2715 46.836 40.5781 54.3269C40.6652 54.5883 40.8394 54.8496 41.1007 55.0238C45.2817 56.7659 48.9401 57.3756 52.0759 57.3756C60.0024 57.3756 64.5318 53.3688 64.706 53.1075C64.9673 52.9333 65.0544 52.5848 64.9673 52.3235L56.1698 6.15817ZM53.818 2.9353L54.2535 5.72265C34.8292 9.81656 15.7533 6.50659 11.6594 5.72265L12.0949 2.9353C16.4502 3.71924 34.9163 6.855 53.818 2.9353ZM23.7669 53.6301C11.9207 58.3337 4.51684 53.4559 2.77475 52.1493L3.7329 47.0973C5.38789 47.7941 9.39469 49.1878 14.7081 49.1878C17.8438 49.1878 21.328 48.6651 25.0735 47.3586C24.4638 49.9717 24.0282 52.3235 23.7669 53.6301ZM33.0871 34.4671H32.9129C29.69 34.4671 27.2511 39.9547 25.7703 45.181C15.2307 49.5362 6.17183 46.1391 4.16842 45.2681L11.4852 7.29053C13.6628 7.72605 19.8472 8.7713 27.9479 9.20683C26.6414 10.7747 25.0735 13.4749 26.0316 16.872C26.9898 20.2691 26.1187 23.3177 25.6832 24.5372C25.509 24.5372 25.3348 24.4501 25.1606 24.4501C23.7669 24.4501 22.7217 25.5825 22.7217 26.889C22.7217 28.1956 23.854 29.328 25.1606 29.328C26.4672 29.328 27.5995 28.1956 27.5995 26.889C27.5995 26.3664 27.4253 25.8438 27.164 25.4954C27.6866 24.2759 28.9061 20.6175 27.6866 16.3494C26.5543 12.5168 29.7771 9.72945 30.2998 9.20683C32.129 9.29393 34.0453 9.29393 36.0487 9.20683C36.6584 9.72945 39.707 12.5168 38.6618 16.2623C37.4423 20.5304 38.7489 24.2759 39.1844 25.4083C38.836 25.8438 38.5747 26.3664 38.5747 27.0632C38.5747 28.4569 39.707 29.5022 41.0136 29.5022C42.3202 29.5022 43.4525 28.3698 43.4525 27.0632C43.4525 25.7567 42.3202 24.6243 41.0136 24.6243C40.9265 24.6243 40.8394 24.6243 40.7523 24.6243C40.3168 23.492 39.2715 20.2691 40.3168 16.6978C41.2749 13.3007 39.707 10.6005 38.4005 9.03262C43.5396 8.85841 49.1143 8.24868 54.689 7.11632L62.0058 45.2681C50.3338 50.233 40.491 45.3552 40.4039 45.3552H40.3168C38.7489 40.0418 36.3971 34.4671 33.0871 34.4671ZM25.7703 27.0632C25.7703 27.4117 25.4219 27.7601 25.0735 27.7601C24.7251 27.7601 24.3767 27.4117 24.3767 27.0632C24.3767 26.7148 24.7251 26.3664 25.0735 26.3664C25.4219 26.3664 25.7703 26.6277 25.7703 27.0632ZM40.9265 26.5406C41.2749 26.5406 41.6233 26.889 41.6233 27.2374C41.6233 27.5859 41.2749 27.9343 40.9265 27.9343C40.5781 27.9343 40.2297 27.5859 40.2297 27.2374C40.2297 26.889 40.5781 26.5406 40.9265 26.5406ZM42.2331 53.6301C41.9718 52.3235 41.5362 50.0588 40.9265 47.4457C42.7557 48.1425 46.5012 49.362 51.379 49.362C54.6019 49.362 58.3474 48.8394 62.2671 47.2715L63.2252 52.1493C61.4832 53.4559 53.9922 58.3337 42.2331 53.6301Z" fill="#4D6990"/>
<path fill-rule="evenodd" clip-rule="evenodd" d="M54.2745 0.777561C54.5657 0.683381 54.9426 0.657711 55.2142 0.929336C55.2203 0.935476 55.2266 0.941743 55.233 0.94814C55.3903 1.10477 55.6253 1.3389 55.6355 1.692L56.4153 6.11137L56.416 6.11472L65.21 52.2618C65.3156 52.6033 65.2121 53.0453 64.8794 53.2911C64.8547 53.32 64.8254 53.3498 64.7973 53.3772C64.7481 53.4254 64.6826 53.4854 64.6017 53.5552C64.4396 53.695 64.2116 53.8774 63.9197 54.0875C63.3358 54.5078 62.4931 55.0408 61.4066 55.5647C59.2332 56.6128 56.0822 57.6256 52.0758 57.6256C48.9063 57.6256 45.2153 57.009 41.0045 55.2545L40.9822 55.2452L40.962 55.2318C40.6478 55.0223 40.4429 54.7119 40.3409 54.406L40.335 54.3883L40.3318 54.3699C39.6803 50.6349 38.5731 46.1209 37.2514 42.5456C36.5899 40.7565 35.8793 39.215 35.152 38.1255C34.7883 37.5806 34.427 37.1588 34.0741 36.8754C33.7214 36.5921 33.3926 36.4592 33.0871 36.4592H32.9129C32.6067 36.4592 32.2777 36.5913 31.9251 36.8724C31.5723 37.1536 31.2111 37.5724 30.8475 38.1138C30.1204 39.1965 29.4099 40.7296 28.7485 42.5132C27.4269 46.0773 26.3197 50.5911 25.6683 54.3694L25.6667 54.3786L25.6644 54.3876C25.5694 54.7676 25.362 55.1283 24.9874 55.2578C10.3224 61.3284 1.71512 53.8577 1.13465 53.3013C0.790718 53.0576 0.682806 52.6079 0.789977 52.2616L9.67098 6.11516L10.3644 1.69462C10.3735 1.34006 10.6093 1.10515 10.7669 0.948133C10.7733 0.941739 10.7796 0.935474 10.7858 0.929336L10.8145 0.900649L10.8507 0.882505C11.0446 0.785594 11.3819 0.662996 11.7384 0.781837L11.7475 0.784852C11.7479 0.784956 11.7483 0.785066 11.7487 0.785181C11.7584 0.787827 11.7738 0.791781 11.7957 0.797108C11.8391 0.807672 11.9029 0.822393 11.9868 0.840904C12.1544 0.877866 12.3992 0.92924 12.7163 0.991644C13.3504 1.11643 14.2718 1.28499 15.44 1.47029C17.7763 1.8409 21.0982 2.27824 25.0806 2.56619C33.0443 3.14201 43.6399 3.11975 54.2745 0.777561ZM54.8606 1.28289C54.7879 1.21016 54.6494 1.17959 54.4196 1.25618L54.4072 1.26033L54.3944 1.26315C43.6925 3.62193 33.0397 3.64298 25.0445 3.06489C21.046 2.77577 17.7099 2.33662 15.3616 1.96412C14.1875 1.77786 13.26 1.60822 12.6198 1.48223C12.2998 1.41925 12.0511 1.36711 11.8791 1.32917C11.7933 1.31023 11.7257 1.29466 11.6775 1.28293C11.6536 1.27711 11.6331 1.27192 11.617 1.26753C11.6091 1.26537 11.6006 1.26296 11.5925 1.26043C11.5904 1.25978 11.5834 1.25761 11.5747 1.25433C11.4225 1.20595 11.2547 1.24613 11.1095 1.31284C10.9416 1.48271 10.8641 1.58197 10.8641 1.71584V1.73533L10.1629 6.20544L1.27502 52.387L1.26981 52.4026C1.21402 52.57 1.27606 52.7951 1.43263 52.8995L1.45322 52.9132L1.47073 52.9307C1.77592 53.2359 10.2085 60.8381 24.8036 54.7928L24.8118 54.7894L24.8202 54.7866C24.9612 54.7396 25.0984 54.5829 25.1772 54.275C25.8325 50.4771 26.9458 45.9366 28.2797 42.3394C28.9466 40.5408 29.6733 38.9654 30.4324 37.8351C30.812 37.27 31.2061 36.8061 31.6134 36.4814C32.021 36.1565 32.4569 35.9592 32.9129 35.9592H33.0871C33.5437 35.9592 33.9798 36.1584 34.3872 36.4855C34.7944 36.8125 35.1885 37.2795 35.5679 37.8479C36.3269 38.985 37.0534 40.5684 37.7203 42.3723C39.053 45.977 40.1654 50.5124 40.821 54.2646C40.8926 54.4689 41.0275 54.6676 41.2205 54.8028C45.3619 56.525 48.9798 57.1256 52.0758 57.1256C55.996 57.1256 59.073 56.135 61.1894 55.1143C62.2479 54.6039 63.0656 54.0862 63.6277 53.6817C63.9087 53.4794 64.1251 53.306 64.2751 53.1766C64.3502 53.1118 64.4076 53.0589 64.4477 53.0197C64.4761 52.992 64.4907 52.976 64.4964 52.9697C64.5 52.9657 64.5002 52.9655 64.498 52.9687L64.5257 52.9272L64.5673 52.8995C64.7239 52.7951 64.7859 52.57 64.7301 52.4026L64.7249 52.3867L55.9242 6.20497L55.9236 6.20162L55.1358 1.73773V1.71584C55.1358 1.57429 55.0492 1.47143 54.8606 1.28289ZM54.0244 2.63717L54.5371 5.91836L54.305 5.96727C34.8306 10.0717 15.7146 6.75372 11.6124 5.96819L11.3751 5.92275L11.8874 2.64394L12.1392 2.68926C16.4884 3.47212 34.9148 6.59998 53.7672 2.69051L54.0244 2.63717ZM12.3024 3.22645L11.9437 5.52217C16.4652 6.37349 35.0278 9.46194 53.9698 5.52659L53.6114 3.23302C35.095 7.01133 17.0629 4.07442 12.3024 3.22645ZM54.8869 6.82101L62.2893 45.4191L62.1036 45.4981C56.2153 48.0028 50.7878 48.0247 46.8228 47.4206C44.8405 47.1186 43.2228 46.66 42.0941 46.2765C41.5296 46.0847 41.0874 45.9116 40.7831 45.7862C40.631 45.7236 40.5135 45.6729 40.4333 45.6382L40.4167 45.631C40.3922 45.6204 40.3725 45.6119 40.3569 45.6052H40.1299L40.077 45.4259C39.2947 42.7748 38.3215 40.0758 37.1391 38.0444C35.9451 35.9929 34.594 34.7171 33.0871 34.7171H32.9129C32.1828 34.7171 31.4812 35.0269 30.8069 35.5971C30.131 36.1686 29.4944 36.9923 28.9035 37.9915C27.7217 39.9897 26.7488 42.6446 26.0108 45.2491L25.9778 45.3657L25.8658 45.412C15.2345 49.8051 6.09784 46.3796 4.06872 45.4973L3.88502 45.4175L11.2873 6.99601L11.5342 7.04538C13.7016 7.47886 19.874 8.52239 27.9613 8.95719L28.4591 8.98395L28.14 9.36687C26.8557 10.908 25.3469 13.5233 26.2722 16.8042C27.2511 20.2745 26.3611 23.3823 25.9186 24.6213L25.8594 24.7872H25.6832C25.5648 24.7872 25.4518 24.7589 25.371 24.7386L25.3613 24.7362C25.2683 24.713 25.2115 24.7001 25.1606 24.7001C23.9108 24.7001 22.9717 25.7147 22.9717 26.889C22.9717 28.0575 23.9921 29.078 25.1606 29.078C26.3291 29.078 27.3495 28.0575 27.3495 26.889C27.3495 26.4156 27.19 25.9467 26.964 25.6454L26.8773 25.5297L26.9342 25.3969C27.4452 24.2046 28.6434 20.6095 27.4465 16.419C26.8553 14.4166 27.405 12.6898 28.157 11.4102C28.8184 10.2848 29.6473 9.48834 30.0061 9.14349C30.0539 9.09757 30.0933 9.05966 30.123 9.03005L30.2012 8.95185L30.3116 8.95711C32.1326 9.04382 34.0412 9.04387 36.0378 8.95706L36.1364 8.95277L36.2113 9.01701C36.5255 9.28632 37.4644 10.1354 38.1925 11.4013C38.9222 12.6699 39.4486 14.373 38.9026 16.3295L38.9021 16.331C37.7055 20.519 38.9878 24.2006 39.4177 25.3185L39.4692 25.4524L39.3796 25.5644C39.0565 25.9682 38.8247 26.4375 38.8247 27.0632C38.8247 28.3131 39.8392 29.2522 41.0136 29.2522C42.1821 29.2522 43.2025 28.2317 43.2025 27.0632C43.2025 25.8947 42.1821 24.8743 41.0136 24.8743H40.5806L40.5189 24.7141C40.0768 23.5645 39.0087 20.2788 40.0764 16.6289C41.0012 13.3485 39.4926 10.7337 38.2084 9.19266L37.8812 8.80007L38.392 8.78276C43.518 8.609 49.0788 8.00078 54.6392 6.87132L54.8869 6.82101ZM38.9053 9.26435C40.1577 10.903 41.4715 13.5245 40.5574 16.7657L40.5567 16.768C39.5799 20.1053 40.4701 23.1387 40.9253 24.3743H41.0131C42.4577 24.3743 43.7025 25.6186 43.7025 27.0632C43.7025 28.5079 42.4582 29.7522 41.0136 29.7522C39.5748 29.7522 38.3247 28.6008 38.3247 27.0632C38.3247 26.3568 38.5707 25.8128 38.9011 25.3665C38.4191 24.0812 37.2232 20.3886 38.4211 16.1946C38.9201 14.4058 38.4448 12.8426 37.7591 11.6506C37.122 10.543 36.3103 9.76963 35.9598 9.46086C34.0252 9.5423 32.1708 9.54261 30.3967 9.46162C30.3823 9.47551 30.3671 9.49018 30.3511 9.50562C29.988 9.85519 29.2114 10.603 28.5881 11.6635C27.8813 12.8662 27.3858 14.4489 27.9264 16.2786L27.927 16.2807C29.1285 20.4862 28.0053 24.107 27.4475 25.4658C27.6956 25.853 27.8495 26.3729 27.8495 26.889C27.8495 28.3337 26.6052 29.578 25.1606 29.578C23.7159 29.578 22.4717 28.3337 22.4717 26.889C22.4717 25.4502 23.6231 24.2001 25.1606 24.2001C25.279 24.2001 25.392 24.2284 25.4727 24.2487L25.4825 24.2511C25.4939 24.254 25.5048 24.2567 25.5152 24.2592C25.9573 22.9524 26.6814 20.0969 25.791 16.9399C24.8752 13.6928 26.1955 11.0676 27.4499 9.42957C19.8583 8.99486 14.0152 8.03693 11.6832 7.58432L4.45204 45.1173C6.74517 46.0791 15.4573 49.123 25.5631 44.9958C26.302 42.4109 27.2776 39.7585 28.4731 37.7369C29.0799 36.7109 29.7499 35.836 30.484 35.2153C31.2197 34.5933 32.0315 34.2171 32.9129 34.2171H33.0871C34.8901 34.2171 36.3699 35.7287 37.5713 37.7929C38.7605 39.8362 39.7321 42.5146 40.51 45.1274C40.5188 45.1308 40.5283 45.1348 40.5375 45.1387C40.5604 45.1483 40.5929 45.1625 40.6319 45.1793C40.7111 45.2136 40.8254 45.2629 40.9735 45.3239C41.2698 45.4459 41.702 45.6152 42.255 45.8031C43.3611 46.1789 44.9499 46.6295 46.8981 46.9263C50.7526 47.5136 56.0101 47.4986 61.7221 45.1163L54.491 7.4113C49.1637 8.47868 43.8427 9.07112 38.9053 9.26435ZM24.7712 26.7609C24.6756 26.8565 24.6266 26.9703 24.6266 27.0632C24.6266 27.1561 24.6756 27.27 24.7712 27.3655C24.8667 27.4611 24.9806 27.5101 25.0735 27.5101C25.1664 27.5101 25.2802 27.4611 25.3758 27.3655C25.4713 27.27 25.5203 27.1561 25.5203 27.0632C25.5203 26.7858 25.3047 26.6164 25.0735 26.6164C24.9806 26.6164 24.8667 26.6654 24.7712 26.7609ZM24.4176 26.4074C24.5834 26.2416 24.818 26.1164 25.0735 26.1164C25.539 26.1164 26.0203 26.4696 26.0203 27.0632C26.0203 27.3188 25.8951 27.5533 25.7293 27.7191C25.5636 27.8848 25.329 28.0101 25.0735 28.0101C24.818 28.0101 24.5834 27.8848 24.4176 27.7191C24.2519 27.5533 24.1266 27.3188 24.1266 27.0632C24.1266 26.8077 24.2519 26.5731 24.4176 26.4074ZM40.6242 26.9352C40.5286 27.0307 40.4796 27.1445 40.4796 27.2374C40.4796 27.3304 40.5286 27.4442 40.6242 27.5397C40.7197 27.6353 40.8336 27.6843 40.9265 27.6843C41.0194 27.6843 41.1332 27.6353 41.2288 27.5397C41.3243 27.4442 41.3733 27.3304 41.3733 27.2374C41.3733 27.1445 41.3243 27.0307 41.2288 26.9352C41.1332 26.8396 41.0194 26.7906 40.9265 26.7906C40.8336 26.7906 40.7197 26.8396 40.6242 26.9352ZM40.2706 26.5816C40.4364 26.4159 40.671 26.2906 40.9265 26.2906C41.182 26.2906 41.4166 26.4159 41.5823 26.5816C41.7481 26.7473 41.8733 26.9819 41.8733 27.2374C41.8733 27.493 41.7481 27.7276 41.5823 27.8933C41.4166 28.059 41.182 28.1843 40.9265 28.1843C40.671 28.1843 40.4364 28.059 40.2706 27.8933C40.1049 27.7276 39.9796 27.493 39.9796 27.2374C39.9796 26.9819 40.1049 26.7473 40.2706 26.5816ZM3.54488 46.7469L3.82989 46.8669C5.46399 47.5549 9.43721 48.9378 14.708 48.9378C17.8156 48.9378 21.272 48.4199 24.9911 47.1225L25.4202 46.9729L25.3169 47.4154C24.8282 49.5101 24.4518 51.4353 24.1868 52.791C24.1219 53.1232 24.0636 53.4212 24.012 53.6791L23.9854 53.8123L23.8592 53.8625C11.9035 58.6096 4.40763 53.6865 2.62473 52.3493L2.50007 52.2558L3.54488 46.7469ZM3.92136 47.4451L3.04958 52.0418C4.95406 53.4352 12.1518 57.9187 23.5483 53.4476C23.5927 53.2241 23.6417 52.9733 23.6954 52.6987C23.9418 51.438 24.2865 49.6744 24.7286 47.7407C21.1186 48.9496 17.7522 49.4378 14.708 49.4378C9.6353 49.4378 5.74266 48.1779 3.92136 47.4451ZM62.4543 46.9273L63.5008 52.2552L63.3752 52.3493C61.5924 53.6865 54.0091 58.6098 42.1402 53.8622L42.0145 53.8119L41.9879 53.6791C41.9535 53.5072 41.9161 53.3188 41.8758 53.1154C41.609 51.7708 41.2116 49.768 40.683 47.5025L40.5762 47.0447L41.0155 47.2121C42.8285 47.9028 46.5424 49.112 51.379 49.112C54.5748 49.112 58.2882 48.5938 62.1742 47.0394L62.4543 46.9273ZM62.0796 47.6141C58.2281 49.1096 54.552 49.612 51.379 49.612C46.821 49.612 43.2434 48.5562 41.2747 47.8419C41.7534 49.9295 42.1175 51.7645 42.3664 53.0188C42.3965 53.1706 42.4249 53.3138 42.4516 53.448C53.7624 57.9178 61.04 53.4364 62.9494 52.0424L62.0796 47.6141Z" fill="#4D6990"/>
</svg>
