<svg width="58" height="65" viewBox="0 0 58 65" fill="none" xmlns="http://www.w3.org/2000/svg">
<path d="M29.0608 64.9619C21.0608 64.9619 13.0608 61.6619 7.2608 55.1619C2.1608 49.3619 -0.439198 41.8619 0.0608023 34.1619C0.560802 26.4619 4.0608 19.3619 9.8608 14.2619C20.2608 5.06188 35.6608 4.56188 46.6608 12.9619C47.0608 13.2619 47.1608 13.9619 46.8608 14.3619C46.5608 14.7619 45.8608 14.8619 45.4608 14.5619C35.2608 6.76188 20.8608 7.26188 11.1608 15.7619C5.7608 20.4619 2.5608 27.0619 2.0608 34.2619C1.6608 41.4619 4.0608 48.3619 8.7608 53.7619C18.5608 64.9619 35.6608 65.9619 46.8608 56.1619C58.0608 46.3619 59.0608 29.2619 49.2608 18.0619C48.8608 17.6619 48.9608 17.0619 49.3608 16.6619C49.7608 16.2619 50.3608 16.3619 50.7608 16.7619C61.3608 28.7619 60.1608 47.1619 48.1608 57.6619C42.7608 62.5619 35.8608 64.9619 29.0608 64.9619Z" fill="#4D6990"/>
<path d="M29.0608 60.9619C15.2608 60.9619 4.06079 49.7619 4.06079 35.9619C4.06079 22.1619 15.2608 10.9619 29.0608 10.9619C42.8608 10.9619 54.0608 22.1619 54.0608 35.9619C54.0608 49.7619 42.8608 60.9619 29.0608 60.9619ZM29.0608 12.9619C16.3608 12.9619 6.06079 23.2619 6.06079 35.9619C6.06079 48.6619 16.3608 58.9619 29.0608 58.9619C41.7608 58.9619 52.0608 48.6619 52.0608 35.9619C52.0608 23.2619 41.7608 12.9619 29.0608 12.9619Z" fill="#4D6990"/>
<path d="M34.0608 7.96191H24.0608C23.4608 7.96191 23.0608 7.56191 23.0608 6.96191V1.96191C23.0608 1.36191 23.4608 0.961914 24.0608 0.961914H34.0608C34.6608 0.961914 35.0608 1.36191 35.0608 1.96191V6.96191C35.0608 7.56191 34.6608 7.96191 34.0608 7.96191ZM25.0608 5.96191H33.0608V2.96191H25.0608V5.96191Z" fill="#4D6990"/>
<path d="M29.0608 16.9619C28.4608 16.9619 28.0608 16.5619 28.0608 15.9619V11.9619C28.0608 11.3619 28.4608 10.9619 29.0608 10.9619C29.6608 10.9619 30.0608 11.3619 30.0608 11.9619V15.9619C30.0608 16.5619 29.6608 16.9619 29.0608 16.9619Z" fill="#4D6990"/>
<path d="M10.0608 37.9619H6.06079C5.46079 37.9619 5.06079 37.5619 5.06079 36.9619C5.06079 36.3619 5.46079 35.9619 6.06079 35.9619H10.0608C10.6608 35.9619 11.0608 36.3619 11.0608 36.9619C11.0608 37.5619 10.6608 37.9619 10.0608 37.9619Z" fill="#4D6990"/>
<path d="M29.0608 60.9619C28.4608 60.9619 28.0608 60.5619 28.0608 59.9619V55.9619C28.0608 55.3619 28.4608 54.9619 29.0608 54.9619C29.6608 54.9619 30.0608 55.3619 30.0608 55.9619V59.9619C30.0608 60.5619 29.6608 60.9619 29.0608 60.9619Z" fill="#4D6990"/>
<path d="M53.0608 36.9619H49.0608C48.4608 36.9619 48.0608 36.5619 48.0608 35.9619C48.0608 35.3619 48.4608 34.9619 49.0608 34.9619H53.0608C53.6608 34.9619 54.0608 35.3619 54.0608 35.9619C54.0608 36.5619 53.6608 36.9619 53.0608 36.9619Z" fill="#4D6990"/>
<path d="M15.1608 23.162C14.8608 23.162 14.6608 23.062 14.4608 22.862L11.5608 19.962C11.1608 19.562 11.1608 18.962 11.5608 18.562C11.9608 18.162 12.5608 18.162 12.9608 18.562L15.8608 21.462C16.2608 21.862 16.2608 22.462 15.8608 22.862C15.6608 23.062 15.4608 23.162 15.1608 23.162Z" fill="#4D6990"/>
<path d="M12.2608 53.8619C11.9608 53.8619 11.7608 53.7619 11.5608 53.5619C11.1608 53.1619 11.1608 52.5619 11.5608 52.1619L14.4608 49.2619C14.8608 48.8619 15.4608 48.8619 15.8608 49.2619C16.2608 49.6619 16.2608 50.2619 15.8608 50.6619L12.9608 53.5619C12.7608 53.7619 12.4608 53.8619 12.2608 53.8619Z" fill="#4D6990"/>
<path d="M45.8608 53.8619C45.5608 53.8619 45.3608 53.7619 45.1608 53.5619L42.2608 50.6619C41.8608 50.2619 41.8608 49.6619 42.2608 49.2619C42.6608 48.8619 43.2608 48.8619 43.6608 49.2619L46.5608 52.1619C46.9608 52.5619 46.9608 53.1619 46.5608 53.5619C46.3608 53.7619 46.1608 53.8619 45.8608 53.8619Z" fill="#4D6990"/>
<path d="M42.9608 23.162C42.6608 23.162 42.4608 23.062 42.2608 22.862C41.8608 22.462 41.8608 21.862 42.2608 21.462L45.1608 18.562C45.5608 18.162 46.1608 18.162 46.5608 18.562C46.9608 18.962 46.9608 19.562 46.5608 19.962L43.6608 22.862C43.4608 23.062 43.1608 23.162 42.9608 23.162Z" fill="#4D6990"/>
<path d="M31.4608 38.1619C31.1608 38.1619 30.9608 38.0619 30.7608 37.8619L26.4608 33.6619C26.2608 33.4619 26.1608 33.1619 26.1608 32.8619C26.1608 32.5619 26.3608 32.2619 26.6608 32.1619L38.6608 24.3619C39.0608 24.0619 39.5608 24.1619 39.9608 24.4619C40.2608 24.7619 40.3608 25.3619 40.0608 25.7619L32.2608 37.7619C32.0608 38.0619 31.8608 38.1619 31.5608 38.2619C31.4608 38.1619 31.4608 38.1619 31.4608 38.1619ZM28.7608 33.0619L31.2608 35.5619L35.8608 28.4619L28.7608 33.0619Z" fill="#4D6990"/>
<path d="M18.9608 46.4619C18.6608 46.4619 18.4608 46.3619 18.2608 46.1619C17.9608 45.8619 17.8608 45.2619 18.1608 44.8619L25.9608 32.8619C26.1608 32.5619 26.3608 32.4619 26.6608 32.3619C26.9608 32.3619 27.2608 32.4619 27.4608 32.6619L31.6608 36.8619C31.8608 37.0619 31.9608 37.3619 31.9608 37.6619C31.9608 37.9619 31.7608 38.2619 31.4608 38.3619L19.4608 46.1619C19.2608 46.3619 19.0608 46.4619 18.9608 46.4619ZM26.8608 34.9619L22.2608 42.0619L29.3608 37.4619L26.8608 34.9619Z" fill="#4D6990"/>
</svg>
