<svg width="1440" height="1033" viewBox="0 0 1440 1033" fill="none" xmlns="http://www.w3.org/2000/svg">
<path d="M887.303 320.866C894.936 298.864 921.973 289.813 943.198 289.813C958.402 289.813 970.896 308.477 979.495 319.624C984.871 326.593 986.488 334.669 987.914 343.224C988.945 349.412 991.64 355.51 991.64 361.856C991.64 368.713 994.124 375.412 994.124 382.281C994.124 387.066 994.124 391.85 994.124 396.635" stroke="#F28E8B" stroke-width="11" stroke-linecap="round" stroke-linejoin="round"/>
<path d="M977.977 385.456C977.823 382.628 979.672 353.553 973.009 353.161C970.212 352.996 967.487 352.787 966.867 356.197C966.024 360.832 968.995 368.841 965.556 372.483C963.407 374.758 955.349 375.399 952.514 374.139C947.333 371.836 947.928 360.17 948.166 355.645C948.81 343.408 972.978 349.292 976.459 337.979C980.253 325.647 962.149 318.608 957.965 330.113C955.927 335.717 948.752 339.498 943.198 339.498C939.807 339.498 935.917 340.513 935.745 336.047C935.651 333.61 932.622 329.584 933.399 327.836C935.338 323.473 943.688 324.519 947.2 321.142C950.092 318.361 954.377 318.042 954.377 313.413C954.377 311.744 955.306 305.469 953.618 304.718C949.424 302.854 942.361 302.606 938.229 304.442C934.894 305.925 934.099 306.341 932.985 309.963C932.498 311.546 932.582 317.794 931.26 318.382C925.628 320.885 920.968 322.579 917.389 318.106C913.944 313.798 915.051 308.445 907.177 308.445" stroke="#F28E8B" stroke-width="11" stroke-linecap="round" stroke-linejoin="round"/>
<path d="M866.187 305.961C869.21 311.374 872.904 316.782 875.296 322.522C876.731 325.968 876.516 329.876 877.642 333.425C879.628 339.689 884.13 338.596 888.821 336.047C892.657 333.963 904.874 328.288 907.728 333.839C910.522 339.27 912.567 344.648 913.663 350.677C914.345 354.426 916.752 358.245 917.113 361.856C917.514 365.863 922.366 364.34 925.808 364.34C937.119 364.34 930.325 387.174 933.537 393.599C936.753 400.031 957.17 396.635 962.519 396.635C967.075 396.635 977.977 394.18 977.977 400.085C977.977 404.363 977.977 408.642 977.977 412.92C977.977 419.437 977.745 417.417 982.324 414.231C985.781 411.827 991.719 409.056 995.988 409.056C1001.09 409.056 995.088 422.731 994.745 424.582C992.519 436.607 986.03 452.516 978.667 461.984C977.077 464.028 977.594 467.267 975.838 469.643C972.433 474.25 969.704 479.66 964.935 482.962C960.609 485.956 954.754 487.789 950.029 490.414C946.092 492.602 935.745 500.092 935.745 504.699C935.745 506.769 935.745 508.839 935.745 510.909C935.745 512.007 935.628 510.094 934.503 509.391C932.351 508.046 932.968 503.427 931.743 501.248C926.503 491.934 923.865 483.005 922.082 472.404C920.207 461.258 921.688 452.213 925.118 441.351C925.837 439.073 939.4 410.225 941.68 414.024C942.605 415.567 941.956 418.789 941.956 420.511C941.956 431.184 941.956 441.857 941.956 452.53C941.956 459.298 940.809 465.342 946.648 456.532C949.796 451.782 953.424 447.419 956.861 442.869C960.925 437.491 965.134 433.468 969.558 428.24C972.479 424.788 975.833 421.832 979.495 419.269C980.468 418.588 975.317 433.493 974.665 434.864C969.472 445.786 964.749 457.184 959.276 467.918C957.052 472.282 954.325 478.307 950.65 481.72C946.976 485.132 948.302 471.896 948.166 466.883C947.919 457.755 947.381 448.673 946.993 439.557C946.768 434.262 946.651 428.713 946.993 423.409C947.352 417.841 948.166 401.129 948.166 406.71C948.166 417.811 938.237 431.742 933.192 440.868C924.474 456.637 918.291 473.361 910.282 489.379C909.091 491.76 905.934 499.428 905.934 493.796C905.934 477.603 905.227 461.248 906.21 445.077C907.187 429.01 911.416 413.226 912.145 397.187C912.542 388.448 908.976 406.905 908.419 408.642C906.56 414.437 903.623 420.238 903.45 426.446C903.192 435.734 897.313 444.014 895.997 453.22C893.986 467.298 894.349 424.79 894.755 410.574C894.964 403.279 901.311 395.495 903.381 388.423C905.261 382 904.995 375.242 906.003 368.687C906.368 366.314 909.153 354.967 910.834 354.127C911.946 353.571 910.948 356.636 910.696 357.853C909.715 362.592 907.029 366.94 904.692 371.102C900.594 378.403 894.763 384.009 890.408 391.045C888.833 393.589 885.689 400.816 882.886 402.017C881.457 402.63 875.417 382.632 875.02 381.108C873.236 374.27 869.233 334.667 866.877 334.667C865.848 334.667 862.772 371.874 862.322 375.243C862.18 376.307 860.282 383.074 858.734 382.765C855.963 382.21 853.299 352.86 852.661 349.711C851.89 345.897 848.975 324.85 842.656 325.903C838.634 326.574 837.886 339.393 837.411 341.292C834.041 354.771 831.032 369.487 824.231 381.729C823.699 382.687 823.983 378.471 824.231 377.727C825.197 374.828 828.616 372.225 828.923 369.308C829.809 360.894 830.112 351.026 832.374 342.948C834.146 336.618 824.347 344.764 823.403 345.708C815.983 353.128 809.48 361.29 802.149 368.756C799.719 371.232 795.784 372.984 795.386 376.761C795.239 378.164 792.946 380.937 795.938 380.211C805.297 377.943 813.804 372.869 823.541 370.826C835.991 368.215 848.458 366.246 860.666 363.374C864.188 362.545 861.291 392.492 861.218 396.635C861.157 400.129 857.448 413.014 859.838 415.404C861.155 416.721 886.597 410.547 884.818 414.438C876.912 431.733 856.13 445.107 839.55 453.634C839.073 453.88 831.349 457.933 831.615 456.739C832.331 453.516 835.449 450.289 836.445 446.802C837.4 443.459 842.096 435.597 841.137 432.242C840.999 431.757 834.364 436.106 833.271 436.451C830.295 437.391 825.818 440.134 823.403 442.041C822.045 443.113 816.311 447.423 816.64 447.423C820.115 447.423 840.695 437.42 840.033 444.042C839.189 452.485 833.45 460.517 829.13 467.504C827.013 470.929 821.471 474.949 821.471 479.304C821.471 485.919 830.741 478.139 832.788 477.027C841.705 472.183 850.496 467.594 858.458 461.225C863.853 456.909 868.815 451.793 875.02 448.597C876.783 447.688 878.772 446.709 878.125 449.494C875.773 459.608 872.138 469.672 868.671 479.442C868.162 480.877 854.897 510.423 855.284 510.633C856.46 511.275 862.846 505.331 863.15 505.113C871.595 499.045 880.524 493.67 889.235 487.999C901.088 480.282 894.396 482.599 886.199 486.619C878.096 490.592 869.962 493.99 861.218 496.28C856.971 497.392 854.81 500.019 851.005 501.662C844.271 504.57 834.25 507.396 826.991 507.183C823.375 507.077 828.539 488.697 828.923 485.239C829.071 483.91 828.996 487.95 828.647 489.241C827.866 492.133 824.876 495.224 823.058 497.453C820.227 500.923 813.186 510.771 807.876 510.771C805.025 510.771 806.565 497.078 806.565 495.176C806.565 483.317 799.05 498.931 795.455 502.076C792.998 504.226 790.72 505.101 789.797 501.593C788.784 497.746 787.455 498.488 783.655 498.488C780.362 498.488 780.674 495.438 777.859 497.315C774.545 499.524 773.028 499.933 773.028 496.004" stroke="#96C619" stroke-width="11" stroke-linecap="round" stroke-linejoin="round"/>
<path d="M815.889 401.494C813.276 404.285 807.924 409.842 805.351 413.118C803.969 414.876 802.231 416.84 803.754 418.882C805.04 420.606 806.739 421.744 808.4 423.049C810.305 424.546 812.601 425.288 815.027 425.349C819.008 425.448 822.507 423.636 824.527 420.303C827.807 414.892 827.34 410.281 824.527 404.831C823.799 403.42 823.393 402.388 821.861 401.781C819.183 400.721 816.414 400.344 813.558 400.344C812.056 400.344 810.309 400.085 808.975 400.919C807.239 402.004 804.786 404.38 804.041 406.316C803.599 407.467 802.953 408.562 802.556 409.797C802.156 411.042 802.381 412.554 802.381 413.836C802.381 414.494 801.906 417.956 802.525 418.451C802.842 418.705 803.166 419.076 803.467 419.377C804.219 420.129 808.133 409.414 808.289 408.998C809.25 406.422 810.238 403.784 810.971 401.126C811.046 400.853 811.546 399.658 811.546 399.673C811.546 401.134 810.42 403.111 810.013 404.4C808.935 407.81 807.196 411.115 806.995 414.73C806.882 416.763 806.692 422.866 806.692 420.83C806.692 419.829 807.303 418.959 807.842 418.163C809.653 415.488 811.734 413.047 813.366 410.244C814.571 408.175 815.174 404.947 817.15 403.41C817.428 403.194 817.332 403.96 817.326 404.08C817.217 406.216 815.982 408.514 815.25 410.467C814.198 413.276 812.232 416.657 812.153 419.76C812.137 420.366 812.153 420.974 812.153 421.58C812.153 422.865 812.357 421.199 812.52 420.782C813.836 417.426 816.229 415.133 818.124 412.192C818.503 411.604 821.637 408.367 821.637 409.126C821.637 409.94 821.205 410.652 820.903 411.393C820.045 413.496 819.007 415.597 818.476 417.812C818.288 418.593 817.571 419.965 817.917 420.83C818.043 421.146 818.419 420.368 818.699 420.175C819.78 419.43 820.783 418.698 821.765 417.812C822.682 416.985 823.993 416.207 824.288 414.938C824.398 414.463 824.384 414.059 824.799 413.852" stroke="white" stroke-width="11" stroke-linecap="round" stroke-linejoin="round"/>
<path d="M803.082 404.655C802.216 405.986 797.945 411.917 800.383 413.98C801.607 415.015 805.275 416.277 806.658 415.146C807.794 414.216 808.208 412.688 808.894 411.457C809.298 410.731 809.889 410.194 810.379 409.541C810.713 409.095 810.726 408.336 810.985 407.817C811.742 406.303 810.744 404.444 809.117 403.793C807.003 402.947 806.28 402.456 804.247 403.521C801.525 404.947 799.579 409.112 800.974 412.16C802.676 415.878 807.188 415.106 810.458 414.172C811.627 413.838 812.339 412.884 812.885 411.808C813.4 410.795 814.042 407.679 812.853 407.018C811.123 406.057 810.477 404.368 808.191 404.368C805.643 404.368 803.772 407.838 802.794 409.956C802.392 410.827 801.322 412.077 802.507 412.639C803.764 413.234 805.151 413.631 806.546 413.549C807.391 413.499 809.942 413.674 809.979 412.639C810.018 411.553 810.452 410.488 810.251 409.381C809.947 407.71 807.413 407.597 806.115 407.833C805.041 408.028 805.533 410.865 807.105 410.691C807.68 410.627 808.195 409.008 808.239 408.551C808.311 407.792 807.794 407.076 807.169 406.667C805.074 405.297 803.901 408.919 803.944 410.403C803.968 411.252 805.09 411.079 805.684 410.818C806.626 410.406 806.676 409.325 807.393 408.966" stroke="black" stroke-width="11" stroke-linecap="round" stroke-linejoin="round"/>
<path d="M1122.17 791.393C1126.01 798.32 1131.8 816.846 1134.9 816.846C1147.76 816.846 1157.55 810.64 1167.83 802.907C1173.22 798.851 1181.87 790.962 1185.4 785.232C1187.71 781.482 1176.7 786.995 1172.67 788.767C1156.64 795.817 1140.39 804.999 1123.59 810.079C1120 811.162 1114.47 812.451 1119.95 807.654C1131.33 797.701 1143.58 788.668 1157.12 781.899C1163.83 778.545 1184.52 771.394 1177.02 771.394C1171.97 771.394 1156.75 768.618 1153.08 772.606C1149.76 776.216 1146.39 777.024 1142.57 779.778C1139.46 782.029 1137.96 788.662 1136.11 791.999C1134.04 795.72 1131.01 800.483 1136.92 800.483C1151.56 800.483 1166.72 799.571 1180.96 796.039C1191 793.546 1204.33 787.407 1193.48 801.998C1178.96 821.519 1165.3 838.223 1143.69 850.076C1142.07 850.963 1130.76 854.292 1136.72 852.803C1144.32 850.902 1150.72 846.316 1158.13 843.915C1171.59 839.55 1185.52 830.868 1194.89 820.078C1196.15 818.629 1205.99 801.979 1205.8 808.564C1205.48 819.811 1197.56 836.312 1190.96 844.824C1185.41 851.975 1178.07 857.681 1171.56 863.913C1168.28 867.06 1163.24 874.476 1158.13 875.024C1149.76 875.92 1162.52 873.614 1165 872.094C1174.2 866.453 1183.39 862.63 1192.07 856.035C1197.83 851.658 1202.31 845.836 1208.02 841.491C1209.08 840.685 1214.14 831.936 1214.79 834.218C1215.92 838.184 1212.15 842.028 1209.84 844.521C1199.61 855.57 1194.61 870.848 1182.98 881.084C1180.07 883.64 1176.64 886.232 1174.29 889.366C1169.89 895.227 1186.4 881.077 1192.07 876.438C1201.31 868.873 1215.03 860.051 1226.61 856.742C1228.51 856.198 1228.17 858.305 1227.22 860.883C1225.52 865.467 1222.04 869.236 1220.25 873.913C1216.33 884.082 1213.68 894.892 1208.02 904.314C1205.42 908.647 1196.76 913.846 1195.2 917.748C1191.54 926.886 1211.17 906 1217.72 898.658C1223.57 892.108 1227.05 884.35 1232.67 878.054C1235.86 874.482 1234.89 877.046 1234.89 880.478C1234.89 896.105 1221.05 908.467 1217.11 922.697C1214.72 931.354 1217.86 928.218 1222.97 923.101C1228.21 917.865 1233.27 911.555 1238.12 905.93C1239.98 903.778 1249.47 898.123 1246.61 900.577C1242.65 903.968 1240.37 908.608 1238.33 913.203C1237.58 914.872 1225.76 931.538 1230.45 928.555C1238.72 923.288 1257.68 900.409 1251.66 908.153C1249.4 911.051 1248.14 916.464 1245.7 919.97C1239.07 929.493 1236.88 941.902 1232.06 952.392C1230 956.888 1228.83 959.763 1233.07 954.917C1235.99 951.588 1237.67 947.364 1241.15 944.514C1246.62 940.044 1253.54 937.778 1259.13 933.403C1263.85 929.708 1269.42 929.693 1274.48 926.737C1277.36 925.062 1268.58 936.399 1267.62 937.847C1260.9 947.926 1256.25 958.129 1251.66 969.36C1247.52 979.469 1249.05 979.818 1257.52 975.421C1259.32 974.484 1285.58 960.16 1285.8 964.108C1285.94 966.762 1264.44 988.264 1268.63 989.46C1274.38 991.105 1317.36 969.116 1314.78 983.299C1313.79 988.764 1306.89 994.813 1302.56 997.843C1294.63 1003.4 1284.04 1012.22 1278.93 1020.47C1276.94 1023.68 1297.29 1016.35 1299.33 1016.93C1304.44 1018.39 1289.32 1033.99 1305.8 1024.1" stroke="#96C619" stroke-width="11" stroke-linecap="round" stroke-linejoin="round"/>
<path d="M471.643 355.056C483.62 354.65 495.119 350.738 507.265 350.738C509.886 350.738 512.263 348.751 514.822 348.04C518.612 346.987 521.656 347.201 525.376 345.341C531.421 342.319 537.491 344.312 543.727 342.702C547.483 341.733 551.132 340.459 554.882 339.404C558.919 338.269 562.902 338.428 566.876 337.545C571.819 336.447 576.1 333.937 581.149 332.927C585.116 332.134 586.912 329.266 590.384 327.53C593.891 325.776 597.612 324.517 601.179 322.912C607.4 320.113 612.483 315.881 618.45 312.897C625.897 309.174 633.253 304.193 640.399 300.004C643.557 298.152 649.754 298.276 649.754 293.527" stroke="#F2CB43" stroke-width="11" stroke-linecap="round" stroke-linejoin="round"/>
<path d="M601.17 316.817C603.214 322.925 601.298 303.71 600.628 297.219C600.377 294.793 599 292.258 599 289.908C599 288.276 603.551 292.332 604.606 293.203C606.948 295.134 608.757 297.247 611.358 299.038C612.771 300.011 614.3 302.208 615.879 302.607C616.958 302.88 618.556 304.151 618.441 302.127C618.353 300.566 617.857 298.795 617.387 297.322C616.355 294.093 614.967 291.217 614.252 287.78C613.371 283.547 613.308 279.165 611.75 275.149C610.004 270.65 609.44 256.21 608.254 260.939C607.244 264.965 616.183 267.587 618.11 268.628C621.662 270.545 628.618 275.359 629.383 280.366C629.585 281.686 631.83 285.992 632.729 286.819C635.473 289.343 637.357 291.395 640.445 293.581C640.727 293.78 642.858 295.706 642.947 294.439C643.163 291.361 642.675 288.077 642.404 285.034C642.037 280.908 641.862 272.609 641.862 272.609C641.862 272.609 646.501 279.518 649.096 282.7C649.682 283.419 649.606 285.029 650 285.927" stroke="#F2CB43" stroke-width="11" stroke-linecap="round" stroke-linejoin="round"/>
<path d="M689.637 907.153C692.716 898.685 697.081 890.703 702.246 883.307C708.385 874.518 712.587 865.795 717.79 856.59C723.362 846.731 729.242 836.382 733.209 825.753C737.286 814.825 744.406 805.658 749.314 795.227C750.341 793.046 757.296 780.063 759.302 779.06" stroke="#F2CB43" stroke-width="11" stroke-linecap="round" stroke-linejoin="round"/>
<path d="M759.302 779.059C755.439 775.915 751.823 772.07 747.191 770.07C745.394 769.294 743.856 769.343 743.321 767.324C742.023 762.418 742.447 757.315 742.447 752.28C742.447 747.829 744.509 743.756 746.318 739.795C747.283 737.679 748.044 730.779 749.876 729.557C755.523 725.792 759.711 719.621 765.919 716.885C770.505 714.864 777.176 716.136 782.149 716.136C784.168 716.136 796.24 717.441 797.568 715.45C798.85 713.525 801.683 710.343 803.623 708.958C804.415 708.392 803.14 718.808 802.874 719.757C800.195 729.281 800.695 744.699 802.561 754.402C803.956 761.653 804.628 774.473 796.631 778.186C793.857 779.474 792.632 782.652 790.264 784.428C788.559 785.706 786.775 785.473 784.895 786.051C781.429 787.118 778.088 786.925 774.471 786.925C771.234 786.925 768.607 786.345 765.482 785.864C760.792 785.142 763.311 783.873 760.425 782.43" stroke="#A1CAE1" stroke-width="11" stroke-linecap="round" stroke-linejoin="round"/>
<path d="M757.054 777.936C757.054 765.009 753.772 747.764 765.794 739.108C772.567 734.232 781.232 733.048 788.516 729.62C792.561 727.716 793.51 724.927 795.882 720.881C797.566 718.008 800.092 717.026 800.876 713.889" stroke="#A1CAE1" stroke-width="11" stroke-linecap="round" stroke-linejoin="round"/>
<path d="M760.425 780.183C766.259 780.183 770.212 779.795 775.657 777.936C780.682 776.22 782.179 773.261 786.269 770.632C789.148 768.782 793.877 758.637 794.134 755.463C794.491 751.068 796.671 747.42 797.38 743.166C797.822 740.514 797.271 737.778 797.567 735.113C798.013 731.104 798.13 725.937 802 724.002" stroke="#A1CAE1" stroke-width="11" stroke-linecap="round" stroke-linejoin="round"/>
<path d="M760.425 777.936C764.269 773.261 768.723 769.126 772.536 764.452C774.096 762.539 776.789 761.036 777.779 758.772C780.345 752.908 786.442 748.885 787.392 742.23C787.733 739.845 790.543 739.375 791.637 737.485C792.344 736.265 791.405 734.721 792.511 733.615C794.894 731.232 797.43 728.571 799.752 726.249" stroke="#A1CAE1" stroke-width="11" stroke-linecap="round" stroke-linejoin="round"/>
<path d="M639.073 986.931C633.917 999.153 627.471 1010.5 623.343 1022.89" stroke="#F2CB43" stroke-width="11" stroke-linecap="round" stroke-linejoin="round"/>
<path d="M382.999 377.924C383.098 382.191 389.833 404.891 379.628 404.891" stroke="#F2CB43" stroke-width="11" stroke-linecap="round" stroke-linejoin="round"/>
<path d="M399.741 413.88C399.741 409.224 397.123 394.299 404.797 392.594C408.053 391.87 412.669 392.254 415.471 393.655" stroke="#F2CB43" stroke-width="11" stroke-linecap="round" stroke-linejoin="round"/>
<path d="M417.719 376.542C407.594 380.805 406.306 381.093 398.679 374.42C395.364 371.519 395.246 367.479 395.246 363.059" stroke="#F2CB43" stroke-width="11" stroke-linecap="round" stroke-linejoin="round"/>
<path d="M444.686 234.1C444.522 241.293 442.493 251.79 434.823 255.199C428.644 257.945 435.795 255.792 439.005 257.196C444.758 259.713 445.918 265.215 448.681 269.556C451.322 273.707 450.207 267.111 451.677 264.438C455.296 257.858 458.016 258.409 463.538 255.199C464.409 254.692 470.08 252.171 470.342 251.516C470.618 250.826 463.956 250.997 463.163 250.892C456.662 250.025 453.815 242.723 448.556 239.718C445.679 238.074 446.933 232.496 446.933 229.605" stroke="#F2CB43" stroke-width="11" stroke-linecap="round" stroke-linejoin="round"/>
<path d="M725.13 243.566C717.937 243.402 707.44 241.373 704.031 233.703C701.285 227.524 703.438 234.675 702.034 237.885C699.517 243.638 694.015 244.798 689.674 247.561C685.523 250.202 692.119 249.087 694.793 250.557C701.372 254.176 700.821 256.896 704.031 262.418C704.538 263.289 707.059 268.96 707.714 269.222C708.404 269.498 708.233 262.836 708.338 262.043C709.205 255.542 716.507 252.694 719.512 247.436C721.156 244.559 726.734 245.813 729.625 245.813" stroke="#F2CB43" stroke-width="11" stroke-linecap="round" stroke-linejoin="round"/>
<path d="M380.344 326.66C380.344 340.332 385.657 350.134 392.645 361.476C385.521 361.392 378.687 360.356 371.538 360.017C365.933 359.75 361.606 355.641 356.534 353.833C350.54 351.698 342.563 349.38 337.29 346.186C330.173 341.874 321.762 349.438 314.296 353.02C295.564 362.005 283.173 380.01 264.719 389.305C246.939 398.261 231.455 405.876 216.772 420.058C206.688 429.799 198.127 440.194 186.602 448.371C161.939 465.87 136.405 479.036 104.898 472.127C98.4015 470.703 90.7889 461.435 86.7954 456.344C79.7773 447.396 73.5312 437.639 70.9764 426.404C68.155 413.997 69.1825 400.814 69.1825 388.166C69.1825 374.139 82.1726 356.942 90.057 346.186C108.253 321.361 127.206 291.924 153.659 274.591C163.545 268.114 172.35 259.917 181.057 251.974C195.538 238.764 218.404 230.844 236.342 223.173C264.642 211.072 296.355 196 327.668 196C352.292 196 375.822 197.895 400.24 200.393C405.995 200.982 406.899 206.903 411.167 209.505C420.04 214.916 419.685 238.562 419.973 247.092C420.331 257.687 417.052 268.775 413.45 278.659C410.43 286.944 405.339 298.97 399.751 305.507C397.647 307.968 396.609 312.939 394.043 314.619C388.552 318.215 380.344 319.178 380.344 326.66Z" fill="white"/>
<path d="M393.554 362.945C386.123 350.968 380.344 340.919 380.344 326.66C380.344 319.178 388.552 318.215 394.043 314.619C396.609 312.939 397.647 307.968 399.751 305.507C405.339 298.97 410.43 286.944 413.45 278.659C417.052 268.775 420.331 257.687 419.973 247.092C419.685 238.562 420.04 214.916 411.167 209.505C406.899 206.903 405.995 200.982 400.24 200.393C375.822 197.895 352.292 196 327.668 196C296.355 196 264.642 211.072 236.342 223.173C218.404 230.844 195.538 238.764 181.057 251.974C172.35 259.917 163.545 268.114 153.659 274.591C127.206 291.924 108.253 321.361 90.057 346.186C82.1726 356.942 69.1825 374.139 69.1825 388.166C69.1825 400.814 68.155 413.997 70.9764 426.404C73.5312 437.639 79.7773 447.396 86.7954 456.344C90.7889 461.435 98.4015 470.703 104.898 472.127C136.405 479.036 161.939 465.87 186.602 448.371C198.127 440.194 206.688 429.799 216.772 420.058C231.455 405.876 246.939 398.261 264.719 389.305C283.173 380.01 295.564 362.005 314.296 353.02C321.762 349.438 330.173 341.874 337.29 346.186C342.563 349.38 350.54 351.698 356.534 353.833C361.606 355.641 365.933 359.75 371.538 360.017C378.99 360.371 386.1 361.481 393.554 361.481" stroke="black" stroke-width="11" stroke-linecap="round" stroke-linejoin="round"/>
<path d="M1081.15 348.164C1081.15 357.508 1068.3 370.359 1066.55 379.542C1074.61 379.542 1082.26 378.378 1090.23 378.082C1093.45 377.963 1104.75 370.686 1107.1 372.569C1114.84 378.757 1123.99 388.693 1129.82 396.731C1137.24 406.977 1145.62 413.363 1155.61 420.892C1170.58 432.182 1193.34 435 1211.41 435C1232.35 435 1255.36 434.134 1273.55 423.649C1294.09 411.802 1293.29 391.138 1292.85 369.812C1292.32 344.028 1280.37 319.941 1267.22 298.382C1256.41 280.663 1245.04 268.157 1229.42 254.356C1203.42 231.388 1180.58 211.854 1147.17 201.492C1124.63 194.498 1100.84 185.761 1077.01 184.06C1070.12 183.568 1059.43 186.205 1052.76 187.871C1040.17 191.016 1025.3 198.601 1015.69 207.249C985.155 234.72 998.222 290.639 1024.13 315.814C1034.31 325.712 1047.19 332.429 1059.73 338.84C1063.29 340.659 1081.15 343.893 1081.15 348.164Z" fill="white" stroke="black" stroke-width="11" stroke-linecap="round" stroke-linejoin="round"/>
<path d="M120.385 383.19C122.311 397.322 125.891 404.875 139.223 411.544C146.936 415.403 159.062 418.239 166.83 413.575C174.348 409.062 180.266 390.954 178.766 382.703C177.773 377.236 153.347 375.322 148.723 378.315C143.465 381.719 139.21 386.959 135.244 391.721C130.245 397.723 132.978 393.02 135.325 388.715C142.115 376.26 147.209 366.731 148.885 352.642C150.707 337.335 133.676 348.978 126.556 353.617C119.698 358.085 117.865 366.953 116 374.416" stroke="black" stroke-width="11" stroke-linecap="round" stroke-linejoin="round"/>
<path d="M179 355.786C184.296 368.14 192.727 378.102 201.934 387.868C207.253 393.51 191.141 376.56 187.143 369.945C185.744 367.629 175.663 349.893 184.235 349.893C191.091 349.893 196.025 344 202.931 344" stroke="black" stroke-width="11" stroke-linecap="round" stroke-linejoin="round"/>
<path d="M225.005 322C225.005 328.167 220.596 354 230.244 354C244.284 354 240.049 335.311 239.739 325.232C239.644 322.122 234.628 323.731 232.454 323.374C231.384 323.198 234.728 324.695 236.056 328.626C238.693 336.436 245.69 345.306 253 349.636" stroke="black" stroke-width="11" stroke-linecap="round" stroke-linejoin="round"/>
<path d="M251 307C256.299 313.738 260.769 319.832 261.5 328.45C261.713 330.966 264.421 333.449 266 335" stroke="black" stroke-width="11" stroke-linecap="round" stroke-linejoin="round"/>
<path d="M239.096 294C247.108 282.555 236 284.615 236 292.504" stroke="black" stroke-width="11" stroke-linecap="round" stroke-linejoin="round"/>
<path d="M258 299.699C263.758 306.91 269.31 313.805 271.169 323.065C271.445 324.442 272.825 329.527 271.333 325.443C267.805 315.777 262.444 308.229 262.444 297.486C262.444 288.199 277.887 284.217 284.996 286.746C290.313 288.638 289.526 297.048 292.403 301.175C294.675 304.434 296.278 308.074 298 311.505" stroke="black" stroke-width="11" stroke-linecap="round" stroke-linejoin="round"/>
<path d="M323.029 259C318.737 264.172 301.784 279.037 310.414 286.691C313.496 289.424 323.536 288.946 326.846 287.501C329.565 286.314 335.376 280.804 339.129 284.1C343.64 288.061 338.918 294.367 336.224 297.784C334.178 300.378 315.56 317.802 315.56 310.01" stroke="black" stroke-width="11" stroke-linecap="round" stroke-linejoin="round"/>
<path d="M1043.4 243.838C1042.81 245.668 1027.2 292 1035.35 292C1044.91 292 1049.04 286.332 1054.45 280.162C1059.22 274.726 1061.62 266.884 1055.84 262C1052.86 259.491 1050.15 257.746 1046.49 256.324C1041.55 254.407 1048.67 254.123 1051.85 252.757C1052.45 252.5 1075.22 240.919 1063.8 240.919C1056.83 240.919 1050.48 238 1043.4 238" stroke="black" stroke-width="11" stroke-linecap="round" stroke-linejoin="round"/>
<path d="M1073.4 279.055C1079 279.819 1099.99 286.416 1099.99 276.477C1099.99 274.596 1100.25 269.561 1097.61 268.986C1093.84 268.164 1074.43 264.574 1073.48 269.711C1072.55 274.725 1069.4 279.096 1069.05 284.13C1068.58 290.842 1071.67 293.413 1076.02 298.709C1079.78 303.277 1090.53 312.716 1094.08 302.254" stroke="black" stroke-width="11" stroke-linecap="round" stroke-linejoin="round"/>
<path d="M1132 286.499C1123.63 286.499 1110.79 284.593 1103.01 288.231C1099.36 289.936 1099.42 294.642 1097.21 297.203C1092.98 302.115 1095.1 307.75 1101.24 307.75C1109.33 307.75 1119.33 305.736 1125.07 299.565C1125.75 298.842 1129.1 291.8 1129.1 293.898C1129.1 300.084 1126.26 306.108 1124.75 312" stroke="black" stroke-width="11" stroke-linecap="round" stroke-linejoin="round"/>
<path d="M1143.5 293C1143.5 305.856 1142.32 318.464 1142 331.255C1141.91 334.935 1143.12 337.01 1147.34 335.506C1152.86 333.535 1160.2 322.366 1162.83 317.523C1164.53 314.397 1164.87 311.036 1166 307.714" stroke="black" stroke-width="11" stroke-linecap="round" stroke-linejoin="round"/>
<path d="M1202 283C1194.28 301.228 1185.8 320.55 1182 340" stroke="black" stroke-width="11" stroke-linecap="round" stroke-linejoin="round"/>
<path d="M1176 314C1182.03 316.283 1190.73 317.559 1196 321" stroke="black" stroke-width="11" stroke-linecap="round" stroke-linejoin="round"/>
<path d="M1212.23 324C1211.21 333.996 1209.57 344.088 1209.31 354.143C1209.23 357.339 1213.16 351.004 1214.26 349.663C1217.21 346.08 1216.45 341.333 1218.4 337.198C1220.66 332.416 1221 329.091 1221 337.198C1221 343.378 1220.79 348.259 1218.08 353.98C1211.7 367.423 1198.47 384.879 1183.49 388.523C1168 392.292 1155.39 389.012 1144.2 376.792C1141.3 373.628 1140.96 367.091 1145.01 365.06" stroke="black" stroke-width="11" stroke-linecap="round" stroke-linejoin="round"/>
</svg>
