<svg width="1440" height="1024" viewBox="0 0 1440 1024" fill="none" xmlns="http://www.w3.org/2000/svg">
<path d="M496.75 687.69C487.178 683.413 476.788 675.89 466.147 674.544C459.034 673.644 451.046 681.101 446.697 685.891C441.619 691.483 440.818 698.924 439.578 706.22C438.632 711.787 439.566 714.421 441.495 719.875C444.826 729.299 451.499 735.231 457.071 743.531C458.704 745.965 459.956 748.762 462.837 749.851C468.586 752.025 474.861 753.602 480.877 754.859C487.315 756.205 494.557 754.718 499.654 750.327C503.205 747.269 509.029 741.652 509.856 736.79" stroke="black" stroke-width="11" stroke-linecap="round" stroke-linejoin="round"/>
<path d="M521.389 673.605C523.776 683.243 527.121 692.588 529.595 702.187C530.754 706.682 530.123 711.287 530.095 715.866C530.088 717.097 530.497 729.092 530.897 729.067C534.243 728.857 537.355 726.525 540.466 725.485C544.658 724.084 549.039 723.48 553.203 721.956C558.885 719.877 564.461 717.821 570.437 716.897" stroke="black" stroke-width="11" stroke-linecap="round" stroke-linejoin="round"/>
<path d="M593.522 665.208C595.175 677.019 595.245 689.07 596.999 700.844C597.223 702.344 597.226 707.425 598.149 708.101" stroke="black" stroke-width="11" stroke-linecap="round" stroke-linejoin="round"/>
<path d="M651.742 659.214C637.372 656.772 621.098 649.875 612.59 666.242C609.852 671.51 608.715 678.655 607.725 684.482C606.916 689.241 610.732 694.691 612.514 698.89C614.851 704.396 624.028 709.635 629.456 711.656C632.118 712.648 640.069 710.197 642.868 709.346C646.092 708.365 649.942 703.556 651.351 700.724C652.249 698.921 652.764 693.684 654.724 693.088" stroke="black" stroke-width="11" stroke-linecap="round" stroke-linejoin="round"/>
<path d="M672.883 651.685C674.317 662.051 676.216 672.533 676.695 683.008C676.808 685.475 676.253 687.501 677.067 689.912C679.394 696.806 681.354 704.52 680.931 711.843" stroke="black" stroke-width="11" stroke-linecap="round" stroke-linejoin="round"/>
<path d="M677.686 679.513C682.523 676.202 687.75 673.603 692.581 670.304C696.429 667.677 700.289 664.779 704.665 663.089C707.753 661.897 710.303 658.608 713.166 657.737" stroke="black" stroke-width="11" stroke-linecap="round" stroke-linejoin="round"/>
<path d="M679.74 681.451C693.358 684.925 707.604 688.15 720.403 694.1C724.484 695.997 729.233 699.396 733.76 700.166" stroke="black" stroke-width="11" stroke-linecap="round" stroke-linejoin="round"/>
<path d="M791.87 648.074C789.62 663.629 789.714 679.456 787.084 694.928" stroke="black" stroke-width="11" stroke-linecap="round" stroke-linejoin="round"/>
<path d="M789.685 646.909C795.835 653.854 800.304 661.345 805.567 668.763C808.361 672.701 811.612 664.113 813.043 661.648C817.132 654.604 821.076 647.51 825.2 640.498C825.851 639.393 827.67 635.565 829.073 635.375C832.063 634.97 834.767 646.506 835.162 648.106C837.405 657.184 839.223 666.302 840.84 675.464C841.647 680.036 845.694 686.639 844.91 691.251" stroke="black" stroke-width="11" stroke-linecap="round" stroke-linejoin="round"/>
<path d="M858.992 636.443C862.17 648.712 865.164 660.513 865.534 673.261C865.585 675.024 866.406 676.769 866.525 678.594C866.74 681.865 871.417 680.345 873.738 680.305C879.77 680.203 884.899 679.503 890.549 677.734C892.207 677.215 895.802 677.478 896.72 676.223" stroke="black" stroke-width="11" stroke-linecap="round" stroke-linejoin="round"/>
<path d="M858.336 640.304C874.095 638.048 890.028 637.68 905.861 636.465" stroke="black" stroke-width="11" stroke-linecap="round" stroke-linejoin="round"/>
<path d="M862.383 663.237C871.432 663.29 881.572 661.793 890.079 659.205" stroke="black" stroke-width="11" stroke-linecap="round" stroke-linejoin="round"/>
<path d="M473.931 817.279C479.294 826.241 483.334 835.587 486.989 845.362C488.478 849.344 489.204 853.912 490.927 857.772C492.89 862.173 497.011 866.345 498.997 870.796" stroke="black" stroke-width="11" stroke-linecap="round" stroke-linejoin="round"/>
<path d="M472.008 814.569C472.345 805.714 472.862 800.413 482.107 797.219C486.278 795.778 488.992 795.211 493.357 795.953C500.356 797.142 505.548 799.57 511.473 803.622C516.635 807.152 515.887 816.926 515.205 822.176C514.586 826.94 509.889 830.961 505.657 832.646C502.191 834.026 498.605 835.291 495.101 836.59C493.778 837.08 490.313 837.759 489.456 839.161C489.356 839.325 504.451 842.328 505.912 842.576C511.013 843.443 515.889 844.04 520.709 845.885" stroke="black" stroke-width="11" stroke-linecap="round" stroke-linejoin="round"/>
<path d="M525.363 799.804C526.089 809.959 531.953 819.757 534.61 829.534C534.745 830.031 535.333 837.983 536.313 838.21C540.717 839.227 544.552 833.694 547.395 831.177C553.724 825.576 560.266 819.94 568.442 817.453" stroke="black" stroke-width="11" stroke-linecap="round" stroke-linejoin="round"/>
<path d="M524.081 797.997C531.227 791.254 539.894 786.632 547.457 780.431C549.275 778.941 551.577 778.283 553.761 777.619" stroke="black" stroke-width="11" stroke-linecap="round" stroke-linejoin="round"/>
<path d="M530.838 819.007C537.539 815.367 544.091 811.618 549.678 806.32" stroke="black" stroke-width="11" stroke-linecap="round" stroke-linejoin="round"/>
<path d="M568.841 773.032C579.477 786.674 586.418 801.558 592.262 817.529" stroke="black" stroke-width="11" stroke-linecap="round" stroke-linejoin="round"/>
<path d="M569.861 776.383C570.649 772.008 570.424 764.448 574.72 762.335C578.264 760.591 580.522 757.984 584.648 758.196C587.488 758.342 590.758 757.938 593.451 759.118C596.758 760.569 596.783 762.445 598.596 765.201C599.983 767.311 600.486 769.143 600.07 771.587C599.097 777.315 602.782 784.437 597.438 789.412C592.416 794.086 589.599 796.373 582.795 798.442" stroke="black" stroke-width="11" stroke-linecap="round" stroke-linejoin="round"/>
<path d="M607.903 758.22C607.832 766.716 608.764 775.081 610.513 783.38C611.491 788.026 612.93 792.579 613.852 797.233C614.003 797.996 613.598 802.638 614.248 802.95C618.583 805.026 629.32 798.429 633.061 796.657C635.059 795.711 641.505 794.238 641.918 791.807" stroke="black" stroke-width="11" stroke-linecap="round" stroke-linejoin="round"/>
<path d="M605.193 760.143C612.006 754.218 618.378 748.214 626.233 743.858" stroke="black" stroke-width="11" stroke-linecap="round" stroke-linejoin="round"/>
<path d="M609.634 780.759C617.128 778.328 623.712 774.266 631.037 771.686" stroke="black" stroke-width="11" stroke-linecap="round" stroke-linejoin="round"/>
<path d="M653.289 738.923C654.341 749.268 654.664 758.878 652.928 769.095C652.355 772.465 652.71 775.999 653.167 779.375C653.887 784.694 652.477 791.483 654.651 796.355" stroke="black" stroke-width="11" stroke-linecap="round" stroke-linejoin="round"/>
<path d="M652.386 739.564C663.369 750.494 676.073 761.055 684.444 774.274C685.529 775.988 684.943 778.464 687.026 778.818" stroke="black" stroke-width="11" stroke-linecap="round" stroke-linejoin="round"/>
<path d="M656.402 772.024C663.748 770.756 674.113 768.587 678.709 762.31" stroke="black" stroke-width="11" stroke-linecap="round" stroke-linejoin="round"/>
<path d="M696.722 726.443C698.355 734.461 701.345 742.099 703.027 750.112C704.481 757.039 708.636 763.068 709.974 770.007C710.691 773.731 713.422 777.764 712.769 781.604" stroke="black" stroke-width="11" stroke-linecap="round" stroke-linejoin="round"/>
<path d="M670.16 737.818C679.547 736.439 688.242 734.962 697.063 731.445C704.076 728.648 711.135 726.006 718.574 724.596C721.413 724.058 724.839 724.84 727.376 723.709" stroke="black" stroke-width="11" stroke-linecap="round" stroke-linejoin="round"/>
<path d="M745.12 731.491C748.002 745.287 750.371 759.323 753.328 773.05C753.554 774.098 753.524 777.341 754.758 777.619C755.721 777.835 756.972 776.747 757.709 776.355C760.748 774.737 764.058 773.776 767.207 772.408C771.235 770.658 775.483 768.347 779.003 765.85" stroke="black" stroke-width="11" stroke-linecap="round" stroke-linejoin="round"/>
<path d="M746.023 730.85C753.775 731.026 759.899 729.694 767.249 728.014C768.955 727.624 771.061 727.161 772.817 727.459" stroke="black" stroke-width="11" stroke-linecap="round" stroke-linejoin="round"/>
<path d="M750.842 753.914C762.893 749.682 761.736 750.547 773 744.5" stroke="black" stroke-width="11" stroke-linecap="round" stroke-linejoin="round"/>
<path d="M796.405 719.552C795.455 722.355 794.183 724.613 795.88 727.319C801.333 736.018 805.021 745.164 807.014 755.296C807.518 757.86 806.008 766.459 810.314 763.404C814.72 760.278 818.449 758.427 821.532 754.011C824.359 749.963 824.615 745.222 825.424 740.461C826.25 735.602 823.77 734.195 820.872 730.11C817.703 725.643 812.862 724.732 807.551 723.829C802.112 722.905 793.613 720.993 789.688 726.355" stroke="black" stroke-width="11" stroke-linecap="round" stroke-linejoin="round"/>
<path d="M844.703 715.844C844.663 717.186 841.466 754.875 844.318 755.501C854.054 757.636 865.974 751.406 874.347 747.099" stroke="black" stroke-width="11" stroke-linecap="round" stroke-linejoin="round"/>
<path d="M879.495 707.457C883.585 711.769 889.835 715.484 892.686 720.733C893.382 722.014 894.67 722.41 895.927 722.961" stroke="black" stroke-width="11" stroke-linecap="round" stroke-linejoin="round"/>
<path d="M911.33 697.773C909.717 700.755 907.359 703.674 906.008 706.755C904.714 709.705 904.379 713.062 903.274 716.088C901.604 720.663 899.364 725.023 897.587 729.554C895.68 734.416 893.055 739.859 892.187 744.967C891.677 747.964 891.462 749.85 889.396 752.04" stroke="black" stroke-width="11" stroke-linecap="round" stroke-linejoin="round"/>
<path d="M932.377 693.891C932.958 706.673 932.661 719.884 934.263 732.609C934.699 736.071 935.845 739.503 935.834 743.011" stroke="black" stroke-width="11" stroke-linecap="round" stroke-linejoin="round"/>
<path d="M936.166 760.001C935.171 761.075 928.528 766.762 930.492 769.53C931.286 770.649 933.904 770.269 934.763 769.66C937.422 767.773 939.406 755.35 937.386 759.135" stroke="black" stroke-width="11" stroke-linecap="round" stroke-linejoin="round"/>
<path d="M381.802 656.123C371.569 655.949 359.767 653.436 349.8 654.977" stroke="black" stroke-width="11" stroke-linecap="round" stroke-linejoin="round"/>
<path d="M370.905 745.493C365.108 748.879 358.89 750.486 352.227 751.202C350.235 751.417 347.977 750.97 346.185 752.024C344.473 753.031 342.575 753.557 340.615 753.224" stroke="black" stroke-width="11" stroke-linecap="round" stroke-linejoin="round"/>
<path d="M405.393 839.358C396.734 845.676 387.102 855.507 382.697 865.55" stroke="black" stroke-width="11" stroke-linecap="round" stroke-linejoin="round"/>
<path d="M443.958 909.231C437.163 924.585 426.18 938.061 423.286 955.086" stroke="black" stroke-width="11" stroke-linecap="round" stroke-linejoin="round"/>
<path d="M943.451 603.477C951.25 595.765 956.727 585.701 966.658 580.591" stroke="black" stroke-width="11" stroke-linecap="round" stroke-linejoin="round"/>
<path d="M962.102 645.283C977.603 644.547 993.21 648.016 1008.71 648.911" stroke="black" stroke-width="11" stroke-linecap="round" stroke-linejoin="round"/>
<path d="M982.069 710.922C995.186 711.146 1008.4 711.105 1021.37 713.309" stroke="black" stroke-width="11" stroke-linecap="round" stroke-linejoin="round"/>
<path d="M980.33 765.36C998.86 774.639 1016.56 788.917 1036.42 795.284" stroke="black" stroke-width="11" stroke-linecap="round" stroke-linejoin="round"/>
<path d="M496.75 678.69C487.178 674.413 476.788 666.89 466.147 665.544C459.034 664.644 451.046 672.101 446.697 676.891C441.619 682.483 440.818 689.924 439.578 697.22C438.632 702.787 439.566 705.421 441.495 710.875C444.826 720.299 451.499 726.231 457.071 734.531C458.704 736.965 459.956 739.762 462.837 740.851C468.586 743.025 474.861 744.602 480.877 745.859C487.315 747.205 494.557 745.718 499.654 741.327C503.205 738.269 509.029 732.652 509.856 727.79" stroke="#F2CB43" stroke-width="11" stroke-linecap="round" stroke-linejoin="round"/>
<path d="M521.389 664.605C523.776 674.243 527.121 683.588 529.595 693.187C530.754 697.682 530.123 702.287 530.095 706.866C530.088 708.097 530.497 720.092 530.897 720.067C534.243 719.857 537.355 717.525 540.466 716.485C544.658 715.084 549.039 714.48 553.203 712.956C558.885 710.877 564.461 708.821 570.437 707.897" stroke="#F2CB43" stroke-width="11" stroke-linecap="round" stroke-linejoin="round"/>
<path d="M593.522 656.208C595.175 668.019 595.245 680.07 596.999 691.844C597.223 693.344 597.226 698.425 598.149 699.101" stroke="#F2CB43" stroke-width="11" stroke-linecap="round" stroke-linejoin="round"/>
<path d="M651.742 650.214C637.372 647.772 621.098 640.875 612.59 657.242C609.852 662.51 608.715 669.655 607.725 675.482C606.916 680.241 610.732 685.691 612.514 689.89C614.851 695.396 624.028 700.635 629.456 702.656C632.118 703.648 640.069 701.197 642.868 700.346C646.092 699.365 649.942 694.556 651.351 691.724C652.249 689.921 652.764 684.684 654.724 684.088" stroke="#F2CB43" stroke-width="11" stroke-linecap="round" stroke-linejoin="round"/>
<path d="M672.883 642.685C674.317 653.051 676.216 663.533 676.695 674.008C676.808 676.475 676.253 678.501 677.067 680.912C679.394 687.806 681.354 695.52 680.931 702.843" stroke="#F2CB43" stroke-width="11" stroke-linecap="round" stroke-linejoin="round"/>
<path d="M677.686 670.513C682.523 667.202 687.75 664.603 692.581 661.304C696.429 658.677 700.289 655.779 704.665 654.089C707.753 652.897 710.303 649.608 713.166 648.737" stroke="#F2CB43" stroke-width="11" stroke-linecap="round" stroke-linejoin="round"/>
<path d="M679.74 672.451C693.358 675.925 707.604 679.15 720.403 685.1C724.484 686.997 729.233 690.396 733.76 691.166" stroke="#F2CB43" stroke-width="11" stroke-linecap="round" stroke-linejoin="round"/>
<path d="M791.87 639.074C789.62 654.629 789.714 670.456 787.084 685.928" stroke="#F2CB43" stroke-width="11" stroke-linecap="round" stroke-linejoin="round"/>
<path d="M789.685 637.909C795.835 644.854 800.304 652.345 805.567 659.763C808.361 663.701 811.612 655.113 813.043 652.648C817.132 645.604 821.076 638.51 825.2 631.498C825.851 630.393 827.67 626.565 829.073 626.375C832.063 625.97 834.767 637.506 835.162 639.106C837.405 648.184 839.223 657.302 840.84 666.464C841.647 671.036 845.694 677.639 844.91 682.251" stroke="#F2CB43" stroke-width="11" stroke-linecap="round" stroke-linejoin="round"/>
<path d="M858.992 627.443C862.17 639.712 865.164 651.513 865.534 664.261C865.585 666.024 866.406 667.769 866.525 669.594C866.74 672.865 871.417 671.345 873.738 671.305C879.77 671.203 884.899 670.503 890.549 668.734C892.207 668.215 895.802 668.478 896.72 667.223" stroke="#F2CB43" stroke-width="11" stroke-linecap="round" stroke-linejoin="round"/>
<path d="M858.336 631.304C874.095 629.048 890.028 628.68 905.861 627.465" stroke="#F2CB43" stroke-width="11" stroke-linecap="round" stroke-linejoin="round"/>
<path d="M862.383 654.237C871.432 654.29 881.572 652.793 890.079 650.205" stroke="#F2CB43" stroke-width="11" stroke-linecap="round" stroke-linejoin="round"/>
<path d="M473.931 808.279C479.294 817.241 483.334 826.587 486.989 836.362C488.478 840.344 489.204 844.912 490.927 848.772C492.89 853.173 497.011 857.345 498.997 861.796" stroke="#F2CB43" stroke-width="11" stroke-linecap="round" stroke-linejoin="round"/>
<path d="M472.008 805.569C472.345 796.714 472.862 791.413 482.107 788.219C486.278 786.778 488.992 786.211 493.357 786.953C500.356 788.142 505.548 790.57 511.473 794.622C516.635 798.152 515.887 807.926 515.205 813.176C514.586 817.94 509.889 821.961 505.657 823.646C502.191 825.026 498.605 826.291 495.101 827.59C493.778 828.08 490.313 828.759 489.456 830.161C489.356 830.325 504.451 833.328 505.912 833.576C511.013 834.443 515.889 835.04 520.709 836.885" stroke="#F2CB43" stroke-width="11" stroke-linecap="round" stroke-linejoin="round"/>
<path d="M525.363 790.804C526.089 800.959 531.953 810.757 534.61 820.534C534.745 821.031 535.333 828.983 536.313 829.21C540.717 830.227 544.552 824.694 547.395 822.177C553.724 816.576 560.266 810.94 568.442 808.453" stroke="#F2CB43" stroke-width="11" stroke-linecap="round" stroke-linejoin="round"/>
<path d="M524.081 788.997C531.227 782.254 539.894 777.632 547.457 771.431C549.275 769.941 551.577 769.283 553.761 768.619" stroke="#F2CB43" stroke-width="11" stroke-linecap="round" stroke-linejoin="round"/>
<path d="M530.838 810.007C537.539 806.367 544.091 802.618 549.678 797.32" stroke="#F2CB43" stroke-width="11" stroke-linecap="round" stroke-linejoin="round"/>
<path d="M568.841 764.032C579.477 777.674 586.418 792.558 592.262 808.529" stroke="#F2CB43" stroke-width="11" stroke-linecap="round" stroke-linejoin="round"/>
<path d="M569.861 767.383C570.649 763.008 570.424 755.448 574.72 753.335C578.264 751.591 580.522 748.984 584.648 749.196C587.488 749.342 590.758 748.938 593.451 750.118C596.758 751.569 596.783 753.445 598.596 756.201C599.983 758.311 600.486 760.143 600.07 762.587C599.097 768.315 602.782 775.437 597.438 780.412C592.416 785.086 589.599 787.373 582.795 789.442" stroke="#F2CB43" stroke-width="11" stroke-linecap="round" stroke-linejoin="round"/>
<path d="M607.903 749.22C607.832 757.716 608.764 766.081 610.513 774.38C611.491 779.026 612.93 783.579 613.852 788.233C614.003 788.996 613.598 793.638 614.248 793.95C618.583 796.026 629.32 789.429 633.061 787.657C635.059 786.711 641.505 785.238 641.918 782.807" stroke="#F2CB43" stroke-width="11" stroke-linecap="round" stroke-linejoin="round"/>
<path d="M605.193 751.143C612.006 745.218 618.378 739.214 626.233 734.858" stroke="#F2CB43" stroke-width="11" stroke-linecap="round" stroke-linejoin="round"/>
<path d="M609.634 771.759C617.128 769.328 623.712 765.266 631.037 762.686" stroke="#F2CB43" stroke-width="11" stroke-linecap="round" stroke-linejoin="round"/>
<path d="M653.289 729.923C654.341 740.268 654.664 749.878 652.928 760.095C652.355 763.465 652.71 766.999 653.167 770.375C653.887 775.694 652.477 782.483 654.651 787.355" stroke="#F2CB43" stroke-width="11" stroke-linecap="round" stroke-linejoin="round"/>
<path d="M652.386 730.564C663.369 741.494 676.073 752.055 684.444 765.274C685.529 766.988 684.943 769.464 687.026 769.818" stroke="#F2CB43" stroke-width="11" stroke-linecap="round" stroke-linejoin="round"/>
<path d="M656.402 763.024C663.748 761.756 674.113 759.587 678.709 753.31" stroke="#F2CB43" stroke-width="11" stroke-linecap="round" stroke-linejoin="round"/>
<path d="M696.722 717.443C698.355 725.461 701.345 733.099 703.027 741.112C704.481 748.039 708.636 754.068 709.974 761.007C710.691 764.731 713.422 768.764 712.769 772.604" stroke="#F2CB43" stroke-width="11" stroke-linecap="round" stroke-linejoin="round"/>
<path d="M670.16 728.818C679.547 727.439 688.242 725.962 697.063 722.445C704.076 719.648 711.135 717.006 718.574 715.596C721.413 715.058 724.839 715.84 727.376 714.709" stroke="#F2CB43" stroke-width="11" stroke-linecap="round" stroke-linejoin="round"/>
<path d="M745.12 722.491C748.002 736.287 750.371 750.323 753.328 764.05C753.554 765.098 753.524 768.341 754.758 768.619C755.721 768.835 756.972 767.747 757.709 767.355C760.748 765.737 764.058 764.776 767.207 763.408C771.235 761.658 775.483 759.347 779.003 756.85" stroke="#F2CB43" stroke-width="11" stroke-linecap="round" stroke-linejoin="round"/>
<path d="M746.023 721.85C753.775 722.026 759.899 720.694 767.249 719.014C768.955 718.624 771.061 718.161 772.817 718.459" stroke="#F2CB43" stroke-width="11" stroke-linecap="round" stroke-linejoin="round"/>
<path d="M750.842 744.914C762.893 740.682 761.736 741.547 773 735.5" stroke="#F2CB43" stroke-width="11" stroke-linecap="round" stroke-linejoin="round"/>
<path d="M796.405 710.552C795.455 713.355 794.183 715.613 795.88 718.319C801.333 727.018 805.021 736.164 807.014 746.296C807.518 748.86 806.008 757.459 810.314 754.404C814.72 751.278 818.449 749.427 821.532 745.011C824.359 740.963 824.615 736.222 825.424 731.461C826.25 726.602 823.77 725.195 820.872 721.11C817.703 716.643 812.862 715.732 807.551 714.829C802.112 713.905 793.613 711.993 789.688 717.355" stroke="#F2CB43" stroke-width="11" stroke-linecap="round" stroke-linejoin="round"/>
<path d="M844.703 706.844C844.663 708.186 841.466 745.875 844.318 746.501C854.054 748.636 865.974 742.406 874.347 738.099" stroke="#F2CB43" stroke-width="11" stroke-linecap="round" stroke-linejoin="round"/>
<path d="M879.495 698.457C883.585 702.769 889.835 706.484 892.686 711.733C893.382 713.014 894.67 713.41 895.927 713.961" stroke="#F2CB43" stroke-width="11" stroke-linecap="round" stroke-linejoin="round"/>
<path d="M911.33 688.773C909.717 691.755 907.359 694.674 906.008 697.755C904.714 700.705 904.379 704.062 903.274 707.088C901.604 711.663 899.364 716.023 897.587 720.554C895.68 725.416 893.055 730.859 892.187 735.967C891.677 738.964 891.462 740.85 889.396 743.04" stroke="#F2CB43" stroke-width="11" stroke-linecap="round" stroke-linejoin="round"/>
<path d="M932.377 684.891C932.958 697.673 932.661 710.884 934.263 723.609C934.699 727.071 935.845 730.503 935.834 734.011" stroke="#F2CB43" stroke-width="11" stroke-linecap="round" stroke-linejoin="round"/>
<path d="M936.166 751.001C935.171 752.075 928.528 757.762 930.492 760.53C931.286 761.649 933.904 761.269 934.763 760.66C937.422 758.773 939.406 746.35 937.386 750.135" stroke="#F2CB43" stroke-width="11" stroke-linecap="round" stroke-linejoin="round"/>
<path d="M381.802 647.123C371.569 646.949 359.767 644.436 349.8 645.977" stroke="#F2CB43" stroke-width="11" stroke-linecap="round" stroke-linejoin="round"/>
<path d="M370.905 736.493C365.108 739.879 358.89 741.486 352.227 742.202C350.235 742.417 347.977 741.97 346.185 743.024C344.473 744.031 342.575 744.557 340.615 744.224" stroke="#F2CB43" stroke-width="11" stroke-linecap="round" stroke-linejoin="round"/>
<path d="M405.393 830.358C396.734 836.676 387.102 846.507 382.697 856.55" stroke="#F2CB43" stroke-width="11" stroke-linecap="round" stroke-linejoin="round"/>
<path d="M443.958 900.231C437.163 915.585 426.18 929.061 423.286 946.086" stroke="#F2CB43" stroke-width="11" stroke-linecap="round" stroke-linejoin="round"/>
<path d="M943.451 594.477C951.25 586.765 956.727 576.701 966.658 571.591" stroke="#F2CB43" stroke-width="11" stroke-linecap="round" stroke-linejoin="round"/>
<path d="M962.102 636.283C977.603 635.547 993.21 639.016 1008.71 639.911" stroke="#F2CB43" stroke-width="11" stroke-linecap="round" stroke-linejoin="round"/>
<path d="M982.069 701.922C995.186 702.146 1008.4 702.105 1021.37 704.309" stroke="#F2CB43" stroke-width="11" stroke-linecap="round" stroke-linejoin="round"/>
<path d="M980.33 756.36C998.86 765.639 1016.56 779.917 1036.42 786.284" stroke="#F2CB43" stroke-width="11" stroke-linecap="round" stroke-linejoin="round"/>
</svg>
