<svg width="1440" height="1024" viewBox="0 0 1440 1024" fill="none" xmlns="http://www.w3.org/2000/svg">
<path d="M904.616 307.595C898.835 315.183 888.973 312.868 880.521 311.722C881.432 322.111 887.538 345.201 904.668 354.445C908.906 353.032 910.851 346.577 913.956 343.3C918.765 338.223 922.429 331.757 926.494 326.066C929.778 321.469 928.816 315.204 928.816 309.865C928.816 303.583 929.38 297.002 928.403 290.774C927.843 287.203 926.527 283.66 926.081 280.093C925.599 276.237 925.494 270.584 923.192 277.874C921.469 283.328 918.092 287.793 914.678 292.219C910.968 297.028 908.437 302.58 904.616 307.595Z" fill="#ED544E" stroke="#ED544E" stroke-width="11" stroke-linecap="round" stroke-linejoin="round"/>
<path d="M1128.5 623.783C1128.5 600.401 1129.78 575.931 1143.51 556.242C1149.05 548.303 1154.69 542.095 1163.89 538.854C1172.36 535.872 1180.72 533.364 1189.18 530.289C1203.77 524.983 1218.46 512.399 1224.06 497.473C1226.35 491.351 1228.58 483.818 1228.8 477.247C1228.9 474.396 1227.63 461.562 1230.76 460.323C1234.28 458.933 1238.51 459.394 1242.22 459.394C1243.39 459.394 1247.65 460.019 1248.56 459.291C1248.6 459.265 1233.51 445.048 1231.59 442.883C1228.19 439.053 1225.02 434.999 1221.58 431.222C1219.71 429.167 1218.17 426.925 1216.63 424.617C1216.49 424.419 1214.87 421.721 1214.87 421.934C1214.87 424.81 1213.37 427.969 1212.5 430.706C1211.24 434.655 1209.21 438.193 1208.32 442.212C1207.3 446.796 1202.54 449.768 1201.92 455.008C1201.69 456.946 1200.01 458.361 1200.01 460.116C1200.01 462.07 1205.93 461.251 1207.03 461.251C1207.63 461.251 1212.12 460.783 1212.45 461.561C1213.56 464.234 1211.16 469.262 1211.16 472.396C1211.16 487.373 1199.36 499.172 1187.11 506.709C1170.42 516.981 1147.7 519.033 1133.61 533.127C1131.07 535.661 1126.65 536.133 1123.85 538.854C1120.65 541.963 1116.66 543.821 1113.43 546.903C1109.63 550.533 1108.1 553.417 1105.48 558.151C1104.3 560.292 1101.56 562.81 1101.56 565.272" stroke="#ED544E" stroke-width="11" stroke-linecap="round" stroke-linejoin="round"/>
<path d="M446 509.058C442.446 509.058 437.07 510.499 433.748 507.927C427.989 503.468 423.548 495.883 418.549 490.019C410.625 480.722 402.34 472.42 395.116 461.931C378.308 437.531 365.184 405.274 355.814 374.275C354.386 369.549 354.146 363.392 351.73 359.383C348.209 353.541 345.991 347.975 343.829 340.909C340.129 328.809 332.311 319.214 328.631 307.26C326.206 299.384 323.403 290.178 319.191 283.791C316.237 279.313 315.677 273.613 312.228 268.899C305.728 260.018 300.684 241 291.204 241C283.946 241 275.156 247.381 269.913 254.761C267.048 258.795 264.164 262.35 261.075 265.883C256.992 270.553 254.873 277.469 250.497 281.718C245.59 286.481 239.266 296.622 236.37 303.962C232.131 314.701 227.327 322.658 222.51 332.521C219.188 339.323 214.501 344.533 213.137 352.597C212.532 356.173 210.829 357.962 209.254 360.702C207.649 363.494 207.95 366.441 206.709 369.185C200.141 383.716 195.495 399.055 189.034 413.673C183.353 426.525 176.49 438.76 171.492 452.129C167.775 462.072 159.182 468.399 153.749 476.635C150.38 481.743 147.197 486.231 144.175 491.904C142.914 494.271 148.827 490.621 150.469 492.469C152.248 494.473 155.665 495.27 157.967 496.805C159.405 497.763 164.653 495.769 165.131 498.125C165.811 501.475 165.198 506.457 165.198 509.906C165.198 518.006 163.882 519.377 160.913 525.647C158.967 529.757 157.336 536.068 159.842 539.596C163.812 545.184 170.589 539.283 173.367 548.079C175.52 554.898 174.51 573.08 171.76 578.712C168.867 584.634 159.896 600.673 168.278 600.673C172.605 600.673 185.802 597.717 189.301 602.369C193.965 608.569 191.864 624.559 191.712 632.908C191.248 658.39 183.717 684.14 178.455 708.217C177.416 712.971 184.685 709.155 187.829 709.253C191.514 709.369 194.9 710.95 198.675 710.95C201.304 710.95 203.011 709.253 205.504 709.253C208.807 709.253 207.159 711.05 207.446 716.699C207.807 723.815 213.401 777.116 202.759 777.116C197.659 777.116 212.678 773.735 217.69 772.403C220.137 771.753 224.251 765.97 224.251 772.026C224.251 782.525 224.304 794.911 230.009 802.942C233.951 808.491 247.852 799.172 253.777 799.172C259.635 799.172 256.423 839.131 256.857 845.544C257.351 852.85 288.119 841.722 294.15 838.947C300.527 836.012 301.603 841.717 303.189 849.409C304.175 854.191 306.888 880.883 309.951 882.115C315.671 884.416 337.412 876.865 339.946 884" stroke="white" stroke-width="11" stroke-linecap="round" stroke-linejoin="round"/>
<path d="M289.008 268.906C264.397 290.622 263.964 327.326 251.507 355.782C246.703 366.755 242.29 377.683 235.401 387.523C227.588 398.685 221.817 411.304 213.418 422.027C208.672 428.086 202.543 432.871 197.782 438.897C191.971 446.253 189.613 455.693 183.734 462.879C182.196 464.758 173.329 475.145 173.447 475.105C204.989 464.449 223.818 430.585 239.633 403.394C245.422 393.441 252.181 384.167 257.62 374.004C264.534 361.083 270.054 347.847 275.842 334.445C279.466 326.052 283.251 317.855 287.833 309.934C288.358 309.026 290.974 303.004 291.242 305.349C293.059 321.253 289.3 335.622 284.835 350.786C278.351 372.802 272.092 394.612 262.675 415.62C249.385 445.267 229.586 472.94 206.54 495.678C199.187 502.933 189.285 509.378 183.322 517.897C175.846 528.577 202.291 499.984 211.243 490.505C224.825 476.124 238.346 461.241 250.449 445.598C259.455 433.956 268.498 421.443 275.489 408.449C280.907 398.379 285.455 387.793 291.595 378.118C297.675 368.538 303.379 358.789 308.993 348.964C310.325 346.633 309.111 354.332 309.111 357.017C309.111 380.189 305.43 402.554 297.237 424.319C283.656 460.401 265.903 494.154 238.693 521.776C231.54 529.037 224.014 535.827 217.062 543.289C211.132 549.655 205.97 556.905 199.722 562.922C194.137 568.3 197.464 566.36 202.249 562.099C216.944 549.014 234.996 539.565 247.745 524.362C253.035 518.054 257.296 510.964 262.616 504.671C267.351 499.071 272.9 494.257 277.723 488.742C287.71 477.319 293.891 463.544 299.471 449.595C305.808 433.752 313.873 416.074 324.629 402.63C326.381 400.44 324.981 408.231 324.981 411.035C324.981 428.746 323.427 445.935 319.926 463.349C315.819 483.781 310.362 503.893 301.117 522.599C292.017 541.011 287.02 560.745 274.431 577.382C265.814 588.769 255.99 599.291 247.157 610.533C239.528 620.243 230.503 628.297 223.469 638.513C221.691 641.094 214.236 649.452 214.358 649.328C231.171 632.191 250.229 616.929 266.378 599.248C283.396 580.615 299.586 558.185 310.698 535.472C313.886 528.956 316.238 522.051 319.926 515.781C323.876 509.066 328.717 503.07 332.388 496.148C336.885 487.668 340.48 479.111 343.203 469.932C343.332 469.497 346.218 459.603 347.083 461.115C349.979 466.184 345.88 480.19 345.084 484.51C342.431 498.914 339.442 513.153 336.15 527.419C334.928 532.711 328.605 547.608 331.565 543.054C343.031 525.414 354.049 506.842 367.42 490.564C371.259 485.89 367.41 502.98 367.303 503.672C366.326 509.96 365.603 516.241 365.304 522.599C365.229 524.207 363.643 531.246 366.362 528.595C373.884 521.261 383.401 515.254 390.403 507.551C393.085 504.601 391.65 518.94 391.638 520.836C391.625 522.84 390.099 533.853 391.167 531.769C395.744 522.844 401.164 514.364 406.45 505.906" stroke="white" stroke-width="11" stroke-linecap="round" stroke-linejoin="round"/>
<path d="M302.763 587.374C295.903 598.464 288.406 609.102 281.249 619.997C273.835 631.284 268.084 644.07 259.324 654.383C248.503 667.124 235.307 678.2 222.352 688.71C220.866 689.916 217.173 690.955 216.239 692.59C215.908 693.169 217.592 692.876 218.237 692.707C222.496 691.596 226.749 690.404 230.993 689.239C241.863 686.257 254.455 683.916 264.438 678.483C274.807 672.84 282.554 661.366 290.419 652.855C299.565 642.958 309.141 632.574 315.224 620.408C316.271 618.314 316.675 614.986 315.224 619.233C311.313 630.676 307.313 641.884 302.41 652.972C290.696 679.461 276.229 705.989 258.325 728.798C254.541 733.619 250.342 741.014 245.1 744.433C241.877 746.535 239.155 749.333 237.341 752.78C236.178 754.99 235.115 756.596 238.81 753.838C252.068 743.946 263.681 732.081 275.842 720.922C281.613 715.626 284.756 708.477 289.478 702.406C289.698 702.124 286.565 711.862 286.422 712.34C282.636 724.958 281.12 738.428 275.489 750.429C272.857 756.037 270.203 761.95 267.083 767.299C263.493 773.454 257.439 778.099 254.034 784.227C251.773 788.298 261.14 778.155 264.203 774.646C273.763 763.696 282.39 752.088 289.478 739.378C292.165 734.562 294.253 729.485 296.826 724.625C298.592 721.289 297.357 732.112 297.355 732.149C296.945 740.237 295.172 747.629 292.182 755.131C289.144 762.756 287.76 770.738 284.894 778.408C280.964 788.927 275.369 798.359 271.022 808.503" stroke="white" stroke-width="11" stroke-linecap="round" stroke-linejoin="round"/>
<path d="M704 509.058C706.648 509.058 710.653 510.499 713.128 507.927C717.419 503.468 720.727 495.883 724.452 490.019C730.356 480.722 736.528 472.42 741.911 461.931C754.433 437.531 764.21 405.274 771.192 374.275C772.256 369.549 772.434 363.392 774.234 359.383C776.858 353.541 778.51 347.975 780.12 340.909C782.878 328.809 788.702 319.214 791.444 307.26C793.25 299.384 795.339 290.178 798.477 283.791C800.678 279.313 801.095 273.613 803.665 268.899C808.507 260.018 812.265 241 819.328 241C824.736 241 831.285 247.381 835.191 254.761C837.325 258.795 839.474 262.35 841.775 265.883" stroke="white" stroke-width="11" stroke-linecap="round" stroke-linejoin="round"/>
<path d="M745.522 998.688C737.102 991.587 730.886 984.993 729.278 972.516C728.797 968.78 729.086 964.834 729.086 961.073C729.086 952.893 733.61 948.461 736.487 941.585C742.054 928.28 744.27 917.435 745.33 902.723C745.651 898.266 745.286 893.805 745.522 889.354C745.84 883.362 753.158 890.627 754.749 892.3C765.289 903.381 770.197 913.978 771.81 930.878C772.248 935.466 772.338 939.983 772.338 944.588C772.338 950.469 775.839 946.913 778.874 945.097C782.675 942.825 784.379 939.999 786.467 935.58C787.759 932.846 788.653 924.064 789.639 926.969C792.22 934.575 797.394 940.695 800.02 948.95C801.229 952.751 801.195 962.134 805.979 960.166C813.54 957.057 820.499 950.614 825.25 943.115C837.206 924.244 829.36 905.167 826.452 884.595C825.429 877.362 830.332 870.05 833.468 864.258C836.716 858.259 836.352 865.748 836.352 869.016C836.352 872.74 836.113 876.174 837.361 879.667C839.806 886.511 841.152 898.008 845.963 902.95C849.715 906.804 855.027 913.47 859.9 915.073C865.103 916.785 870.504 918.8 874.894 922.664C880.071 927.22 884.101 933.68 889.408 937.96C892.653 940.577 895.744 943.035 898.827 945.891C904.594 951.231 905.337 955.87 906.901 963.509C907.006 964.023 908.223 968.762 909.063 966.285C912.348 956.605 918.642 947.608 924.586 939.999C928.86 934.528 931.258 928.799 933.333 921.758C934.224 918.735 932.082 916.212 932.756 913.827C933.209 912.223 934.596 916.419 935.495 917.735C937.221 920.262 938.884 922.698 939.965 925.723C942.533 932.913 944.214 941.713 944.482 949.516C944.635 953.965 944.142 957.78 949 957.9C955.008 958.049 960.795 954.942 965.147 950.196C972.442 942.242 973.62 933.743 975.047 922.551C975.864 916.14 976.01 912.776 980.622 919.322C985.636 926.439 989.211 935.001 991.387 943.851C994.292 955.666 998.147 967.388 999.701 979.597C1000.36 984.747 999.752 990.307 999.461 995.459C999.431 995.99 999.663 997.475 999.845 996.989C1002.3 990.44 1004.62 983.859 1007.25 977.388C1010.72 968.818 1013.98 954.769 1020.32 948.383C1023.72 944.956 1028.4 943.252 1032.04 940.112C1035.58 937.07 1038.74 936.322 1042.91 935.24C1048.67 933.742 1053.05 926.161 1054.58 919.888C1054.87 918.7 1055.93 911.421 1056.02 912.41C1056.72 919.808 1056.13 928.091 1055.45 935.41C1054.48 945.792 1051.57 955.953 1048.38 965.661C1048.22 966.161 1046.76 973.083 1045.84 973.083C1041.12 973.083 1054.76 969.49 1059.15 967.474C1068.48 963.188 1076.74 957.678 1082.7 947.873C1088.26 938.714 1091.24 928.365 1091.49 917.169C1091.5 916.859 1091.09 908.807 1091.73 908.388C1092.84 907.661 1092.26 911.32 1092.4 912.807C1092.78 916.668 1092.8 917.953 1093.08 921.758C1093.98 934.287 1095 946.393 1095 959.033C1095 968.091 1091.69 977.58 1088.03 985.659C1086.12 989.875 1085.59 994.914 1081.93 997.612C1078.38 1000.23 1074.36 1002.77 1070.49 1004.64C1064.25 1007.65 1070.18 1007.44 1065.46 1013" stroke="#E25E32" stroke-width="11" stroke-linecap="round" stroke-linejoin="round"/>
<path d="M750 993.722C750.058 993.303 753.047 964.963 755.195 971.735C756.53 975.947 757.292 980.507 758.177 984.881C758.837 988.147 757.387 997.305 761.64 992.229C765.917 987.125 768.471 980.76 768.999 973.515C769.472 967.02 768.455 966.999 770.298 972.252C772.345 978.089 777.481 987.374 781.36 991.426C783.566 993.729 786.69 994.87 789.008 997.109C790.616 998.662 789.461 997.585 791.172 995.903C795.503 991.647 801.129 986.931 806.756 986.259C813.902 985.406 821.777 986.861 828.785 985.341C835.455 983.893 840.681 974.286 842.253 967.2C843.675 960.786 842.801 970.301 842.108 971.678C839.919 976.033 839.174 976.703 839.174 981.782C839.174 986.234 838.913 992.394 841.387 996.19C842.615 998.075 848.097 994.321 848.987 993.837C855.99 990.022 860.31 986.231 864.089 978.337C864.683 977.097 866.013 973.293 866.013 974.721C866.013 978.338 872.803 983.519 874.671 986.087C876.799 989.012 879.869 999.135 884.195 996.363C890.333 992.428 893.456 984.461 895.738 977.017C897.869 970.067 906.888 967.731 912.188 970.989C918.046 974.591 922.339 973.044 925.559 966.799C925.623 966.674 926.307 971.852 926.425 972.941C926.893 977.266 926.488 981.899 925.752 986.144C924.447 993.672 921.506 993.87 923.635 1002.39C924.591 1006.21 925.823 1010.23 928.83 1012.44C932.49 1015.12 934.817 1007.47 935.948 1004.74C938.775 997.925 942.602 992.09 947.733 987.637C954.033 982.168 960.266 998.993 964.134 1002.91C965.593 1004.38 968.169 1007.49 969.281 1004.46C971.528 998.327 974.076 992.527 975.149 985.915C975.279 985.112 976.481 978.829 977.025 980.289C978.31 983.74 980.392 986.758 981.834 990.163C983.488 994.066 984.84 998.08 986.259 1002.1C987.318 1005.1 1003.81 994.662 1005.5 993.435C1013.41 987.678 1017.24 979.231 1022.62 970.76C1025.63 966.027 1027.51 984.802 1028.49 987.292C1030.53 992.486 1035.78 995.95 1038.73 1000.44C1039.9 1002.2 1040.26 1002.32 1041.86 1000.84C1047.34 995.757 1048.68 994.468 1055.33 996.363C1059.15 997.452 1069.51 988.725 1066.44 991.655C1062.77 995.159 1061.8 1001.02 1060.81 1006.12" stroke="#F2CB43" stroke-width="11" stroke-linecap="round" stroke-linejoin="round"/>
<path d="M1119.31 588.722C1119.31 574.866 1118.72 562.739 1128.83 551.877C1132.65 547.77 1136.59 543.107 1141.82 540.91C1146.96 538.749 1150.8 534.378 1155.86 532.156C1161.72 529.586 1166.87 525.102 1172.7 521.862C1178.66 518.552 1184.67 515.696 1190.5 512.146C1195.16 509.304 1202.47 505.151 1205.6 500.794C1210.6 493.831 1214.83 485.622 1216.66 477.225C1217.53 473.276 1226.34 446.697 1223.59 445.912C1221.72 445.377 1221.42 444.806 1219.6 446.537C1218.52 447.558 1211.2 454.522 1214.16 454.522C1222.08 454.522 1224.64 455.781 1220.61 463.853C1219.05 466.968 1217.6 468.417 1217.19 472.319C1216.41 479.729 1217.03 487.174 1213.01 493.772C1211.01 497.046 1209.16 500.523 1206.85 503.584C1203.05 508.607 1201.02 514.702 1196.56 519.361C1189.76 526.457 1177.68 528.136 1168.66 530.328C1162.93 531.719 1159.23 535.097 1153.84 537.447C1149.14 539.502 1144.6 543.586 1140.95 547.163C1137.05 550.994 1132.87 554.862 1127.96 557.361C1123.95 559.407 1119.2 561.485 1116.28 565.057C1114.94 566.686 1114.04 568.536 1112.72 570.155C1111.95 571.094 1110.71 571.584 1109.98 572.464C1108.7 573.999 1113.3 570.232 1114.83 568.953C1117.14 567.028 1121.26 560.973 1123.88 560.391C1124.11 560.34 1121.46 566.86 1121.23 567.366C1120.06 569.956 1118.77 572.537 1118.06 575.302C1117.4 577.839 1113.68 582.968 1115.89 580.016C1119.59 575.083 1122.68 569.893 1125.27 564.287C1128.3 557.726 1130.07 551.229 1132.29 544.566" stroke="#ED544E" stroke-width="11" stroke-linecap="round" stroke-linejoin="round"/>
<path d="M728.015 513.812C729.415 513.144 731.012 512.788 732.212 511.806C733.175 511.017 734.007 510.066 734.759 509.074C738.119 504.639 743.748 495.462 746.241 491.454C750.388 484.79 754.471 478.095 758.423 471.314C758.613 470.989 758.633 471.295 758.647 471.539C758.875 475.526 758.375 479.52 757.658 483.43C756.668 488.826 755.144 494.066 753.936 499.413C752.326 506.534 749.488 513.229 747.654 520.279C747.041 522.632 746.229 524.876 745.542 527.194C745.467 527.447 747.066 526.232 747.086 526.218C749.33 524.601 751.528 522.813 753.408 520.78C755.243 518.796 756.73 516.506 758.845 514.788C759.78 514.03 760.86 513.502 761.802 512.756C763.501 511.408 765.012 509.815 766.553 508.295C767.705 507.159 769.082 506.116 770.143 504.89C770.526 504.447 770.737 504.091 771.251 503.834" stroke="white" stroke-width="11" stroke-linecap="round" stroke-linejoin="round"/>
<path d="M595.067 206C569.793 212.023 544.112 216.348 518.799 222.623C507.184 225.502 501.768 226.93 493.566 234.648C484.064 243.587 474.148 254.565 470.317 267.469C469.16 271.365 471.424 273.852 473.081 277.159C475.596 282.178 484.487 280.314 489.738 281.121C511.517 284.464 533.1 277.77 553.177 269.52C571.722 261.899 589.996 250.755 604.707 237.123C609.801 232.403 614.452 227.803 616.473 220.996C620.038 208.988 604.638 207.273 596.343 207.273" stroke="#F2CB43" stroke-width="11" stroke-linecap="round" stroke-linejoin="round"/>
</svg>
