<svg width="1440" height="1082" viewBox="0 0 1440 1082" fill="none" xmlns="http://www.w3.org/2000/svg">
<path d="M823.718 389.733C814.86 389.566 803.099 386.41 796.352 394.121C791.354 399.834 790.056 408.804 790.893 416.131C791.907 424.998 797.451 429.651 804.437 434.236C809.195 437.358 809.463 437.862 815.563 436.689C819.261 435.978 822.502 435.862 826.205 435.756C829.998 435.648 837.519 428.92 838.022 425.149C838.704 420.033 839.888 414.635 839.888 409.497C839.888 402.642 836.617 399.228 832.528 393.914C831.624 392.739 830.842 391.599 829.28 391.599C827.705 391.599 824.459 391.837 823.718 390.355" stroke="black" stroke-width="11" stroke-linecap="round" stroke-linejoin="round"/>
<path d="M780.182 385.379C775.989 392.423 771.094 399.687 770.197 407.769C769.832 411.05 769.609 414.124 769.609 417.444C769.609 421.614 770.42 420.47 773.824 420.208C774.581 420.15 776.189 415.492 776.485 414.507C777.653 410.614 778.581 406.954 779.595 403.07C780.347 400.188 782.926 397.776 783.292 394.846C783.652 391.967 783.806 388.905 783.914 386.001C783.985 384.087 781.611 384.757 780.182 384.757" stroke="black" stroke-width="11" stroke-linecap="round" stroke-linejoin="round"/>
<path d="M837.4 415.854C855.552 414.166 872.82 409.013 891.163 409.013C896.158 409.013 900.978 408.391 905.951 408.391C908.067 408.391 910.193 408.33 912.309 408.391C914.575 408.456 916.595 409.635 918.874 409.635" stroke="black" stroke-width="11" stroke-linecap="round" stroke-linejoin="round"/>
<path d="M948.727 440.732C948.727 445.506 949.349 450.365 949.349 455.036" stroke="black" stroke-width="11" stroke-linecap="round" stroke-linejoin="round"/>
<path d="M780.182 401.55C783.966 401.601 787.68 402.793 791.377 402.793" stroke="black" stroke-width="11" stroke-linecap="round" stroke-linejoin="round"/>
<path d="M780.804 398.44C783.099 398.807 790.448 399.377 791.999 400.928" stroke="black" stroke-width="11" stroke-linecap="round" stroke-linejoin="round"/>
<path d="M906.14 664.455C904.743 674.931 904.926 685.276 904.607 695.8C904.338 704.682 901.208 713.343 900.348 722.205C899.414 731.82 903.621 729.973 911.932 732.937C922.687 736.772 933.017 743.197 942.936 748.865C952.53 754.347 960.062 760.566 969.682 754.572C975.469 750.965 980.66 746.897 986.206 742.988C989.53 740.645 997.072 738.534 997.96 733.874C1001.76 713.907 997.081 692.755 1000.86 672.462C1002.81 661.981 990.147 665.988 982.714 665.988C969.206 665.988 955.691 667.521 942.084 667.521C937.866 667.521 902.456 669.576 901.626 666.67C900.85 663.957 903.473 660.051 904.607 657.641C910.01 646.159 936.424 651.338 948.302 650.571C960.87 649.76 973.288 647.59 985.865 647.59C990.237 647.59 998.531 646.287 998.531 651.423C998.531 655.256 998.531 659.089 998.531 662.922" stroke="#8CCFE7" stroke-width="11" stroke-linecap="round" stroke-linejoin="round"/>
<path d="M922.751 647.826C922.681 646.979 921.154 628.644 920.961 626.239C920.79 624.11 920.395 621.974 920.552 619.844C920.566 619.651 921.981 619.742 922.035 619.742C925.335 619.742 928.634 619.742 931.934 619.742C935.203 619.742 938.155 618.824 936.563 623.067C933.962 630.004 933.341 637.28 933.341 644.603" stroke="#F2CB43" stroke-width="11" stroke-linecap="round" stroke-linejoin="round"/>
<path d="M952.598 646.618C951.328 639.221 951.217 632.167 951.217 624.698C951.217 622.154 950.251 619.786 953.34 620.146C955.675 620.417 958.001 620.376 960.348 620.376C961.259 620.376 962.449 620.016 962.624 621.194C963.057 624.09 962.727 627.277 962.727 630.197C962.727 635.057 962.727 639.917 962.727 644.777" stroke="#F2CB43" stroke-width="11" stroke-linecap="round" stroke-linejoin="round"/>
<path d="M918.989 612.088V618.994H937.405V613.725C937.405 613.129 937.324 612.471 937.43 611.884C937.49 611.558 938.356 611.402 938.121 611.168C937.697 610.743 934.22 611.168 933.671 611.168H924.284C923.026 611.168 918.989 610.366 918.989 612.088Z" stroke="#F28E8B" stroke-width="11" stroke-linecap="round" stroke-linejoin="round"/>
<path d="M949 612.088V618.994H967.416V613.725C967.416 613.129 967.335 612.471 967.441 611.884C967.501 611.558 968.366 611.402 968.132 611.168C967.708 610.743 964.231 611.168 963.682 611.168H954.295C953.037 611.168 949 610.366 949 612.088Z" stroke="#F28E8B" stroke-width="11" stroke-linecap="round" stroke-linejoin="round"/>
<path d="M1024.87 223.313C1028.16 224.79 1033.65 227.247 1039.22 229.044C1034.65 237.411 1030.74 241.727 1032.83 253.345C1034.05 260.11 1043.2 263.698 1048.93 266.733C1056.53 270.756 1053.77 268.997 1046.03 275.959C1036.59 284.461 1032.82 288.656 1030.11 300.745C1027.32 313.255 1028.99 323.246 1034.64 334.756C1038.55 342.737 1046.69 351.898 1052.91 358.456C1058.75 364.61 1075.13 354.531 1080.05 359.723C1081.34 361.088 1071.88 369.337 1070.91 370.396C1067.28 374.346 1064.59 379.223 1062.14 383.965C1057.06 393.765 1054.65 404.517 1055.62 415.444C1056.68 427.293 1061.02 436.692 1063.76 448.19C1066.49 459.61 1068.91 468.922 1075.16 479.126C1087.23 498.844 1119.61 488.633 1137.76 484.01C1143.51 482.546 1166.53 469.264 1167.61 479.669C1168.58 489.027 1168.24 498.69 1174.94 506.263C1185.92 518.683 1211.95 520.427 1226.41 512.776C1245.37 502.736 1269.86 500.04 1286.92 486.724C1292.15 482.647 1297.44 463.289 1302.93 471.527C1314.31 488.586 1325.35 501.559 1346.53 501.559C1357.54 501.559 1366.05 493.676 1375.3 488.714C1387.18 482.34 1399.15 478.453 1403.7 464.291C1406.22 456.46 1403.92 449.185 1403.7 441.315C1403.26 425.461 1387.44 414.026 1385.79 398.8C1385.17 393.065 1383.01 377.792 1389.41 375.824C1395.19 374.045 1401.03 374.058 1406.78 371.663C1422.37 365.168 1418.19 347.287 1415.82 333.852L1415.75 333.436C1414.23 324.842 1413.03 318.038 1406.96 311.961C1402.11 307.115 1399.97 302.376 1396.65 296.764C1392.47 289.722 1381.29 284.223 1390.95 280.844C1398.17 278.316 1402.88 277.952 1403.61 269.537C1404.81 255.72 1405.06 235.653 1399.54 223.042C1393.62 209.515 1379.65 206.507 1367.7 198.799C1361.1 194.541 1372.37 186.513 1375.12 182.517C1378.26 177.946 1380.89 173.571 1383.26 168.496C1388.16 158.002 1382.05 141.501 1373.31 135.208C1357.07 123.518 1325.13 127.866 1306.28 129.69C1298.72 130.421 1273.44 139.907 1273.44 127.791C1273.44 120.606 1272.67 113.717 1271.72 106.624C1270.02 93.836 1240.24 80.0514 1229.48 79.8485C1212.02 79.5189 1203.88 85.8837 1189.68 94.8643C1180.78 100.494 1172.41 103.472 1162.72 107.528C1155.39 110.6 1146.44 118.202 1146.44 107.528C1146.44 98.5359 1143.2 83.3689 1133.05 81.1149C1119.89 78.1896 1103.01 75.6723 1089.36 78.4011C1071.44 81.9862 1062.04 99.7771 1055.26 115.036C1053.28 119.499 1055.57 135.701 1051.55 135.299C1045.27 134.67 1032.18 132.993 1027.49 137.922C1020.2 145.576 1006.01 157.271 1004.97 168.225C1004.31 175.139 1001.5 191.889 1005.78 198.076C1010.62 205.06 1017.06 219.808 1024.87 223.313Z" fill="white"/>
<path d="M1055.26 221.504C1055.23 222.796 1055.88 230.279 1053.63 230.912C1046.41 232.942 1031.35 226.224 1024.87 223.313C1017.06 219.808 1010.62 205.06 1005.78 198.076C1001.5 191.889 1004.31 175.139 1004.97 168.225C1006.01 157.271 1020.2 145.576 1027.49 137.922C1032.18 132.993 1045.27 134.67 1051.55 135.299C1055.57 135.701 1053.28 119.499 1055.26 115.036C1062.04 99.7771 1071.44 81.9862 1089.36 78.4011C1103.01 75.6723 1119.89 78.1896 1133.05 81.1149C1143.2 83.3689 1146.44 98.5359 1146.44 107.528C1146.44 118.202 1155.39 110.6 1162.72 107.528C1172.41 103.472 1180.78 100.494 1189.68 94.8643C1203.88 85.8837 1212.02 79.5189 1229.48 79.8485C1240.24 80.0514 1270.02 93.836 1271.72 106.624C1272.67 113.717 1273.44 120.606 1273.44 127.791C1273.44 139.907 1298.72 130.421 1306.28 129.69C1325.13 127.866 1357.07 123.518 1373.31 135.208C1382.05 141.501 1388.16 158.002 1383.26 168.496C1380.89 173.571 1378.26 177.946 1375.12 182.517C1372.37 186.513 1361.1 194.541 1367.7 198.799C1379.65 206.507 1393.62 209.515 1399.54 223.042C1405.06 235.653 1404.81 255.72 1403.61 269.537C1402.88 277.952 1398.17 278.316 1390.95 280.844C1381.29 284.223 1392.47 289.722 1396.65 296.764C1399.97 302.376 1402.11 307.115 1406.96 311.961C1413.13 318.135 1414.27 325.06 1415.82 333.852C1418.19 347.287 1422.37 365.168 1406.78 371.663C1401.03 374.058 1395.19 374.045 1389.41 375.824C1383.01 377.792 1385.17 393.066 1385.79 398.8C1387.44 414.026 1403.26 425.461 1403.7 441.315C1403.92 449.185 1406.22 456.46 1403.7 464.291C1399.15 478.453 1387.18 482.34 1375.3 488.714C1366.05 493.676 1357.54 501.559 1346.53 501.559C1325.35 501.559 1314.31 488.586 1302.93 471.527C1297.44 463.289 1292.15 482.647 1286.92 486.724C1269.86 500.04 1245.37 502.736 1226.41 512.776C1211.95 520.427 1185.92 518.683 1174.94 506.263C1168.24 498.69 1168.58 489.027 1167.61 479.669C1166.53 469.264 1143.51 482.546 1137.76 484.01C1119.61 488.633 1087.23 498.844 1075.16 479.126C1068.91 468.922 1066.49 459.61 1063.76 448.19C1061.02 436.692 1056.68 427.293 1055.62 415.444C1054.65 404.517 1057.06 393.765 1062.14 383.965C1064.59 379.223 1067.28 374.346 1070.91 370.396C1071.88 369.337 1081.34 361.088 1080.05 359.723C1075.13 354.531 1058.75 364.61 1052.91 358.456C1046.69 351.898 1038.55 342.737 1034.64 334.756C1028.99 323.246 1027.32 313.255 1030.11 300.745C1032.82 288.656 1036.59 284.461 1046.03 275.959C1053.77 268.997 1056.53 270.756 1048.93 266.733C1043.2 263.698 1034.05 260.11 1032.83 253.345C1030.53 240.56 1035.49 236.618 1040.61 226.389" stroke="black" stroke-width="11" stroke-linecap="round" stroke-linejoin="round"/>
<path d="M1024.69 468.5C1015 458.762 1019.82 437.768 1023.6 427.075C1042.52 428.418 1059.85 447.552 1045.99 464.576C1042.23 469.187 1030.26 474.098 1024.69 468.5Z" fill="white"/>
<path d="M1023.62 427C1019.85 437.67 1014.97 458.739 1024.69 468.5C1030.26 474.098 1042.23 469.187 1045.99 464.576C1060.36 446.923 1041.2 427 1021.49 427" stroke="black" stroke-width="11" stroke-linecap="round" stroke-linejoin="round"/>
<path d="M984.013 472.804C975.678 462.385 979.791 462.177 981.842 449.104C984.186 444.416 1008.32 455.572 1002.01 465.386C999.15 469.842 988.361 478.239 984.013 472.804Z" fill="white" stroke="black" stroke-width="11" stroke-linecap="round" stroke-linejoin="round"/>
<path d="M1119.58 176.135C1121.02 198.805 1120.47 221.583 1120.47 244.293C1120.47 251.893 1120.47 259.494 1120.47 267.095C1120.47 268.709 1119.56 273.913 1120.47 275.174C1122.13 277.469 1130.77 277.206 1132.32 277.306C1138.34 277.693 1144.38 277.851 1150.41 277.851C1160.01 277.851 1169.3 280.62 1178.87 281.222C1191.44 282.012 1204.2 281.42 1216.79 281.42C1228.26 281.42 1239.66 282.312 1251.14 282.312C1255.93 282.312 1260.72 282.312 1265.51 282.312C1270.66 282.312 1275.45 284.277 1275.67 278.049C1276.18 264.016 1272.06 250.361 1271.06 236.411C1270.25 224.971 1269.76 213.466 1269.48 202.01C1269.33 195.929 1268.59 189.902 1268.59 183.769C1268.59 182.822 1269.12 179.776 1268.09 179.208C1261.18 175.407 1250.26 176.06 1242.61 175.243C1202.33 170.936 1162.56 175.243 1122.26 175.243" stroke="black" stroke-width="11" stroke-linecap="round" stroke-linejoin="round"/>
<path d="M1173.12 283.205C1171.86 289.615 1174.01 298.496 1167.76 301.743C1164.41 303.488 1161.93 305.862 1158 306.353C1155.41 306.677 1156.75 308.748 1157.5 310.864C1158.35 313.23 1157.92 313.541 1160.62 313.541C1168.01 313.541 1175.12 315.649 1182.33 317.11C1188.6 318.378 1195.14 318.287 1201.52 318.894C1206.61 319.379 1211.2 320.679 1216.34 320.679C1220.93 320.679 1229.05 322.442 1233.24 320.58C1234.43 320.052 1233.79 314.265 1233.79 313.343C1233.79 308.535 1234.16 307.295 1229.13 307.295C1220.08 307.295 1219.26 304.694 1217.33 295.894C1216.32 291.259 1216.84 286.149 1216.84 281.42" stroke="black" stroke-width="11" stroke-linecap="round" stroke-linejoin="round"/>
<path d="M1134.75 352.8C1162.99 345.188 1190.28 342.985 1219.36 342.985C1233.55 342.985 1247.61 341.369 1261.74 341.201C1268.74 341.117 1275.33 339.416 1282.37 339.416C1287.43 339.416 1290.55 354.142 1290.89 358.649C1291.12 361.7 1293.14 364.002 1293.96 367.076C1294.75 370 1294.12 372.894 1295.15 375.701C1295.63 376.973 1299.38 382.355 1297.14 383.136C1287.81 386.381 1277.05 385.838 1267.4 387.597C1250.6 390.659 1233.38 393.832 1216.29 394.636C1203.86 395.221 1191.39 394.221 1178.96 394.934C1165.47 395.707 1151.2 396.275 1137.92 398.998C1136.55 399.279 1129.49 399.981 1129.49 398.255C1129.49 389.521 1131 380.534 1131.18 371.735C1131.28 366.783 1132.96 362.15 1132.96 357.261" stroke="black" stroke-width="11" stroke-linecap="round" stroke-linejoin="round"/>
<path d="M1332.83 339.416C1328.72 339.416 1311.31 336.864 1308.54 342.093C1304.37 349.973 1304.65 357.476 1305.61 366.53C1306.3 372.974 1306.08 378.455 1309.18 383.979C1313.34 391.366 1317.95 391.166 1325.69 391.166C1328.62 391.166 1329.74 389.18 1332.33 388.44C1333.09 388.224 1333.3 386.596 1333.72 386.011C1334.61 384.774 1336.22 385.034 1337.29 384.028C1341.33 380.208 1338.13 369.487 1339.52 364.498C1341.94 355.795 1337.84 347.997 1331.93 342.093" stroke="black" stroke-width="11" stroke-linecap="round" stroke-linejoin="round"/>
<path d="M1321.23 342.093C1321.23 346.494 1320.91 350.795 1321.92 355.08C1322.49 357.479 1320.74 357.86 1318.55 358.104C1314.7 358.531 1310.81 359.045 1306.95 359.045" stroke="black" stroke-width="11" stroke-linecap="round" stroke-linejoin="round"/>
<path d="M1322.12 357.261C1326.45 357.261 1332.53 358.301 1336.4 356.369" stroke="black" stroke-width="11" stroke-linecap="round" stroke-linejoin="round"/>
<path d="M1139.43 190C1134.51 199.559 1136.26 208.376 1136.49 219.363C1136.74 230.653 1136.91 241.93 1136.91 253.221C1136.91 256.192 1135.75 261.079 1139.06 262.26C1143.15 263.717 1148.37 262.809 1152.59 262.809C1164.38 262.809 1176.17 262.809 1187.96 262.809C1202.48 262.809 1216.82 266.111 1231.16 268.402C1235.73 269.131 1239.96 270 1244.6 270C1249.3 270 1253.07 267.473 1257.67 267.303C1262.13 267.139 1258.95 241.596 1258.23 237.64C1256.43 227.824 1255.63 218.532 1256.83 208.577C1257.1 206.315 1258.27 197.527 1256.83 195.593C1254.31 192.23 1247.39 196.562 1244.42 196.991C1235.23 198.32 1226.69 195.279 1217.73 194.295C1212.22 193.69 1207.11 191.047 1201.58 190.899C1181.2 190.353 1160.74 190 1140.27 190" stroke="black" stroke-width="11" stroke-linecap="round" stroke-linejoin="round"/>
<path d="M364.229 444.674C372.558 456.176 393.421 458.14 406.428 459.46C415.522 458.111 421.509 455.897 428.302 450.149C428.988 449.569 432.865 448.857 430.649 447.447C427.74 445.596 424.679 444.726 421.831 442.469C417.219 438.815 412.45 434.926 408.39 430.664C406.9 429.099 394.589 419.974 396.23 417.864C398.841 414.507 401.062 409.832 404.053 406.557C419.402 389.745 423.822 369.646 423.822 347.177V291.709C423.822 282.68 420.879 274.969 419.911 266.251C419.569 263.172 417.699 260.599 416.071 258.073C410.426 249.314 405.904 238.75 398.932 230.979C385.033 215.484 362.74 205.273 344.46 196.133C332.333 190.07 318.702 187.17 305.543 184.37L305.347 184.328C291.021 181.28 275.601 179.04 260.973 177.644C236.671 175.324 211.514 175.143 187.868 182.053C165.407 188.616 142.173 198.917 121.52 209.787C107.801 217.007 90.912 222.969 79.7764 233.965C68.8192 244.785 62.5543 259.169 56.5935 273.22C51.9008 284.281 50.1072 300.596 51.6155 312.474C52.5636 319.94 52.8233 327.839 55.4556 334.946C56.9152 338.887 59.0113 341.794 59.0113 346.111C59.0113 355.847 61.3245 362.764 64.1315 372.067C67.8823 384.498 68.5758 397.573 71.5272 410.184C73.385 418.122 77.8066 424.109 82.1231 430.878C94.2981 449.97 106.366 464.418 124.151 478.524C141.894 492.595 154.558 510.402 178.766 510.738C202.979 511.074 227.438 509.275 250.59 501.706C263.28 497.558 273.745 490.344 285.222 483.786C295.417 477.961 305.835 472.56 315.73 466.221C322.548 461.853 328.729 456.642 336.211 453.421C340.309 451.656 343.272 449.375 346.309 446.096C347.246 445.084 356.048 432.181 356.976 432.94C358.408 434.112 357.616 437.343 358.825 438.771C360.538 440.796 362.58 442.396 364.229 444.674Z" fill="white"/>
<path d="M407.182 459.536C394.241 458.213 372.721 456.4 364.229 444.674C362.58 442.396 360.538 440.796 358.825 438.771C357.616 437.343 358.408 434.112 356.976 432.94C356.048 432.181 347.246 445.084 346.309 446.096C343.272 449.375 340.309 451.656 336.211 453.421C328.729 456.642 322.548 461.853 315.73 466.221C305.835 472.56 295.417 477.961 285.222 483.786C273.745 490.344 263.28 497.558 250.59 501.706C227.438 509.275 202.979 511.074 178.766 510.738C154.558 510.402 141.894 492.595 124.151 478.524C106.366 464.418 94.2981 449.97 82.1231 430.878C77.8066 424.109 73.385 418.122 71.5272 410.184C68.5758 397.573 67.8823 384.498 64.1315 372.067C61.3245 362.764 59.0113 355.847 59.0113 346.111C59.0113 341.794 56.9152 338.887 55.4556 334.946C52.8233 327.839 52.5636 319.94 51.6155 312.474C50.1072 300.596 51.9008 284.281 56.5935 273.22C62.5543 259.169 68.8192 244.785 79.7764 233.965C90.912 222.969 107.801 217.007 121.52 209.787C142.173 198.917 165.407 188.616 187.868 182.053C211.514 175.143 236.671 175.324 260.973 177.644C275.601 179.04 291.021 181.28 305.347 184.328C318.567 187.141 332.273 190.04 344.46 196.133C362.74 205.273 385.033 215.484 398.932 230.979C405.904 238.75 410.426 249.314 416.071 258.073C417.699 260.599 419.569 263.172 419.911 266.251C420.879 274.969 423.822 282.68 423.822 291.709C423.822 310.199 423.822 328.688 423.822 347.177C423.822 369.646 419.402 389.745 404.053 406.557C401.062 409.832 398.841 414.507 396.23 417.864C394.589 419.974 406.9 429.099 408.39 430.664C412.45 434.926 417.219 438.815 421.831 442.469C424.679 444.726 427.74 445.596 430.649 447.447C432.865 448.857 428.988 449.569 428.302 450.149C421.379 456.008 415.293 458.195 405.902 459.536" stroke="black" stroke-width="11" stroke-linecap="round" stroke-linejoin="round"/>
<path d="M173.546 270.855C167.36 270.855 161.094 270.597 154.919 271.011C148.54 271.438 143.494 274.342 137.812 276.934C130.459 280.288 126.825 286.133 123.276 293.379C120.705 298.628 117.431 304.132 117.431 310.136C117.431 318.059 120.699 325.417 125.147 331.841C131.614 341.184 140.979 349.881 152.893 349.416C164.683 348.957 181.789 339.801 186.835 328.763C189.422 323.103 185.755 316.002 180.833 312.357C173.14 306.658 168.375 311.65 161.076 314.188C156.506 315.778 169.433 309.069 174.092 307.758C177.731 306.735 181.234 310.186 183.639 312.591C186.775 315.726 189.679 321.001 189.679 325.567" stroke="black" stroke-width="11" stroke-linecap="round" stroke-linejoin="round"/>
<path d="M212.126 254.02C203.392 263.283 197.707 271.715 195.291 283.948C193.662 292.194 193.145 300.651 199.811 306.472C205.204 311.181 212.316 315.046 219.608 315.046C225.906 315.046 236.343 314 239.599 307.953C242.334 302.873 246.278 298.895 248.523 293.379C250.075 289.563 250.004 285.828 250.004 281.805C250.004 276.089 245.1 271.61 241.547 267.347C234.741 259.18 226.95 254.703 216.334 256.826" stroke="black" stroke-width="11" stroke-linecap="round" stroke-linejoin="round"/>
<path d="M165.129 411.143C169.708 427.457 181.681 440.921 190.926 454.789C193.519 458.677 197.318 462.819 198.798 467.259" stroke="black" stroke-width="11" stroke-linecap="round" stroke-linejoin="round"/>
<path d="M140.578 425.874C150.392 418.838 160.68 411.774 171.442 406.233C174.455 404.682 177.272 402.847 180.561 402.025" stroke="black" stroke-width="11" stroke-linecap="round" stroke-linejoin="round"/>
<path d="M195.291 394.309C202.509 403.347 209.724 412.437 215.321 422.6C217.357 426.296 219.015 430.258 221.478 433.706C222.511 435.152 222.192 436.272 222.803 437.798C223.875 440.477 230.319 435.267 231.532 434.408C236.921 430.591 239.542 425.423 244.002 420.964C245.318 419.647 247.033 417.539 248.601 416.755" stroke="black" stroke-width="11" stroke-linecap="round" stroke-linejoin="round"/>
<path d="M193.888 395.712C201.047 388.724 211.819 386.869 219.14 380.28C220.712 378.865 222.956 376.969 224.752 376.071" stroke="black" stroke-width="11" stroke-linecap="round" stroke-linejoin="round"/>
<path d="M210.021 414.651C214.96 409.711 219.878 404.461 226.154 401.323" stroke="black" stroke-width="11" stroke-linecap="round" stroke-linejoin="round"/>
<path d="M250.004 365.55C250.906 373.584 251.617 381.684 253.121 389.632C254.036 394.47 256.317 399.482 256.317 404.402C256.317 407.682 257.719 410.637 257.719 413.949" stroke="black" stroke-width="11" stroke-linecap="round" stroke-linejoin="round"/>
<path d="M247.899 363.445C253.65 366.549 258.943 370.314 264.5 373.733C270.829 377.628 278.02 379.886 284.92 382.54C287.292 383.452 289.102 385.129 291.389 385.891" stroke="black" stroke-width="11" stroke-linecap="round" stroke-linejoin="round"/>
<path d="M254.914 397.114C259.406 393.227 263.314 387.832 268.631 385.034C269.69 384.476 272.818 382.349 273.151 381.683" stroke="black" stroke-width="11" stroke-linecap="round" stroke-linejoin="round"/>
<path d="M299.105 382.384C297.348 372.311 294.121 361.542 289.284 352.378C287.544 349.081 286.488 344.381 285.816 340.687C285.569 339.33 282.838 336.868 284.218 336.868C291.132 336.868 299.522 340.562 305.963 342.947C307.531 343.528 309.149 343.827 310.678 344.506C313.206 345.63 313.706 345.44 313.874 342.675C314.274 336.079 315.804 329.541 315.939 322.917C315.981 320.872 315.418 318.175 315.978 316.215C316.121 315.713 318.059 317.83 318.082 317.851C319.518 319.176 321.187 320.177 321.94 322.06C323.17 325.134 325.233 328.572 327.318 331.179C330.828 335.566 333.851 340.26 337.333 344.545C341.512 349.688 346.064 355.323 349.608 360.639" stroke="black" stroke-width="11" stroke-linecap="round" stroke-linejoin="round"/>
<path d="M340.86 290.571C353.84 306.901 367.721 319.934 372.861 340.493" stroke="black" stroke-width="11" stroke-linecap="round" stroke-linejoin="round"/>
<path d="M385.661 354.573C375.667 368.316 394.426 356.215 385.661 353.293" stroke="black" stroke-width="11" stroke-linecap="round" stroke-linejoin="round"/>
<path d="M640.979 293.896C634.064 285.626 627.51 276.826 619.318 269.761C616.518 267.346 613.271 263.742 609.826 262.176C606.894 260.843 604.504 258.663 601.673 257.146C598.41 255.398 594.796 254.355 591.491 252.603C582.892 248.042 570.352 249.358 560.988 249.358C552.802 249.358 542.874 248.086 535.352 252.035C522.075 259.005 505.133 262.664 495.599 275.318C492.764 279.081 491.026 283.364 489.109 287.609C488.197 289.629 486.407 291.364 485.621 293.328C484.049 297.259 483.72 301.024 481.808 304.848" stroke="#F2CB43" stroke-width="11" stroke-linecap="round" stroke-linejoin="round"/>
<path d="M617.614 290.246C617.555 290.827 617.517 294.26 616.479 294.87C613.81 296.435 606.694 290.54 605.324 289.637C598.233 284.963 591.392 279.891 584.028 275.643C577.871 272.091 570.807 269.395 564.03 267.246C557.263 265.1 550.486 264.691 543.383 264.691C538.286 264.691 532.749 264.06 527.807 265.502C525.161 266.273 522.709 267.665 520.262 268.909C518.18 269.967 517.501 272.017 515.719 273.331C514.21 274.442 512.302 274.637 511.013 276.129C509.252 278.169 507.945 280.701 506.47 282.944C502.957 288.291 498.238 293.091 494.464 298.318C492.907 300.473 481.902 313.451 485.458 314.34" stroke="#F2CB43" stroke-width="11" stroke-linecap="round" stroke-linejoin="round"/>
<path d="M581.837 292.436C581.735 297.348 580.789 296.976 575.996 297.547C563.352 299.052 550.145 298.547 537.42 298.237C530.215 298.061 523.89 297.058 516.936 299.332C512.282 300.853 508.294 301.987 504.037 304.483C497.981 308.033 494.488 314.648 490.732 320.344C486.946 326.083 480.858 331.353 475.967 336.245" stroke="#F2CB43" stroke-width="11" stroke-linecap="round" stroke-linejoin="round"/>
<path d="M563.584 318.721C554.233 320.591 544.98 321.85 535.595 323.224C532.796 323.633 530.444 325.15 527.563 325.455C521.316 326.115 514.856 326.753 508.58 326.753C499.899 326.753 491.218 326.753 482.538 326.753" stroke="#F2CB43" stroke-width="11" stroke-linecap="round" stroke-linejoin="round"/>
<path d="M551.901 361.069C533.644 372.586 510.186 381.624 488.095 378.187C480.177 376.955 468.26 374.133 464.284 366.18" stroke="#F2CB43" stroke-width="11" stroke-linecap="round" stroke-linejoin="round"/>
<path d="M563.584 373.482C551.775 386.267 537.176 400.824 519.613 405.446C511.686 407.532 502.198 407.353 494.058 407.028C485.391 406.681 477.33 404.771 470.531 399.483C467.82 397.375 463.129 392.811 459.903 391.735" stroke="#F2CB43" stroke-width="11" stroke-linecap="round" stroke-linejoin="round"/>
<path d="M459.904 313.61C450.229 317.181 440.651 320.72 438.161 331.377C437.145 335.729 437.269 339.922 437.269 344.357C437.269 355.606 440.62 361.753 451.385 365.694C460.317 368.963 471.074 367.708 478.522 361.597C485.775 355.646 488.701 342.965 487.203 333.973C485.587 324.276 481.725 316.539 471.748 314.137C465.653 312.67 455.716 312.306 450.371 315.963C446.3 318.748 440.92 323.681 440.92 328.943" stroke="#F2CB43" stroke-width="11" stroke-linecap="round" stroke-linejoin="round"/>
<path d="M411.27 643.932C401.943 613.578 389.328 584.077 377.789 554.546C393.859 543.364 429.4 521.2 443 522C456.6 522.8 491.849 540.714 507.774 549.571C510.765 553.227 514.725 555.827 518.761 558.209C522.09 560.173 524.979 562.798 528.298 564.773C530.981 566.371 533.952 567.39 536.625 568.954C540.962 571.493 542.531 577.175 545.85 580.737C549.174 584.304 554.42 583.863 558.876 583.743C565.211 583.571 572.338 582.948 577.914 579.562C583.431 576.212 588.526 572.296 594.188 569.162C598.371 566.846 601.791 564.092 604.865 560.42C607.461 557.32 610.362 554.583 612.881 551.402C616.162 547.257 617.09 542.315 618.444 537.305C619.16 534.653 620.001 532.033 620.275 529.289C620.329 528.746 619.947 527.558 620.482 527.665C622.404 528.049 624.239 528.515 626.149 529.081C631.963 530.804 637.501 530.765 643.494 531.051C650.574 531.388 657.614 532.105 664.709 532.156C668.743 532.186 672.544 532.191 676.491 531.189C679.275 530.483 681.325 528.661 680.396 532.433C678.341 540.772 676.616 549.185 675.04 557.656C672.828 569.546 671.343 581.151 671.343 593.244C671.343 600 671.206 607.89 672.241 614.528C673.556 622.956 677.91 630.598 680.672 638.577C682.032 642.506 685.026 645.554 685.026 649.841C685.026 657.163 683.242 664.752 682.4 672.023C681.645 678.542 680.05 684.503 680.05 691.165C680.05 695.349 679.571 699.023 678.806 703.12C676.548 715.22 676.557 727.9 676.353 740.16C676.297 743.545 676.319 746.932 676.319 750.318C676.319 751.057 676.897 752.708 676.18 752.529C674.949 752.222 674.074 751.143 672.587 751.078C669.048 750.924 665.42 750.964 661.876 751.078C652.681 751.375 643.126 751.342 634.027 752.737C615.719 755.543 597.811 759.961 579.78 764.07C570.657 766.148 561.298 766.707 552.208 769.045C540.994 771.93 530.229 776.28 519.107 779.48C506.64 783.067 494.17 785.774 481.508 788.524L480.512 788.74C473.94 790.167 467.432 792.246 460.817 793.439C459.726 793.636 459.076 793.811 458.502 792.886C455.669 788.322 451.597 784.731 448.759 780.067C447.116 777.368 447.778 773.766 446.755 770.842C445.19 766.372 442.672 763.508 440.397 759.509C437.638 754.658 436.345 748.521 434.523 743.269C432.016 736.039 429.643 728.754 427.198 721.502C424.808 714.411 423.3 708.754 417.938 703.742C412.963 699.091 411.27 689.872 411.27 683C411.27 678.47 409.069 680.355 410.268 676.308C411.262 672.953 411.885 670.107 412.306 666.564C412.708 663.187 413.21 659.888 413.239 656.475C413.281 651.674 412.886 649.194 411.27 643.932Z" fill="white" stroke="white" stroke-width="11" stroke-linecap="round" stroke-linejoin="round"/>
<path d="M396.447 949.476C388.789 973.351 381.256 996.873 368.874 1018.82C364.799 1026.05 361.733 1033.96 357.368 1040.97C354.53 1045.53 353.369 1047.06 359.165 1050.02C368.275 1054.67 379.158 1056.49 389.26 1054.93C397.654 1053.63 405.771 1051.33 414.207 1050.23C420.074 1049.47 423.905 1047.07 429.617 1049.12C439.344 1052.62 449.386 1055.94 458.364 1061.15C462.236 1063.4 470.115 1067.79 471.77 1072.34C472.061 1073.14 475.537 1076.06 476.297 1075.76C478.792 1074.79 481.244 1072.12 483.38 1070.55C486.369 1068.35 489.113 1065.9 492.018 1063.6C497.564 1059.21 503.186 1055.08 508.672 1050.61C510.896 1048.8 514.209 1045.24 517.172 1044.7C520.741 1044.05 525.539 1044.84 528.989 1045.12C539.602 1045.97 549.997 1047.95 560.258 1050.78C574.647 1054.75 589.387 1059.62 602.343 1067.19C607.003 1069.92 611.919 1072.76 616.613 1075.25C618.612 1076.3 619.47 1074.43 621.104 1073.17C630.905 1065.61 642.765 1061.2 652.408 1053.62C654.874 1051.68 656.413 1048.83 659.077 1047.19C660.046 1046.59 660.817 1046.57 662.014 1046.43C667.867 1045.72 673.712 1044.82 679.601 1044.46C698.503 1043.32 717.782 1050.54 734.815 1058C739.527 1060.07 743.615 1062.46 747.91 1065.19C750.468 1066.82 752.882 1068.47 755.788 1069.37C758.079 1070.08 760.334 1070.49 762.353 1071.86C763.145 1072.4 762.786 1069.62 762.768 1069.3C762.565 1065.78 761.244 1062.39 760.349 1059.01C758.42 1051.71 757.797 1044.16 755.788 1036.82C753.544 1028.63 751.171 1020.7 747.91 1012.84C744.544 1004.74 740.264 996.132 738.789 987.414C738.091 983.291 737.937 979.275 736.646 975.252C736.253 974.025 736.024 973.138 736.024 971.866" stroke="#ED544E" stroke-width="11" stroke-linecap="round" stroke-linejoin="round"/>
<path d="M448.235 369.717C439.81 376.235 433.391 385.217 431.913 395.725C430.376 406.66 429.22 416.544 430.927 427.517C432.699 438.909 438.189 447.566 445.859 455.811C450.306 460.592 453.064 466.679 456.352 472.268C459.219 477.143 463.864 480.123 466.172 485.317C471.158 496.537 475.4 507.422 478.279 519.396C481.826 534.154 481.452 545.643 477.651 560.156C476.408 564.903 474.461 570.052 472.046 574.326C469.661 578.544 467.737 583.228 465.14 587.285C461.633 592.764 464.444 590.674 468.414 588.406C475.132 584.567 480.122 580.262 484.377 573.743C488.598 567.275 492.392 560.195 497.112 554.102C502.048 547.73 508.455 543.813 511.999 536.166C518.334 522.496 524.913 508.27 524.913 492.805C524.913 482.112 520.554 472.797 513.165 465.407C509.985 462.227 506.117 460.101 502.672 457.246C499.203 454.372 496.685 451.343 493.076 448.637C489.77 446.157 486.656 443.736 484.377 440.207C482.681 437.581 480.606 435.178 479.4 432.27C478.442 429.96 477.882 427.305 475.23 426.396C469.618 424.472 466.242 413.716 464.782 408.459C464.065 405.88 464.584 403.245 464.333 400.612C463.957 396.66 462.764 392.659 462.764 388.685C462.764 385.046 463.951 381.24 464.333 377.609C464.434 376.651 465.992 372.712 465.992 375.367" stroke="#F2CB43" stroke-width="11" stroke-linecap="round" stroke-linejoin="round"/>
<path d="M411.639 954.679C400.612 980.034 388.211 1005.51 378.899 1031.62C377.088 1036.69 383.662 1025.41 383.982 1024.9C389.541 1015.96 395.775 1007.52 401.989 999.05C409.793 988.408 414.954 976.439 424.045 966.698C425.351 965.298 429.06 959.438 428.525 963.381C427.65 969.837 423.184 975.123 420.599 980.957C415.416 992.654 411.281 1004.95 407.158 1017.06C404.859 1023.81 402.555 1030.82 399.275 1037.17C398.405 1038.86 395.826 1042.46 398.198 1038.98C401.681 1033.87 404.179 1027.92 407.072 1022.48C411.565 1014.05 416.537 1006.3 422.02 998.49C428.094 989.843 432.334 980.838 436.925 971.437C439.05 967.086 442.327 962.206 445.283 958.341C447.091 955.975 446.532 957.235 446.532 959.849C446.532 971.52 442.502 983.378 440.07 994.699C437.83 1005.13 435.107 1015.47 432.618 1025.84C432.043 1028.24 431.799 1030.39 431.799 1032.82C431.799 1039.75 434.671 1024.41 434.815 1023.95C438.961 1010.67 446.407 998.822 451.184 985.782C454.253 977.405 456.854 969.098 460.317 960.882C460.63 960.14 462.816 952.556 462.816 955.756C462.816 965.174 460.871 973.837 459.025 983.068C455.483 1000.78 454.279 1019.19 448.557 1036.36C445.946 1044.19 450.903 1034.59 452.218 1032.31C459.855 1019.04 463.864 1004.11 471.345 990.865C473.521 987.013 476.538 983.303 477.979 979.061C478.745 976.806 478.666 974.576 479.53 972.255C481.101 968.034 483.491 961.44 483.752 957.005C484.28 948.022 481.836 974.906 481.253 983.886C480.424 996.65 476.773 1008.8 476.773 1021.71C476.773 1031.4 478.805 1044.94 475.997 1054.49C474.345 1060.11 475.512 1053.54 475.911 1051.43C477.701 1041.99 480.379 1032.77 483.407 1023.69C489.067 1006.71 495.148 988.129 497.364 970.273C497.862 966.266 498.484 954.174 498.484 958.212C498.484 968.483 496.669 978.3 495.124 988.409C494.094 995.153 494.764 1002.08 494.564 1008.87C494.294 1018.06 489.179 1027.08 489.179 1036.1C489.179 1037.75 489.179 1039.4 489.179 1041.05C489.179 1041.99 489.915 1039.32 490.299 1038.47C493.547 1031.22 496.778 1023.98 499.777 1016.63C506.912 999.129 513.08 981.446 517.697 963.122C519.063 957.704 520.217 952.214 521.747 946.839C522.339 944.757 522.999 940.853 524.504 939.171C526.407 937.043 524.275 944.898 523.728 947.7C522.905 951.919 521.69 956.038 520.971 960.279C519.759 967.432 519.597 974.726 518.128 981.818C516.427 990.032 514.714 998.379 512.442 1006.46C512.415 1006.55 509.572 1015.42 510.288 1015.33C511.979 1015.12 514.44 1011.1 515.113 1010.08C520.048 1002.58 523.956 994.197 526.916 985.739C530.664 975.031 533.026 963.656 535.575 952.611C536.339 949.301 535.747 951.99 535.704 954.248C535.508 964.632 531.931 974.609 529.328 984.575C525.965 997.458 518.456 1009.12 516.491 1022.14C516.173 1024.25 515.543 1026.83 515.543 1028.95C515.543 1030.21 516.635 1028.04 516.663 1028C518.514 1025.38 520.777 1023.09 522.78 1020.59C537.88 1001.75 545.177 978.412 555.692 957.005C556.874 954.6 557.378 951.857 558.492 949.381C559.885 946.286 558.966 951.955 558.966 953.214C558.966 973.245 563.619 993.114 563.619 1013.18C563.619 1016.94 563.619 1020.7 563.619 1024.47C563.619 1026.09 563.619 1028.61 563.619 1024.98C563.619 1010.79 562.075 995.714 563.791 981.56C564.528 975.476 564.45 969.381 565.126 963.295C565.345 961.331 565.238 959.413 565.557 957.436C565.825 955.775 565.138 950.305 567.668 952.654C574.553 959.047 580.472 969.7 584.081 978.329C586.643 984.455 587.333 991.773 587.613 998.361C587.769 1002.03 587.656 1005.72 587.656 1009.39C587.656 1014.07 590.088 1018.25 591.06 1022.79C591.978 1027.07 593.218 1031.09 594.29 1035.32C595.109 1038.55 595.376 1041.87 596.444 1035.15C599.154 1018.1 593.453 1001.06 592.481 984.145C592.251 980.144 592.309 976.131 592.309 972.126C592.309 969.372 589.629 961.951 591.576 963.898C592.652 964.973 592.437 970.555 592.783 972.126C593.841 976.927 595.316 981.676 596.574 986.428C598.831 994.956 600.274 1003.65 602.475 1012.15C603.575 1016.39 604.715 1020.23 604.715 1024.64C604.715 1026.94 604.385 1029.53 604.888 1031.79C605.395 1034.07 605.973 1035.46 607.817 1032.82C613.053 1025.34 612.3 1012.06 612.642 1003.44C612.88 997.444 613.196 991.442 613.245 985.437C613.26 983.596 612.97 981.532 613.589 979.751C615.889 973.141 616.84 983.061 617.639 985.782C621.66 999.466 626.28 1015.25 626.427 1029.64C626.469 1033.75 627.202 1037.6 627.202 1041.61C627.202 1045.6 627.6 1049.19 628.322 1053.11C628.595 1054.59 628.093 1058.9 628.839 1057.59C630.254 1055.12 630.499 1050.64 631.079 1047.9C632.568 1040.87 632.453 1033.79 633.578 1026.79C634.13 1023.35 635.876 1020.23 636.335 1016.71C636.791 1013.22 637.413 1009.95 638.058 1006.46C638.404 1004.59 638.204 1000.26 639.609 998.619C640.613 997.447 645.347 1008.26 645.683 1009.22C648.147 1016.24 651.451 1022.73 654.212 1029.64C655.264 1032.27 655.78 1034.94 656.668 1037.6C657.406 1039.82 659.278 1028.05 659.425 1026.92C660.135 1021.44 659.933 1015.69 660.932 1010.29C661.603 1006.67 663.501 1015.08 664.163 1016.37C667.701 1023.26 674.35 1028.28 679.715 1033.64C680.346 1034.27 684.014 1039.11 684.195 1038.42C685.361 1033.99 684.33 1028.94 683.979 1024.47C683.939 1023.95 683.684 1016.21 684.324 1016.63C687.897 1018.96 692.173 1024.06 694.49 1027.57C696.853 1031.15 696.95 1022.66 697.334 1021.36C698.035 1019 699.078 1016.95 699.272 1014.43C699.732 1008.45 702.73 1012.19 705.303 1015.42C706.535 1016.97 716.677 1032.57 718.356 1031.96C724.3 1029.8 722.225 1014.02 721.673 1010.12C720.599 1002.53 718.045 995.121 717.925 987.419C717.851 982.703 718.006 985.649 718.873 988.539C723.065 1002.51 732.903 1014.64 739.55 1027.48C744.003 1036.08 746.115 1044.2 747.821 1053.59C749.445 1062.51 745.33 1046.3 744.634 1044.54C739.412 1031.35 733.163 1018.56 727.402 1005.6C724.424 998.897 724.128 991.385 724.128 984.145" stroke="#ED544E" stroke-width="11" stroke-linecap="round" stroke-linejoin="round"/>
<path d="M430.248 856.978C435.047 841.694 443.807 828.04 449.03 812.952C450.248 809.435 452.341 805.782 453.898 802.354C455.03 799.864 459.28 798.816 461.566 797.702C465.277 795.894 468.815 793.721 472.465 791.8C480.611 787.513 489.128 784.369 498.14 782.366C503.432 781.19 508.052 778.752 513.346 777.498C517.284 776.566 521.311 776.454 525.279 775.732C527.869 775.261 530.174 773.926 532.775 773.406C543.139 771.333 553.542 768.039 564.049 766.858C568.425 766.366 572.7 766.255 577.102 766.255C580.117 766.255 584.015 766.939 586.881 765.824C589.111 764.957 590.668 763.006 593.084 762.55C597.923 761.637 602.629 761.623 607.472 760.224C613.837 758.385 620.154 755.073 626.858 754.667C632.131 754.347 637.088 755.399 642.28 755.399C646.751 755.399 651.551 755.908 655.979 755.227C660.64 754.51 664.723 753.073 669.505 753.073C671.171 753.073 672.836 753.073 674.502 753.073C679.252 753.073 677.604 757.336 677.604 761.344C677.604 776.009 682.625 789.774 684.41 804.25C686.227 818.988 692.7 833.602 696.601 847.974C698.436 854.733 699.018 861.565 701.211 868.006C704.856 878.713 701.812 892.349 703.149 903.718C703.43 906.101 702.53 902.523 702.245 901.951C701.026 899.513 699.247 896.94 697.592 894.8C693.23 889.16 688.284 881.707 682.256 877.871M439.036 857.753C435.348 857.585 431.616 857.753 427.922 857.753" stroke="#ED544E" stroke-width="11" stroke-linecap="round" stroke-linejoin="round"/>
<path d="M455.061 807.351C452.288 823.332 449.678 838.397 444.206 853.445C443.921 854.229 442.294 858.319 443.172 855.685C444.14 852.781 446.444 850.202 448.083 847.673C450.932 843.276 453.129 838.681 455.018 833.801C458.255 825.44 461.962 817.666 466.219 809.807C467.37 807.682 470.275 801.115 469.751 803.474C468.265 810.164 465.9 816.724 465.142 823.549C464.714 827.4 462.815 830.515 462.815 834.448C462.815 837.162 462.281 839.888 461.997 842.589C461.777 844.679 461.763 848.873 460.877 850.645C460.176 852.047 460.489 853.857 460.489 855.427C460.489 856.556 460.188 857.45 459.886 858.528C459.329 860.52 460.458 854.427 460.92 852.411C462.391 845.992 465.667 839.696 468.286 833.672C470.864 827.745 475.288 823.072 477.893 817.389C479.094 814.768 478.672 809.745 480.348 807.696C481.974 805.709 482.976 803.41 482.976 800.76C482.976 798.185 483.76 810.185 483.752 811.573C483.704 819.191 482.342 827.319 480.305 834.663C478.59 840.848 477.666 847.013 476.601 853.273C476.195 855.657 475.222 857.657 475.222 860.079C475.222 864.998 478.754 852.586 479.013 851.894C483.062 841.077 487.409 829.786 490.127 818.552C491.606 812.441 493.55 806.909 495.383 800.976C496.483 797.414 497.76 793.905 499.087 790.422C500.32 787.187 499.191 797.353 498.915 800.804C497.373 820.079 495.383 839.371 495.383 858.701C495.383 859.304 495.203 859.934 495.383 860.51C496.049 862.642 496.844 856.285 497.45 854.134C499.189 847.964 500.267 841.559 502.103 835.438C504.008 829.086 506.261 822.716 507.186 816.139C507.993 810.402 510.026 805.297 511.322 799.683C511.679 798.137 512.438 792.835 512.442 792.963C513.032 814.225 516.66 834.946 515.069 856.331C514.643 862.06 513.349 867.686 513.217 873.433C513.194 874.453 512.695 877.34 513.26 876.492C514.555 874.55 514.796 870.83 515.543 868.609C516.623 865.4 518.126 862.459 518.645 859.088C520.506 846.988 525.238 835.682 527.519 823.678C529.146 815.117 531.445 806.67 532.947 798.09C534.2 790.927 538.136 784.936 539.495 777.8C540.704 771.451 540.534 790.75 539.926 797.185C538.831 808.754 538.806 820.19 538.806 831.82C538.806 838.856 538.806 845.892 538.806 852.928C538.806 856.116 538.806 859.304 538.806 862.492C538.806 864.042 537.461 867.838 538.849 867.144C539.952 866.592 541.237 859.272 541.563 858.098C543.253 851.994 544.167 845.745 545.052 839.488C546.159 831.662 548.248 824.055 548.714 816.139C549.06 810.246 549.097 804.45 550.006 798.607C550.818 793.388 551.43 788.307 552.763 783.141C553.437 780.529 554.977 772.691 555.089 775.387C555.551 786.475 556.311 797.492 557.243 808.558C557.958 817.045 555.955 825.622 555.865 834.146C555.814 838.88 555.089 843.529 555.089 848.276C555.089 849.543 554.745 852.797 555.951 849.697C557.698 845.204 558.596 840.688 559.483 835.955C561.84 823.386 565.675 810.94 566.548 798.133C566.951 792.222 566.526 786.298 566.72 780.384C566.79 778.247 567.915 776.532 568.185 774.44C568.687 770.551 568.851 774.595 569.219 776.421C571.253 786.513 572.51 796.277 573.699 806.49C574.272 811.415 574.637 816.462 575.724 821.309C576.679 825.57 578.493 829.507 578.955 833.888C579.669 840.679 581.311 861.048 581.453 854.221C581.756 839.673 583.779 825.272 583.779 810.712C583.779 799.31 584.555 787.936 584.555 776.507C584.555 767.951 586.648 779.301 587.269 781.849C589.658 791.657 593.488 801.581 594.635 811.616C595.658 820.565 597.737 828.697 597.737 837.851C597.737 843.643 598.797 848.928 599.632 854.651C600.161 858.277 599.608 869.968 602.001 859.261C604.409 848.492 604.955 836.898 605.922 825.918C607.004 813.62 607.137 801.372 607.86 789.086C608.187 783.521 608.604 779.147 610.488 774.009C612.504 768.51 610.957 766.163 613.029 774.181C616.483 787.545 621.482 800.356 622.98 814.115C623.948 822.999 624.876 831.509 624.876 840.436C624.876 843.968 624.876 847.5 624.876 851.033C624.876 853.395 624.728 855.304 624.962 851.033C625.991 832.247 626.427 813.716 626.427 794.902C626.427 787.534 626.39 780.368 627.159 773.061C627.922 765.815 631.503 784.265 631.768 785.554C632.725 790.197 632.355 794.817 633.405 799.425C634.961 806.251 637.635 812.512 639.953 819.069C641.803 824.301 641.22 829.487 642.71 834.663C644.746 841.733 648.002 848.376 648.138 855.858C648.149 856.465 648.177 859.577 648.526 856.719C649.41 849.473 648.543 842.01 648.311 834.749C647.691 815.377 648.289 795.841 649.517 776.507C649.803 771.997 648.837 765.885 652.618 773.492C660.021 788.385 663.218 805.285 665.542 821.653C666.831 830.733 671.4 838.238 671.4 847.5C671.4 848.886 671.891 859.765 671.831 853.101C671.68 836.289 666.346 819.462 664.766 802.699C663.945 793.986 664.422 785.075 664.422 776.335C664.422 771.969 662.885 759.222 664.594 763.239C671.026 778.355 679.266 794.385 682.084 810.712C683.259 817.517 683.104 823.438 685.358 830.011C687.812 837.169 687.543 844.782 689.967 851.851C691.753 857.06 691.276 864.068 691.518 869.513C691.715 873.952 691.561 878.425 691.561 882.868C691.561 884.005 691.88 884.773 692.164 885.84C693.139 889.494 689.311 878.83 688.115 875.243C684.513 864.437 682.311 853.239 678.81 842.417C675.095 830.935 673.711 818.757 669.936 807.222C667.012 798.287 662.378 789.788 659.08 780.944C658.429 779.197 657.058 774.363 656.323 776.077C655.59 777.786 654.972 783.914 654.945 784.175C653.816 794.755 653.312 805.386 652.834 816.01C652.303 827.788 651.383 839.586 651.24 851.377C651.211 853.79 653.114 859.893 651.068 858.615C646.893 856.006 644.878 844.807 643.83 840.78C641.168 830.544 640.468 820.167 639.609 809.678C639.052 802.883 639.044 795.863 637.627 789.172C636.849 785.497 635.128 788.998 634.353 790.852C629.065 803.512 626.849 817.38 623.497 830.614C622.005 836.507 621.587 837.718 619.965 843.106C619.348 845.155 618.753 851.037 617.768 849.137C616.458 846.611 616.301 843.638 615.657 840.866C613.53 831.705 611.475 822.529 609.282 813.382C606.732 802.747 605.291 792.065 603.294 781.332C603.215 780.91 602.529 775.115 601.441 778.489C598.364 788.039 597.272 798.539 595.841 808.428C593.897 821.868 592.443 835.625 588.432 848.663C587.003 853.307 586.619 839.106 586.105 834.275C584.893 822.857 584.043 811.421 583.779 799.942C583.736 798.07 583.626 795.905 581.884 798.822C573.402 813.024 567.331 829.068 562.499 844.83C561.377 848.487 560.129 859.076 558.535 855.599C555.41 848.781 556.265 838.411 556.209 831.217C556.105 817.677 556.595 804.153 555.52 790.637C555.168 786.208 555.51 787.091 554.228 789.775C545.898 807.21 539.23 825.853 533.55 844.313C532.144 848.882 530.443 853.296 528.854 857.796C527.183 862.532 527.85 847.784 527.864 842.762C527.901 829.388 529.501 816.077 529.501 802.699C529.501 802.094 529.728 800.771 529.027 800.459C526.876 799.503 522.018 816.676 521.833 817.173C517.611 828.491 512.567 839.749 505.765 849.784C505.486 850.194 501.27 856.028 500.207 854.738C499.532 853.917 499.434 849.87 499.432 849.827C499.156 843.197 499.344 836.501 499.734 829.881C500.002 825.323 500.235 823.205 500.767 818.853C500.982 817.097 502.124 812.135 501.069 813.555C498.809 816.597 498.029 820.57 495.383 823.42C494.018 824.889 492.091 826.026 490.558 827.34C488.62 829 486.125 807.729 486.078 805.197C486.061 804.281 486.69 801.295 485.345 803.216C480.984 809.446 476.196 815.318 471.517 821.309C467.87 825.979 463.666 830.857 461.437 836.429C461.249 836.899 461.828 830.95 462.04 829.666C462.213 828.616 463.392 826.065 462.686 828.417C461.472 832.464 458.294 836.789 456.009 840.263C451.486 847.141 444.853 852.518 440.329 859.304" stroke="#ED544E" stroke-width="11" stroke-linecap="round" stroke-linejoin="round"/>
<path d="M717.465 945.341C719.846 923.376 725.559 910.332 740.362 893.678C746.495 886.778 753.466 880.424 760.498 874.462C773.844 863.147 763.473 874.265 757.967 879.525C753.126 884.15 724.364 907.546 745.195 903.688C771.968 898.73 798.834 895.865 825.623 891.492C857.156 886.343 813.047 893.809 805.372 895.864C781.175 902.342 751.353 911.117 729.891 924.63C723.746 928.499 727.229 928.727 733.343 929.232C749.842 930.597 766.598 931.147 782.705 935.331C792.011 937.748 800.557 941.856 809.63 944.881C812.958 945.99 791.155 941.22 789.034 940.738C775.942 937.766 762.553 934.989 749.912 930.383C748.403 929.833 732.841 921.167 736.91 928.542C745.471 944.059 763.249 959.5 765.101 978.019C765.544 982.45 758.293 972.252 755.205 969.044C746.022 959.503 733.649 941.77 720.686 937.056C714.336 934.747 721.17 970.063 721.607 975.257C722.631 987.428 725.177 1023.95 723.563 1011.85C720.655 990.038 719.896 967.336 719.536 945.341C719.203 925.06 706.21 957.38 703.657 962.485C701.24 967.319 682.31 1011.68 674.431 1010.7C673.577 1010.59 675.486 1006.21 675.582 1005.86C676.589 1002.27 671.842 1003.38 669.598 1003.22C654.986 1002.17 641.181 997.119 626.335 997.119C610.968 997.119 636.753 985.384 640.142 983.427C664.434 969.399 687.44 953.322 711.481 938.897C718.943 934.421 725.522 929.499 732.653 924.745C752.248 911.681 690.279 945.323 669.368 956.157C666.064 957.869 613.45 988.033 611.722 984.577C610.999 983.131 614.757 983.446 616.209 982.736C622.107 979.856 625.117 977.78 630.822 973.877C645.552 963.798 659.013 952.385 673.05 941.429C683.258 933.462 697.655 920.74 710.906 918.531C721.688 916.734 689.044 918.416 678.113 918.416C668.908 918.416 659.703 918.416 650.498 918.416C648.489 918.416 654.422 917.545 656.366 917.036C674.675 912.24 692.813 907.005 711.481 903.688C713.022 903.415 742.583 901.847 733.343 901.847C713.044 901.847 692.588 901.488 672.36 903.458C644.815 906.141 618.321 914.494 591.586 921.178C586.105 922.548 580.27 924.329 574.557 924.63C566.929 925.031 589.421 921.102 596.879 919.452C623.092 913.653 649.766 912.692 676.272 908.981C685.513 907.688 697.758 906.818 704.578 899.316C705.89 897.872 705.433 891.039 705.498 890.111C706.189 880.18 705.673 869.203 709.18 859.734C710.136 857.153 711.251 854.334 711.251 858.584C711.251 868.602 715.999 878.207 719.536 887.349C720.726 890.425 731.217 927.596 731.962 916.23C733.391 894.439 733.572 872.474 733.919 850.644C733.924 850.323 733.882 826.834 734.494 829.358C739.084 848.292 738.245 869.325 740.362 888.73C741.26 896.961 749.925 936.335 741.628 907.37C732.983 877.193 717.079 839.916 688.009 823.835C684.953 822.144 667.045 813.733 670.749 824.065C677.449 842.755 692.331 858.515 699.515 877.454C704.85 891.52 675.295 882.144 667.988 881.596C662.312 881.171 624.52 877.176 642.444 885.278C679.439 902.002 719.543 915.762 754.515 936.596C782.405 953.212 692.32 917.942 661.084 909.096C652.322 906.615 642.683 904.149 633.469 904.149C627.129 904.149 649.071 915.887 650.498 916.575C675.236 928.506 707.879 934.985 735.299 934.985C755.431 934.985 695.591 942.396 676.502 948.793C661.188 953.925 646.304 961.182 631.858 968.354C616.473 975.99 625.666 971.945 635.885 967.088C665.957 952.796 695.837 937.117 726.439 924.169C728.588 923.26 721.639 924.312 719.536 925.32C699.501 934.924 679.715 947.57 662.119 961.105C658.213 964.109 634.658 986.486 653.49 973.416C678.97 955.732 706.288 934.456 724.138 908.751C735.766 892.007 718.087 930.111 717.004 932.454C709.978 947.651 702.581 962.574 698.594 978.939C698.218 980.483 694.95 1001 698.134 987.684C701.916 971.869 709.308 957.627 716.544 943.155C718.061 940.121 735.924 895.639 740.707 896.554C747.049 897.769 750.908 919.742 752.674 924.4C758.004 938.459 766.433 951.149 773.96 964.096C776.207 967.96 778.82 971.425 781.439 975.027C783.452 977.795 782.164 954.266 781.9 952.935C780.319 944.989 770.916 908.727 760.153 906.335C728.919 899.394 820.059 929.684 851.398 936.136C870.925 940.156 854.686 935.906 844.954 934.525C816.603 930.504 787.868 927.646 759.232 926.816C753.78 926.658 732.961 930.566 743.929 923.939C762.685 912.608 781.362 901.275 800.425 890.456C803.604 888.651 809.652 886.027 812.276 882.747C814.278 880.244 808.776 877.787 807.674 877.224C792.874 869.67 777.627 868.267 761.303 869.975C752.156 870.932 743.709 872.522 735.529 876.764C725.892 881.761 739.276 871.167 740.477 870.32C751.281 862.699 762.464 855.332 773.615 848.228C779.146 844.704 795.871 841.625 790.414 837.988C789.143 837.14 787.594 839.238 786.387 840.174C781.645 843.849 774.197 850.627 770.278 854.096C752.195 870.108 734.138 885.959 717.465 903.458C714.77 906.287 711.05 908.863 708.49 911.743C708.4 911.844 718.69 907.099 719.306 906.565C736.144 891.95 749.034 868.331 755.205 846.847C763.322 818.588 753.461 850.328 750.257 859.619C743.691 878.661 737.211 897.57 729.316 916.115C725.68 924.656 718.449 945.233 724.829 922.328C735.355 884.537 745.537 846.808 752.559 808.186C752.91 806.256 752.585 809.653 752.559 809.797C750.614 820.492 740.039 832.202 735.414 841.785C725.693 861.927 719.525 883.407 712.632 904.609C709.129 915.385 702.489 947.845 701.126 936.596C696.953 902.171 696.873 867.252 692.266 832.695C691.046 823.548 689.656 766.468 674.431 759.4C664.618 754.844 673.468 790.672 674.086 793.919C674.976 798.589 686.354 841.566 681.105 839.483C676.188 837.532 643.487 815.59 650.613 830.969C655.512 841.541 663.551 848.62 672.015 856.398C673.149 857.44 695.823 878.055 690.08 877.684C677.926 876.9 647.432 855.477 656.251 863.877C686.849 893.017 725.464 913.306 757.276 940.969C786.061 965.999 688.082 908.835 653.49 892.757C650.74 891.479 630.345 879.44 624.954 881.596C623.195 882.3 626.833 884.988 628.291 886.199C644.74 899.86 663.674 911.249 682.255 921.638C704.688 934.181 730.927 949.834 756.586 955.236C771.022 958.276 731.363 939.824 718.04 933.49C691.932 921.078 669.195 917.94 640.603 918.416C639.333 918.437 636.253 919.129 637.151 920.027C639.651 922.528 656.943 921.462 658.322 921.523C683.097 922.619 757.3 915.678 732.653 918.416C704.056 921.594 675.34 934.043 649.463 946.146C644.167 948.623 626.932 951.554 632.778 951.554C644.481 951.554 656.081 945.317 666.377 940.508C677.28 935.416 687.554 929.736 697.674 923.249C698.947 922.432 702.939 920.271 701.586 920.948C694.636 924.423 686.927 926.964 679.724 929.692C652.954 939.833 624.85 954.199 596.649 959.839C561.805 966.808 667.669 953.188 702.161 944.651C708.725 943.026 718.859 938.523 725.979 939.473C727.908 939.73 714.239 965.579 714.013 966.052C711.418 971.489 701.291 996.517 701.586 995.969C713.054 974.638 725.902 953.663 736.22 931.764C740.72 922.213 745.742 911.004 746.46 900.236C746.896 893.694 747.91 913.27 748.531 919.797C750.455 939.992 751.967 960.224 753.709 980.435C753.725 980.614 755.632 1007 757.046 1011.5C759.032 1017.83 763.483 999.693 764.87 993.207C767.191 982.357 766.02 972.014 767.172 961.22C768.26 951.02 783.481 966.985 786.157 969.159C795.075 976.405 805.277 981.726 814.693 988.259C816.205 989.309 820.535 992.728 819.18 991.481C808.25 981.426 797.154 971.56 786.272 961.45C770.474 946.772 751.654 932.602 737.716 916.115C732.913 910.435 738.299 911.478 742.778 911.973C754.889 913.311 766.781 916.55 778.908 917.956C791.712 919.441 787.291 914.835 777.067 911.052C757.421 903.783 737.096 902.608 716.544 900.236C674.12 895.341 801.903 903.918 844.609 903.918C849.007 903.918 850.171 904.362 846.335 903.113C840.864 901.332 829.619 897.839 825.278 896.554C806.172 890.899 787.024 885.866 766.942 888.27C758.69 889.258 750.67 891.972 743.239 895.634C729.513 902.397 753.697 900.547 757.276 900.582C759.255 900.601 794.027 903.4 787.423 891.952C784.917 887.608 773.189 887.679 769.473 887.349C762.019 886.689 755.105 886.523 747.611 887.119C740.111 887.716 718.56 893.821 725.289 890.456C746.196 880.003 768.974 872.778 790.414 863.416C799.15 859.602 784.498 865.627 782.13 866.178C781.073 866.424 778.141 867.405 778.908 866.638C781.382 864.164 785.206 863.586 788.343 862.036C809.371 851.643 829.228 839.165 850.247 828.783C867.05 820.482 872.596 816.245 850.707 817.391C827.411 818.612 795.15 818.005 777.527 836.607C772.697 841.706 769.773 845.725 765.561 851.22C764.484 852.625 769.758 831.352 769.128 825.676C768.106 816.483 735.677 843.098 734.034 844.776C726.029 852.953 723.678 863.5 723.678 874.577C723.678 892.038 729.067 839.893 734.724 823.375C736.877 817.089 732.597 821.863 731.042 824.295C721.274 839.569 714.282 857.407 708.72 874.577C705.974 883.055 702.833 891.339 699.975 899.776C698.528 904.048 697.472 914.345 694.222 917.956C691.766 920.685 690.58 911.533 689.389 908.061C682.194 887.074 677.309 865.392 670.174 844.431C669.224 841.641 660.154 834.351 661.544 839.713C663.65 847.838 672.161 856.536 676.732 863.186C686.098 876.808 695.982 889.597 706.534 902.308C708.805 905.044 718.194 913.141 710.216 914.159C695.45 916.044 679.345 916.629 664.766 913.354C657.115 911.635 649.36 909.962 641.753 908.061C640.774 907.816 643.792 908.189 644.745 908.521C662.146 914.591 678.888 925.146 695.142 933.374C721.052 946.491 746.842 958.756 774.536 967.548C787.673 971.719 780.03 969.986 769.703 969.274C732.21 966.688 694.097 962.8 657.057 971.115C656.387 971.265 644.124 975.153 648.427 973.186C666.341 964.997 685.676 956.294 700.665 943.27C704.376 940.046 710.879 933.893 711.251 928.312C711.806 919.986 684.006 931.755 683.981 931.764C664.099 938.44 645.876 947.314 627.831 957.883C624.718 959.706 609.882 967.551 622.653 961.22C643.185 951.041 663.659 940.369 685.017 931.994C688.711 930.545 689.147 931.558 690.54 928.772" stroke="white" stroke-width="11" stroke-linecap="round" stroke-linejoin="round"/>
<path d="M552.654 645.614C551.293 645.594 549.906 645.217 548.572 645.487C545.997 646.007 546.801 651.895 546.435 653.3C543.853 663.233 535.334 663.058 527.461 666.279C526.975 666.478 518.579 669.879 521.785 671.126C524.159 672.049 527.459 671.003 529.917 670.903C533.703 670.748 537.601 670.743 541.365 671.19C544.679 671.583 557.847 671.176 553.1 677.217C549.8 681.417 544.274 683.943 540.153 687.23C536.773 689.926 533.833 693.247 530.331 695.776C528.204 697.313 533.073 695.489 533.393 695.33C538.336 692.858 542.665 689.446 547.105 686.209C549.397 684.539 556.718 679.31 559.829 680.693C563.526 682.336 562.412 690.139 562.412 693.161C562.412 699.31 566.573 690.731 567.259 689.175C570.102 682.728 573.788 674.756 581.418 672.975C586.013 671.903 589.976 676.458 593.727 678.333C593.893 678.416 595.824 679.129 595.002 678.907C587.754 676.948 580.654 669.112 575.104 664.493C571.732 661.687 568.425 658.784 564.803 656.297C564.013 655.755 562.155 654.987 561.519 654.097C560.537 652.722 568.805 653.077 569.236 653.077C575.333 653.077 581.507 654.671 587.54 654.225C591.912 653.901 579.231 650.878 574.849 650.781C567.153 650.61 590.072 648.206 597.426 645.933C599.619 645.256 601.607 644.11 603.931 643.924C606.707 643.702 604.369 643.156 602.433 642.298C591.332 637.38 580.392 635.76 569.108 640.417C568.345 640.732 564.456 642.951 563.4 642.107C563.072 641.844 566.178 638.993 566.398 638.79C567.05 638.188 569.153 637.984 568.598 637.291C567.688 636.153 564.541 638.07 563.815 638.535C561.729 639.872 559.479 641.797 557.979 643.797C557.418 644.544 564.568 642.72 565.537 642.489C575.498 640.118 586.706 638.25 596.884 640.512C599.755 641.15 604.314 642.583 604.314 645.997C604.314 653.117 591.84 654.092 586.807 656.489C582.092 658.734 586.441 662.288 589.709 662.707C592.931 663.12 596.265 662.42 599.467 662.962C602.098 663.408 600.325 664.645 598.191 664.046C597.854 663.952 586.981 660.821 587.796 663.09C589.875 668.883 598.084 670.242 601.444 675.016C601.671 675.338 604.453 679.923 602.465 679.481C598.357 678.568 594.401 673.447 591.176 670.934C590.216 670.187 588.187 668.088 587.923 669.276C587.453 671.393 589.964 674.172 589.964 676.483C589.964 679.566 587.435 680.252 584.798 680.629" stroke="#F2CB43" stroke-width="11" stroke-linecap="round" stroke-linejoin="round"/>
<path d="M555.906 681.713C549.753 684.277 544.805 686.664 538.304 688.091C538.921 689.325 540.271 689.968 541.142 691.057C543.518 694.027 544.565 698.126 546.116 701.516C549.629 709.192 551.633 705.103 557.31 703.589C565.163 701.495 572.8 697.797 580.27 694.66C587.122 691.782 594.587 692.595 601.859 691.758C605.979 691.284 607.184 691.142 607.184 687.485C607.184 683.676 606.154 680.067 606.036 676.292C605.955 673.698 606.5 672.019 603.74 672.019C599.079 672.019 594.026 673.506 589.262 673.741C581.863 674.105 574.564 675.999 567.45 677.886C563.599 678.908 559.589 680.178 555.906 681.713Z" fill="#145B7F"/>
</svg>
