<svg width="1440" height="1024" viewBox="0 0 1440 1024" fill="none" xmlns="http://www.w3.org/2000/svg">
<path d="M646.859 441.37C650.312 448.359 656.68 452.217 663.204 455.809C668.522 458.738 673.867 464.101 679.487 465.949C686.603 468.29 694.281 468.036 701.458 470.151C710.998 472.961 720.9 474.93 730.832 475.442C740.022 475.916 750.176 473.971 758.749 470.556C767.609 467.025 777.953 468.525 787.342 469.009" stroke="#F2CB43" stroke-width="11" stroke-linecap="round" stroke-linejoin="round"/>
<path d="M807.006 478C806.111 480.605 804.56 482.375 803.171 484.686C802.296 486.141 805.035 485.119 805.665 485.011C806.734 484.828 807.265 483.89 807.991 483.135C808.348 482.764 809.27 481.165 809.27 481.532C809.27 482.446 809.354 483.498 808.557 484.141C807.956 484.627 807.526 485.518 807.572 486.3C807.618 487.083 808.87 486.866 809.27 486.866" stroke="#E25E32" stroke-width="11" stroke-linecap="round" stroke-linejoin="round"/>
<path d="M382.223 844.517C409.567 837.339 437.648 833.825 464.958 826.22L881.416 805.934C893.322 805.934 908.567 805.612 920.131 808.453C938.382 812.935 959.181 815.038 974.89 825.954C997.18 841.444 1026.89 860.606 1023.42 891.851C1023.03 895.299 1015.41 901.648 1012.94 903.783C1006.13 909.689 998.92 915.262 993.055 922.147C988.579 927.401 978.208 932.34 972.172 935.472C957.766 942.949 941.103 948.134 925.7 953.371C919.926 955.334 914.222 954.991 908.199 955.161C899.656 955.402 891.488 956.974 883.139 958.675C865.137 962.342 847.261 962.883 829.309 967.558C821.544 969.58 814.141 973.013 806.371 974.85C794.768 977.594 782.158 977.66 770.307 978.298C748.164 979.49 726.057 981.347 703.881 981.347C680.653 981.347 657.418 979.986 634.272 981.347C620.674 982.147 607.351 983.979 593.833 985.457C576.739 987.327 559.212 984.112 541.991 984.662C508.569 985.729 476.524 978.195 443.545 975.447C430.094 974.326 416.831 972.663 403.437 970.541C390.657 968.517 377.051 967.986 365.119 962.652C357.109 959.072 349.738 956.249 341.121 954.498L341.024 954.479C336.672 953.595 332.181 952.683 329.188 949.128C324.741 943.848 316.32 938.173 313.675 931.892C311.528 926.793 313.514 916.699 314.007 911.474C314.79 903.165 315.887 897.783 320.835 890.922C325.759 884.095 331.237 878.084 335.817 870.902C339.224 865.559 343.61 859.334 349.209 856.184C359.478 850.408 370.955 847.474 382.223 844.517Z" fill="#AF6C00" stroke="#754B06" stroke-width="11" stroke-linecap="round" stroke-linejoin="round"/>
<path d="M396 965C396 980.667 396 996.333 396 1012" stroke="#754B06" stroke-width="11" stroke-linecap="round" stroke-linejoin="round"/>
<path d="M408.805 969C408.805 979.07 409.982 989.027 406.55 998.857C405.075 1003.09 405 1008.64 405 1013" stroke="#754B06" stroke-width="11" stroke-linecap="round" stroke-linejoin="round"/>
<path d="M418 965C418 980.667 418 996.333 418 1012" stroke="#754B06" stroke-width="11" stroke-linecap="round" stroke-linejoin="round"/>
<path d="M430.805 969C430.805 979.07 431.982 989.027 428.55 998.857C427.075 1003.09 427 1008.64 427 1013" stroke="#754B06" stroke-width="11" stroke-linecap="round" stroke-linejoin="round"/>
<path d="M939.798 953C939.798 966.183 940.284 979.457 939.748 992.64C939.59 996.535 939.971 1002.53 938 1006" stroke="#754B06" stroke-width="11" stroke-linecap="round" stroke-linejoin="round"/>
<path d="M950 945C952.25 965.063 950 984.923 950 1005" stroke="#754B06" stroke-width="11" stroke-linecap="round" stroke-linejoin="round"/>
<path d="M921.698 953C921.698 966.183 922.425 979.457 921.623 992.64C921.385 996.535 921.956 1002.53 919 1006" stroke="#754B06" stroke-width="11" stroke-linecap="round" stroke-linejoin="round"/>
<path d="M931 945C933.25 965.063 931 984.923 931 1005" stroke="#754B06" stroke-width="11" stroke-linecap="round" stroke-linejoin="round"/>
<path d="M835.914 814.309C861.554 818.716 862.845 810.712 888.996 810.131C895.685 810.131 902.042 811.333 908.591 812.573L908.816 812.615C921.161 814.951 929.397 820.085 940.608 825.603C947.908 829.196 955.828 834.113 957.493 842.77C959.211 851.705 950.052 861.822 944.448 867.503C934.845 877.24 925.188 882.149 912.204 886.477C892.887 892.916 871.711 901.091 851.161 901.611C829.862 902.15 808.312 903.532 787.238 906.749C775.021 908.615 762.993 911.289 750.702 912.735C738.367 914.186 726.088 913.748 713.707 913.306L713.546 913.3C695.15 912.643 676.723 912.654 658.319 912.34C643.767 912.092 630.003 913.872 615.572 915.05C597.956 916.488 580.497 912.596 562.942 911.549C534.859 909.875 504.052 910.805 478.182 897.714C468.129 892.627 469.169 880.093 471.01 870.553C472.924 860.634 482.736 857.335 489.589 851.692C505.041 838.967 528.286 836.297 547.131 831.815C579.269 824.171 612.286 819.361 645.218 817.189C689.435 814.274 733.121 810.144 777.525 810.921C797.243 811.266 816.418 810.958 835.914 814.309Z" fill="white" stroke="white" stroke-width="11" stroke-linecap="round" stroke-linejoin="round"/>
<path d="M546.999 925.099C529.372 919.23 511.388 915.009 495 904.978L913.722 889.011C913.815 889.004 913.908 889 914 889L913.722 889.011C910.32 889.267 906.174 894.091 903.839 896.338C894.513 905.313 886.319 906.545 876.569 915.034C874.068 917.212 869.912 917.325 867.03 918.94C864.708 920.241 862.708 922.157 860.186 922.845C856.079 923.967 852.3 926.87 848.055 926.87C840.169 926.87 832.494 929 824.622 929C810.119 929 795.613 936.414 781.177 935.041C764.379 933.443 745.57 931.488 728.711 935.337C719.157 937.518 708.728 933.306 699.16 932.792C689.496 932.273 680.056 933.739 670.439 933.739C639.067 933.739 607.518 934.977 576.187 933.207C569.963 932.855 565.493 931.94 559.753 930.484C555.17 929.322 551.448 926.58 546.999 925.099Z" fill="white"/>
<path d="M495 904.978C511.388 915.009 529.372 919.23 546.999 925.099C551.448 926.58 555.17 929.322 559.753 930.484C565.493 931.94 569.963 932.855 576.187 933.207C607.518 934.977 639.067 933.739 670.439 933.739C680.056 933.739 689.496 932.273 699.16 932.792C708.728 933.306 719.157 937.518 728.711 935.337C745.57 931.488 764.379 933.443 781.177 935.041C795.613 936.414 810.119 929 824.622 929C832.494 929 840.169 926.87 848.055 926.87C852.3 926.87 856.079 923.967 860.186 922.845C862.708 922.157 864.708 920.241 867.03 918.94C869.912 917.325 874.068 917.212 876.569 915.034C886.319 906.545 894.513 905.313 903.839 896.338C906.238 894.029 910.549 889 914 889L495 904.978Z" stroke="white" stroke-width="11" stroke-linecap="round" stroke-linejoin="round"/>
<path d="M605.53 873.48C587.75 880.419 565.59 892.508 546.068 885C539.791 882.586 534.332 878.996 527.942 876.756C522.798 874.952 510.639 865.789 511.904 859.702C513.846 850.355 518.923 847.953 527.264 848.069C541.584 848.268 550.503 857.046 557.588 868.737C563.566 878.601 574.973 880.754 585.032 885.621C598.052 891.921 604.014 887.74 617.106 884.266C626.956 881.653 638.61 880.212 634.33 867.777C629.442 853.58 617.853 843.627 602.594 842.196C598.328 841.796 596.238 848.592 594.858 851.57C593.324 854.879 590.187 858.128 589.493 861.735C587.597 871.594 597.49 873.541 604.853 873.48C618.345 873.369 633.033 871.406 643.252 861.735C654.644 850.953 665.248 852.532 677.98 860.549C684.6 864.717 686.449 880.902 680.578 886.186C667.087 898.328 634.615 893.547 626.763 876.304C619.494 860.342 636.131 843.135 649.689 837.34C666.249 830.262 682.926 834.852 692.493 850.159C699.668 861.638 716.307 869.945 728.972 873.876C743.803 878.478 756.413 860.803 760.821 848.803C767.419 830.841 744.591 826.724 732.078 826.724C722.032 826.724 713.804 831.485 706.046 837.679C696.856 845.016 697.161 854.731 693.509 865.01C688.641 878.713 681.245 886.93 667.138 891.494C655.323 895.317 639.87 898.587 628.231 892.567C613.817 885.112 609.439 873.989 619.873 860.38C629.696 847.567 644.137 839.254 660.08 836.662C680.29 833.377 697.459 840.03 716.323 845.472C730.542 849.573 745.464 858.987 760.482 859.25C770.952 859.434 784.631 856.072 787.022 844.116C790.294 827.761 773.937 825.5 761.95 829.434C745.953 834.685 735.198 848.972 739.927 866.252C744.503 882.974 768.937 879.429 778.778 870.431C782.976 866.592 786.182 862.428 788.265 857.104C790.875 850.433 794.279 851.972 801.761 850.949C816.065 848.993 829.917 845.872 844.395 845.246C851.365 844.944 860.173 844.542 866.079 849.086C870.136 852.206 862.839 863.641 868.79 865.575C873.963 867.256 883.864 870.207 889.175 867.551C897.139 863.569 896.234 852.122 896.234 844.738C896.234 836.927 892.617 832.875 885.844 828.983C879.604 825.397 867.154 820.971 860.15 824.973C853.62 828.705 847.569 836.531 843.605 842.761C838.005 851.56 839.506 861.901 839.256 871.899C838.972 883.292 832.841 888.098 821.469 889.856C808.98 891.787 798.124 887.306 792.669 875.965C789.801 870.002 785.714 860.228 790.298 853.942C797.806 843.645 817.505 841.273 828.923 841.632C836.656 841.875 841.175 844.849 844.903 851.401C849.139 858.845 854.376 872.874 845.299 878.901C827.218 890.907 801.976 872.934 784.99 866.139C765.338 858.279 740.898 852.354 724.059 870.488C711.184 884.353 693.605 904.015 672.616 896.972C665.67 894.641 658.697 891.878 656.522 884.266C654.592 877.513 656.472 870.283 651.722 864.558C642.018 852.864 619.407 856.201 605.869 856.201C598.506 856.201 592.557 856.812 585.71 859.815C579.516 862.531 572.306 863.728 566.341 866.591C563.603 867.905 560.662 871.762 557.983 873.48C549.439 878.961 543.075 876.785 535.508 870.883C531.113 867.454 523.395 861.37 521.391 855.975C519.675 851.355 526.361 845.07 529.297 842.648C534.93 838.001 542.203 836.778 549.287 838.582C555.314 840.118 559.88 845.763 565.211 848.747C580.817 857.48 611.137 865.358 618.066 840.954C620.059 833.938 620.376 824.015 613.718 819.157C603.888 811.984 583.429 811.263 573.399 818.141C565.796 823.354 558.762 834.379 553.579 842.083C552.127 844.242 552.357 847.928 552.957 850.328C556.456 864.322 570.574 860.487 581.023 857.556C590.984 854.762 600.667 851.094 610.5 847.9C618.166 845.41 626.634 842.393 634.838 843.834C646.606 845.901 653.905 855.972 658.95 865.914C660.109 868.198 667.481 881.269 664.258 884.492C662.192 886.558 644.628 867.905 642.461 865.349C635.53 857.176 628.957 846.813 625.294 836.662C616.871 813.317 645.499 804.305 663.355 810.574C671.802 813.539 679.755 812.601 687.749 817.689C698.714 824.666 699.897 838.786 691.928 848.747C687.918 853.759 683.009 858.302 678.714 863.09C673.527 868.873 669.805 877.502 660.983 875.118C652.577 872.846 638.414 865.392 634.442 856.991C630.845 849.38 639.19 839.238 643.816 834.404C650.955 826.945 659.642 816.853 670.922 817.689C678.88 818.278 685.935 820.604 692.719 824.804C698.329 828.277 697.108 836.095 695.655 841.575C694.466 846.063 692.465 849.932 690.008 853.829C689.464 854.693 687.52 856.863 687.862 858.234C688.513 860.835 819.786 833.934 745.348 809.727C739.726 807.898 733.684 806.117 727.73 807.524C721.044 809.104 715.157 813.481 708.53 815.43C708.07 815.565 698.972 816.687 699.439 817.293C700.889 819.179 703.785 820.459 705.82 821.416C713.884 825.211 722.422 828.288 730.779 831.354C740.89 835.064 752.691 836.711 757.545 847.392C758.926 850.429 762.683 849.989 765.733 849.989C772.896 849.989 778.439 847.133 782.957 841.519C793.627 828.257 782.17 816.957 767.428 819.326C747.251 822.569 747.833 851.615 747.833 866.365C747.833 873.671 744.971 878.563 752.915 878.563C763.334 878.563 777.61 879.495 787.022 873.876C797.933 867.362 805.071 853.699 811.53 843.213C814.677 838.104 816.898 832.685 815.822 826.498C815.575 825.078 811.133 823.957 812.546 823.675C817.538 822.676 823.132 821.578 828.019 820.173C834.687 818.256 858.207 804.849 850.946 796.343C848.371 793.327 839.677 795.72 836.772 796.456C827.872 798.713 822.903 805.4 821.356 814.188C819.791 823.072 817.595 833.932 824.461 841.18C829.035 846.008 837.085 855.187 844.621 853.716C857.871 851.131 870.884 833.083 867.717 820.004C864.648 807.327 852.017 801.241 841.233 795.892C836.939 793.762 830.508 791.018 825.534 792.391C817.468 794.616 811.502 808.189 805.77 813.623C799.379 819.681 791.701 824.052 784.03 828.249C772.747 834.421 761.043 840.592 747.889 840.898C732.708 841.251 726.366 831.659 722.535 818.028C721.008 812.597 718.421 802.271 721.179 796.569C722.921 792.969 731.355 780.2 736.2 781.21C739.886 781.978 732.654 795.872 731.795 797.021C727.921 802.207 723.614 807.768 719.203 812.494C709.515 822.873 693.556 826.221 680.07 827.289C669.537 828.122 655.807 828.907 646.753 822.376C636.448 814.943 625.412 803.512 621.003 791.487C619.004 786.035 616.576 784.375 622.132 780.645C629.963 775.388 642.582 769.002 649.633 778.781C654.679 785.781 656.799 796.649 658.16 805.04C658.902 809.615 662.771 810.886 666.743 812.719C668.883 813.707 673.296 817.146 675.213 814.357C677.913 810.43 683.382 802.61 682.78 797.699C681.95 790.923 663.669 786.574 658.442 786.292C643.631 785.491 627.897 799.1 619.309 810.009C613.135 817.851 600.447 843.433 616.937 847.617C635.071 852.219 651.641 838.034 655.223 820.286C657.921 806.919 633.42 796.279 622.979 795.496C603.045 794.001 586.096 811.504 575.15 825.933C574.555 826.718 572.542 828.341 572.439 829.434C571.946 834.66 581.872 839.796 585.201 841.632C587.579 842.943 604.203 852.235 607.563 848.408C609.999 845.633 610.514 839.821 610.951 836.606C612.327 826.49 612.543 815.618 606.716 806.734C598.537 794.264 577.244 796.699 565.098 800.748C557.831 803.17 551.025 806.698 543.979 809.614C533.381 813.999 522.254 818.738 518.793 830.733C517.502 835.209 516.913 839.487 517.89 844.003C518.424 846.474 517.836 849.107 515.518 850.497C513.196 851.891 510.953 850.781 511.001 848.182C511.126 841.29 513.038 836.57 518.568 832.371C525.552 827.066 533.315 823.029 541.268 819.383C549.73 815.504 559.498 810.493 568.938 809.444C581.635 808.033 596.026 809.713 608.41 811.872C622.486 814.327 631.44 818.506 638.395 830.677C640.224 833.877 641.918 837.539 644.268 840.389C647.954 844.861 656.335 842.322 660.87 841.406C679.863 837.568 695.863 832.766 706.271 815.656C713.529 803.725 718.842 790.265 713.951 776.353C710.197 765.677 704.717 761.242 693.622 765.003C684.918 767.953 678.007 776.28 674.366 784.428C671.283 791.329 671.229 797.621 675.326 804.136C679.125 810.178 687.593 820.001 694.978 821.642C700.39 822.844 709.476 824.403 714.403 821.303C723.093 815.835 728.098 801.302 729.311 791.6C729.702 788.473 726.179 787.273 725.414 784.598C724.83 782.553 706.552 800.743 705.368 802.103C698.503 809.994 703.709 819.412 710.168 826.216C722.42 839.121 741.479 843.045 758.675 843.891C771.418 844.517 777.32 839.68 785.611 830.451C791.332 824.081 797.538 813.83 797.977 805.04C798.577 793.057 788.62 789.55 778.665 787.195C773.07 785.872 767.275 784.782 761.555 784.146C757.652 783.712 756.878 789.104 756.077 791.939C753.762 800.137 751.379 813.882 755.851 821.755C760.904 830.647 769.899 832.916 779.456 834.686C791.197 836.86 807.502 837.523 817.855 830.225C823.171 826.477 828.008 818.049 831.294 812.607C835.351 805.888 830.752 802.856 824.066 800.07C817.684 797.411 813.729 797.279 810.175 803.346C806.269 810.012 799.56 822.9 803.85 830.846C809.066 840.505 824.996 848.019 835.417 848.521C852.162 849.328 865.472 833.03 873.364 820.569C877.169 814.561 875.206 809.156 870.71 803.91C867.759 800.468 862.43 800.47 858.23 799.845C853.362 799.12 850.612 798.777 849.139 804.362C846.293 815.15 851.762 824.623 861.167 829.491C868.502 833.288 876.612 834.729 884.827 833.613C893.091 832.491 898.713 816.911 898.154 809.783C896.891 793.684 869.853 789.972 858.061 786.405C839.742 780.863 820.565 780.082 801.591 782.226C792.563 783.246 770.526 783.097 766.75 794.028C765.382 797.989 763.706 821.922 770.251 819.891C780.073 816.843 798.769 808.069 802.608 797.36C804.117 793.151 800.22 788.939 797.921 786.066C790.573 776.881 781.762 769.333 771.38 763.761C755.193 755.072 735.827 759.232 720.502 768.561C716.322 771.105 714.497 775.601 712.822 779.967C709.548 788.498 706.562 797.481 705.029 806.508C704.354 810.48 703.015 816.589 706.046 820.06C711.805 826.658 723.672 829.48 731.852 831.298C745.814 834.401 720.979 805.505 718.695 803.459C702.474 788.922 682.584 786.536 664.145 798.828C654.241 805.431 640.432 818.298 637.718 830.564C636.449 836.297 636.124 848.98 639.242 854.281C640.392 856.235 643.385 851.829 643.591 851.57C650.443 842.952 657.197 834.056 663.807 825.256C679.137 804.845 648.453 789.508 631.45 786.687C615.677 784.07 603.155 788.075 589.945 796.343C581.207 801.812 572.915 808.364 563.404 812.494C561.007 813.534 551.866 815.926 549.852 812.042C548.699 809.82 556.188 805.966 556.233 805.943C563.961 801.88 573.786 799.478 582.321 802.386C588.394 804.454 593.606 809.34 598.754 812.945C608.03 819.443 617.671 826.642 627.779 831.806C637.209 836.623 650.726 830.977 660.192 829.547C676.301 827.114 695.964 823.47 711.354 831.128C715.236 833.06 717.754 836.541 719.711 840.22C720.486 841.677 721.752 845.931 722.365 844.399C727.602 831.307 732.654 818.088 735.297 804.136C737.249 793.825 729.104 784.126 719.485 780.363C713.893 778.174 706.433 781.407 701.359 783.355C695.711 785.524 683.038 788.871 680.07 794.988C674.942 805.554 683.605 818.218 687.524 827.514C689.5 832.203 691.376 839.532 687.411 843.608C682.438 848.719 674.643 851.508 667.533 851.119C662.157 850.824 658.347 844.591 655.957 840.389C650.034 829.972 656.499 818.473 662.677 809.557C669.539 799.656 676.958 793.57 689.105 793.238C704.296 792.821 721.933 790.142 736.878 793.294C748.683 795.784 758.93 803.943 769.065 810.009C775.533 813.88 781.667 817.944 787.926 822.093C794.557 826.489 810.525 821.111 817.233 818.875C825.517 816.113 836.092 810.887 838.409 801.539C842.571 784.749 814.104 768.233 803.681 784.372C799.359 791.064 801.567 803.628 804.754 810.348C809.236 819.801 820.664 825.68 830.165 828.474C848.999 834.014 864.724 824.457 864.724 804.362" stroke="#F2CB43" stroke-width="11" stroke-linecap="round" stroke-linejoin="round"/>
<path d="M625.849 775.12C630.609 773.79 635.28 772.051 639.966 770.489C639.966 774.632 637.305 777.52 633.734 779.572C644.184 778.733 654.637 778.066 665.151 778.734C677.166 779.497 688.51 783.703 700.614 783.703C712.65 783.703 721.632 782.17 732.463 777.04C742.119 772.466 753.751 775.49 763.973 775.571C772.097 775.636 781.524 774.721 788.819 779.073C793.506 781.869 813.843 789.871 818.296 782.178C822.585 774.77 834.054 777.604 841.279 777.604C847.256 777.604 853.064 778.621 859.067 778.621C861.776 778.621 869.149 777.101 871.038 779.581C874.038 783.517 880.712 789.976 876.629 795.336C872.109 801.268 864.077 794.302 858.276 796.183C851.557 798.362 849.577 818.952 842.804 818.036C833.424 816.769 828.193 808.129 820.668 803.806C816.31 801.302 811.509 799.938 806.55 799.176C802.46 798.546 800.887 798.506 803.953 800.983C806.112 802.727 806.663 808.013 806.663 810.582C806.663 816.459 804.919 820.922 800.057 824.304C795.893 827.201 793.305 831.809 787.972 832.436C781.301 833.221 777.296 830.004 772.895 825.603C769.203 821.911 765.82 818.383 762.504 814.422C760.668 812.229 756.632 808.211 753.808 808.098C743.167 807.672 739.193 815.147 732.124 822.102C727.222 826.925 722.397 824.372 716.426 822.78C710.578 821.221 710.819 817.449 707.052 812.389C705.82 810.736 705.484 806.123 703.551 806.065C700.015 805.958 698.774 806.731 697.452 810.131C696.371 812.911 696.234 815.687 695.758 818.545C695.201 821.886 695.188 831.253 691.805 832.944C680.907 838.393 673.52 830.578 666.055 823.57C664.044 821.682 657.359 814.948 654.535 815.439C648.707 816.452 641.238 819.611 635.9 822.102C629.711 824.991 624.11 828.461 618.008 830.26C616.521 832.524 612.52 832.414 608.084 831.516C603.871 831.671 599.027 832.165 595.243 830.855C592.373 829.862 586.618 826.966 592.871 827.467C595.341 827.664 602.107 830.306 608.084 831.516C608.733 831.492 609.368 831.476 609.981 831.476C612.799 831.476 615.447 831.015 618.008 830.26C618.403 829.658 618.621 828.887 618.621 827.918C618.621 818.719 615.946 809.303 605.181 811.26C593.819 813.326 582.919 829.719 570.622 823.57C567.269 821.894 562.215 821.437 561.7 816.455C561.107 810.726 561.808 805.332 564.072 800.079C566.617 794.173 579.45 799.557 585.078 797.369C589.068 795.817 591.596 791.961 595.356 790.423C597.892 789.385 600.554 789.615 602.922 787.995C604.69 786.785 606.047 785.286 607.948 784.211C612.26 781.774 617.093 779.351 620.767 776.136C621.898 775.147 624.45 775.511 625.849 775.12Z" fill="#E25E32"/>
<path d="M639.966 770.489C635.28 772.051 630.609 773.79 625.849 775.12C624.45 775.511 621.898 775.147 620.767 776.136C617.093 779.351 612.26 781.774 607.948 784.211C606.047 785.286 604.69 786.785 602.922 787.995C600.554 789.615 597.892 789.385 595.356 790.423C591.596 791.961 589.068 795.817 585.078 797.369C579.45 799.557 566.617 794.173 564.072 800.079C561.808 805.332 561.107 810.726 561.7 816.455C562.215 821.437 567.269 821.894 570.622 823.57C582.919 829.719 593.819 813.326 605.181 811.26C615.946 809.303 618.621 818.719 618.621 827.918C618.621 837.429 597.662 827.85 592.871 827.467C586.618 826.966 592.373 829.862 595.243 830.855C599.611 832.367 605.389 831.476 609.981 831.476C619.513 831.476 627.113 826.203 635.9 822.102C641.238 819.611 648.707 816.452 654.535 815.439C657.359 814.948 664.044 821.682 666.055 823.57C673.52 830.578 680.907 838.393 691.805 832.944C695.188 831.253 695.201 821.886 695.758 818.545C696.234 815.687 696.371 812.911 697.452 810.131C698.774 806.731 700.015 805.958 703.551 806.065C705.484 806.123 705.82 810.736 707.052 812.389C710.819 817.449 710.578 821.221 716.426 822.78C722.397 824.372 727.222 826.925 732.124 822.102C739.193 815.147 743.167 807.672 753.808 808.098C756.632 808.211 760.668 812.228 762.504 814.422C765.82 818.383 769.203 821.911 772.895 825.603C777.296 830.004 781.301 833.221 787.972 832.436C793.305 831.809 795.893 827.201 800.057 824.304C804.919 820.922 806.663 816.459 806.663 810.582C806.663 808.013 806.112 802.727 803.953 800.983C800.887 798.506 802.46 798.546 806.55 799.176C811.509 799.938 816.31 801.302 820.668 803.806C828.193 808.129 833.424 816.769 842.804 818.036C849.577 818.952 851.557 798.362 858.276 796.183C864.077 794.302 872.109 801.268 876.629 795.336C880.712 789.976 874.038 783.517 871.038 779.581C869.149 777.101 861.776 778.621 859.067 778.621C853.064 778.621 847.256 777.604 841.279 777.604C834.054 777.604 822.585 774.77 818.296 782.178C813.843 789.871 793.506 781.869 788.819 779.073C781.524 774.721 772.097 775.636 763.973 775.571C753.751 775.49 742.119 772.466 732.463 777.04C721.632 782.17 712.65 783.703 700.614 783.703C688.51 783.703 677.166 779.497 665.151 778.734C652.523 777.932 639.983 779.055 627.43 780.089C619.849 780.713 617.009 781.956 610.602 785.397C604.547 788.649 597.846 792.202 592.08 795.9C588.728 798.051 586.095 801.208 582.819 803.467C581.363 804.472 572.37 810.187 577.624 807.872C593.866 800.715 607.911 787.442 625.058 782.912C631.934 781.096 639.966 777.686 639.966 770.489Z" stroke="#E25E32" stroke-width="11" stroke-linecap="round" stroke-linejoin="round"/>
<path d="M625.562 761.226C631.992 750.375 640.076 743.819 652.549 741.709C652.549 738.869 665.637 739.332 667.729 739.942C673.513 741.628 676.814 744.34 678.733 750.142C685.291 769.974 678.361 790.913 658.332 799.497C648.28 803.805 631.437 798.03 624.719 789.819C619.137 782.997 621.154 768.664 625.562 761.226Z" fill="#754B06" stroke="#754B06" stroke-width="11" stroke-linecap="round" stroke-linejoin="round"/>
<path d="M689.133 767.289C692.346 754.626 701.85 746.065 710.498 736.769C711.577 734.61 719.044 733.677 721.421 734.198C730.467 736.184 739.929 739.859 746.801 746.326C753.147 752.299 753.147 759.254 753.146 767.37V767.53C753.146 771.565 752.897 775.368 751.701 779.257C750.847 782.032 747.036 784.473 745.195 786.646C734.873 798.832 716.727 802.538 703.751 792.589C700.169 789.843 697.382 784.778 694.916 781.104C692.404 777.362 687.875 772.25 689.133 767.289Z" fill="#754B06" stroke="#754B06" stroke-width="11" stroke-linecap="round" stroke-linejoin="round"/>
<path d="M772.623 746.286C777.232 740.275 780.219 741.258 785.675 736.046C794.486 736.046 803.168 740.093 810.493 744.64C814.528 747.144 817.775 752.858 819.127 757.33C820.29 761.177 818.655 764.59 817.842 768.293C816.8 773.04 814.021 775.002 811.296 778.775C806.58 785.306 797.995 788.191 790.173 788.092C784.4 788.019 775.995 786.632 771.981 782.309C767.015 776.961 763.926 767.533 764.792 760.382C765.372 755.598 769.823 749.939 772.623 746.286Z" fill="#754B06" stroke="#754B06" stroke-width="11" stroke-linecap="round" stroke-linejoin="round"/>
<path d="M420.276 927.649C429.118 927.649 437.282 927.854 445.865 925.263C451.502 919.626 456.605 925.417 456.605 917.44V903.187C456.605 899.133 455.165 894.086 454.218 890.061C452.768 883.897 453.368 877.76 452.097 871.565C449.812 860.427 451.832 846.969 451.832 835.633C451.832 818.31 450.833 801.076 450.638 783.792C450.603 780.642 450.831 769.873 445.865 768.942C440.557 767.946 438.705 760.688 438.705 756.28V725.718V689.721C438.705 684.148 438.095 678.468 437.446 672.948C437.094 669.958 430.522 669.899 428.231 669.899C421.34 669.899 420.24 671.468 417.757 677.987C415.466 683.998 417.226 703.711 417.226 697.278V705.233V722.138C417.226 732.845 418.257 749.974 406.42 755.153C400.549 757.721 393.565 761.442 389.847 767.019C386.358 772.252 385.982 777.394 384.079 783.526C382.568 788.395 383.814 795.884 383.814 800.763C383.814 812.277 382.368 823.207 381.494 834.573C379.738 857.402 380.234 880.862 380.234 903.783C380.234 913.233 381.593 916.873 389.515 921.683C394.718 924.841 401.834 923.001 407.017 926.456C410.405 928.715 416.315 927.649 420.276 927.649Z" fill="black" stroke="black" stroke-width="11" stroke-linecap="round" stroke-linejoin="round"/>
<path d="M816.236 608.675C826.724 591.62 838.238 575.132 849.343 558.487C850.36 559.913 852.438 563.238 853.68 564.458C854.943 565.698 856.188 567.064 857.368 568.386C858.951 570.158 859.715 574.873 862.666 573.391C865.231 572.103 868.299 568.722 871.161 568.588C872.481 568.526 875.281 568.065 876.392 568.902C877.29 569.578 878.128 570.564 879.186 570.989C882.679 572.392 884.172 567.595 886.049 565.67C890.017 561.601 892.142 555.324 897.048 552.292C898.353 551.486 900.816 549.924 902.458 550.003C903.509 550.053 905.092 550.801 906.191 551.035C908.279 551.48 907.653 555.612 907.733 557.23C908.019 562.975 908.726 568.67 908.985 574.424C909.345 582.417 910.053 590.643 911.578 598.485C912.456 602.998 914.437 607.404 914.842 611.997C915.134 615.31 914.932 618.707 914.932 622.03C914.932 636.28 913.733 650.882 911.623 664.968C910.724 670.973 908.896 677.295 908.896 683.396V692.666C908.896 696.821 908.504 700.834 908.18 704.966C907.834 709.397 906.177 713.434 905.319 717.783C904.272 723.086 904.388 728.669 902.771 733.831C901.885 736.657 900.904 739.452 900.066 742.293C899.456 744.36 899.208 746.477 898.568 748.533C897.757 751.137 896.349 753.459 895.394 756.007C894.593 758.144 893.75 761.114 891.37 761.91C889.567 762.514 889.935 759.913 889.76 758.813C889.252 755.605 888.535 752.66 887.212 749.678C884.961 744.606 882.23 739.675 880.215 734.505C878.623 730.421 879.668 726.121 878.762 721.935C878.263 719.633 876.015 713.498 872.592 713.989C870.027 714.357 867.427 717.838 865.751 719.556C864.288 721.055 863.049 722.686 861.794 724.359C857.611 729.935 852.843 733.583 847.107 737.422C845.253 738.664 843.879 740.413 841.876 741.418C840.723 741.997 840.408 741.985 839.909 740.834C838.579 737.761 836.491 734.998 834.298 732.507C828.65 726.092 824.282 718.71 819.947 711.363C818.309 708.588 817.278 705.501 815.632 702.722C814.777 701.278 814.263 701.778 813.128 702.632C810.67 704.483 808.043 707.248 804.969 707.974C801.161 708.874 797.788 710.693 794.104 711.947C792.374 712.536 789.909 713.965 788.136 714.169C787.377 714.256 790.029 706.667 790.371 705.774C793.166 698.479 796.632 691.226 798.486 683.621C800 677.411 801.523 671.477 804.008 665.597C804.558 664.295 804.285 662.694 804.499 661.31C805.165 657.011 805.156 652.537 806.489 648.381C807.746 644.464 808.306 640.315 809.104 636.283C810.19 630.804 811.321 625.341 812.48 619.876C813.4 615.536 813.865 612.53 816.236 608.675Z" fill="white" stroke="white" stroke-width="11" stroke-linecap="round" stroke-linejoin="round"/>
<path d="M872.303 641C870.447 646.273 867.233 649.854 864.354 654.533C862.542 657.477 868.217 655.409 869.523 655.19C871.74 654.819 872.839 652.921 874.345 651.393C875.085 650.643 876.995 647.406 876.995 648.148C876.995 649.998 877.168 652.128 875.518 653.43C874.272 654.412 873.381 656.217 873.476 657.799C873.571 659.382 876.165 658.944 876.995 658.944" stroke="#E25E32" stroke-width="11" stroke-linecap="round" stroke-linejoin="round"/>
<path d="M870.916 622C870.488 623.172 869.746 623.968 869.082 625.007C868.663 625.661 869.973 625.202 870.275 625.153C870.786 625.071 871.04 624.649 871.387 624.31C871.558 624.143 871.999 623.424 871.999 623.588C871.999 624 872.039 624.473 871.658 624.762C871.37 624.98 871.165 625.382 871.187 625.733C871.209 626.085 871.807 625.988 871.999 625.988" stroke="#E25E32" stroke-width="11" stroke-linecap="round" stroke-linejoin="round"/>
</svg>
