<svg width="1440" height="1024" viewBox="0 0 1440 1024" fill="none" xmlns="http://www.w3.org/2000/svg">
<path d="M794.548 412.389C801.538 414.54 810.371 413.764 817.657 413.764V415.827C814.157 415.827 811.217 417.657 807.879 418.73C805.776 419.405 803.199 418.762 801.309 419.952C799.906 420.835 798.441 421.97 796.878 422.549C788.743 425.562 780.996 429.04 772.548 431.64C770.089 432.396 767.383 431.84 765.023 432.709C762.165 433.762 758.464 434.39 755.398 434.39H747.377C744.316 434.39 740.826 434.533 738.057 433.015C736.399 432.105 734.771 432.768 733.092 432.022C730.031 430.661 727.996 430.024 725.873 427.476C717.847 417.845 722.831 407.227 733.397 401.733C739.952 398.324 747.621 400.102 754.099 401.542C763.613 403.656 772.953 406.161 782.249 408.608C786.407 409.702 790.428 411.121 794.548 412.389Z" fill="white" stroke="black" stroke-width="11" stroke-linecap="round" stroke-linejoin="round"/>
<path d="M750.967 403.451C754.827 409.182 758.53 414.624 758.53 421.709C758.53 429.119 758.384 433.102 751.655 437.14" stroke="black" stroke-width="11" stroke-linecap="round" stroke-linejoin="round"/>
<path d="M730.279 409.702C730.279 414.03 729.592 418.029 729.592 422.344C729.592 423.606 734.238 424.436 735.474 424.789C739.848 426.038 739.728 413.967 737.154 412.604C733.181 410.501 730.405 408.925 727.873 413.483C724.9 418.833 734.127 422.645 736.085 419.289C737.8 416.349 736.699 413.827 733.717 413.827C730.041 413.827 729.592 415.79 729.592 419.327C729.592 420.353 729.202 422.077 730.623 422.077C731.426 422.077 733.888 422.464 734.328 421.695C735.935 418.882 737.132 413.827 732.38 413.827C723.612 413.827 735.092 424.846 735.092 417.952C735.092 415.909 734.639 414.946 732.342 415.202C731.218 415.327 731.622 418.366 731.654 419.174C731.776 422.219 738.263 417.819 734.404 415.889" stroke="black" stroke-width="11" stroke-linecap="round" stroke-linejoin="round"/>
<path d="M787.406 395.139C783.601 394.688 779.812 393.989 775.985 393.764C772.987 393.587 765.087 394.727 762.693 392.733C761.71 391.913 759.783 391.851 758.606 391.549C755.389 390.72 752.285 389.57 749.058 388.798C746.014 388.071 743.885 385.514 740.655 385.514C738.134 385.514 735.613 385.514 733.092 385.514C731.19 385.514 732.01 387.135 730.304 387.882C728.254 388.778 728.419 389.41 726.904 391.014C724.577 393.477 722.779 397.903 722.779 401.327" stroke="black" stroke-width="11" stroke-linecap="round" stroke-linejoin="round"/>
<path d="M631.839 437.202C636.98 437.086 640.959 435.646 645.818 434.605C651.454 433.397 655.397 429.51 659.951 426.278C662.573 424.418 665.553 423.355 667.972 421.007C670.534 418.52 672.189 416.906 675.764 419.289C678.529 421.132 679.537 423.841 681.035 426.622C682.079 428.562 682.719 433.731 680.347 434.987C678.883 435.762 676.911 438.64 675.84 440.105C675.109 441.106 672.693 443.39 673.243 444.765C673.81 446.182 674.91 447.041 675.191 448.585C675.713 451.455 677.527 460.494 675.687 463.023C671.57 468.684 662.799 462.408 659.492 459.356C657.69 457.692 654.194 457.933 651.93 456.453C648.614 454.285 645.17 452.203 642.152 449.616C639.794 447.595 636.588 447.317 634.283 444.803C632.469 442.824 627.793 442.252 627.026 439.952" stroke="#ED544E" stroke-width="11" stroke-linecap="round" stroke-linejoin="round"/>
<path d="M627.714 438.577C625.89 444.05 632.135 442.582 635.888 443.008C639.361 443.402 645.13 443.025 648.263 444.765C650.933 446.249 655.196 446.14 658.27 446.14C662.523 446.14 666.775 446.14 671.027 446.14" stroke="#ED544E" stroke-width="11" stroke-linecap="round" stroke-linejoin="round"/>
<path d="M638.714 441.327C640.614 440.962 646.697 437.69 648.339 440.105C650.531 443.328 648.575 440.481 650.096 438.959C651.962 437.093 650.627 435.971 651.93 438.577C653.376 441.47 654.758 436.542 655.253 436.171C655.888 435.695 657.965 432.466 657.965 434.796C657.965 435.752 657.676 441.248 658.805 439.036C660.046 436.603 660.941 434.303 662.472 432.008C662.795 431.523 664.025 428.568 664.496 428.379C664.804 428.256 664.84 433.685 664.84 434.452C664.84 435.657 664.588 440.552 666.215 437.202C667.555 434.443 666.086 431.279 667.59 428.647C668.777 426.569 668.965 430.716 668.965 431.167C668.965 433.268 668.965 435.369 668.965 437.47C668.965 443.024 671.072 432.693 671.562 431.167C671.856 430.252 672.154 426.573 673.396 426.928C674.256 427.174 673.778 430.847 673.778 431.702" stroke="#ED544E" stroke-width="11" stroke-linecap="round" stroke-linejoin="round"/>
<path d="M646.277 448.203C647.351 453.707 646.853 453.379 650.555 450.418C651.277 449.84 652.86 448.46 653.114 449.349C653.721 451.472 654.553 453.809 655.062 455.995C656.541 462.355 657.274 455.887 659.874 453.703C660.421 453.243 662.345 450.856 663.083 451.067C663.846 451.285 663.465 454.763 663.465 455.383C663.465 459.729 665.199 458.021 666.52 454.81C667.959 451.316 668.965 448.533 668.965 454.39C668.965 460.502 669.65 453.446 670.34 451.029C670.445 450.662 671.027 458.418 671.027 460.578" stroke="#ED544E" stroke-width="11" stroke-linecap="round" stroke-linejoin="round"/>
<path d="M702.258 280.445C685.43 275.828 671.63 267.071 658.101 256.317C655.262 254.061 651.751 251.586 650.072 248.289C647.106 242.463 645.698 235.769 643.492 229.624C641.828 224.99 641.435 216.817 643.45 212.284C646.374 205.705 650.877 202.307 655.99 197.426C659.815 193.775 667.867 194.778 672.71 194.778C679.027 194.778 680.353 195.108 685.084 199.247C688.3 202.062 685.783 205.216 689.636 199.289C692.807 194.41 696.287 193.189 701.348 191.094C706.809 188.835 713.888 188.822 719.557 189.729C729.188 191.27 734.953 194.46 741.905 201.813C749.203 209.531 750.048 220.49 749.934 230.534C749.778 244.219 741.255 259.125 731.145 268.112C722.6 275.708 715.006 283.523 705.238 289.384" stroke="#ED544E" stroke-width="11" stroke-linecap="round" stroke-linejoin="round"/>
<path d="M792.395 176.155C788.637 171.456 784.816 166.831 780.725 162.415C779.228 160.799 776.752 159.552 776.752 157.2C776.752 154.986 776.383 152.393 777.248 150.33C778.931 146.316 780.922 140.648 783.828 137.418C785.696 135.343 788.8 135.928 791.319 135.928C794.149 135.928 798.556 134.533 799.141 137.749C799.484 139.637 799.487 142.596 801.003 143.543C801.587 143.908 801.119 145.099 801.5 143.957C801.903 142.747 802.153 141.187 803.238 140.398C804.995 139.12 815.489 128.812 817.557 130.879C820.853 134.175 825.172 136.372 825.172 141.888C825.172 148.266 825.002 152.505 821.613 158.111C817.822 164.381 810.8 168.205 807.294 174.665C805.275 178.384 798.236 185.839 793.885 185.839" stroke="#ED544E" stroke-width="11" stroke-linecap="round" stroke-linejoin="round"/>
<path d="M700.769 134.438C692.807 135.277 683.738 136.003 675.855 134.107C671.034 132.948 666.883 129.969 661.784 129.969C657.189 129.969 655.002 126.563 651.603 123.844C643.454 117.324 638.939 107.567 638.939 97.4402C638.939 91.4385 638.13 86.2283 644.237 82.6244C647.628 80.6231 653.38 81.5484 657.19 81.5484C660.618 81.5484 665.834 82.8302 667.826 86.018C668.033 86.3487 668.048 78.3426 668.074 77.6168C668.389 68.8816 670.516 60.4018 670.971 51.7512C671.116 49.0093 678.21 49.5164 679.952 49.5164C685.392 49.5164 689.793 50.4412 693.319 55.3103C695.51 58.3362 697.565 62.6857 698.534 66.3187C699.285 69.1371 700.613 71.9318 700.769 74.844C701.047 80.0367 704.025 84.4915 704.452 89.6185C705.769 105.43 705.238 121.502 705.238 137.418" stroke="#ED544E" stroke-width="11" stroke-linecap="round" stroke-linejoin="round"/>
</svg>
