<svg width="1440" height="1024" viewBox="0 0 1440 1024" fill="none" xmlns="http://www.w3.org/2000/svg">
<path d="M401.647 336.382C415.868 342.767 426.743 347.65 442.905 346.721L450.741 345.415C443.126 342.877 434.294 328.053 432.748 320.602C430.912 311.757 425 288.687 432.748 281.713C445.212 270.496 460.961 263.192 474.684 253.708C479.621 250.295 484.01 246.398 489.195 243.26C494.414 240.101 500.552 237.974 505.156 233.9C514.691 225.466 521.525 214.642 527.358 203.501C543.416 172.825 542.216 136.078 532.727 103.232C526.369 81.2231 516.603 61.4826 495.289 50.703C466.764 36.2763 429.926 41.126 398.938 41.126C367.072 41.126 329.704 42.7675 299.685 53.7503C267.405 65.5601 236.714 80.1226 206.454 96.0489C193.916 102.648 182.432 110.783 171.991 120.354C166.568 125.325 155.871 130.927 154.07 138.13C152.982 142.482 150.199 145.766 148.411 149.738C146.32 154.384 145.439 159.718 144.13 164.612C140.346 178.767 138.971 191.258 138.689 206.33C138.357 224.072 143.149 239.768 145.436 257.19C147.344 271.72 150.946 277.409 158.278 288.896C174.233 313.892 195.671 326.662 223.576 334.459C237.299 338.294 247.846 340.191 262.102 340.191C276.932 340.191 292.102 339.68 306.868 338.16C318.542 336.958 329.247 333.637 340.605 330.904C351.759 328.221 361.639 325.839 372.384 321.037C375.567 319.614 379.825 315.379 383.049 318.28C389.479 324.067 393.238 332.606 401.405 336.273L401.647 336.382Z" fill="white" stroke="black" stroke-width="11" stroke-linecap="round" stroke-linejoin="round"/>
<path d="M214.281 218.189C218.816 229.35 226.438 237.809 234.593 246.53C236.125 248.168 238.397 251.688 241.08 251.688" stroke="black" stroke-width="11" stroke-linecap="round" stroke-linejoin="round"/>
<path d="M200.882 227.76C206.403 216.338 217.303 205.671 228.638 200.004" stroke="black" stroke-width="11" stroke-linecap="round" stroke-linejoin="round"/>
<path d="M243.952 194.261C243.952 201.441 241.669 224.708 251.449 226.378C254.691 226.931 260.56 229.434 263.838 228.717C268.329 227.735 271.666 219.018 272.452 214.999C274.522 204.421 246.506 187.555 243.952 195.219" stroke="black" stroke-width="11" stroke-linecap="round" stroke-linejoin="round"/>
<path d="M309.035 159.805C313.08 166.296 316.207 172.698 319.457 179.586C320.336 181.448 322.782 188.988 324.562 190.22C330.006 193.99 338.867 186.324 341.364 182.351C343.688 178.654 347.892 173.525 342.747 171.503C338.112 169.683 336.583 165.548 331.049 165.548C328.572 165.548 326.079 165.64 323.604 165.548C322.006 165.489 328.864 159.387 329.56 158.529C333.599 153.55 332.089 150.419 329.028 145.874C323.126 137.111 307.121 147.522 307.121 155.977" stroke="black" stroke-width="11" stroke-linecap="round" stroke-linejoin="round"/>
<path d="M350.191 138.749C352.226 147.817 356.151 154.211 361.251 161.826C362.859 164.228 372.029 181.897 374.597 180.756C376.308 179.995 378.025 176.365 379.064 175.066C381.338 172.223 384.023 169.825 386.401 167.09C387.755 165.533 389.432 164.744 389.432 162.677" stroke="black" stroke-width="11" stroke-linecap="round" stroke-linejoin="round"/>
<path d="M351.148 142.578C356.158 138.164 362.272 134.415 366.462 129.178" stroke="black" stroke-width="11" stroke-linecap="round" stroke-linejoin="round"/>
<path d="M359.762 162.677C366.947 156.769 373.544 150.311 380.818 144.492" stroke="black" stroke-width="11" stroke-linecap="round" stroke-linejoin="round"/>
<path d="M413.36 116.736C414.303 106.715 412.781 89.8683 426.44 88.9262C437.563 88.1591 445.305 86.2071 448.241 99.1886C451.523 113.697 450.17 122.3 444.998 135.878C442.804 141.636 443.03 147.067 443.03 153.106" stroke="black" stroke-width="11" stroke-linecap="round" stroke-linejoin="round"/>
<path d="M450.687 167.462C447.995 170.323 446.556 172.108 446.912 176.023C446.979 176.757 448.213 179.1 449.305 178.788C451.984 178.023 454.279 170.694 451.644 169.377" stroke="black" stroke-width="11" stroke-linecap="round" stroke-linejoin="round"/>
<path d="M931.263 477.898C919.491 484.372 907.422 480.277 894.5 482L892.156 483.847C892.156 489.021 884.76 492.777 880.693 494.585C872.692 498.141 865.204 502.03 856.387 504.742C849.145 506.971 843.2 509.312 835.565 510.039C830.776 510.495 827.543 514.481 823.231 516.206C818.309 518.175 817.06 520.414 811.187 520.414C807.544 520.414 798.939 519.796 796.821 517.149C793.174 512.59 780.92 506.42 779.771 500.099C777.354 486.808 778.538 472.593 778.538 459.034C778.538 449.218 778.733 441.047 781.222 432.334C783.992 422.639 788.985 413.728 788.985 402.877C788.985 396.811 789.524 395.43 785.14 391.777C780.632 388.02 782.271 384.638 782.456 379.66C782.824 369.709 791.028 357.738 797.474 351.292C802.4 346.366 805.624 337.781 809.228 331.775C813.317 324.959 818.238 319.364 823.956 313.782C830.491 307.403 838.915 302.767 846.738 298.11C852.709 294.556 862.504 290.565 869.447 290.565C879.568 290.565 889.732 290.854 899.847 290.565C907.931 290.334 910.264 287.945 918.276 290.565C922.647 291.994 926.534 292.081 930.61 294.41C932.946 295.745 935.197 295.374 937.575 296.369C939.967 297.37 941.289 300.113 943.742 300.867C950.083 302.818 953.21 305.517 958.688 309.283C967.618 315.423 976.694 323.559 980.236 334.387C982.616 341.662 985.935 346.931 986.766 354.412C987.897 364.594 989.994 374.852 987.782 385.029C987.309 387.203 985.747 388.411 985.025 390.398C984.12 392.885 984.902 396.485 984.589 399.105C984.002 404.024 982.789 410.122 980.817 414.631C973.228 431.977 965.25 446.939 951.505 461.065L951.304 461.272C944.735 468.024 939.578 473.324 931.263 477.898Z" fill="white" stroke="black" stroke-width="11" stroke-linecap="round" stroke-linejoin="round"/>
<path d="M804.657 396.348C817.365 399.572 828.454 405.525 841.079 408.682C842.886 409.133 851.978 411.993 846.448 414.921C842.306 417.114 839.019 418.003 835.419 421.088C833.907 422.385 832.135 423.356 830.486 424.498C828.347 425.979 827.878 428.911 825.552 430.012C817.638 433.761 810.325 429.158 809.881 421.161C809.686 417.664 806.695 413.762 806.035 410.133C805.471 407.031 805.963 403.418 805.963 400.265" stroke="black" stroke-width="11" stroke-linecap="round" stroke-linejoin="round"/>
<path d="M786.373 440.75C789.661 445.271 796.821 456.821 796.821 444.378C796.821 436.877 790.016 439.444 783.761 439.444" stroke="black" stroke-width="11" stroke-linecap="round" stroke-linejoin="round"/>
<path d="M774.62 460.34C776.784 463.11 779.529 466.755 783.036 468.03C785.099 468.781 784.966 466.599 786.373 465.854C789.853 464.012 794.751 466.682 798.127 466.87C802.451 467.11 806.857 466.87 811.187 466.87C815.675 466.87 818.232 465.104 816.12 468.175C813.593 471.852 798.833 469.481 794.209 469.481C786.948 469.481 780.409 474.705 773.314 474.705" stroke="black" stroke-width="11" stroke-linecap="round" stroke-linejoin="round"/>
</svg>
