<svg width="1440" height="1024" viewBox="0 0 1440 1024" fill="none" xmlns="http://www.w3.org/2000/svg">
<path d="M496.75 683.69C487.178 679.413 476.788 671.89 466.147 670.544C459.034 669.644 451.046 677.101 446.697 681.891C441.619 687.483 440.818 694.924 439.578 702.22C438.632 707.787 439.566 710.421 441.495 715.875C444.826 725.299 451.499 731.231 457.07 739.531C458.704 741.965 459.956 744.762 462.837 745.851C468.586 748.025 474.861 749.602 480.877 750.859C487.315 752.205 494.557 750.718 499.654 746.327C503.204 743.269 509.029 737.652 509.856 732.79" stroke="#F2CB43" stroke-width="11" stroke-linecap="round" stroke-linejoin="round"/>
<path d="M521.389 669.605C523.776 679.243 527.121 688.588 529.595 698.187C530.754 702.682 530.123 707.287 530.095 711.866C530.088 713.097 530.497 725.092 530.897 725.067C534.243 724.857 537.355 722.525 540.466 721.485C544.658 720.084 549.039 719.48 553.203 717.956C558.885 715.877 564.461 713.821 570.437 712.897" stroke="#F2CB43" stroke-width="11" stroke-linecap="round" stroke-linejoin="round"/>
<path d="M593.522 661.208C595.175 673.019 595.245 685.07 596.999 696.844C597.223 698.344 597.226 703.425 598.149 704.101" stroke="#F2CB43" stroke-width="11" stroke-linecap="round" stroke-linejoin="round"/>
<path d="M651.742 655.214C637.372 652.772 621.098 645.875 612.59 662.242C609.852 667.51 608.715 674.655 607.725 680.482C606.916 685.241 610.732 690.691 612.514 694.89C614.851 700.396 624.028 705.635 629.456 707.656C632.118 708.648 640.069 706.197 642.868 705.346C646.092 704.365 649.942 699.556 651.351 696.724C652.249 694.921 652.764 689.684 654.724 689.088" stroke="#F2CB43" stroke-width="11" stroke-linecap="round" stroke-linejoin="round"/>
<path d="M672.883 647.685C674.317 658.051 676.216 668.533 676.695 679.008C676.808 681.475 676.253 683.501 677.067 685.912C679.394 692.806 681.354 700.52 680.931 707.843" stroke="#F2CB43" stroke-width="11" stroke-linecap="round" stroke-linejoin="round"/>
<path d="M677.686 675.513C682.523 672.202 687.75 669.603 692.581 666.304C696.429 663.677 700.289 660.779 704.665 659.089C707.753 657.897 710.303 654.608 713.166 653.737" stroke="#F2CB43" stroke-width="11" stroke-linecap="round" stroke-linejoin="round"/>
<path d="M679.74 677.451C693.358 680.925 707.604 684.15 720.403 690.1C724.484 691.997 729.233 695.396 733.76 696.166" stroke="#F2CB43" stroke-width="11" stroke-linecap="round" stroke-linejoin="round"/>
<path d="M791.87 644.074C789.62 659.629 789.714 675.456 787.084 690.928" stroke="#F2CB43" stroke-width="11" stroke-linecap="round" stroke-linejoin="round"/>
<path d="M789.685 642.909C795.835 649.854 800.304 657.345 805.567 664.763C808.361 668.701 811.612 660.113 813.043 657.648C817.132 650.604 821.076 643.51 825.2 636.498C825.851 635.393 827.67 631.565 829.073 631.375C832.063 630.97 834.767 642.506 835.162 644.106C837.405 653.184 839.223 662.302 840.84 671.464C841.647 676.036 845.694 682.639 844.91 687.251" stroke="#F2CB43" stroke-width="11" stroke-linecap="round" stroke-linejoin="round"/>
<path d="M858.992 632.443C862.17 644.712 865.164 656.513 865.534 669.261C865.585 671.024 866.406 672.769 866.525 674.594C866.74 677.865 871.417 676.345 873.738 676.305C879.77 676.203 884.899 675.503 890.549 673.734C892.207 673.215 895.802 673.478 896.72 672.223" stroke="#F2CB43" stroke-width="11" stroke-linecap="round" stroke-linejoin="round"/>
<path d="M858.336 636.304C874.095 634.048 890.028 633.68 905.861 632.465" stroke="#F2CB43" stroke-width="11" stroke-linecap="round" stroke-linejoin="round"/>
<path d="M862.383 659.237C871.432 659.29 881.572 657.793 890.079 655.205" stroke="#F2CB43" stroke-width="11" stroke-linecap="round" stroke-linejoin="round"/>
<path d="M473.931 813.279C479.294 822.241 483.333 831.587 486.989 841.362C488.478 845.344 489.204 849.912 490.927 853.772C492.89 858.173 497.011 862.345 498.997 866.796" stroke="#F2CB43" stroke-width="11" stroke-linecap="round" stroke-linejoin="round"/>
<path d="M472.008 810.569C472.345 801.714 472.862 796.413 482.107 793.219C486.278 791.778 488.992 791.211 493.357 791.953C500.356 793.142 505.547 795.57 511.473 799.622C516.635 803.152 515.887 812.926 515.205 818.176C514.586 822.94 509.889 826.961 505.657 828.646C502.191 830.026 498.605 831.291 495.101 832.59C493.778 833.08 490.313 833.759 489.455 835.161C489.356 835.325 504.451 838.328 505.912 838.576C511.013 839.443 515.889 840.04 520.709 841.885" stroke="#F2CB43" stroke-width="11" stroke-linecap="round" stroke-linejoin="round"/>
<path d="M525.363 795.804C526.089 805.959 531.953 815.757 534.61 825.534C534.745 826.031 535.333 833.983 536.313 834.21C540.717 835.227 544.552 829.694 547.395 827.177C553.724 821.576 560.266 815.94 568.442 813.453" stroke="#F2CB43" stroke-width="11" stroke-linecap="round" stroke-linejoin="round"/>
<path d="M524.081 793.997C531.227 787.254 539.894 782.632 547.457 776.431C549.275 774.941 551.577 774.283 553.761 773.619" stroke="#F2CB43" stroke-width="11" stroke-linecap="round" stroke-linejoin="round"/>
<path d="M530.838 815.007C537.539 811.367 544.091 807.618 549.678 802.32" stroke="#F2CB43" stroke-width="11" stroke-linecap="round" stroke-linejoin="round"/>
<path d="M568.841 769.032C579.477 782.674 586.418 797.558 592.262 813.529" stroke="#F2CB43" stroke-width="11" stroke-linecap="round" stroke-linejoin="round"/>
<path d="M569.861 772.383C570.649 768.008 570.424 760.448 574.72 758.335C578.264 756.591 580.522 753.984 584.648 754.196C587.488 754.342 590.758 753.938 593.451 755.118C596.758 756.569 596.783 758.445 598.596 761.201C599.983 763.311 600.486 765.143 600.07 767.587C599.097 773.315 602.782 780.437 597.438 785.412C592.416 790.086 589.599 792.373 582.795 794.442" stroke="#F2CB43" stroke-width="11" stroke-linecap="round" stroke-linejoin="round"/>
<path d="M607.903 754.22C607.832 762.716 608.764 771.081 610.513 779.38C611.491 784.026 612.93 788.579 613.852 793.233C614.003 793.996 613.598 798.638 614.248 798.95C618.583 801.026 629.32 794.429 633.061 792.657C635.059 791.711 641.505 790.238 641.918 787.807" stroke="#F2CB43" stroke-width="11" stroke-linecap="round" stroke-linejoin="round"/>
<path d="M605.193 756.143C612.006 750.218 618.378 744.214 626.233 739.858" stroke="#F2CB43" stroke-width="11" stroke-linecap="round" stroke-linejoin="round"/>
<path d="M609.634 776.759C617.128 774.328 623.712 770.266 631.037 767.686" stroke="#F2CB43" stroke-width="11" stroke-linecap="round" stroke-linejoin="round"/>
<path d="M653.289 734.923C654.341 745.268 654.664 754.878 652.928 765.095C652.355 768.465 652.71 771.999 653.167 775.375C653.887 780.694 652.477 787.483 654.651 792.355" stroke="#F2CB43" stroke-width="11" stroke-linecap="round" stroke-linejoin="round"/>
<path d="M652.386 735.564C663.369 746.494 676.073 757.055 684.444 770.274C685.529 771.988 684.943 774.464 687.026 774.818" stroke="#F2CB43" stroke-width="11" stroke-linecap="round" stroke-linejoin="round"/>
<path d="M656.402 768.024C663.748 766.756 674.113 764.587 678.709 758.31" stroke="#F2CB43" stroke-width="11" stroke-linecap="round" stroke-linejoin="round"/>
<path d="M696.722 722.443C698.355 730.461 701.345 738.099 703.027 746.112C704.481 753.039 708.636 759.068 709.974 766.007C710.691 769.731 713.422 773.764 712.769 777.604" stroke="#F2CB43" stroke-width="11" stroke-linecap="round" stroke-linejoin="round"/>
<path d="M670.16 733.818C679.547 732.439 688.242 730.962 697.063 727.445C704.076 724.648 711.135 722.006 718.574 720.596C721.413 720.058 724.839 720.84 727.376 719.709" stroke="#F2CB43" stroke-width="11" stroke-linecap="round" stroke-linejoin="round"/>
<path d="M745.12 727.491C748.002 741.287 750.371 755.323 753.328 769.05C753.554 770.098 753.524 773.341 754.758 773.619C755.721 773.835 756.972 772.747 757.709 772.355C760.748 770.737 764.058 769.776 767.207 768.408C771.235 766.658 775.483 764.347 779.003 761.85" stroke="#F2CB43" stroke-width="11" stroke-linecap="round" stroke-linejoin="round"/>
<path d="M746.023 726.85C753.775 727.026 759.899 725.694 767.249 724.014C768.955 723.624 771.061 723.161 772.817 723.459" stroke="#F2CB43" stroke-width="11" stroke-linecap="round" stroke-linejoin="round"/>
<path d="M750.842 749.914C762.893 745.682 761.736 746.547 773 740.5" stroke="#F2CB43" stroke-width="11" stroke-linecap="round" stroke-linejoin="round"/>
<path d="M796.405 715.552C795.455 718.355 794.183 720.613 795.88 723.319C801.333 732.018 805.021 741.164 807.014 751.296C807.518 753.86 806.008 762.459 810.314 759.404C814.72 756.278 818.449 754.427 821.532 750.011C824.359 745.963 824.615 741.222 825.424 736.461C826.25 731.602 823.77 730.195 820.872 726.11C817.703 721.643 812.862 720.732 807.551 719.829C802.112 718.905 793.613 716.993 789.688 722.355" stroke="#F2CB43" stroke-width="11" stroke-linecap="round" stroke-linejoin="round"/>
<path d="M844.703 711.844C844.663 713.186 841.466 750.875 844.318 751.501C854.054 753.636 865.974 747.406 874.347 743.099" stroke="#F2CB43" stroke-width="11" stroke-linecap="round" stroke-linejoin="round"/>
<path d="M879.495 703.457C883.585 707.769 889.835 711.484 892.686 716.733C893.382 718.014 894.67 718.41 895.927 718.961" stroke="#F2CB43" stroke-width="11" stroke-linecap="round" stroke-linejoin="round"/>
<path d="M911.33 693.773C909.717 696.755 907.359 699.674 906.008 702.755C904.714 705.705 904.379 709.062 903.274 712.088C901.604 716.663 899.364 721.023 897.587 725.554C895.68 730.416 893.055 735.859 892.187 740.967C891.677 743.964 891.462 745.85 889.396 748.04" stroke="#F2CB43" stroke-width="11" stroke-linecap="round" stroke-linejoin="round"/>
<path d="M932.377 689.891C932.958 702.673 932.661 715.884 934.263 728.609C934.699 732.071 935.845 735.503 935.834 739.011" stroke="#F2CB43" stroke-width="11" stroke-linecap="round" stroke-linejoin="round"/>
<path d="M936.166 756.001C935.171 757.075 928.528 762.762 930.492 765.53C931.286 766.649 933.904 766.269 934.763 765.66C937.422 763.773 939.406 751.35 937.386 755.135" stroke="#F2CB43" stroke-width="11" stroke-linecap="round" stroke-linejoin="round"/>
<path d="M381.802 652.123C371.569 651.949 359.767 649.436 349.8 650.977" stroke="#F2CB43" stroke-width="11" stroke-linecap="round" stroke-linejoin="round"/>
<path d="M370.905 741.493C365.108 744.879 358.89 746.486 352.227 747.202C350.235 747.417 347.977 746.97 346.185 748.024C344.473 749.031 342.575 749.557 340.615 749.224" stroke="#F2CB43" stroke-width="11" stroke-linecap="round" stroke-linejoin="round"/>
<path d="M405.393 835.358C396.734 841.676 387.102 851.507 382.697 861.55" stroke="#F2CB43" stroke-width="11" stroke-linecap="round" stroke-linejoin="round"/>
<path d="M443.958 905.231C437.163 920.585 426.18 934.061 423.286 951.086" stroke="#F2CB43" stroke-width="11" stroke-linecap="round" stroke-linejoin="round"/>
<path d="M943.451 599.477C951.25 591.765 956.727 581.701 966.658 576.591" stroke="#F2CB43" stroke-width="11" stroke-linecap="round" stroke-linejoin="round"/>
<path d="M962.102 641.283C977.603 640.547 993.21 644.016 1008.71 644.911" stroke="#F2CB43" stroke-width="11" stroke-linecap="round" stroke-linejoin="round"/>
<path d="M982.069 706.922C995.186 707.146 1008.4 707.105 1021.37 709.309" stroke="#F2CB43" stroke-width="11" stroke-linecap="round" stroke-linejoin="round"/>
<path d="M980.33 761.36C998.86 770.639 1016.56 784.917 1036.42 791.284" stroke="#F2CB43" stroke-width="11" stroke-linecap="round" stroke-linejoin="round"/>
</svg>
