<svg width="1440" height="1031" viewBox="0 0 1440 1031" fill="none" xmlns="http://www.w3.org/2000/svg">
<path d="M401.897 775.586C435.877 762.29 458.633 742.985 484.307 718.533C494.297 709.02 504.936 701.289 513.89 690.594C521.474 681.536 528.128 673.21 540.304 671.928C548.434 671.073 555.471 665.707 563.665 665.707C570.779 665.707 586.269 662.361 591.604 668.289C594.406 671.402 592.2 679.071 594.657 682.142C598.5 686.945 600.275 693.374 602.639 698.694C608.104 710.989 609.054 724.112 610.974 737.551C613.44 754.814 612.492 777.524 600.057 790.847C588.306 803.437 580.062 818.475 567.656 830.526C560.714 837.27 552.647 845.145 546.76 852.714C540.801 860.376 531.372 871.066 523.517 876.779C516.279 882.043 507.295 885.723 501.212 891.805" stroke="black" stroke-width="11" stroke-linecap="round" stroke-linejoin="round"/>
<path d="M281.452 834.752C261.893 848.879 245.331 865.547 225.338 879.127C220.028 882.734 216.204 889.012 210.077 891.336C204.464 893.465 200.984 893.653 196.46 897.675C187.954 905.236 172.565 908.676 162.651 915.049C154.56 920.25 142.734 921.431 135.65 927.728C129.832 932.899 128.206 938.282 126.728 946.041C124.825 956.034 118.427 964.752 121.328 975.389C122.543 979.845 133.963 988.539 137.763 990.65C144.707 994.508 151.782 998.42 159.129 1001.69C168.375 1005.79 180.404 1008.89 190.59 1010.02C199.399 1011 204.482 1016.48 213.834 1016.48C240.67 1016.48 262.986 1013.55 288.731 1004.97C301.144 1000.83 317.63 993.307 325.944 983.607C330.488 978.306 342.386 974.021 344.844 967.876C347.025 962.424 356.866 960.737 359.636 955.198" stroke="black" stroke-width="11" stroke-linecap="round" stroke-linejoin="round"/>
<path d="M570.943 850.483C561.431 833.837 582.281 815.047 595.462 807.738C602.203 809.367 611.092 815.131 611.092 821.017C611.092 830.202 603.718 834.599 602.522 842.97C601.968 846.848 598.494 850.321 596.77 853.77C592.36 862.589 575.006 857.593 570.943 850.483Z" fill="#C4C4C4"/>
<path d="M596.3 807.282C583.191 814.239 561.227 833.479 570.943 850.483C575.006 857.593 592.36 862.589 596.77 853.77C598.494 850.321 601.968 846.848 602.522 842.97C603.718 834.599 611.092 830.202 611.092 821.017C611.092 814.064 598.689 807.282 592.074 807.282" stroke="black" stroke-width="11" stroke-linecap="round" stroke-linejoin="round"/>
<path d="M318.548 1024.81C308.816 1022.03 316.744 1014.99 317.374 1014.36C317.374 1002.92 328.552 982.668 341.675 982.668C349.521 982.668 386.602 981.546 387.106 991.12C387.873 1005.7 347.041 1024.93 336.509 1024.93C331.179 1024.93 323.677 1026.28 318.548 1024.81Z" fill="white" stroke="black" stroke-width="11" stroke-linecap="round" stroke-linejoin="round"/>
<path d="M800.915 397.55C811.479 399.877 821.916 402.576 832.614 403.646C833.779 403.762 834.519 404.807 835.797 404.865C837.763 404.954 838.568 404.998 840.234 406.05C842.51 407.488 846.563 407.659 847.989 410.351C848.442 411.207 849.165 413.897 847.718 414.009C844.934 414.223 842.729 415.916 840.505 417.361C837.98 419.002 835.372 420.825 832.681 422.17C830.475 423.274 827.604 422.606 825.434 423.898C821.236 426.397 809.475 428.929 807.146 422.407C804.595 415.264 800.22 409.203 798.51 401.512C797.964 399.051 792.906 395.347 790.078 395.111C788.628 394.991 789.333 393.875 789.333 395.721C789.333 396.962 789.568 398.472 789.299 399.683C788.932 401.334 787.8 402.79 787.538 404.492C787.346 405.736 787.885 407.359 787.368 408.522C786.73 409.959 785.066 416.31 785.066 410.961C785.066 403.288 783.237 395.815 783.237 388.101C783.237 385.274 786.906 392.186 787.504 392.538C788.889 393.352 792.904 394.33 793.6 395.721" stroke="black" stroke-width="11" stroke-linecap="round" stroke-linejoin="round"/>
<path d="M849.073 410.351C872.969 410.351 896.675 407.913 920.395 407.913" stroke="black" stroke-width="11" stroke-linecap="round" stroke-linejoin="round"/>
<path d="M950.265 435.344C951.152 437.536 953.313 440.56 953.313 442.998C953.313 444.202 952.804 446.368 953.922 446.927" stroke="black" stroke-width="11" stroke-linecap="round" stroke-linejoin="round"/>
<path d="M800.915 403.646C802.924 410.619 805.23 416.01 808.366 421.933C810.304 425.595 810.668 421.268 810.668 419.19C810.668 416.584 809.449 414.18 809.449 411.57C809.449 410.403 808.84 406.446 808.84 406.829C808.84 409.606 810.459 411.293 812.362 413.264C814.435 415.411 816.333 417.452 818.119 419.834C818.367 420.164 819.624 422.376 819.778 421.527C820.07 419.923 820.068 417.398 819.203 415.973C818.537 414.876 817.374 413.834 817.374 412.485C817.374 411.507 816.152 408.796 816.9 408.048C817.385 407.563 817.936 410.065 817.984 410.351C818.107 411.089 819.462 412.164 819.812 413.128C820.47 414.938 823.106 419.007 825.299 418.885C827.287 418.775 826.518 413.074 826.518 411.841C826.518 407.455 826.774 412.263 827.432 412.789C828.263 413.454 827.509 414.009 828.956 414.009C829.85 414.009 830.853 413.882 831.733 414.043C834.49 414.544 832.418 411.882 833.968 410.487C834.838 409.704 839.334 410.351 840.538 410.351" stroke="black" stroke-width="11" stroke-linecap="round" stroke-linejoin="round"/>
<path d="M786.285 395.111C786.285 398.226 785.675 401.111 785.675 404.255" stroke="black" stroke-width="11" stroke-linecap="round" stroke-linejoin="round"/>
<path d="M400.905 784.462C400.313 803.391 399.5 822.307 399.002 841.218C398.9 845.085 397.733 848.74 397.733 852.639C397.733 857.301 397.733 853.174 397.733 850.771C397.733 844.671 398.402 838.521 399.143 832.475C399.992 825.545 400.016 818.508 401.046 811.606C402.169 804.088 404.662 796.677 406.969 789.468C407.144 788.921 407.692 787.435 407.85 787.988C410.801 798.317 412.312 808.978 413.913 819.573C415.14 827.687 415.5 834.948 415.5 843.121C415.5 844.04 415.795 849.779 415.852 849.714C416.834 848.592 417.009 846.927 417.262 845.519C418.75 837.251 419.266 828.838 420.858 820.56C422.942 809.726 424.768 798.244 425.617 787.212C425.693 786.228 425.652 783.264 425.652 784.251C425.652 789.137 427.493 794.159 428.402 798.916C431.455 814.892 433.037 831.242 433.936 847.422C434.081 850.02 434.536 852.57 434.536 855.178C434.536 857.239 435.202 858.361 435.029 855.248C433.872 834.42 436.019 813.728 435.135 792.958C434.751 783.932 434.536 774.947 434.536 765.92C434.536 764.049 435.245 766.933 435.452 767.33C439.548 775.18 442.871 782.519 445.182 791.16C447.308 799.111 447.857 807.349 449.8 815.343C452.212 825.271 453.539 835.352 454.488 845.519C454.934 850.299 456.608 854.571 457.238 859.267C457.637 862.241 457.379 865.367 457.379 868.362C457.379 869.184 457.379 870.007 457.379 870.829C457.379 874.558 458.032 863.4 458.401 859.69C459.308 850.573 460.82 841.792 462.314 832.828C464.086 822.197 464.359 811.805 464.359 801.066C464.359 792.339 463.09 783.77 463.09 775.085C463.09 769.469 463.09 763.852 463.09 758.235C463.09 756.901 463.204 760.913 463.477 762.218C464.778 768.432 464.615 774.871 466.192 781.008C469.309 793.141 474.168 804.783 475.78 817.282C477.281 828.912 478.785 840.782 480.998 852.287C481.342 854.079 482.126 855.697 482.126 857.539C482.126 865.96 479.588 840.826 479.588 832.405C479.588 824.646 479.943 817.079 480.716 809.35C481.601 800.494 480.946 791.605 481.773 782.77C482.631 773.597 482.76 764.544 482.76 755.344C482.76 751.455 482.76 747.565 482.76 743.676C482.76 742.56 482.76 745.909 482.76 747.025C482.76 757.563 484.364 767.96 484.664 778.47C484.908 787.022 487.951 794.969 489.317 803.357C489.951 807.252 490.077 811.43 490.375 815.378C490.903 822.374 492.988 829.143 493.477 836.106C493.774 840.347 493.356 844.634 495.134 848.585C495.878 850.24 496.022 851.711 496.085 853.485C496.268 858.587 498.768 845.955 498.835 845.378C500.211 833.574 499.544 821.588 499.963 809.738C500.244 801.8 501.045 794.262 500.668 786.295C499.942 770.975 498.715 755.818 499.611 740.468C500.055 732.847 500.527 725.29 500.527 717.66C500.527 716.942 500.881 719.053 501.091 719.74C502.886 725.596 504.809 731.383 506.167 737.366C508.567 747.933 510.252 758.68 511.949 769.375C513.856 781.396 516.367 793.201 517.589 805.331C518.467 814.051 518.294 822.772 518.294 831.524C518.294 838.437 517.659 845.314 517.659 852.216C517.659 854.59 517.659 856.964 517.659 859.337C517.659 860.653 517.659 861.969 517.659 863.285C517.659 864.72 516.721 868.531 517.8 867.586C518.301 867.148 518.259 864.862 518.329 864.343C518.807 860.84 519.868 857.444 520.55 853.979C523.814 837.398 524.47 820.453 526.825 803.745C528.525 791.683 529.426 779.529 528.94 767.33C528.566 757.941 526.419 748.453 525.556 739.058C525.12 734.311 525.206 729.233 524.146 724.57C523.067 719.823 521.108 715.389 520.233 710.575C517.887 697.672 526.712 736.012 530.808 748.47C533.274 755.969 534.205 763.329 535.426 771.067C536.452 777.563 537.813 784.151 537.965 790.737C538.143 798.486 538.893 806.068 538.247 813.827C537.866 818.393 536.816 823.042 536.695 827.611C536.496 835.204 539.9 812.76 541.49 805.331C542.557 800.342 542.842 795.975 543.147 790.949C543.799 780.183 544.944 769.529 544.944 758.729C544.944 746.803 544.587 734.327 542.724 722.525C541.268 713.308 540.178 703.954 538.458 694.782C537.645 690.448 541.509 703.056 543.041 707.19C546.594 716.783 548.644 726.687 550.937 736.626C554.036 750.054 557.259 764.95 557.6 778.752C557.778 785.951 559.539 792.915 559.539 800.114C559.539 801.524 559.539 805.754 559.539 804.344C559.539 802.737 560.124 800.785 560.385 799.303C562.394 787.889 564.197 776.397 565.355 764.862C566.576 752.698 567.036 740.332 565.249 728.2C564.233 721.299 562.275 714.608 561.301 707.684C560.355 700.96 560.54 692.577 557.952 686.251C557.747 685.749 556.627 685.012 557.142 684.841C557.918 684.582 558.207 686.085 558.693 686.744C560.565 689.286 563.221 693.096 564.897 695.557C575.666 711.376 582.734 728.621 584.99 747.8C585.818 754.835 585.798 761.695 586.189 768.74C586.547 775.176 587.996 755.962 588.375 749.528C589.105 737.116 589.906 724.877 587.775 712.584C586.522 705.352 585.728 697.834 583.016 690.975C580.883 685.578 578.521 680.266 576.389 674.864C576.187 674.353 573.518 670.634 574.274 672.785C574.959 674.736 577.01 676.326 578.152 678.002C580.351 681.231 582.136 684.869 583.862 688.366C591.248 703.326 593.332 719.565 596.941 735.639C598.689 743.428 599.514 751.128 599.514 759.081" stroke="black" stroke-width="11" stroke-linecap="round" stroke-linejoin="round"/>
<path d="M287.959 856.165C287.778 872.021 283.9 888.777 286.69 904.53C288.446 914.449 293.089 922.285 297.089 931.498C299.173 936.298 300.837 941.222 303.469 945.775C305.373 949.068 307.87 951.81 310.273 954.694C312.521 957.392 314.563 961.11 317.429 963.26C319.072 964.492 320.5 965.137 321.836 966.82C322.638 967.831 323.247 968.49 321.518 967.349C318.733 965.51 316.001 963.577 313.446 961.427C310.089 958.603 306.886 955.817 303.61 952.896C298.591 948.418 296.01 943.222 292.577 937.385C289.176 931.604 285.977 925.617 283.376 919.406C280.398 912.295 278.207 904.893 275.374 897.727C273.956 894.14 272.36 890.531 271.355 886.799C269.799 881.019 268.288 875.474 268.288 869.49C268.288 867.273 267.248 866.156 266.702 868.996C264.186 882.076 261.179 895.361 259.687 908.619C258.636 917.955 258.691 928.337 261.026 937.455C262.915 944.83 263.73 953.043 268.288 959.312C269.93 961.57 272.146 963.395 273.576 965.798C276.119 970.07 280.663 973.791 282.741 978.206C283.051 978.865 281.461 977.994 280.344 977.36C277.328 975.648 274.65 972.161 272.201 969.817C265.682 963.578 260.587 956.406 254.716 949.617C251.428 945.815 250.353 939.747 248.759 935.058C246.214 927.573 244.183 919.879 242.554 912.145C242.208 910.5 241.638 908.604 241.638 906.892C241.638 900.123 239.1 893.619 239.1 886.94C239.1 883.877 237.596 886.177 237.337 887.891C236.775 891.613 237.719 895.685 238.148 899.348C239.309 909.26 239.79 919.228 241.003 929.136C241.658 934.482 242.098 939.977 243.048 945.281C243.524 947.94 244.847 950.443 245.445 953.107C246.81 959.187 250.732 964.297 253.024 970.028C254.062 972.623 256.175 974.617 257.501 977.078C259.249 980.324 261.747 985.321 264.446 987.795C265.487 988.75 266.398 990.147 267.16 991.32C268.649 993.611 273.365 996.588 267.16 994.986C253.067 991.349 239.252 981.072 227.572 972.989C222.642 969.577 210.749 963.125 207.69 956.668C205.616 952.289 204.468 947.238 203.213 942.602C201.791 937.347 199.879 931.62 199.759 926.104C199.708 923.785 199.088 921.849 198.772 919.547C198.252 915.763 197.921 911.946 197.855 908.126C197.83 906.678 199.127 908.939 200.111 909.677C204.639 913.073 211.076 915.814 213.718 921.099C217.163 927.988 220.117 935.18 222.813 942.391C224.618 947.215 226.217 952.114 227.89 956.985C229.69 962.23 233.4 966.15 237.02 970.24C242.236 976.134 246.978 982.389 251.931 988.5C253.724 990.712 255.553 992.653 256.373 995.409C256.873 997.091 259.472 1000.47 260.991 1001.4C265.606 1004.24 262.033 1003.67 258.77 1002.46C251.048 999.584 242.915 998.067 235.116 995.445C230.273 993.816 226.062 991.159 221.685 988.606C215.074 984.749 207.675 979.796 202.156 974.399C195.88 968.263 192.734 961.915 189.042 953.777C184.792 944.409 178.937 935.894 176.915 925.681C175.961 920.86 175.646 924.304 175.646 926.95C175.646 929.871 176.528 932.346 177.268 935.164C179.003 941.774 179.369 948.551 180.723 955.222C181.325 958.189 181.729 961.045 182.133 964.035C182.581 967.357 184.607 969.928 186.081 972.848C189.403 979.431 192.098 985.423 196.938 991.038C200.776 995.489 205.032 999.581 208.642 1004.22C209.375 1005.16 208.032 1002.48 207.972 1002.39C204.921 997.622 199.896 994.907 195.317 991.743C188.348 986.928 181.85 981.816 175.223 976.585C173.444 975.18 171.485 974.495 169.865 972.848C163.963 966.849 161.678 960.184 160.453 952.014C159.802 947.676 160.925 935.579 158.232 939.042C157.167 940.411 157.805 944.811 157.879 946.268C158.136 951.276 160.088 956.156 160.594 961.18C161.167 966.867 160.75 972.307 160.453 977.96C160.142 983.874 162.669 989.104 164.718 994.493C165.133 995.584 166.058 997.31 166.058 998.512C166.058 1000.83 162.998 995.005 161.757 993.047C158.651 988.149 154.807 984.52 151.957 979.264C148.067 972.09 146.491 965.462 145.788 957.373C145.51 954.178 145.189 951.198 145.189 947.96C145.189 947.44 144.954 942.626 145.823 944.365" stroke="black" stroke-width="11" stroke-linecap="round" stroke-linejoin="round"/>
<path d="M646.307 369.261C637.299 369.261 624.883 370.279 616.065 367.238C611.276 365.587 606.941 362.678 602.005 361.119C598.626 360.052 592.732 358.444 590.07 356.315C586.418 353.393 592.446 367.536 593.307 369.059C596.06 373.931 597.232 380.853 602.612 383.927C604.02 384.732 604.447 386.415 605.343 387.67C606.607 389.439 608.511 389.292 609.895 390.603C612.049 392.644 612.611 393.685 615.761 395.155C619.283 396.798 624.689 397.115 628.556 396.52C641.073 394.594 644.487 382.106 644.487 371.082" stroke="black" stroke-width="11" stroke-linecap="round" stroke-linejoin="round"/>
<path d="M644.487 371.082C651.208 369.872 654.835 366.96 660.367 363.799C660.933 363.475 662.007 360.118 662.491 359.248C664.165 356.234 665.198 352.811 667.042 349.942C667.861 348.669 668.155 346.916 668.155 350.145C668.155 352.301 669.599 353.942 669.925 356.062C670.683 360.989 671.796 366.094 671.796 371.082C671.796 376.153 674.205 388.378 666.789 388.378C661.015 388.378 663.193 382.644 661.985 378.567C661.301 376.257 661.049 374.496 660.164 372.194C659.47 370.39 658.141 369.466 658.141 367.441" stroke="black" stroke-width="11" stroke-linecap="round" stroke-linejoin="round"/>
<path d="M589.868 371.992C579.314 371.992 569.269 373.813 558.917 373.813" stroke="black" stroke-width="11" stroke-linecap="round" stroke-linejoin="round"/>
<path d="M641.359 372.215C638.611 375.92 634.969 380.91 632.017 384.632C631.378 385.437 629.738 387.766 628.43 388.377C628.128 388.518 627.432 388.762 627.248 389.047C626.739 389.832 626.194 390.395 627.445 389.323C628.355 388.542 628.627 388.592 629.297 387.549C630.076 386.337 630.834 385.422 631.15 384.001C631.761 381.253 633.463 378.841 633.554 376C633.566 375.634 633.735 373.968 633.495 374.245C631.554 376.493 629.313 378.487 627.129 380.493C624.895 382.546 621.611 384.939 618.655 385.361C617.822 385.48 618.38 385.21 618.812 384.514C620.012 382.58 621.581 380.771 622.596 378.739C622.844 378.244 623.504 376.852 623.602 376.315C623.871 374.831 626.994 371.366 625.927 372.432C623.454 374.905 620.613 376.959 617.551 378.818C617.43 378.891 605.896 385.713 605.253 384.041C604.723 382.663 606.328 381.135 606.948 380.02C608.2 377.766 610.504 376.059 611.757 373.792C612.172 373.04 611.972 372.604 612.703 371.94C613.321 371.377 613.975 371.444 613.885 370.323C613.8 369.262 610.587 371.418 610.456 371.506C609.241 372.316 608.475 372.883 606.948 372.925C605.958 372.952 599.567 374.201 600.424 372.393C600.671 371.871 605.109 366.293 603.558 365.85C602.431 365.528 602.204 366.732 601.429 367.249C600.312 367.993 599.108 368.668 597.744 368.668C594.833 368.668 598.701 365.476 597.527 365.14C596.728 364.912 595.872 365.321 595.083 364.904C594.164 364.417 593.29 363.525 592.757 362.637" stroke="black" stroke-width="11" stroke-linecap="round" stroke-linejoin="round"/>
<path d="M662.644 366.185C663.291 369.482 663.709 372.685 663.709 376.039C663.709 377.078 663.478 378.383 663.788 379.389C663.916 379.806 663.881 381.454 664.142 381.715C664.996 382.569 665.47 380.667 665.483 380.217C665.533 378.44 665.837 376.71 665.837 374.935C665.837 370.784 667.187 366.762 667.256 362.676C667.277 361.478 667.256 359.87 667.256 362.085C667.256 365.002 667.256 367.919 667.256 370.836C667.256 373.36 667.446 375.685 667.887 378.167C668.081 379.26 667.719 382.458 668.242 381.479C668.541 380.917 668.481 378.844 668.242 378.246C667.715 376.929 667.966 375.275 667.966 373.871C667.966 371.153 667.748 368.5 666.98 365.909C666.792 365.272 667.236 363.839 666.744 363.347C665.948 362.551 665.837 362.842 665.837 361.573" stroke="black" stroke-width="11" stroke-linecap="round" stroke-linejoin="round"/>
<path d="M1112.23 832.081C1073.58 854.496 1029.7 870.305 985.116 874.358C975.436 875.238 965.36 873.58 956.304 877.842C949.447 881.068 937.822 880.726 933.517 888.105C924.156 904.152 922.407 915.626 922.407 933.771C922.407 942.174 932.369 949.041 938.602 953.356C943.849 956.989 946.832 961.399 951.219 965.785C953.981 968.548 958.184 968.218 961.388 970.964C968.458 977.024 978.396 975.747 986.622 978.685C996.516 982.218 1006.93 981.227 1017.32 981.227C1044.25 981.227 1077.23 975.188 1102.06 963.902C1132.64 950.002 1163.85 940.858 1195.28 930.382" stroke="black" stroke-width="11" stroke-linecap="round" stroke-linejoin="round"/>
<path d="M1188.5 774.456C1204.84 762.413 1220 748.876 1236.42 736.981C1249.48 727.527 1264.2 718.294 1274.56 705.721C1281.35 697.477 1287.15 688.713 1295.27 681.334C1303.49 673.866 1310.23 663.517 1320.51 659.112C1325.54 656.954 1329.72 653.782 1334.63 650.732C1339.86 647.487 1349.65 649.037 1355.53 649.037C1361 649.037 1366.66 648.613 1372.11 649.132C1376.58 649.558 1382.01 655.046 1386.04 657.135C1397.61 663.133 1406.68 675.664 1412.59 687.077C1423.33 707.792 1422.39 732.914 1422.39 755.813C1422.39 786.615 1410.54 810.678 1380.86 823.512C1365.81 830.023 1351.47 838.861 1340.66 851.477C1332.52 860.97 1319.92 865.347 1311.47 874.358C1304.12 882.192 1289.94 887.156 1280.77 893.095C1275.83 896.297 1267.27 896.556 1264.77 901.569" stroke="black" stroke-width="11" stroke-linecap="round" stroke-linejoin="round"/>
<path d="M1127.86 1013.81C1115.07 1002.39 1116.28 982.435 1122.4 967.668C1126.46 959.537 1132.5 950.433 1141.61 960.042C1147.73 966.507 1153.23 977.81 1161.38 981.886C1165.17 983.783 1166.46 984.072 1166.46 988.76C1166.46 993.608 1162.86 999.302 1161.38 1004.11C1156.92 1018.59 1139.51 1024.21 1127.86 1013.81Z" fill="white" stroke="black" stroke-width="11" stroke-linecap="round" stroke-linejoin="round"/>
<path d="M1383.4 865.978C1383.4 849.726 1387.68 844.611 1402.05 835.47C1412.7 835.47 1420.85 837.924 1429.54 843.945C1435.31 847.941 1439.55 849.095 1439.33 856.562C1439.1 864.422 1430.8 868.489 1426.34 874.169C1423.99 877.157 1424.44 881.322 1421.44 883.774C1409.67 893.404 1399.11 897.219 1384.35 893.001C1381.44 892.17 1383.4 868.735 1383.4 865.978Z" fill="white" stroke="black" stroke-width="11" stroke-linecap="round" stroke-linejoin="round"/>
<path d="M1201.63 778.427C1208.12 773.533 1212.19 766.581 1217.89 760.88C1220.35 758.424 1221.5 756.534 1221.26 760.781C1220.64 771.71 1218.06 782.628 1216.85 793.496C1216.49 796.741 1215.58 796.875 1216.55 793.001C1218.89 783.668 1222.31 774.723 1225.82 765.787C1228.51 758.959 1230.79 751.582 1234.15 745.067C1234.51 744.367 1236.03 738.602 1237.12 741.647C1238.96 746.743 1237.82 754.695 1238.02 759.889C1238.38 769.613 1238.35 779.403 1238.21 789.134C1238.08 799.176 1237.05 809.551 1236.23 819.57C1235.93 823.246 1232.59 833.842 1233.85 830.376C1243.29 804.424 1252.52 778.23 1261.41 752.057C1264.14 744.039 1268.25 735.865 1269.34 727.421C1269.83 723.64 1269.37 726.634 1269.44 728.462C1269.57 731.613 1270.53 734.824 1271.13 737.88C1273.56 750.249 1275.07 762.547 1275.49 775.156C1275.89 787.202 1277.24 800.891 1275.29 812.928C1273.98 821.023 1272.52 829.079 1271.43 837.217C1271.1 839.671 1268.39 861.477 1270.43 848.023C1275.97 811.649 1284.42 775.836 1290.76 739.615C1291.5 735.368 1291.44 731.468 1293.09 727.52C1293.69 726.075 1294.43 720.333 1294.43 724.397C1294.43 754.233 1295.56 784.066 1295.32 813.919C1295.27 820.021 1293.69 825.876 1293.53 831.962C1293.44 835.562 1294 841.653 1292.2 844.9C1291.63 845.919 1291.75 849.536 1291.75 848.37C1291.75 837.727 1295.29 826.979 1297.6 816.695C1305.16 783.008 1316.23 749.171 1318.62 714.582C1319.61 700.168 1321.19 685.944 1321.19 671.457C1321.19 668.295 1321.19 671.769 1321.19 672.795C1321.19 705.731 1320.46 738.517 1318.72 771.389C1317.68 790.924 1314.95 810.113 1314.95 829.632C1314.95 833.334 1317.85 822.823 1319.31 819.421C1327.4 800.549 1335.1 781.561 1341.86 762.169C1345.71 751.151 1348.72 740.133 1351.68 728.908C1356.86 709.208 1364.21 689.43 1367.39 669.276C1370.77 647.911 1364.12 712.465 1360.65 733.815C1358.36 747.934 1357.52 762.12 1355.3 776.246C1354.14 783.633 1351.53 790.944 1351.53 798.453C1351.53 800.824 1354.72 790.837 1355.05 790.126C1359.37 780.717 1363.66 771.312 1367.69 761.772C1369.59 757.276 1372.23 752.339 1372.84 747.397C1374.78 731.886 1379.72 717.212 1380.08 701.496C1380.09 701.021 1380.97 697.351 1380.97 699.216C1380.97 702.238 1381.85 704.983 1382.56 707.94C1385.48 720.081 1388.21 732.201 1388.81 744.72C1389.44 757.946 1385.54 770.386 1383.85 783.384C1382.91 790.633 1377.82 811.931 1380.13 804.997C1384.72 791.229 1395 780.37 1401.25 767.373C1407.93 753.482 1409.21 734.818 1408.48 719.787C1408.3 716.012 1406.1 710.816 1404.87 707.246C1404.06 704.899 1403.23 707.166 1403.28 708.337C1403.67 716.632 1406.28 724.749 1406.95 733.072C1407.89 744.904 1412.08 756.022 1411.21 768.117C1410.91 772.334 1408.63 775.926 1408.63 780.212" stroke="black" stroke-width="11" stroke-linecap="round" stroke-linejoin="round"/>
<path d="M1118.65 845.427C1123.83 854.445 1130.14 863.338 1134.12 872.938C1136.77 879.328 1138.96 884.292 1144.03 889.048C1152.04 896.557 1165.67 902.414 1171.49 911.949C1172.36 913.36 1175.95 915.161 1177.29 916.113C1178.4 916.898 1186.62 923.649 1184.09 922.854C1167.87 917.771 1150.88 908.824 1136.65 899.458C1130.9 895.674 1125.2 891.962 1120.24 887.164C1111.5 878.709 1100.03 873.926 1090.99 865.751C1090.11 864.95 1086.45 860.593 1084.95 860.794C1083.84 860.941 1086.11 862.713 1086.83 863.569C1090.29 867.692 1093.9 871.665 1097.09 876.011C1100.29 880.365 1102.57 885.021 1106.36 888.949C1113.8 896.654 1120.19 905.662 1128.12 912.841C1131.24 915.666 1134.73 919.763 1138.28 921.962C1138.7 922.223 1139.96 922.773 1139.47 922.854C1134.71 923.649 1127.06 916.61 1123.71 914.229C1115.81 908.621 1107.21 903.648 1098.73 898.962C1089.07 893.631 1079.61 887.649 1070.77 881.018C1069.93 880.39 1065.46 875.863 1064.67 875.863C1064.13 875.863 1064.21 876.787 1064.28 877.102C1064.45 877.87 1064.86 878.138 1065.47 878.837C1069.54 883.576 1073.74 888.196 1077.61 893.113C1088.81 907.332 1095.21 923.629 1104.58 938.816C1108 944.368 1113.47 948.373 1116.37 954.182C1118.31 958.062 1117.35 954.941 1115.78 953.191C1108.04 944.59 1100.95 935.958 1091.59 929.001C1084.26 923.55 1077.36 917.682 1070.67 911.453C1061 902.446 1051.08 892.178 1043.26 881.514C1042.7 880.748 1037.46 873.078 1037.46 875.268C1037.46 876.821 1037.48 878.145 1038.05 879.63C1041.75 889.261 1046.62 898.481 1050.64 907.983C1056.14 920.959 1059.81 934.781 1066.01 947.441C1068.58 952.679 1074.69 956.523 1076.62 961.816C1079.92 970.897 1064.99 946.377 1059.17 938.667C1053.43 931.069 1047.04 920.243 1038.65 914.923C1031.24 910.224 1024.09 905.063 1017.33 899.458C1014.11 896.779 1010.2 893.714 1008.41 889.742C1008.1 889.057 1008.28 886.111 1007.57 885.826C1007.23 885.692 1007.21 895.639 1007.32 896.483C1008.85 908.03 1014.11 917.638 1018.62 928.307C1022.15 936.638 1025.16 945.151 1030.52 952.497C1032.38 955.046 1034.63 957.368 1036.12 960.18C1036.6 961.083 1039.79 966.256 1037.76 963.005C1030.28 951.046 1016.56 942.56 1006.38 933.214C998.5 925.981 988.82 917.692 987.543 906.199C987.229 903.368 985.385 895.364 982.537 894.55C979.725 893.747 980.417 899.68 980.554 900.846C981.586 909.62 981.879 919.404 983.974 927.96C985.625 934.7 986.313 941.25 989.278 947.54C990.09 949.262 992.599 957.893 989.576 952.249C983.877 941.612 978.906 930.663 972.722 920.277C969.934 915.594 965.15 910.215 963.502 904.861C962.872 902.814 959.687 895.954 956.711 897.277C951.117 899.763 961.462 925.286 961.966 927.861C963.299 934.683 965.284 940.229 968.955 946.053C970.39 948.329 975.309 950.529 975.845 952.943C976.387 955.384 971.824 949.743 970.64 947.54C963.823 934.853 956.632 922.24 950.465 909.223C949.183 906.516 944.785 891.202 943.823 899.854C942.742 909.582 943.523 919.941 946.401 929.15C948.278 935.155 953.489 939.709 955.373 945.359" stroke="black" stroke-width="11" stroke-linecap="round" stroke-linejoin="round"/>
<path d="M494.527 383.822C496.832 380.39 500.124 377.821 502.453 374.465C504.193 371.958 506.94 370.92 508.655 368.521C513.158 362.215 519.49 356.567 526.525 353.329C530.992 351.273 535.12 347.85 539.441 345.403C546.141 341.609 553.231 337.675 559.366 333.001C565.052 328.668 570.468 323.734 576.869 320.451C581.446 318.104 586.365 316.497 590.776 313.883C596.479 310.503 602.701 307.771 608.719 305.003C616.031 301.639 624.174 297.224 632.204 296.16C636.023 295.653 640.091 295.352 643.946 295.352C644.967 295.352 649.137 296.03 649.744 295.059C650.5 293.848 651.347 294.273 652.019 293.004C653.292 290.599 650.368 287.759 649.267 285.555C646.541 280.105 643.186 273.917 639.322 269.226C629.143 256.866 613.905 251.118 599.656 245.118C594.658 243.014 588.966 242.503 583.621 241.595C576.434 240.375 569.028 239.871 561.751 239.871C554.34 239.871 546.315 241.114 539.404 243.76C531.002 246.978 522.823 251.244 513.975 253.081C506.496 254.633 499.383 257.78 492.032 259.832C486.093 261.491 479.719 264.115 476.143 269.3C472.165 275.068 466.178 280.173 463.337 286.619C461.889 289.905 460.464 293.285 459.631 296.783C458.847 300.075 456.676 302.689 455.815 305.847C454.92 309.128 455.268 313.042 454.677 316.415C453.807 321.389 453.169 325.367 455.191 330.212C458.686 338.582 460.608 347.54 462.603 356.375C463.315 359.526 464.838 362.267 465.612 365.365" stroke="#E25E32" stroke-width="11" stroke-linecap="round" stroke-linejoin="round"/>
<path d="M588.464 290.068C594.831 285.949 600.335 281.575 607.619 279.647C611.927 278.507 616.04 275.937 620.168 274.217C621.625 273.609 623.042 273.19 624.498 272.565C624.978 272.36 628.369 271.769 628.608 271.428C629.48 270.182 625.189 269.008 624.645 268.639C621.296 266.371 618.486 262.976 615.288 260.456C610.666 256.815 610.608 259.565 606.555 261.667C600.545 264.783 595.134 269.51 590.959 274.877C589.576 276.656 585.081 280.361 584.611 282.473C584.21 284.279 588.274 289.313 589.785 290.068" stroke="#E25E32" stroke-width="11" stroke-linecap="round" stroke-linejoin="round"/>
<path d="M593.748 259.025C592.149 260.342 588.423 263.96 587.841 265.997C587.079 268.661 586.018 263.765 585.822 263.062C584.28 257.508 580.774 254.753 577.566 250.475C577.31 250.134 576.352 249.492 576.722 250.439C577.977 253.646 578.747 256.876 579.364 260.273C580.457 266.281 581.199 272.606 581.199 278.73C581.199 279.678 580.729 277.673 580.685 277.519C579.271 272.569 576.583 268.009 573.566 263.869C569.19 257.862 563.901 251.796 558.265 246.99C557.691 246.5 556 245.249 556.247 245.962C557.455 249.451 559.93 252.844 561.531 256.163C566.825 267.138 574.546 278.923 575.915 291.243C576.21 293.898 577.116 296.703 577.75 299.315C578.284 301.518 577.435 296.181 577.052 295.389C574.294 289.675 571.476 284.012 568.796 278.253C566.08 272.414 563.235 266.637 560.467 260.823C559.646 259.101 558.799 256.476 557.421 254.989C556.61 254.114 555.309 254.505 554.412 253.668C553.309 252.638 552.079 251.419 550.523 251.136C547.898 250.659 550.68 256.967 550.889 257.411C555.021 266.174 559.866 274.509 563.549 283.5C566.74 291.291 571.397 300.675 572.502 309.149C572.568 309.65 573.245 314.444 571.915 312.782C568.401 308.389 565.892 302.967 563.329 298.031C559.687 291.019 557.156 282.984 552.724 276.418C550.972 273.822 549.254 271.378 547.807 268.566C547.109 267.21 544.56 260.294 541.936 261.043C541.314 261.221 550.239 290.898 550.743 293.371C551.677 297.958 552.137 302.217 552.137 306.838C552.137 308.436 551.375 303.719 550.743 302.251C547.159 293.926 541.803 286.337 535.331 280.014C532.919 277.658 530.197 276.046 527.589 273.96C523.736 270.878 522.342 266.679 519.186 263.172C518.356 262.249 517.258 261.871 517.865 263.649C519.647 268.868 522.444 274.073 525.204 278.84C528.866 285.165 534.745 292.297 534.964 299.976C535.153 306.577 540.909 311.538 540.909 318.47C540.909 319.767 532.367 307.993 531.698 307.021C526.387 299.303 519.186 293.219 512.654 286.546C508.47 282.27 506.938 275.708 502.453 271.721C496.187 266.151 512.084 285.449 516.801 292.38C522.409 300.621 526.743 309.498 531.662 318.139C532.662 319.896 533.337 320.84 533.68 322.726C533.782 323.288 534.195 323.902 534.451 324.414C535.679 326.87 529.615 322.564 529.534 322.506C525.304 319.489 521.849 315.576 517.681 312.489C511.991 308.274 506.249 304.114 500.325 300.233C496.944 298.017 493.236 297.285 490.051 294.839C486.004 291.731 481.918 289.275 478.272 285.628C477.798 285.154 476.309 284.755 477.281 285.445C483.35 289.752 489.61 293.85 495.701 298.141C500.235 301.335 505.359 304.691 508.361 309.516C511.162 314.018 513.758 318.27 516.874 322.616C517.32 323.239 521.792 331.148 519.479 331.019C514.603 330.748 507.82 324.732 504.104 322.543C495.212 317.304 485.646 312.917 476.987 307.315C474.525 305.722 471.993 304.275 469.355 302.985C467.02 301.843 459.567 299.858 462.163 299.976C462.882 300.009 463.297 300.452 463.961 300.6C464.787 300.783 465.117 301.071 465.832 301.664C469.628 304.812 473.416 307.924 477.318 310.947C485.969 317.65 497.17 323.853 502.967 333.514C504.65 336.319 507.017 337.772 509.645 339.716C511.298 340.938 517.706 344.28 518.342 346.504C518.441 346.85 517.598 346.484 517.278 346.321C513.313 344.299 509.573 341.836 505.682 339.679C500.256 336.67 494.381 334.022 488.583 331.826C484.401 330.243 480.017 328.425 475.63 327.496C473.996 327.151 471.407 327.65 469.905 326.983C466.585 325.507 468.856 326.456 471.19 328.084C477.908 332.77 485.055 337.156 491.005 342.835C492.845 344.591 494.365 346.425 496.362 348.045C497.927 349.315 499.67 350.333 501.316 351.494C501.652 351.732 505.502 353.92 504.875 354.1C504.251 354.278 503.021 353.752 502.82 353.696C494.419 351.379 486.072 348.893 477.648 346.651C469.256 344.417 470.794 342.461 462.402 340.229C461.736 340.052 459.926 339.694 459.173 339.092C456.473 336.932 465.586 341.795 468.971 342.504C476.929 344.173 474.491 346.57 482.198 349.219C487.75 351.128 492.894 355.24 498.087 358.026C498.155 358.063 501.607 360.235 499.444 360.081C492.887 359.613 486.386 356.725 479.85 355.751C476.016 355.18 473.524 355.065 477.061 357.659C481.278 360.752 485.512 363.989 489.427 367.456C490.158 368.104 490.883 369.43 491.665 369.952C491.684 369.965 490.47 369.988 490.197 369.988C487.957 369.988 485.803 370.126 483.592 370.502C481.027 370.939 480.382 372.299 478.675 374.465C473.73 380.742 457.737 378.508 453.007 384.72C449.657 389.12 428.212 382.417 426.273 387.747C424.976 391.316 423.332 394.703 422.237 398.351C421.801 399.804 421.338 401.225 420.806 402.644C420.661 403.031 420.137 403.855 420.549 403.855C420.721 403.855 420.905 403.373 420.916 403.342C421.656 401.236 422.149 399.211 423.081 397.14C426.568 389.392 450.14 393.043 455.318 386.408C457.936 383.055 473.629 389.19 475.666 385.473C477.833 381.521 480.625 377.838 482.492 373.731C483.469 371.581 485.776 370.3 487.409 368.667" stroke="#E25E32" stroke-width="11" stroke-linecap="round" stroke-linejoin="round"/>
<path d="M495.5 382.482C487.185 384.278 471.617 395.224 463.279 396.907C453.72 398.837 449.846 404.617 440.5 407.5C438.829 408.015 432.323 412.702 430.726 413.424C429.303 414.067 427.49 414.396 426.201 415.237C424.269 416.497 421 417.635 418.749 417.948C416.733 418.229 414.682 419.172 412.675 419.281C409.425 419.456 406.318 420.396 403.053 420.396C401.558 420.396 401.24 416.391 401.24 415.268C401.24 413.695 401.119 411.529 401.844 410.124C404.034 405.881 404.865 401.707 408.646 398.426C409.2 397.945 409.467 397.405 409.948 396.907C411.386 395.419 413.139 394.154 414.286 392.414C415.328 390.834 416.778 389.958 418.237 388.742C418.556 388.476 419.084 388.408 419.461 388.277C420.782 387.818 421.943 387.189 423.087 386.387C424.836 385.159 426.33 383.639 428.123 382.482C429.588 381.537 431.036 380.515 432.6 379.74C433.863 379.114 435.142 378.991 436.288 378.221C438.728 376.581 441.789 375.506 444.407 374.162C446.594 373.038 448.917 372.043 451.224 371.187C453.333 370.404 455.555 369.458 457.794 369.142C459.627 368.883 461.516 368.668 463.279 368.057C464.411 367.665 465.306 367.406 466.501 367.406C466.965 367.406 467.409 367.543 467.617 367.128" stroke="#E25E32" stroke-width="11" stroke-linecap="round" stroke-linejoin="round"/>
<path d="M917.986 357.49C907.985 386.938 884.572 409.604 877.765 440.235C875.733 449.377 872.089 457.504 869.163 466.282C866.981 472.828 863.026 478.111 861.288 485.06" stroke="black" stroke-width="11" stroke-linecap="round" stroke-linejoin="round"/>
<path d="M866.74 286.618C879.897 268.914 895.288 247.574 917.925 241.915C922.472 240.778 926.134 237.939 931.009 237.614C936.349 237.258 941.709 236.511 947.062 236.463C959.638 236.35 970.614 238.938 982.073 244.095C988.667 247.062 999.433 249.985 1003.09 256.695C1005 260.186 1008.48 261.802 1011.69 263.782C1015.21 265.946 1018.18 270.186 1020.48 273.534C1024.24 279.016 1026.18 285.291 1029.68 290.738C1034.89 298.828 1037.15 306.937 1038.41 316.482C1039.75 326.666 1037.14 331.89 1032.47 340.651C1027.26 350.422 1020.73 359.504 1014.18 368.394C1012.11 371.206 1008.84 374.701 1007.64 377.965C1006.74 380.395 1006.25 382.583 1003.76 384.204C990.928 392.544 975.448 385.916 964.386 378.449C956.023 372.805 946.091 370.526 937.491 365.365C929.335 360.472 921.631 355.078 913.564 349.858C904.635 344.081 897.628 336.388 888.547 330.838C882.465 327.121 877.325 322.205 873.04 316.542C868.762 310.889 864.053 304.395 860.198 298.612" stroke="#88A146" stroke-width="11" stroke-linecap="round" stroke-linejoin="round"/>
<path d="M959.128 255.663C956.444 254.865 953.848 253.044 950.997 253.044C949.512 253.044 948.026 253.044 946.541 253.044C944.96 253.044 943.352 252.959 941.775 253.044C940.609 253.107 938.639 254.531 937.519 255.081C934.569 256.528 931.939 258.488 929.06 260.047C927.686 260.791 926.317 261.971 924.767 262.23C923.879 262.378 923.195 264.616 922.785 265.267C921.998 266.516 926.818 271.134 927.842 272.361C928.508 273.161 928.731 273.999 929.824 273.999C930.751 273.999 931.713 272.88 932.535 272.507C934.196 271.752 936.143 271.296 937.919 270.924C941.072 270.264 944.026 268.232 947.014 266.977C950.556 265.489 954.582 264.425 958.4 264.176C959.527 264.103 960.116 262.984 961.256 262.885C962.092 262.812 962.877 262.572 963.712 262.539C966.01 262.447 965.53 260.536 965.658 258.555C965.868 255.301 961.661 255.784 959.455 254.681" stroke="#88A146" stroke-width="11" stroke-linecap="round" stroke-linejoin="round"/>
<path d="M986.303 274.653C979.493 279.163 973.282 284.659 966.804 289.642C964.47 291.437 962.331 294.184 959.783 295.608C959.167 295.952 958.075 296.481 958.801 297.245C960.515 299.049 962.392 300.743 964.33 302.302C967.131 304.555 969.93 306.788 973.28 307.977C974.831 308.528 975.799 309.27 976.99 310.342C977.799 311.07 978.413 310.541 978.991 309.869C983.712 304.377 988.625 299.461 992.051 292.989C992.665 291.83 993.539 290.929 994.161 289.715C995.532 287.039 996.176 286.791 994.562 283.967C992.87 281.007 991.449 276.478 987.941 275.308" stroke="#88A146" stroke-width="11" stroke-linecap="round" stroke-linejoin="round"/>
<path d="M1011.51 298.882C1011.44 304.667 1010.66 310.269 1009.95 315.981C1009.58 318.913 1008.83 322.304 1007.77 325.076C1007.09 326.834 1006.04 328.46 1005.95 330.387C1005.92 331.094 1004.89 333.448 1005.29 333.588C1007.5 334.362 1008.32 338.411 1010.28 339.809C1011.28 340.523 1012.28 341.272 1013.22 342.028C1014.32 342.907 1017.6 339.938 1018.21 339.264C1021.07 336.115 1024.31 331.082 1024.87 326.64C1025.27 323.441 1025.59 320.117 1025.59 316.89C1025.59 315.472 1026.07 313.153 1025.27 311.906C1023.25 308.777 1021.29 304.566 1017.41 303.539C1015.09 302.926 1013.81 300.958 1011.51 300.192" stroke="#88A146" stroke-width="11" stroke-linecap="round" stroke-linejoin="round"/>
<path d="M645.095 566.688C650.567 565.906 643.966 522.513 643.018 515.84C649.795 518.177 654.983 527.128 658.476 532.786C663.585 541.062 671.856 551.272 671.856 561.477C671.856 564.717 674.415 563.278 678.289 563.278H700.805H724.864C728.595 563.278 728.659 562.04 730.911 559.225C732.415 557.345 737.494 555.883 739.66 554.529C743.705 552.001 748.292 550.938 752.654 549.125C759.806 546.155 766.616 540.119 774.334 540.119C779.474 540.119 783.961 540.346 788.808 538.961C792.971 537.772 786.946 542.58 785.077 544.494C780.918 548.751 772.132 556.301 771.053 562.056C770.496 565.023 790.443 566.807 793.311 567.524C802.06 569.711 809.949 571.785 818.978 572.606C828.059 573.431 835.602 577.422 843.874 580.904C861.003 588.117 877.206 598.328 894.309 605.864C904.601 610.4 916.504 613.927 924.286 622.59C930.879 629.929 936.324 638.763 942.17 646.714C952.567 660.854 954.778 675.577 952.463 692.838C949.844 712.362 942.893 732.9 928.661 747.132C919.666 756.127 905.793 763.841 894.566 769.455C882.248 775.614 866.799 779.118 853.395 781.871C828.124 787.06 803.176 787.505 777.486 786.181C718.631 783.147 651.659 790.297 598.52 758.969C581.38 748.864 561.699 736.796 547.314 722.944C535.851 711.906 519.44 701.373 512.962 686.405C507.196 673.085 502.917 661.755 502.798 647.164C502.748 641.147 499.586 623.428 506.207 620.532C509.614 619.041 511.891 615.009 513.734 612.04C517.095 606.625 520.749 602.084 524.798 597.244C531.617 589.096 540.979 580.282 551.174 576.594C562.813 572.384 575.526 567.322 587.906 566.688C598.181 566.161 608.28 565.594 618.591 565.594C627.185 565.594 636.647 567.894 645.095 566.688Z" fill="white"/>
<path d="M642.908 515C642.956 516.068 650.96 565.85 645.095 566.688C636.647 567.894 627.185 565.594 618.591 565.594C608.28 565.594 598.181 566.161 587.906 566.688C575.526 567.322 562.813 572.384 551.174 576.594C540.979 580.282 531.617 589.096 524.798 597.244C520.749 602.084 517.095 606.625 513.734 612.04C511.891 615.009 509.614 619.041 506.207 620.532C499.586 623.428 502.748 641.147 502.798 647.164C502.917 661.755 507.196 673.085 512.962 686.405C519.44 701.373 535.851 711.906 547.314 722.944C561.699 736.796 581.38 748.864 598.52 758.969C651.659 790.297 718.631 783.147 777.486 786.181C803.176 787.505 828.124 787.06 853.395 781.871C866.799 779.118 882.248 775.614 894.566 769.455C905.793 763.841 919.666 756.127 928.661 747.132C942.893 732.9 949.844 712.362 952.463 692.838C954.778 675.577 952.567 660.854 942.17 646.714C936.324 638.763 930.879 629.929 924.286 622.59C916.504 613.927 904.601 610.4 894.309 605.864C877.206 598.328 861.003 588.117 843.874 580.904C835.602 577.422 828.059 573.431 818.978 572.606C809.949 571.785 802.06 569.711 793.311 567.524C790.443 566.807 770.496 565.023 771.053 562.056C772.132 556.301 780.918 548.751 785.077 544.494C786.946 542.58 792.971 537.772 788.808 538.961C783.961 540.346 779.474 540.119 774.334 540.119C766.616 540.119 759.806 546.155 752.654 549.125C748.292 550.938 743.705 552.001 739.66 554.529C737.494 555.883 732.415 557.345 730.911 559.225C728.659 562.04 728.595 563.278 724.864 563.278C716.844 563.278 708.824 563.278 700.805 563.278C693.3 563.278 685.794 563.278 678.289 563.278C674.415 563.278 671.856 564.717 671.856 561.477C671.856 551.272 663.585 541.062 658.476 532.786C654.964 527.098 649.739 518.08 642.908 515.803" stroke="black" stroke-width="11" stroke-linecap="round" stroke-linejoin="round"/>
<path d="M572.344 647.562C567.007 648.123 554.523 648.768 552.236 655.121C550.683 659.433 551.728 661.17 553.41 665.468C555.141 669.893 556.431 670.456 561.409 671.046C571.576 672.251 581.779 670.634 591.902 670.055C595.038 669.876 599.242 668.866 600.085 672.661C600.693 675.4 601.406 677.572 601.406 680.44C601.406 689.746 601.285 696.495 592.159 701.319C588.316 703.35 584.572 704.857 580.197 704.988C577.876 705.057 568.596 706.331 567.721 703.704" stroke="black" stroke-width="11" stroke-linecap="round" stroke-linejoin="round"/>
<path d="M613.295 645.58C618.264 659.234 623.153 672.865 627.312 686.788C627.513 687.46 628.401 691.523 629.55 691.778C630.862 692.07 632 691.282 632.889 690.42C636.964 686.474 640.514 682.65 645.365 679.559C647.329 678.308 656.227 675.669 656.227 672.66" stroke="black" stroke-width="11" stroke-linecap="round" stroke-linejoin="round"/>
<path d="M611.974 644.92C620.058 639.723 628.792 636.131 637.146 631.49C639.018 630.45 640.211 629.425 642.356 629.068" stroke="black" stroke-width="11" stroke-linecap="round" stroke-linejoin="round"/>
<path d="M625.184 664.735C631.404 662.414 636.08 662.921 639.714 657.469" stroke="black" stroke-width="11" stroke-linecap="round" stroke-linejoin="round"/>
<path d="M660.85 629.728C662.731 647.016 666.134 663.821 666.134 681.247" stroke="black" stroke-width="11" stroke-linecap="round" stroke-linejoin="round"/>
<path d="M662.171 630.389C663.818 632.437 665.099 636.061 667.235 637.434C670.157 639.312 672.493 642.051 675.014 644.406C680.189 649.239 684.765 654.636 688.958 660.331C689.919 661.637 691.113 664.014 692.554 664.735" stroke="black" stroke-width="11" stroke-linecap="round" stroke-linejoin="round"/>
<path d="M689.252 619.821C690.727 627.545 691.233 634.808 691.233 642.645C691.233 647.322 692.486 650.845 693.104 655.378C693.717 659.87 693.215 664.808 693.215 669.358" stroke="black" stroke-width="11" stroke-linecap="round" stroke-linejoin="round"/>
<path d="M702.462 619.16C703.921 631.083 706.425 642.719 706.425 654.79C706.425 657.931 706.352 661.081 706.425 664.221C706.57 670.498 714.33 665.864 717.8 665.138C730.429 662.495 746.054 655.611 746.054 640.37C746.054 635.602 744.717 633.013 741.761 629.728C738.905 626.555 733.558 621.376 728.881 621.142C724.31 620.913 719.634 619.16 715.084 619.16C712.827 619.16 706.925 619.481 705.764 621.802" stroke="black" stroke-width="11" stroke-linecap="round" stroke-linejoin="round"/>
<path d="M780.492 648.5C783.228 660.007 785.377 671.359 787.391 682.992C787.932 686.12 787.952 691.394 789.739 694.074" stroke="black" stroke-width="11" stroke-linecap="round" stroke-linejoin="round"/>
<path d="M817.48 641.895C817.924 645.282 817.995 649.141 819.058 652.426C820.233 656.057 822.68 659.387 824.305 662.811C826.687 667.828 829.531 673.745 830.03 679.396C830.187 681.187 830.574 683.274 831.35 684.827" stroke="black" stroke-width="11" stroke-linecap="round" stroke-linejoin="round"/>
<path d="M803.61 646.518C816.687 643.362 829.832 638.593 843.239 638.593" stroke="black" stroke-width="11" stroke-linecap="round" stroke-linejoin="round"/>
<path d="M865.696 631.988C866.814 644.776 866.95 658.206 870.98 670.296" stroke="black" stroke-width="11" stroke-linecap="round" stroke-linejoin="round"/>
<path d="M872.301 680.204C872.342 681.986 872.003 687.357 874.796 687.469C877.384 687.573 877.585 685.496 877.585 683.286C877.585 681.682 877.043 680.864 875.273 680.864C873.274 680.864 873.901 682.097 872.962 683.506" stroke="black" stroke-width="11" stroke-linecap="round" stroke-linejoin="round"/>
</svg>
