<svg width="458" height="699" viewBox="0 0 458 699" fill="none" xmlns="http://www.w3.org/2000/svg">
<path d="M237.5 314C211.367 340.076 155.345 411.028 126.18 433.887C122.999 436.381 119.112 437.827 116.183 440.224C113.152 442.703 111.406 446.625 107.734 448.461" stroke="#ED544E" stroke-width="11" stroke-linecap="round" stroke-linejoin="round"/>
<path d="M77.5 522C66.5 537.5 55.9225 557.721 44.793 568.288C36.2987 576.354 27.0313 583.093 18.7436 591.381C15.2997 594.825 10.424 600.391 6.35254 602.786C3.51444 604.456 27.6812 599.885 30.5011 599.266C55.8721 593.697 77.8473 577.978 103.369 571.597C110.795 569.741 118.222 569.209 125.265 566.106C133.791 562.348 141.407 559.981 150.751 559.981C152.318 559.981 160.372 558.765 160.959 560.966C163.003 568.632 164.285 576.705 165.324 584.552C167.872 603.772 171.636 623.115 175.603 642.072C177.701 652.093 178.155 662.62 179.687 672.768C180.358 677.216 182.158 682.286 182.503 686.426C182.7 688.787 185.439 694.614 188.135 691.917C196.99 683.063 200.423 668.047 203.483 656.364C206.117 646.307 209.19 635.404 212.988 625.738C216.895 615.792 218.489 605.437 222.352 595.605C225.09 588.634 227.668 582.296 231.082 575.47C232.594 572.445 234.461 568.437 234.461 565.05" stroke="#ED544E" stroke-width="11" stroke-linecap="round" stroke-linejoin="round"/>
<path d="M266 448C270.702 424.18 274.775 401.251 278.339 376.667C281.115 357.516 288 335.828 288 316" stroke="#ED544E" stroke-width="11" stroke-linecap="round" stroke-linejoin="round"/>
<path d="M362.733 52.7319C355.134 66.1205 355.93 73.5742 362.733 85.3993L397.231 100.043C405.608 100.043 413.661 93.3678 422.013 92.4397C426.396 91.9527 426.088 87.7294 429.054 85.3993C433.827 81.6487 437.615 75.7402 440.318 70.3329C446.351 58.2678 453.113 44.2389 451.724 30.3435C451.311 26.2141 434.92 16.737 431.166 15.4179C423.164 12.6065 416.033 6.26536 407.369 6.26536C405.632 6.26536 399.317 5.25383 398.428 7.18061C395.196 14.1842 390.067 19.8006 385.122 25.6968C377.711 34.5325 368.41 42.7306 362.733 52.7319Z" fill="black" stroke="black" stroke-width="11" stroke-linecap="round" stroke-linejoin="round"/>
<path d="M12.3943 600.091C14.0512 599.018 16.9609 595.384 16.9609 598.717C16.9609 600.27 17.0578 599.892 17.7219 598.738C18.0065 598.244 18.5554 598.159 18.9482 597.766C19.9456 596.768 20.7784 595.518 21.6754 594.426C21.7176 594.374 22.8167 592.909 22.8382 592.924C23.4981 593.396 23.0496 596.462 23.0496 597.258C23.0496 598.739 25.0082 594.274 25.4175 593.538C25.8632 592.735 28.3839 588.997 28.4618 589.309C28.8612 590.907 28.9688 592.622 29.0538 594.256C29.0746 594.655 28.6807 599.869 29.6246 597.745C31.2391 594.112 33.1921 590.531 34.6774 586.857C34.9819 586.104 34.9444 585.345 35.2694 584.574C35.7587 583.412 36.2753 582.263 36.7282 581.085C36.8136 580.863 37.7942 577.696 37.8909 579.373C38.1817 584.413 38.652 589.384 38.652 594.447C38.652 594.905 38.5997 596.265 38.7155 595.821C39.331 593.461 40.0522 591.287 41.1467 589.098C42.951 585.489 44.6065 582.047 45.5864 578.104C46.734 573.487 47.3496 568.762 49.0536 564.299C49.22 563.863 49.6879 562.585 49.6879 563.052C49.6879 564.565 49.8988 566.066 49.9839 567.576C50.3324 573.762 49.6879 579.878 49.6879 586.011C49.6879 587.519 49.6879 589.027 49.6879 590.535C49.6879 590.722 49.3971 593.196 50.005 592.015C51.653 588.816 52.6749 585.467 53.5779 581.994C55.0309 576.406 56.007 570.723 57.468 565.145C57.9887 563.156 59.0464 561.526 59.2016 559.457C59.4406 556.27 60.8708 565.636 61.4426 568.781C61.7539 570.493 61.9863 572.219 62.2459 573.939C62.3077 574.348 62.6867 577.828 63.4299 576.455C66.3752 571.013 67.5787 564.892 68.1233 558.802C68.6674 552.718 69.4601 546.801 70.322 540.768C70.4246 540.05 70.1049 538.099 70.618 538.612C71.4898 539.484 71.2913 543.465 71.3579 544.532C71.6837 549.744 71.7596 554.912 71.7596 560.134C71.7596 562.305 71.7596 564.475 71.7596 566.646C71.7596 566.923 71.5931 567.971 71.7808 568.252C72.1603 568.822 72.581 567.134 72.8801 566.519C75.1672 561.814 76.551 556.784 77.9329 551.762C79.5577 545.858 82.1909 540.354 83.6834 534.384C84.1249 532.618 84.3216 531.554 85.1633 529.902C85.5987 529.047 85.977 527.773 86.2204 529.733C86.7032 533.619 87.0634 537.599 87.3198 541.508C87.4963 544.201 87.5145 547.08 87.1718 549.754C86.5279 554.776 85.0836 559.86 84.6982 564.87C84.5363 566.975 81.6598 572.395 83.2817 571.043C84.3457 570.156 85.0302 566.917 85.5016 565.715C87.2883 561.159 88.8916 556.541 90.5333 551.931C91.6917 548.679 93.1512 545.172 93.5988 541.741C94.6233 533.886 95.3535 536.184 95.3535 528.253C95.3535 526.26 95.3072 524.262 95.3535 522.27C95.3735 521.411 95.6676 521.745 95.9032 522.481C97.1666 526.429 96.7415 520.753 97.1083 524.828C97.6747 531.121 99.4198 537.174 99.5396 543.559C99.6075 547.183 99.6447 550.831 99.159 554.426C98.8554 556.673 98.7073 558.607 98.1019 560.726C97.172 563.981 98.1822 560.226 98.6305 558.866C99.6002 555.923 100.089 553.087 100.533 550.028C101.014 546.721 102.095 543.485 102.203 540.134C102.296 537.26 102.318 534.539 102.753 531.678C103.543 526.489 104.867 531.371 104.867 526.075C104.867 523.979 104.753 521.846 104.888 519.754C104.934 519.039 104.997 518.045 105.29 517.386C105.579 516.735 105.844 517.622 105.988 517.957C107.357 521.138 108.144 524.64 109.011 527.978C112.296 540.622 114 543.335 114 556.413C114 559.165 114.385 556.49 114.825 554.933C116.769 548.054 118.725 541.147 120.47 534.215C121.384 530.582 121.992 526.978 121.992 523.221C121.992 521.635 121.992 520.05 121.992 518.464C121.992 518.292 122.819 521.14 123.133 521.868C124.225 524.393 124.379 527.833 124.635 530.515C124.994 534.292 125.391 538.021 125.417 541.825C125.428 543.446 125.381 544.906 124.994 546.455C124.875 546.933 123.535 551.124 124.317 549.267C126.99 542.927 128.726 535.478 129.412 528.612C129.584 526.894 129.603 525.245 129.603 523.517C129.603 523.242 129.513 520.157 129.772 522.164C130.182 525.343 130.364 528.537 130.364 531.741C130.364 537.273 130.364 542.805 130.364 548.337C130.364 550.224 131.125 551.897 131.125 553.792C131.125 557.099 132.73 551.553 132.964 550.916C134.443 546.904 136.08 542.964 137.319 538.866C138.643 534.491 139.279 529.973 140.512 525.589C141.387 522.478 142.324 519.384 143.302 516.308C143.363 516.117 143.984 513.384 144.042 514.49C144.245 518.338 143.944 522.287 143.429 526.096C142.831 530.527 141.93 534.911 141.569 539.373C141.309 542.578 141.488 545.782 141.019 548.971C140.852 550.107 140.71 551.273 140.469 552.396C140.088 554.178 142.03 549.103 142.795 547.449C146.597 539.235 150.108 530.925 153.62 522.587C154.765 519.867 156.075 517.183 156.96 514.363C157.349 513.123 157.599 511.595 158.228 510.451C158.53 509.903 158.621 511.648 158.693 512.27C159.182 516.464 159.285 520.651 159.285 524.87C159.285 533.301 159.914 541.736 160.342 550.155C160.408 551.443 160.185 556.526 160.49 551.995C160.993 544.542 162.458 536.999 163.767 529.648C164.115 527.699 164.47 525.655 165.015 523.749C165.155 523.259 166.127 519.661 166.854 521.022C171.299 529.343 171.329 538.277 171.442 547.534C171.52 553.98 172.509 560.312 172.605 566.73C172.673 571.306 172.365 575.924 172.626 580.493C172.726 582.246 173.381 583.942 173.936 585.588C175.03 588.831 175.297 591.847 175.734 595.229C176.575 601.748 180.195 607.59 180.913 614.172C181.23 617.078 181.036 619.222 182.118 622.036C183.574 625.822 185.285 629.937 185.966 633.939C186.726 638.405 187.826 642.176 187.826 646.772C187.826 649.704 187.826 652.635 187.826 655.567C187.826 658.609 187.906 661.898 188.292 664.911C188.476 666.356 189.138 667.716 189.56 669.097C189.835 669.998 190.11 672.647 190.11 669.88C190.11 659.511 190.501 649.038 189.645 638.696C188.737 627.733 187.737 616.763 186.812 605.8C186.262 599.287 185.231 593.242 183.26 587.047C181.102 580.264 180.519 572.816 179.835 565.758C178.654 553.577 176.791 541.475 176.791 529.225C176.791 528.084 176.775 526.941 176.791 525.8C176.837 522.306 179.69 529.265 179.793 529.458C181.987 533.556 184.126 537.713 185.797 542.058C186.977 545.127 187.503 548.404 188.926 551.381C190.167 553.978 191.711 556.358 192.604 559.119C193.599 562.192 193.686 565.321 193.957 568.506C194.567 575.665 196.581 582.576 197.636 589.648C198.173 593.245 197.901 596.944 197.721 600.557C197.405 606.878 197.048 613.196 196.79 619.52C196.628 623.52 196.579 627.507 196.579 631.508C196.579 633.523 196.592 635.523 196.79 637.533C197.096 640.629 199.384 642.485 199.623 645.503C199.725 646.782 201.154 651.733 201.695 648.188C203.412 636.953 200.152 625.564 200.596 614.256C200.937 605.553 202.838 597.149 202.647 588.421C202.467 580.241 201.784 571.802 200.934 563.665C200.554 560.028 200.655 556.068 199.75 552.523C199.386 551.098 197.719 542.753 199.158 548.739C202.662 563.315 208.296 577.181 210.659 592.037C211.266 595.849 211.42 599.5 211.42 603.347C211.42 604.32 211.42 605.292 211.42 606.265C211.42 606.512 211.42 601.316 211.42 600.726C211.42 587.104 211.42 573.481 211.42 559.859C211.42 559.469 211.255 557.266 212.012 558.781C213.384 561.525 213.685 565.059 214.338 567.999C215.334 572.482 216.748 577.087 216.748 581.719C216.748 585.921 217.353 573.249 218.693 569.267C219.294 567.481 220.469 565.693 220.913 563.918C221.149 562.973 221.269 560.493 221.949 562.713C223.332 567.232 224.409 571.715 225.331 576.328C226.226 580.801 227.473 575.85 228.164 573.707C229.591 569.288 230.204 564.761 230.448 560.134" stroke="#ED544E" stroke-width="11" stroke-linecap="round" stroke-linejoin="round"/>
<path d="M130 433.17C131.575 431.298 133.498 429.656 134.914 427.684C136.946 424.853 135.962 431.673 135.908 432.709C135.834 434.113 134.305 438.499 134.969 439.734C135.356 440.452 135.676 438.264 136.129 437.58C137.364 435.716 138.565 433.851 139.717 431.94C140.476 430.682 146.603 419.717 146.84 423.684C147.109 428.191 146.065 433.145 146.895 437.58C147.263 439.545 148.369 433.832 149.048 431.94C150.498 427.901 152.069 424.171 154.514 420.556C156.528 417.578 156.712 417.792 158.49 414.813C159.066 413.847 159.815 410.632 159.815 411.736C159.815 416.222 159.984 420.769 159.318 425.222C159.108 426.625 158.184 434.473 160.036 429.376C162.22 423.361 164.157 417.219 166.054 411.121C166.696 409.058 167.022 405.82 168.262 409.788C170.056 415.526 170.767 421.6 171.299 427.53C171.365 428.269 171.058 440.742 172.403 437.58C178.587 423.044 185.716 409.596 195.096 396.661C197.915 392.774 200.295 388.694 202.66 384.56C203.588 382.937 203.759 382.941 203.212 385.226C202.009 390.252 200.286 395.189 198.464 400.045C194.169 411.49 188.61 422.128 186.317 434.196C186.249 434.552 190.174 427.269 190.734 426.197C196.357 415.429 203.619 405.454 209.064 394.61C216.064 380.67 217.278 365.028 223.42 350.768C227.402 341.521 223.758 370.939 220.99 380.56C218.201 390.257 216.159 399.995 213.537 409.737C212.571 413.324 213.291 408.361 213.592 407.224C216.1 397.744 219.524 389.07 223.641 380.15C231.368 363.404 241.631 347.42 247.492 330.001C247.807 329.066 247.82 326.595 248.376 325.95C248.672 325.607 250.255 335.492 250.143 336.718C248.645 353.059 242.378 369.509 238.879 385.585C237.112 393.704 230.484 417.786 232.585 409.737C235.242 399.557 238.38 389.487 241.53 379.432C245.557 366.574 248.089 352.714 254.008 340.462C256.98 334.308 264.167 325.218 264.167 318.361C264.167 307.276 263.079 340.629 260.412 351.435C256.036 369.168 250.971 386.997 248.376 405.07C246.882 415.475 251.65 394.76 252.02 393.482C254.492 384.939 258.553 377.305 262.676 369.382C269.488 356.292 275.301 342.317 283.878 330.104C286.828 325.902 291.769 312.068 291.994 317.079C292.104 319.538 290.699 322.201 289.675 324.361C284.853 334.523 279.532 344.246 275.596 354.768C270.32 368.868 261.816 382.74 258.204 397.276C257.159 401.481 256.941 406.011 255.719 410.096C255.161 411.961 255.296 413.719 255.222 415.634C255.103 418.723 250.856 426.692 253.455 424.761C256.172 422.742 258.418 416.574 259.86 413.788C264.48 404.858 269.184 395.733 272.504 386.303C273.814 382.582 275.117 378.777 275.872 374.92C276.562 371.392 275.31 374.084 273.995 375.638C259.982 392.183 246.505 408.649 235.235 426.966C234.49 428.177 228.278 439.389 228.058 436.349C227.125 423.476 233.823 408.936 237.554 396.764C240.662 386.626 244.022 376.623 248.486 366.92C252.405 358.405 257.475 350.287 260.633 341.487C261.624 338.725 267.892 329.771 263.835 338.103C252.868 360.629 245.957 383.996 237.389 407.327C235.113 413.523 233.52 422.261 229.935 427.94C223.7 437.818 230.47 404.785 233.91 393.79C239.753 375.111 245.314 356.722 249.756 337.744C250.184 335.916 250.641 334.094 251.026 332.257C252.502 325.209 246.965 346.134 244.29 352.871C240.389 362.695 234.841 371.832 229.604 381.073C227.097 385.495 222.62 389.699 220.659 394.251C220.35 394.968 220.372 397.328 220.438 396.558C221.72 381.679 224.953 366.973 227.506 352.255C228.936 344.006 230.567 335.627 231.315 327.283C231.676 323.266 230.343 329.693 230.266 330.155C227.643 345.992 221.431 361.442 217.678 377.073C214.62 389.81 203.327 427.506 206.083 414.711C207.279 409.155 207.519 403.723 207.519 398.097C207.519 395.684 208.023 388.503 206.028 387.021C203.786 385.355 207.512 371.31 202.991 380.15C197.094 391.68 195.607 406.461 191.617 418.608C188.72 427.426 189.657 419.581 189.133 414.711C188.333 407.283 186.648 399.581 186.648 392.149C186.648 382.285 185.599 394.111 184.44 397.635C181.568 406.363 179.483 416.195 175.164 424.453C173.815 427.032 171.272 434.876 170.802 432.042C168.619 418.862 171.741 378.711 171.741 392.046C171.741 399.782 169.209 407.277 168.704 415.018C168.556 417.28 169.049 426.953 167.545 428.35C167.078 428.783 166.772 427.271 166.772 426.658C166.772 421.65 166.772 416.642 166.772 411.634C166.772 407.055 158.077 417.309 157.827 417.582C151.896 424.052 147.323 431.336 142.147 438.298C141.585 439.053 140.932 441.729 140.932 440.81C140.932 438.022 141.622 435.276 141.871 432.504C142.236 428.43 153.029 427.145 156.833 425.786" stroke="#ED544E" stroke-width="11" stroke-linecap="round" stroke-linejoin="round"/>
<path d="M122 441C147.926 441 173.974 438.833 198.919 432.141C207.31 429.89 216.115 429.854 224.522 427.907C231.769 426.229 238.905 425.376 246.367 426.012C250.157 426.335 253.642 426.96 257.534 426.96C258.094 426.96 260.828 441.581 257.534 441C251.424 439.922 248.977 424.137 242.826 423.394C232.175 422.107 221.497 421.945 210.795 421.945C208.585 421.945 198.829 422.395 199.573 421.611C209.206 411.46 225.817 405.571 238.141 400.104C246.589 396.357 255.635 392.882 264.725 391.023C276.153 388.685 241.39 392.282 229.916 394.366C216.085 396.878 201.815 399.145 188.351 403.336C183.998 404.691 186.18 399.972 187.261 397.653C191.26 389.075 195.731 380.383 201.207 372.692C205.296 366.949 212.385 354.707 220.055 352.746C221.074 352.485 224.556 348.794 219.947 350.406C213.755 352.57 207.657 355.166 203.059 360.1C198.15 365.368 194.918 372.019 190.203 377.484C184.398 384.213 178.209 390.531 172.008 396.873" stroke="#ED544E" stroke-width="11" stroke-linecap="round" stroke-linejoin="round"/>
<path d="M81.3481 519.942C95.1538 519.294 108.969 518.31 122.686 516.904C128.015 516.357 134.906 515.27 139.829 513.16C145.673 510.656 152.002 506.726 157.732 511.153C163.916 515.932 171.797 517.129 178.292 521.406C181.635 523.608 184.64 526.802 187.352 529.761C193.599 536.575 202.829 538.538 210.516 543.269C214.816 545.915 223.133 549.786 224.676 554.878C227.513 564.241 225.36 569.526 214.911 569.526C200.805 569.526 194.068 559.552 182.741 553.631C161.34 542.444 136.609 543.377 113.247 543.377C99.3187 543.377 90.7074 544.365 79.1781 552.6C76.3279 554.636 72.4795 557.423 71.5832 561.008C70.0516 567.135 73.5394 565.77 79.0696 566.813C87.8613 568.472 96.4372 569.116 104.892 565.62C112.461 562.49 117.264 558.006 125.724 556.831C137.563 555.187 149.969 552.166 161.963 552.166C166.99 552.166 172.017 552.166 177.044 552.166C182.854 552.166 184.461 559.733 185.779 564.263C189.15 575.852 195.749 585.477 200.697 596.433C203.885 603.492 204.386 610.049 204.386 617.591C204.386 627.136 204.204 636.392 201.402 645.638C200.206 649.586 198.158 652.983 196.357 656.651C196.036 657.305 194.101 662.959 195.706 659.634C202.267 646.045 205.846 631.976 210.028 617.591C212.624 608.663 213.319 599.347 215.67 590.358C216.324 587.856 215.645 585.567 217.081 583.414" stroke="#ED544E" stroke-width="11" stroke-linecap="round" stroke-linejoin="round"/>
<path d="M360 86C343.559 112.972 330.241 142.235 311.791 167.786C305.623 176.328 298.007 185.699 294.566 195.935C292.275 202.752 290.129 208.894 286.718 215.227C281.354 225.187 278.3 236.688 271.838 245.876C267.096 252.618 261.822 258.772 257.416 265.82C252.686 273.385 250.221 282.301 245.44 289.948C241.863 295.67 239.058 303.23 238 310" stroke="black" stroke-width="11" stroke-linecap="round" stroke-linejoin="round"/>
<path d="M386 109C385.436 127.86 375.154 145.016 367.466 161.463C359.629 178.23 351.79 195.116 345.502 212.623C340.735 225.899 335.456 238.131 328.658 250.369C324.359 258.108 322.273 267.348 318.93 275.623C311.565 293.852 300.311 309.367 292 327" stroke="black" stroke-width="11" stroke-linecap="round" stroke-linejoin="round"/>
<path d="M236.61 314.878C257.106 313.401 276.718 318.784 297.153 318.784" stroke="#ED544E" stroke-width="11" stroke-linecap="round" stroke-linejoin="round"/>
<path d="M231.728 324.643C248.979 324.643 266.231 324.643 283.482 324.643C283.786 324.643 289.683 324.59 288.961 325.24C287.101 326.914 282.879 328.15 280.878 329.091C272.26 333.147 264.021 337.896 255.489 342.111C248.267 345.68 240.374 347.595 233.03 350.9C231.842 351.434 226.38 353.844 226.737 353.504C234.784 345.822 247.873 340.267 259.07 340.267" stroke="#ED544E" stroke-width="11" stroke-linecap="round" stroke-linejoin="round"/>
<path d="M249 303.388C252.663 292.216 257.304 281.886 262.679 271.53C272.796 252.035 281.516 231.684 291.925 212.379C301.493 194.634 314.054 178.275 325.05 161.493C332.627 149.928 338.096 136.631 344.547 124.415C349.277 115.459 356.131 107.897 359.247 97.9386C363.108 85.6023 352.606 123.02 348.018 135.071C337.687 162.208 319.976 184.589 306.165 209.77C298.638 223.493 289.942 236.481 282.993 250.544C277.444 261.775 272.268 273.618 265.945 284.36C263.741 288.106 261.198 292.012 259.616 296.103C252.55 314.383 274.335 259.796 282.329 241.954C286.919 231.712 292.561 223.024 298.509 213.738C303.721 205.603 307.552 196.594 312.596 188.35C320.625 175.227 332.983 166.551 341.332 153.936C346.802 145.67 352.095 136.898 357.001 128.221C359.591 123.641 362.14 118.934 364.555 114.248C365.647 112.13 365.937 109.143 367.209 107.235C370.076 102.938 373.849 99.3988 376.601 95.0029C376.645 94.9325 378.721 90.1799 378.489 92.7739C377.57 103.059 372.366 114.246 368.843 123.654C364.191 136.073 358.005 147.4 352.203 159.209C346.1 171.635 340.965 184.126 333.165 195.471C314.269 222.958 297.773 251.32 282.687 281.316C279.028 288.589 273.971 295.146 269.62 301.975C268.434 303.837 267.299 305.741 266.15 307.629C265.071 309.4 267.768 301.254 267.936 300.779C273.035 286.374 279.783 272.453 285.443 258.264C295.439 233.205 307.958 210.818 324.948 190.524C332.015 182.083 337.423 172.641 342.914 163.015C345.966 157.664 349.63 153.853 353.224 149.043C360.342 139.518 364.431 126.962 370.272 116.477C372.747 112.034 374.366 105.266 377.724 101.69C378.412 100.956 381.857 96.0355 382.726 96.2533C384.045 96.584 379.814 109.784 379.663 110.28C371.766 136.279 360.338 159.847 349.856 184.653C341.089 205.397 332.433 226.695 321.886 246.521C314.534 260.34 303.11 273.595 293.303 285.556C289.203 290.557 285.069 295.516 280.339 299.854C278.364 301.666 276.44 303.281 275.235 305.78C270.434 315.738 283.233 299.525 284.167 298.387C292.022 288.811 298.099 278.106 304.379 267.343C313.667 251.424 323.612 235.979 332.298 219.664C349.229 187.86 365.447 154.683 377.673 120.501C380.168 113.524 384.082 107.156 386.707 100.168C392.724 84.1449 376.136 132.815 369.965 148.771C360.042 174.43 347.185 199.28 335.156 223.905C327.048 240.503 320.902 257.627 310.861 273.161C305.591 281.313 299.671 288.537 295.804 297.462C293.161 303.562 294.801 291.723 294.834 291.536C299.013 267.953 308.052 244.672 317.445 222.981C324.086 207.644 332.103 193.542 341.281 179.814C347.584 170.387 352.116 160.001 358.124 150.402C361.026 145.765 364.285 141.403 367.516 137.028C368.03 136.331 372.127 129.216 370.629 133.059C357.144 167.664 339.302 199.717 320.865 231.407C317.96 236.4 315.18 243.477 313.413 248.968C312.64 251.369 311.891 253.817 311.218 256.253C309.05 264.105 315.434 240.494 318.109 232.821C325.181 212.534 339.115 196.91 347.304 177.204C351.634 166.784 356.833 156.898 361.595 146.705C363.887 141.799 371.433 129.635 370.068 123.817C369.643 122.007 367.627 126.53 366.699 128.112C364.345 132.123 362.197 136.268 359.859 140.29C349.52 158.08 338.789 175.476 329.235 193.786C323.892 204.025 318.517 214.335 313.719 224.884C313.393 225.601 307.753 236.342 307.645 235.974C306.962 233.644 308.379 231.141 309.023 228.798C311.213 220.834 313.64 213.225 316.373 205.42C323.483 185.118 332.941 165.958 342.404 146.814C346.978 137.559 351.584 128.121 356.542 119.087C359.187 114.268 362.872 110.139 365.27 105.169C367.324 100.912 367.9 98.5621 363.841 102.886C360.853 106.068 359.086 110.141 357.154 114.085C351.813 124.991 346.262 135.714 340.158 146.161C328.514 166.092 319.474 187.307 309.84 208.411C301.695 226.253 293.687 244.637 284.422 261.853C281.523 267.24 276.595 272.945 272.274 277.129C264.926 284.245 260.6 293.355 256.35 302.41" stroke="black" stroke-width="11" stroke-linecap="round" stroke-linejoin="round"/>
</svg>
