<svg width="1440" height="1024" viewBox="0 0 1440 1024" fill="none" xmlns="http://www.w3.org/2000/svg">
<path d="M842.766 409.016C828.971 405.821 815.178 402.295 801.282 399.539C799.265 399.139 798.364 398.564 797.189 400.056C796.286 401.202 795.039 402.568 794.26 403.76C793.461 404.982 793.86 407.751 793.915 409.188C794.069 413.189 796.249 417.947 798.18 421.379C800.351 425.238 800.091 431.92 803.995 433.872C807.845 435.797 810.26 437.706 814.851 437.706C822.506 437.706 824.982 433.865 830.359 429.349C834.086 426.218 838.6 422.863 841.56 419.096C842.144 418.352 849.73 409.016 845.695 409.016C843.789 409.016 843.191 411.619 841.646 412.462C837.932 414.488 835.076 418.085 833.116 421.724C831.518 424.691 830.985 410.568 830.015 411.816C828.184 414.169 829.584 422.27 829.584 424.696C829.584 424.855 831.508 433.258 829.756 431.33C828.636 430.098 828.353 427.072 827.516 425.558C826.357 423.459 825.005 421.586 823.984 419.441C822.579 416.491 822.017 413.351 820.451 410.567C820.167 410.061 820.279 414.89 820.279 415.908C820.279 421.488 819.982 438.027 818.771 432.58C818.404 430.927 819.03 429.154 818.556 427.496C817.381 423.383 814.62 419.537 813.042 415.521C812.812 414.936 809.917 408.646 809.466 410.222C808.896 412.218 809.423 415.128 809.423 417.201C809.423 420.784 810.384 427.415 808.476 430.383C807.852 431.353 807.111 425.775 807.097 425.472C806.944 422.196 805.57 419.489 804.34 416.511C803.69 414.937 803.573 410.567 802.057 410.567C799.73 410.567 797.834 403.634 797.189 401.951C797.141 401.827 795.627 396.428 794.777 398.979C794.362 400.222 795.71 402.524 796.241 403.588" stroke="black" stroke-width="11" stroke-linecap="round" stroke-linejoin="round"/>
<path d="M843.541 416.77C852.843 418.01 860.76 415.995 869.905 415.995C875.333 415.995 880.761 415.995 886.189 415.995C894.718 415.995 903.248 415.995 911.777 415.995" stroke="black" stroke-width="11" stroke-linecap="round" stroke-linejoin="round"/>
<path d="M952.874 422.973C954.619 430.904 969.353 429.176 976.524 429.176C980.348 429.176 984.629 430.727 988.543 430.727" stroke="black" stroke-width="11" stroke-linecap="round" stroke-linejoin="round"/>
<path d="M795.322 396.38C790.588 394.782 785.162 392.985 785 387.614" stroke="black" stroke-width="11" stroke-linecap="round" stroke-linejoin="round"/>
<path d="M790.814 466.621C790.814 471.086 789.938 471.65 793.915 472.092C795.402 472.257 797.695 473.872 797.792 471.446C797.877 469.314 797.792 467.643 797.792 465.845" stroke="#F2CB43" stroke-width="11" stroke-linecap="round" stroke-linejoin="round"/>
<path d="M410.619 501.387C390.135 437.374 369.182 373.468 348.318 309.561C349.109 306.957 349.25 304.267 350.185 301.662C353.147 293.412 355.99 288.813 362.188 282.711C380.908 264.278 403.898 247.093 430.991 245.703C463.665 244.028 496.047 248.164 522.799 268.971C531.704 275.897 537.656 286.56 544.12 295.556C549.701 303.324 552.316 307.587 550.752 317.034C548.217 332.353 548.848 347.979 547.068 363.412C544.26 387.742 542.614 412.833 536.75 436.637C532.819 452.589 529.095 480.942 524.136 496.603C523.162 499.679 522.206 505.968 518.135 506.447C512.734 507.082 508.011 508.252 502.5 508.5C489.977 509.063 476.594 496.776 464.314 499.597C456.224 501.456 448.419 504.212 440.204 505.546C431.687 506.929 422.199 507.966 413.567 506.862C410.946 506.527 411.27 503.424 410.619 501.387Z" fill="#8F6400"/>
<path d="M346.29 303.347C367.823 369.325 389.471 435.3 410.619 501.387C411.27 503.424 410.946 506.527 413.567 506.862C422.199 507.966 431.687 506.929 440.204 505.546C448.419 504.212 456.224 501.456 464.314 499.597C476.594 496.776 489.977 509.063 502.5 508.5C508.011 508.252 512.734 507.082 518.135 506.447C522.206 505.968 523.162 499.679 524.136 496.603C529.095 480.942 532.819 452.589 536.75 436.637C542.614 412.833 544.26 387.742 547.068 363.412C548.848 347.979 548.217 332.353 550.752 317.034C552.316 307.587 549.701 303.324 544.12 295.556C537.656 286.56 531.704 275.897 522.799 268.971C496.047 248.164 463.665 244.028 430.991 245.703C403.898 247.093 380.908 264.278 362.188 282.711C355.99 288.813 353.147 293.412 350.185 301.662C349.2 304.407 349.096 307.246 348.185 309.98" stroke="#543B00" stroke-width="11" stroke-linecap="round" stroke-linejoin="round"/>
<path d="M562.023 245.175C507.918 245.392 496.536 239.7 431.5 244.227C456.326 244.985 511.581 254.5 534 286.5C556.419 318.5 547.674 383.833 540.5 412.5L516.536 519.02C525.924 519.02 535.268 519.57 544.331 516.651C556.833 512.625 550.907 513.691 563.866 511.387C602.554 504.509 640.601 498.159 677.678 484.329C681.077 483.061 696.633 479.581 698.156 475.011C699.231 471.786 699.658 467.924 700.262 464.588C702.99 449.51 708.997 435.177 712.159 420.158C718.938 387.958 731.687 354.2 728.268 320.769C726.464 303.135 717.727 288.775 709.896 273.391C706.158 266.05 702.081 258.987 697.367 252.229C692.251 244.896 685.719 235.154 677.257 231.172C674.545 229.896 668.869 231.091 666.255 231.435C656.023 232.781 646.754 236.088 636.459 236.857C625.659 237.665 614.986 238.23 604.242 239.7C596.981 240.694 590.362 243.909 582.975 244.227C575.974 244.529 569.048 245.147 562.023 245.175Z" fill="#8F6400" stroke="#543B00" stroke-width="11" stroke-linecap="round" stroke-linejoin="round"/>
<path d="M520.225 359.83C535.385 359.01 550.354 358.822 565.392 356.882C574.937 355.65 584.29 352.363 593.819 350.881C599.115 350.057 606.688 351.773 611.296 348.248C612.967 346.971 612.139 342.561 612.139 340.668C612.139 336.865 610.982 325.818 616.455 324.823C619.906 324.195 623.202 320.836 626.879 319.611C630.944 318.256 634.964 317.189 639.25 317.189C642.998 317.189 647.784 317.647 650.778 320.243C653.849 322.904 654.765 325.855 657.201 328.56C658.672 330.195 659.935 332.574 660.412 334.719C661.015 337.436 668.012 336.311 670.203 335.983C677.625 334.87 685.824 333.907 692.997 331.824C699.763 329.86 706.424 327.909 713.528 327.613C718.622 327.4 725.303 329.646 727.741 324.77" stroke="#F2CB43" stroke-width="11" stroke-linecap="round" stroke-linejoin="round"/>
<path d="M520.225 376.886C535.399 377.741 550.675 377.263 565.708 379.518C571.54 380.393 577.982 379.157 583.765 378.307C589.437 377.473 595.26 377.833 600.979 377.833C602.84 377.833 607.612 378.802 609.085 377.623C611.983 375.305 612.258 379.682 614.876 382.519C615.986 383.72 616.371 384.513 616.982 385.888C618.105 388.416 624.15 390.562 626.352 391.942C631.266 395.019 640.993 398.259 646.409 395.732C655.14 391.657 663.818 386.389 666.992 376.675C668.649 371.605 669.036 366.071 671.625 361.514C675.841 354.093 682.462 354.553 690.26 352.67C703.184 349.551 716.393 346.872 728.689 342.774" stroke="#F2CB43" stroke-width="11" stroke-linecap="round" stroke-linejoin="round"/>
<path d="M540.124 367.41C541.319 369.875 542.656 377.332 546.231 375.728C548.382 374.761 549.393 373.979 550.968 372.569C553.095 370.666 556.537 369.985 558.865 367.937C559.259 367.59 563.886 361.913 564.55 363.094C565.316 364.455 564.427 366.491 564.761 367.937C564.942 368.721 571.11 362.055 571.92 360.988C572.576 360.124 572.341 366.093 572.341 367.2C572.341 372.844 572.922 372.971 575.921 368.358C576.717 367.133 586.929 358.768 587.292 360.146C587.672 361.591 586.921 373.515 588.45 372.148C595.525 365.817 602.405 353.505 611.718 350.565C612.962 350.172 611.191 365.406 611.191 367.937C611.191 375.014 613.71 367.373 616.561 364.146C625.674 353.832 631.041 340.587 635.196 327.507C636.78 322.52 634.562 328.074 634.143 329.824C633.511 332.469 631.739 334.529 631.09 337.193C628.883 346.252 629.414 355.474 627.51 364.567C626.846 367.743 625.334 377.256 626.563 374.254C627.914 370.95 631.334 368.161 633.09 364.989C636.405 359.003 637.754 351.942 640.355 345.616C640.607 345.003 646.926 331.94 647.146 332.929C648.729 340.052 646.914 349.124 646.251 356.25C646.064 358.255 646.204 367.258 644.83 368.358C643.263 369.611 643.095 373.286 646.356 370.569C651.394 366.37 654.135 358.922 657.464 353.513C659.92 349.522 658.297 356.295 658.622 358.408C659.565 364.537 667.094 354.262 668.835 352.723C672.268 349.685 671.975 346.564 677.047 346.564C677.952 346.564 679.83 346.971 680.363 346.037C680.503 345.792 681.921 343.588 682.206 344.3C682.843 345.894 681.807 348.941 684.206 346.143C685.025 345.187 686.651 342.481 687.47 341.826C688.698 340.844 688.07 338.983 690.313 338.983C691.828 338.983 693.909 340.358 695.472 340.878C697.57 341.578 697.293 343.558 698.525 341.3C699.702 339.141 703.195 335.834 705.263 334.561C706.235 333.963 705.894 336.229 706.053 336.667C707.961 341.916 719.213 341.211 719.213 335.193" stroke="#F2CB43" stroke-width="11" stroke-linecap="round" stroke-linejoin="round"/>
<path d="M525.274 356.787C496.566 347.61 467.859 337.597 438.625 330.172C432.399 328.591 426.162 327.499 419.977 325.66C415.905 324.449 411.438 323.09 407.216 322.593C404.88 322.318 403.02 322.635 400.764 321.677C397.224 320.172 394.059 317.91 390.471 316.53C383.852 313.984 376.88 312.179 370.307 309.55C366.18 307.899 361.875 307.672 357.757 306.025" stroke="#F2CB43" stroke-width="11" stroke-linecap="round" stroke-linejoin="round"/>
<path d="M525.274 378.996C517.731 380.253 511.003 377.306 503.806 375.365C499.834 374.294 495.945 373.321 492.031 372.051C489.183 371.128 486.996 369.743 484.311 368.561C481.993 367.541 479.654 367.871 477.296 367.187C468.827 364.728 460.396 364.69 451.598 363.626C438.085 361.993 425.319 357.05 412.116 354.249C405.912 352.933 399.797 348.406 395.195 344.132C391.011 340.247 385.955 338.286 380.565 336.835C376.15 335.646 371.468 333.21 367.416 331.054C363.24 328.831 359.381 325.695 354.585 325.695" stroke="#F2CB43" stroke-width="11" stroke-linecap="round" stroke-linejoin="round"/>
<path d="M356.488 312.37C359.843 315.725 363.485 319.075 365.83 323.263C366.842 325.071 367.24 324.553 369.038 323.933C372.053 322.893 373.723 320.146 376.159 323.298C379.027 327.011 380.635 331.997 384.408 334.931C385.352 335.666 387.639 327.257 387.827 326.506C388.666 323.15 388.398 322.185 390.259 325.484C391.053 326.89 399.881 337.268 400.271 336.694C401.918 334.272 403.611 331.322 404.889 328.692C405.541 327.35 405.424 325.389 406.123 327.105C407.089 329.476 410.382 331.155 412.01 333.098C413.975 335.444 416.815 339.104 417.403 342.193C417.716 343.837 420.071 339.03 420.259 338.738C422.433 335.364 423.163 334.653 427.274 336.13C436.477 339.436 441.152 351.254 446.38 358.55C448.257 361.169 449.068 362.027 450.434 358.867C452.217 354.744 452.87 350.498 453.431 346.071C453.825 342.953 455.325 344.722 457.062 346.353C459.327 348.481 462.629 350.705 463.865 353.615C464.846 355.923 467.096 357.41 468.413 359.537C469.779 361.745 471.1 357.635 471.691 356.435C473.894 351.965 475.151 349.73 479.517 353.685C482.141 356.062 484.664 358.556 487.272 360.947C489.408 362.905 492.558 363.671 494.534 365.812C495.851 367.239 497.799 362.367 498.588 361.335C500.384 358.986 500.573 358.397 503.277 359.749C507.403 361.811 512.908 364.742 514.487 369.478" stroke="#F2CB43" stroke-width="11" stroke-linecap="round" stroke-linejoin="round"/>
<path d="M1030.02 337.739C1027.99 341.021 1025.03 341.877 1021.51 343.243L1020.19 344.564C1018.96 347.021 1015.24 347.867 1021.14 347.867C1023.83 347.867 1027.05 348.31 1029.65 347.573C1032.77 346.69 1038.33 344.168 1040.88 342.216C1045.8 338.453 1049.86 332.798 1054.24 328.419C1056.24 326.423 1059.41 324.661 1059.74 321.594C1059.95 319.727 1059.28 314.717 1062.46 316.163C1068.31 318.825 1074.72 320.426 1080.66 323.282C1086.86 326.261 1095.01 327.882 1101.72 329.63C1111.15 332.084 1121.13 329.373 1130.75 329.373C1148.45 329.373 1166.88 331.348 1183.99 326.07C1191.4 323.784 1198.19 319.907 1205.57 317.631C1222.71 312.34 1241.47 312.432 1258.99 308.677C1283.42 303.444 1307.91 294.304 1329.52 281.707C1345.43 272.435 1358.1 260.017 1368.97 245.233L1369.14 244.992C1373.65 238.855 1377.95 233.003 1379.39 225.382C1380.85 217.634 1379.11 209.699 1378.58 201.934C1378.13 195.457 1378.04 188.939 1378.25 182.449C1378.58 172.184 1381.8 161.777 1377 152.067C1371.53 140.993 1361.09 133.993 1354.8 123.592C1351.49 118.12 1349.35 113.01 1343.57 109.758C1335.27 105.087 1327.01 103.326 1317.56 102.97C1308.79 102.64 1300.04 101.941 1291.28 101.649C1270.87 100.968 1250.48 102.753 1230.08 102.456C1223.02 102.353 1215.04 99.8492 1208.06 101.649C1201.96 103.225 1195.72 103.632 1189.64 105.465C1180.09 108.343 1170.22 109.044 1160.43 110.822C1150.55 112.62 1141.11 115.314 1131.66 118.675C1120.49 122.652 1108.75 124.629 1097.5 128.399C1078.16 134.883 1062.68 147.193 1045.14 156.984C1040.59 159.523 1035.53 161.503 1031.71 165.13C1026.31 170.256 1022.24 176.572 1016.81 181.642C1009.12 188.825 1001.24 195.337 996.08 204.576C993.678 208.873 990.938 215.674 990.502 220.685C990.034 226.071 989.553 233.2 990.759 238.518C992.944 248.159 994.053 258.652 998.391 267.58C1002.89 276.831 1008.15 283.018 1014.79 290.66C1018.18 294.557 1023.63 299.705 1028.33 301.815C1031.38 303.181 1041.98 300.082 1041.98 303.467C1041.98 307.052 1041.52 310.518 1040.15 313.814C1039 316.568 1038.59 320.09 1037.73 322.988C1036.14 328.311 1032.92 333.058 1030.02 337.739Z" fill="white" stroke="black" stroke-width="11" stroke-linecap="round" stroke-linejoin="round"/>
<path d="M1019.32 234.773C1026.54 244.556 1037.37 248.39 1046.61 255.587C1046.86 255.785 1047.83 257.165 1047.83 256.798C1047.83 253.584 1047.86 250.368 1047.83 247.154C1047.81 244.33 1044.7 235.253 1049.55 235.76C1052.8 236.098 1060.31 236.26 1061.68 239.976C1061.93 240.656 1064.85 242.387 1065.39 241.501C1067.25 238.462 1065.75 230.863 1065.75 227.506C1065.75 224.678 1065.84 222.022 1065.3 219.252C1064.1 213.161 1063.38 207.001 1062.49 200.86" stroke="black" stroke-width="11" stroke-linecap="round" stroke-linejoin="round"/>
<path d="M1071.32 182.86C1076.22 197.118 1081.24 211.163 1085.52 225.512C1086.33 228.207 1086.04 226.302 1085.93 224.636C1085.5 218.34 1083.53 212.161 1082.85 205.869C1082.59 203.4 1080.84 196.352 1084.34 195.125C1087.13 194.151 1090.58 193.878 1093.48 194.019C1097.22 194.2 1099.99 201.582 1101.44 204.347C1103.94 209.114 1105.74 214.011 1106.32 219.379" stroke="black" stroke-width="11" stroke-linecap="round" stroke-linejoin="round"/>
<path d="M1125 181.777C1118.64 187.661 1111.93 203.342 1120.08 211.163C1123.32 214.272 1127.17 212.609 1129.96 210.165C1132.16 208.238 1135.48 205.979 1136.03 202.864C1137.13 196.748 1136.71 188.983 1135.72 182.866C1133.33 168.021 1128.58 177.537 1132.41 181.959C1135.92 186.003 1139.73 190.386 1142.2 195.2C1143.75 198.228 1145.54 201.933 1148.32 203.817" stroke="black" stroke-width="11" stroke-linecap="round" stroke-linejoin="round"/>
<path d="M1146.32 134.86C1150.01 150.054 1158.83 164.763 1165.55 178.866C1167.51 182.972 1169.06 187.6 1172.32 190.86" stroke="black" stroke-width="11" stroke-linecap="round" stroke-linejoin="round"/>
<path d="M1148.32 174.86C1156.86 168.613 1166.68 165.47 1174.32 157.86" stroke="black" stroke-width="11" stroke-linecap="round" stroke-linejoin="round"/>
<path d="M1221.66 136.86C1217.35 146.448 1210.71 157.65 1210.33 168.47C1210.16 173.562 1211.91 173.86 1216.09 173.86C1227.66 173.86 1224.61 160.389 1222.88 152.025C1222.37 149.583 1221.7 147.286 1221.03 144.899C1221 144.772 1220.58 143.295 1221.08 143.346C1222.41 143.482 1225.54 147.696 1225.98 148.188C1229.75 152.426 1233.36 156.826 1237.67 160.522C1238.63 161.349 1243.9 164.773 1244.32 165.638" stroke="black" stroke-width="11" stroke-linecap="round" stroke-linejoin="round"/>
<path d="M1087.56 279.175C1091.47 286.266 1095.76 293.312 1099.01 300.751C1099.49 301.864 1099.78 302.92 1100.62 303.834C1101.5 304.786 1101.89 305.848 1102.75 306.916" stroke="black" stroke-width="11" stroke-linecap="round" stroke-linejoin="round"/>
<path d="M1082.27 294.367C1089.54 289.989 1101.27 284.783 1105.39 276.533" stroke="black" stroke-width="11" stroke-linecap="round" stroke-linejoin="round"/>
<path d="M1113.32 275.873C1117.69 281.382 1123.49 288.016 1125.46 295.027C1127.2 301.192 1124.53 292.789 1123.89 291.137C1122.02 286.358 1117.88 281.126 1121.1 276.386C1123.59 272.711 1126.29 268.794 1129.98 266.112C1131.97 264.662 1139.57 265.965 1141.72 265.965" stroke="black" stroke-width="11" stroke-linecap="round" stroke-linejoin="round"/>
<path d="M1143.7 273.891C1146.69 268.636 1149.64 262.856 1149.64 256.682C1149.64 252.355 1148.99 252.755 1145.02 252.755C1142.04 252.755 1141.72 253.706 1141.72 256.425C1141.72 258.913 1139.82 260.937 1139.74 263.47C1139.66 265.789 1139.74 268.122 1139.74 270.442C1139.74 277.606 1144.43 289.003 1152.51 290.257C1162.54 291.813 1166.16 282.945 1166.16 274.552" stroke="black" stroke-width="11" stroke-linecap="round" stroke-linejoin="round"/>
<path d="M1169.46 252.755C1168.78 257.144 1166.51 268.636 1171.44 271.102C1174.87 272.817 1176.06 264.755 1176.06 263.03C1176.06 258.41 1174.74 244.613 1174.74 249.233C1174.74 252.642 1177.27 254.857 1179.26 257.342C1183.53 262.687 1189.06 268.829 1195.22 271.91" stroke="black" stroke-width="11" stroke-linecap="round" stroke-linejoin="round"/>
<path d="M1195.88 230.959C1193.54 232.763 1186.16 237.513 1185.97 240.866C1185.86 242.805 1185.4 247.471 1187.95 247.471C1192.45 247.471 1194.73 244.966 1198.89 243.252C1200.62 242.539 1207.1 239.22 1208.94 240.353C1209.4 240.634 1209.82 242.293 1210.56 242.848C1214.47 245.783 1215.25 249.053 1215.03 253.636C1214.81 258.432 1208.65 257.883 1205.64 258.993C1202.29 260.226 1198.81 260.021 1195.22 260.021" stroke="black" stroke-width="11" stroke-linecap="round" stroke-linejoin="round"/>
<path d="M1213.05 223.694C1213.9 228.335 1214.58 233.247 1218.04 236.61C1219.25 237.78 1220.78 238.441 1222.01 239.545C1222.92 240.37 1223.85 239.903 1224.87 240.536C1228.18 242.608 1229.92 236.201 1230.74 234.262C1233.04 228.79 1228.42 221.803 1224.28 219.731" stroke="black" stroke-width="11" stroke-linecap="round" stroke-linejoin="round"/>
<path d="M1230.89 213.786C1237.12 217.98 1243.35 222.189 1249.49 226.519C1252.4 228.571 1256.16 230.376 1257.97 233.601C1260.03 237.3 1257.47 233.554 1255.98 231.986C1253.2 229.06 1248.44 227.629 1246.04 224.024C1244.18 221.231 1242.84 216.236 1244.43 212.759C1247.18 206.704 1252.95 206.809 1258.63 204.539" stroke="black" stroke-width="11" stroke-linecap="round" stroke-linejoin="round"/>
<path d="M1268.53 221.712C1273.2 217.458 1276.59 211.745 1277.08 205.347C1277.17 204.275 1277.51 201.88 1276.97 200.87C1276.42 199.823 1269.82 200.534 1268.68 200.576C1266.03 200.674 1265.89 204.477 1265.89 206.374C1265.89 211.034 1265.23 215.584 1265.23 220.244C1265.23 225.276 1273.04 228.317 1277.63 228.317C1281.28 228.317 1285.69 228.407 1288.86 226.336C1290.79 225.072 1292.6 222.559 1294.29 221.712" stroke="black" stroke-width="11" stroke-linecap="round" stroke-linejoin="round"/>
<path d="M1051.33 457.4C1043.21 454.456 1035.99 452.224 1035.99 442.686C1035.99 436.965 1035.95 426.931 1040.8 423.079C1043.01 421.331 1044.32 419.187 1047.03 418.26C1050.89 416.94 1053.61 416.037 1057.63 416.037C1065.02 416.037 1070.52 419.303 1075.38 424.821C1077.97 427.752 1080.21 430.443 1081.39 434.161C1082.32 437.105 1082.46 440.105 1083.35 443.019C1084.31 446.144 1083.84 449.424 1084.69 452.582C1085.95 457.265 1086.02 461.543 1086.02 466.406C1086.02 469.631 1086.02 472.856 1086.02 476.08C1086.02 480.528 1087.5 484.758 1087.87 489.201C1088.72 499.296 1089.44 509.026 1093.58 518.333C1095.02 521.552 1095.84 525.01 1097.21 528.266C1099.36 533.345 1100.61 535.062 1104.85 538.755C1107.95 541.461 1110.65 544.73 1113.78 547.502C1116 549.469 1118.2 551.463 1120.42 553.432C1122.97 555.698 1126.32 556.781 1129.09 558.733C1130.86 559.984 1127.48 559.474 1127.09 559.474C1123.83 559.474 1120.56 559.593 1117.3 559.474C1111.75 559.271 1106.88 553.797 1102.07 551.394C1097.18 548.949 1093.7 542.924 1088.99 539.756C1084.48 536.723 1079.49 534.624 1074.49 532.528C1069.54 530.452 1068.49 528.069 1064.67 524.041C1061.92 521.134 1059.33 518.205 1056.82 515.071C1053.43 510.86 1052.57 506.182 1050.55 501.395C1047.36 493.81 1043.99 485.197 1043.99 476.821C1043.99 473.29 1043.28 469.233 1044.73 465.925C1045.81 463.456 1046.44 458.883 1048.66 457.4" stroke="#ED544E" stroke-width="11" stroke-linecap="round" stroke-linejoin="round"/>
<path d="M1068.01 530.119C1068.01 536.412 1068.16 542.729 1068.01 549.022C1067.96 550.889 1060.99 554.468 1059.48 555.693C1056.26 558.322 1052.56 560.222 1049.33 562.809" stroke="#F2CB43" stroke-width="11" stroke-linecap="round" stroke-linejoin="round"/>
<path d="M1064.67 550.801C1064.67 555.771 1064.01 560.614 1064.01 565.478" stroke="#F2CB43" stroke-width="11" stroke-linecap="round" stroke-linejoin="round"/>
<path d="M1067.34 549.467C1061.56 550.306 1053.53 550.225 1048.66 553.469" stroke="#F2CB43" stroke-width="11" stroke-linecap="round" stroke-linejoin="round"/>
<path d="M1033.98 442.723C1032.57 446.719 1031.98 448.247 1031.98 452.507C1031.98 455.723 1032.84 456.265 1036.13 455.25C1038.3 454.582 1043.32 451.74 1043.32 449.394" stroke="#F2CB43" stroke-width="11" stroke-linecap="round" stroke-linejoin="round"/>
<path d="M1057.72 425.629C1057.62 425.682 1045.64 431.718 1044.6 432.489C1039.1 436.577 1051.26 439.176 1052.38 439.425C1056.49 440.341 1060.52 441.107 1064.15 438.338C1066.8 436.312 1066.97 432.333 1066.31 429.415C1065.33 425.125 1058 425.629 1054.59 425.629C1050.61 425.629 1048.8 432.916 1048.16 436.164C1047.4 440.014 1048.26 445.577 1051.76 447.842C1055.14 450.033 1060.03 449.679 1063.87 449.435C1066.21 449.287 1066.94 448.857 1067.58 446.736C1068.17 444.785 1068.44 442.869 1068.5 440.831C1068.53 439.604 1068.89 436.969 1067.8 435.976C1066.79 435.049 1063.36 437.184 1062.67 438.113C1062.07 438.921 1062.09 440.852 1061.92 441.731C1061.5 443.898 1060.48 446.575 1061.23 448.779C1063.14 454.422 1071.55 455.349 1075.58 451.31C1078.62 448.278 1073.45 449.499 1072.19 449.848C1067.92 451.031 1066.5 454.549 1064.92 458.264C1062.34 464.328 1058.56 470.26 1058.39 477.066C1058.19 485.074 1059.34 492.539 1060.76 500.385C1061.55 504.79 1063 510.092 1065.37 513.919C1067.08 516.677 1069.57 519.223 1070.37 522.429C1070.72 523.817 1070 519.587 1069.68 518.192C1068.35 512.393 1066.44 506.649 1065.37 500.797C1063.53 490.789 1065.27 480.847 1067.73 471.142C1068.68 467.409 1069.72 463.72 1070.34 459.914C1070.38 459.633 1070.24 459.246 1070.47 459.07C1070.64 458.936 1070.58 459.492 1070.6 459.707C1070.7 460.705 1070.75 461.707 1070.84 462.707C1071.34 468.362 1071.84 474.005 1073.07 479.559C1075.51 490.534 1080.2 500.453 1085.8 510.132C1089.46 516.459 1092.79 522.834 1093.77 530.152C1093.89 531.047 1094.36 532.177 1094.35 533.039C1094.33 534.163 1092.23 532.166 1091.39 531.427C1089.09 529.423 1087.02 527.194 1084.75 525.166C1082.98 523.585 1080.8 522.589 1079.09 520.967C1074.52 516.634 1072.18 509.824 1070.32 504.021C1067.75 496.044 1065.46 487.137 1066.31 478.64C1066.57 475.951 1068.24 471.529 1067.41 468.968C1066.31 465.549 1062.32 464.59 1060.46 461.844C1060.35 461.691 1058.57 458.683 1058.47 458.845C1057.98 459.645 1057.71 461.557 1057.51 462.332C1056.9 464.774 1056.43 467.22 1056.11 469.717C1055.26 476.418 1054.67 484.165 1056.91 490.637C1057.82 493.258 1058.77 495.871 1060.01 498.36C1061.19 500.742 1061.59 500.948 1063.34 498.548C1066.68 493.969 1069.39 488.858 1070.77 483.345C1071.7 479.615 1071.9 475.778 1072.75 472.042C1074.17 465.862 1074.91 459.224 1075.72 452.922C1076.64 445.683 1071.99 437.756 1068.18 432.04" stroke="#ED544E" stroke-width="11" stroke-linecap="round" stroke-linejoin="round"/>
<path d="M1085.35 473.411C1085.35 488.17 1084.95 501.136 1094.4 513.515C1097.82 517.991 1101.75 522.367 1105.44 526.524C1107.15 528.449 1112.07 532.54 1105.59 529.823C1100.85 527.834 1096.57 524.858 1091.73 523.114C1089.74 522.398 1087.7 522.022 1085.87 520.927C1082.88 519.134 1081.62 516.125 1079.72 513.292C1077.18 509.503 1074.61 505.831 1072.23 501.951C1070.28 498.764 1068.67 496.855 1067.34 493.389C1065.83 489.462 1065.34 484.253 1065.34 480.083" stroke="#88A146" stroke-width="11" stroke-linecap="round" stroke-linejoin="round"/>
<path d="M1066.01 481.417C1068.4 482.003 1070.5 483.316 1072.83 483.938C1073.64 484.153 1074.16 481.318 1074.35 480.824C1074.74 479.765 1079.22 475.454 1079.31 475.784C1080.7 480.622 1081.54 474.079 1084.69 474.079" stroke="#88A146" stroke-width="11" stroke-linecap="round" stroke-linejoin="round"/>
<path d="M1067.34 486.754C1069.79 493.191 1071.87 500.267 1075.87 505.954C1078.38 509.541 1081.33 512.801 1084.02 516.257C1084.21 516.504 1086.41 520.134 1086.65 519.037C1086.96 517.637 1086.9 515.285 1086.39 513.959C1084.81 509.872 1082.81 506.613 1081.72 502.099C1080.48 496.931 1079.61 491.497 1077.65 486.532C1075.15 480.22 1082.06 499.391 1084.84 505.583C1087.64 511.823 1090.79 516.272 1095.36 521.298C1095.65 521.614 1101.07 527.07 1100.55 524.337C1100 521.447 1096.9 518.767 1094.99 516.776C1089.6 511.146 1087.08 504.383 1084.69 497.132C1083.14 492.454 1081.35 487.686 1081.35 482.752" stroke="#88A146" stroke-width="11" stroke-linecap="round" stroke-linejoin="round"/>
<path d="M1056.99 429.873C1056.47 430.353 1054.54 432.088 1054 432.731C1053.83 432.93 1053.49 433.199 1053.63 433.418C1053.77 433.633 1054.15 433.434 1054.39 433.342C1054.95 433.124 1055.48 432.829 1055.98 432.502C1056.35 432.264 1057.75 431.424 1057.68 430.593C1057.61 429.901 1056.44 430.267 1056.16 430.462C1054.91 431.327 1054.34 434.426 1055.68 435.382C1056.73 436.131 1057.99 436.336 1059.26 436.2C1060.19 436.1 1060.26 435.114 1060.29 434.334C1060.37 432.665 1059.66 431.402 1058.1 431.116C1055.67 430.67 1053.75 431.776 1053.85 434.411C1053.9 436.019 1056.31 436.285 1057.54 436.342C1058.55 436.387 1058.53 436.226 1058.73 435.218C1058.94 434.19 1059.68 432.385 1059.12 431.367C1058.05 429.433 1056.15 433.57 1055.81 434.193" stroke="black" stroke-width="3" stroke-linecap="round" stroke-linejoin="round"/>
<path d="M1275.5 935.507C1267.2 949.483 1244.19 966.191 1228.26 970.813C1233.33 975.882 1241.74 979.622 1248.08 983.367C1255.15 987.546 1259.28 994.049 1268.28 994.19C1277.01 994.326 1282.51 993.621 1289.26 986.879C1294.59 981.542 1297.53 976.768 1297.53 969.033C1297.53 965.722 1296.06 963.06 1295.61 959.846C1294.93 955.144 1293.93 950.645 1292.33 946.186C1290.71 941.656 1288.78 936.48 1285.99 932.573C1283.88 929.624 1283.4 925.988 1281.18 922.905C1278.25 918.837 1279.35 921.953 1278.29 925.887C1277.53 928.729 1277.04 932.921 1275.5 935.507Z" fill="#C4C4C4" stroke="black" stroke-width="11" stroke-linecap="round" stroke-linejoin="round"/>
<path d="M1293.5 984.98C1291.3 982.928 1287.87 983.013 1285.78 985.171C1283.7 987.328 1283.73 990.761 1285.85 992.884C1286.56 993.599 1287.28 994.243 1288.02 994.788C1289.84 996.267 1291.89 997.683 1293.7 998.94C1294.41 999.431 1295.09 999.898 1295.7 1000.33C1298.12 1002.06 1300.04 1003.62 1301.49 1005.4C1304.13 1008.65 1308.14 1010.28 1311.31 1011.16C1314.66 1012.1 1318.1 1012.48 1320.6 1012.62C1322.2 1012.71 1324 1012.85 1325.86 1012.99C1328.9 1013.22 1332.12 1013.46 1335 1013.54C1338.39 1013.63 1341.33 1013.24 1344.2 1012.13C1346.98 1011.06 1349.37 1009.43 1351.76 1007.6C1356.6 1003.89 1359.99 999.747 1361.9 994.705C1363.79 989.746 1364.06 984.424 1363.57 978.706C1363.46 977.462 1363.01 975.154 1362.5 973.608C1362.38 973.227 1362.15 972.586 1361.79 971.953C1361.64 971.671 1361.25 971.022 1360.58 970.405C1359.94 969.83 1358.09 968.45 1355.48 969.071C1353.11 969.631 1352.07 971.408 1351.79 971.933C1351.42 972.623 1351.25 973.261 1351.18 973.595C1351.06 974.117 1350.99 974.66 1350.95 975.165C1350.83 975.375 1350.65 975.673 1350.37 976.075C1350.11 976.454 1349.84 976.818 1349.54 977.233C1349.45 977.354 1349.36 977.481 1349.27 977.613C1348.9 978.114 1348.41 978.798 1348.01 979.463C1345.66 983.443 1343.46 986.986 1340.82 990.367C1340.19 991.171 1339.46 991.717 1338.28 992.361C1338.04 992.493 1337.67 992.679 1337.23 992.903C1336.08 993.481 1334.43 994.314 1333.15 995.13C1332.14 995.774 1329.96 996.224 1326.31 996.181C1324.63 996.161 1322.89 996.048 1321.13 995.92C1320.92 995.906 1320.72 995.891 1320.51 995.875C1319 995.765 1317.42 995.65 1316.03 995.618C1313.52 995.561 1311.65 994.662 1309.25 993.038C1308.83 992.754 1308.36 992.419 1307.85 992.051C1305.71 990.518 1302.78 988.427 1299.41 987.164C1297.3 986.373 1295.84 986.121 1294.92 985.962C1294.86 985.951 1294.79 985.94 1294.73 985.929C1294.64 985.914 1294.58 985.901 1294.52 985.891C1294.17 985.589 1293.82 985.286 1293.5 984.98ZM1352.03 976.975C1352.03 976.974 1352.03 976.983 1352.04 977.003C1352.03 976.985 1352.03 976.975 1352.03 976.975ZM1351.06 974.932C1351.06 974.931 1351.06 974.946 1351.05 974.976C1351.06 974.947 1351.06 974.932 1351.06 974.932Z" fill="#C4C4C4" stroke="black" stroke-width="11" stroke-linecap="round" stroke-linejoin="round"/>
</svg>
