<svg width="1440" height="1024" viewBox="0 0 1440 1024" fill="none" xmlns="http://www.w3.org/2000/svg">
<path d="M687.427 914.391C695.092 902.655 701.595 897.29 714.243 890.78C719.424 888.113 723.907 884.693 728.663 881.335C732.793 878.42 730.036 860.921 730.265 856.543C731.211 838.461 738.109 823.921 743.083 806.79C749.815 783.603 757.286 763.246 771.417 743.545C780.745 730.54 790.674 717.205 802.027 705.851C811.665 696.214 824.59 689.771 836.348 683.167C855.665 672.319 877.537 660.322 900.099 658.207C922.295 656.126 940.256 665.64 957.273 679.457C976.275 694.886 991.025 704.978 999.436 729.547C1003.05 740.096 1003.15 750.88 1003.15 761.929C1003.15 774.219 1004.65 787.605 1002.13 799.707C997.254 823.174 985.476 846.875 972.452 866.831C960.412 885.279 943.327 896.273 924.217 906.465C905.593 916.398 889.486 929.912 869.236 937.16C852.019 943.321 830.861 941.713 812.737 941.713C798.275 941.713 784.403 938.879 770.067 938.678C754.788 938.462 744.579 922.618 729.928 921.981C723.514 921.702 715.643 930.279 710.027 932.859C706.823 934.331 702.975 934.791 699.57 935.642" stroke="#ED544E" stroke-width="11" stroke-linecap="round" stroke-linejoin="round"/>
<path d="M613.993 964.061C612.351 964.784 585.915 974.219 587.311 978.154C588.334 981.036 589.164 983.761 589.398 986.809C589.587 989.261 591.197 991.521 592.1 993.753C593.132 996.303 593.627 998.931 594.598 1001.52C595.331 1003.47 594.908 1005.87 595.658 1007.64C596.27 1009.09 601.336 1009.26 602.67 1008.94C607.435 1007.82 611.595 1000.45 615.088 997.174C620.559 992.034 628.485 987.027 635.544 984.38" stroke="#ED544E" stroke-width="11" stroke-linecap="round" stroke-linejoin="round"/>
<path d="M816.856 361.069C837.123 356.252 852 357.5 871.665 367.436C878.82 368.628 881.126 373.217 885.897 378.11C890.683 383.019 896.217 385.721 899.381 391.906C903.149 399.271 909.398 407.569 910.742 415.877C913.274 431.527 910.506 449.128 903.126 462.882C899.059 470.461 892.649 475.439 886.896 481.671C881.322 487.71 874.489 493.506 866.796 496.653C860.095 499.394 852.056 499.487 845.01 501.023C840.024 502.109 835.271 502.931 830.153 502.708C821.592 502.336 812.478 501.744 804.247 499.275C787.991 494.398 778.318 479.889 770.538 465.441C766.221 457.423 768.139 445.637 768.353 436.976C768.656 424.697 769.692 413.11 774.72 401.831C783.595 381.923 794.867 366.295 816.856 361.069Z" fill="#B3CB84"/>
<path d="M775.446 409.768C788.595 412.971 797.357 419.778 802.478 431.99C805.746 439.784 809.109 448.547 810.27 456.906C811.415 465.149 811.81 473.132 811.81 481.438C811.81 484.548 813.456 495.093 810.944 496.349" stroke="white" stroke-width="11" stroke-linecap="round" stroke-linejoin="round"/>
<path d="M873.282 375.135C875.423 385.015 884.116 391.725 886.654 401.879C888.16 407.902 891.437 413.18 893.052 419.099C895.312 427.389 899.857 435.211 903.586 442.669" stroke="white" stroke-width="11" stroke-linecap="round" stroke-linejoin="round"/>
<path d="M750.445 894.383C753.694 879.541 760.568 847.778 764.381 831.523C765.352 827.386 767.258 814.843 771.053 810.1C772.636 808.121 773.289 806.654 774.092 804.244C775.646 799.583 777.981 795.4 780.059 790.975C782.097 786.636 783.42 781.897 786.064 777.854C788.986 773.384 793.931 769.033 797.59 765.178C805.457 756.892 812.65 748.038 820.348 739.604C826.82 732.512 831.683 723.035 839.176 717.069C844.576 712.77 850.496 709.083 856.077 705.024C862.424 700.408 868.154 695.949 876.055 694.349C882.731 692.997 889.558 694.355 896.18 692.904C907.268 690.474 917.191 696.488 925.943 702.614C930.058 705.495 933.901 708.412 938.285 710.917C942.004 713.042 947.006 715.377 947.922 720.109C948.527 723.239 951.942 727.105 953.407 730.116C955.185 733.771 959.41 736.719 960.931 740.346C962.228 743.439 961.981 746.971 963.044 750.13C965.243 756.666 969.699 762.214 972.643 768.403C975.43 774.26 975.942 779.662 975.942 785.934C975.942 790.74 976.432 795.718 974.459 800.241C973.402 802.664 972.149 804.368 971.605 807.023C971.117 809.412 970.667 811.842 969.53 814.028C966.905 819.075 964.477 825.382 960.746 829.669C957.56 833.33 953.39 835.958 949.552 838.861C943.68 843.304 938.284 848.267 932.799 853.168C917.419 866.91 899.423 877.53 881.54 887.749C875.727 891.07 870.436 895.579 864.157 898.052C856.283 901.154 847.865 901.561 839.992 904.538C828.22 908.99 816.097 915.27 803.521 916.732C798.986 917.26 793.57 917.749 789.029 916.992C784.545 916.245 781.298 914.757 777.205 913.063C771.581 910.736 760.545 910.435 757.71 904.057C756.891 902.214 753.308 901.961 752.187 899.72C751.314 897.974 750.386 895.541 749.778 893.716" stroke="#ED544E" stroke-width="11" stroke-linecap="round" stroke-linejoin="round"/>
<path d="M765.123 825.666C779.684 812.281 798.581 804.979 812.416 790.604C821.041 781.643 831.303 774.499 840.288 765.808C847.714 758.626 856.555 753.839 864.231 747.091C869.005 742.894 872.002 737.496 876.314 732.933C881.441 727.508 889.043 725.483 895.217 721.554C899.632 718.744 904.209 716.07 908.56 713.215C911.469 711.305 913.8 708.905 916.788 707.062C918.834 705.8 920.249 703.491 922.57 702.911" stroke="white" stroke-width="11" stroke-linecap="round" stroke-linejoin="round"/>
<path d="M786.471 779.633C796.883 770.411 809.106 764.164 819.384 754.8C825.796 748.958 833.2 745.132 840.288 740.345C844.804 737.296 849.391 733.467 853.223 729.634C856.475 726.382 860.668 724.707 864.379 722.147C868.535 719.281 872.854 716.415 876.759 713.215C879.909 710.633 883.608 709.182 886.544 706.247C888.701 704.089 891.453 701.574 893.956 699.872C896.585 698.084 898.225 695.9 900.554 693.571" stroke="white" stroke-width="11" stroke-linecap="round" stroke-linejoin="round"/>
<path d="M757.117 855.021C776.544 841.729 797.145 830.312 815.159 814.992C826.166 805.631 836.738 795.843 848.108 786.935C854.256 782.118 859.722 776.314 866.492 772.332C869.455 770.589 872.542 769.089 875.499 767.328C892.435 757.244 908.139 745.735 923.533 733.563C928.86 729.351 935.71 724.847 939.916 719.59" stroke="white" stroke-width="11" stroke-linecap="round" stroke-linejoin="round"/>
<path d="M750.445 893.049C771.02 872.474 797.325 857.458 822.497 843.124C836.056 835.403 850.715 830.243 863.935 821.812C870.545 817.596 875.867 812.058 882.281 807.69C887.096 804.413 889.03 800.804 892.177 795.867C896.705 788.766 902.269 782.374 908.411 776.631C919.888 765.9 932.856 756.53 943.548 745.015C947.247 741.032 951.901 735.607 957.262 734.267" stroke="white" stroke-width="11" stroke-linecap="round" stroke-linejoin="round"/>
<path d="M769.125 911.062C787.44 894.642 808.738 883.065 828.724 868.92C838.039 862.327 846.411 854.423 856.225 848.535C859.473 846.587 863.03 845.481 866.01 843.087C876.786 834.428 883.813 821.89 896.254 815.289C914.481 805.617 930.69 792.806 948.663 782.821C954.011 779.85 958.93 775.737 963.711 771.924C965.037 770.866 967.046 769.626 967.936 768.292" stroke="white" stroke-width="11" stroke-linecap="round" stroke-linejoin="round"/>
<path d="M813.157 913.73C831.631 909.112 849.359 899.089 863.675 886.525C875.251 876.367 887.071 867.534 899.738 858.876C906.448 854.289 912.83 850.16 919.012 844.94C923.328 841.295 927.441 836.533 932.355 833.672C940.047 829.195 947.668 824.933 954.667 819.366C959.464 815.55 964.381 809.209 970.605 807.653" stroke="white" stroke-width="11" stroke-linecap="round" stroke-linejoin="round"/>
<path d="M890.547 697.574C897.93 706.421 905.414 715.241 912.933 723.963C916.726 728.363 920.41 732.795 923.089 737.973C928.866 749.142 941.197 755.96 946.587 767.476C947.745 769.949 950.108 771.935 951.628 774.259C954.061 777.98 957.323 781.095 959.782 784.822C962.656 789.18 967.653 794.13 969.27 798.98" stroke="white" stroke-width="11" stroke-linecap="round" stroke-linejoin="round"/>
<path d="M855.855 704.912C867.015 714.213 874.121 727.132 883.393 738.196C889.843 745.891 894.971 752.598 896.551 762.473C897.176 766.376 901.19 768.804 902.555 772.369C903.471 774.76 903.12 777.075 904.742 779.262C908.49 784.317 914.22 787.285 918.641 791.642C923.753 796.68 926.992 803.843 932.429 808.395C936.746 812.009 941.466 815.001 944.845 819.625C946.598 822.023 947.875 824.863 949.626 827.371C950.921 829.226 952.034 830.108 952.592 832.338" stroke="white" stroke-width="11" stroke-linecap="round" stroke-linejoin="round"/>
<path d="M832.505 726.928C838.857 735.921 846.165 743.92 853.372 752.243C860.878 760.913 870.631 769.831 875.165 780.634C879.972 792.085 888.991 798.896 896.996 807.95C899.95 811.291 902.238 814.954 904.89 818.513C907.531 822.055 911.227 824.626 914.49 827.557C921.712 834.044 931.031 839.806 935.913 848.35" stroke="white" stroke-width="11" stroke-linecap="round" stroke-linejoin="round"/>
<path d="M816.493 748.277C821.173 756.016 825.771 763.839 831.17 771.108C834.882 776.106 838.536 780.792 841.215 786.416C843.015 790.197 844.226 794.281 846.478 797.831C848.458 800.954 850.977 803.73 853.186 806.69C857.254 812.139 861.2 817.477 865.565 822.738C870.213 828.339 876.065 832.755 880.91 838.194C884.26 841.956 886.791 845.928 890.398 849.536C892.944 852.081 895.886 855.099 897.737 858.209C898.18 858.953 898.274 860.45 898.849 861.025C900.501 862.677 902.474 863.389 903.148 865.918C903.678 867.904 905.224 869.464 905.224 871.7" stroke="white" stroke-width="11" stroke-linecap="round" stroke-linejoin="round"/>
<path d="M795.144 774.296C801.902 781.202 808.624 787.924 813.306 796.46C816.054 801.472 817.988 806.814 820.57 811.879C822.044 814.771 824.313 817.149 825.833 820.033C827.519 823.231 828.451 826.746 830.207 829.892C833.757 836.254 838.161 840.545 842.883 845.755C847.81 851.192 852.526 857.051 858.042 861.878C861.043 864.504 864.228 867.243 867.048 869.847C868.63 871.306 870.374 872.785 871.792 874.405C873.507 876.365 873.371 879.979 874.98 881.855C876.543 883.679 877.652 886.158 879.205 887.711" stroke="white" stroke-width="11" stroke-linecap="round" stroke-linejoin="round"/>
<path d="M778.465 800.315C783.383 809.276 788.888 817.663 793.291 826.927C797.234 835.222 803.993 841.194 809.154 848.683C811.755 852.457 813.663 856.647 816.122 860.507C819.444 865.72 823.428 867.953 828.168 871.477C834.166 875.937 835.931 879.163 839.028 885.932C840.915 890.058 845.216 897.069 849.183 899.053" stroke="white" stroke-width="11" stroke-linecap="round" stroke-linejoin="round"/>
<path d="M765.79 832.338C768.598 838.603 771.663 844.493 775.389 850.277C778.289 854.779 782.212 858.969 784.692 863.731C787.431 868.99 789.183 874.885 791.771 880.262C793.236 883.304 795.018 885.664 797.071 888.304C798.252 889.822 798.444 892.035 799.518 893.753C801.672 897.2 804.39 900.331 806.486 903.723C808.1 906.336 811.71 907.614 813.824 909.727" stroke="white" stroke-width="11" stroke-linecap="round" stroke-linejoin="round"/>
<path d="M756.449 868.364C759.989 881.779 766.921 890.353 774.685 901.425C777.508 905.452 778.404 910.682 782.468 913.73" stroke="white" stroke-width="11" stroke-linecap="round" stroke-linejoin="round"/>
<path d="M575.653 319.469C544.722 342.001 505.512 363.056 473 382.822C473 388.368 475.553 392.871 475.664 398.187C475.747 402.144 475.452 405.999 480.66 404.766C485.379 403.65 488.956 400.544 493.427 398.738C497.683 397.02 502.097 395.624 506.305 393.853C508.414 392.965 510.514 390.792 512.818 390.622C517.416 390.285 522.485 387.028 526.547 384.91C531.944 382.095 536.804 378.32 542.422 375.888C554.66 370.588 567.255 365.947 579.242 360.168C593.226 353.426 605.766 344.025 619.097 335.938C625.755 331.899 632.109 327.988 638.895 324.237C643.607 321.632 648.479 318.087 652.476 314.348C654.175 312.758 660.118 307.186 657.213 304.656C655.876 303.492 654.777 302.297 653.438 301.189C650.609 298.846 648.455 296.173 646.851 292.758C644.682 288.138 641.393 287.162 638.192 283.854C634.284 279.815 631.013 274.804 625.869 280.702C622.192 284.918 616.234 286.61 612.88 290.945C611.46 292.782 605.847 296.13 603.555 296.855C597.854 298.659 593.089 304.884 588.642 309.068C586.503 311.081 584.873 313.619 582.462 315.293C580.261 316.822 577.828 317.885 575.653 319.469Z" fill="white"/>
<path d="M707.119 909.269C709.402 911.205 716.212 917.005 718.939 919.233C720.096 920.178 721.112 921.621 722.591 921.832C722.921 921.879 722.467 919.161 722.436 919.016C721.42 914.343 721.6 909.411 721.6 904.658C721.6 902.477 721.468 900.569 723.271 903.76C725.724 908.099 727.577 913.315 730.389 917.376C731.062 918.348 731.705 921.162 732.462 920.254C733.128 919.454 732.784 917.258 732.988 916.262C733.907 911.775 734.346 907.244 734.968 902.708C735.095 901.789 735.744 890.237 737.753 891.816C739.883 893.489 740.998 899.582 741.962 902.151C743.892 907.3 745.551 912.664 745.551 918.181C745.551 920.592 746.994 919.764 748.584 918.428C749.978 917.257 751.176 915.857 752.545 914.653C753.061 914.199 753.906 912.419 753.906 913.106C753.906 917.954 753.906 922.802 753.906 927.65C753.906 928.671 753.906 929.692 753.906 930.713C753.906 931.172 758.044 926.191 758.424 925.731C762.524 920.768 770.268 913.712 770.616 925.05C770.672 926.866 769.838 928.764 772.071 928.764C777.006 928.764 778.849 925.71 782.87 923.008C783.64 922.491 790.599 917.626 791.782 918.119C794.2 919.126 795.848 925.406 796.238 927.65C796.484 929.06 798.466 929.559 798.466 931.27C798.466 933.108 801.495 930.345 802.118 929.847C804.038 928.31 811.716 926.357 813.598 928.145C814.328 928.838 816.447 933.453 817.404 933.22C819.258 932.767 821.157 926.327 821.736 924.772C822.785 921.959 823.101 918.939 825.078 923.317C826.08 925.536 827.447 931.025 830.03 931.982C833.32 933.2 832.975 929.171 833 927.031C833.027 924.813 832.962 924.433 835.414 924.338C838.053 924.237 840.697 924.381 843.336 924.308C846.237 924.227 848.749 922.04 850.174 919.635C852.208 916.202 855.252 918.774 856.796 922.018C857.247 922.964 857.198 926.005 857.632 925.05C859.077 921.87 858.8 917.475 859.179 914.065C859.734 909.074 860.176 905.092 865.306 909.33C869.835 913.072 875.128 915.571 881.088 916.262C885.371 916.759 881.11 904.28 883.935 909.764C885.148 912.119 886.259 914.523 887.586 916.819C887.879 917.325 889.471 921.156 889.752 918.954C890.592 912.379 888.704 905.204 887.957 898.686C887.738 896.774 886.52 892.766 889.381 895.251C891.267 896.889 895.27 904.435 898.293 901.718C901.594 898.752 903.284 893.015 904.11 888.814C904.52 886.73 904.04 885.673 906.029 887.608C908.536 890.047 912.83 895.451 916.302 890.207C918.486 886.909 915.339 881.492 914.879 878.077C914.498 875.249 919.133 878.504 919.954 879.067C921.503 880.129 922.93 881.424 924.286 882.718C925.852 884.213 925.588 881.074 925.71 879.871C926.208 874.963 924.621 869.468 931.125 873.559C934.174 875.477 936.566 878.188 939.356 880.428C940.655 881.472 945.609 885.707 944.771 881.295C943.92 876.81 942.199 872.655 940.377 868.515C939.952 867.549 940.625 866.195 941.182 865.389C943.91 861.438 949.995 871.401 952.043 872.847C953.774 874.068 954.092 872.849 953.374 871.269C952.465 869.269 950.778 867.25 949.227 865.699C946.498 862.97 951.308 853.949 952.384 850.722C953.207 848.251 952.641 844.982 955.54 844.378C959.031 843.651 962.071 849.22 964.204 851.403C966.568 853.821 968.284 857.513 970.579 853.569C971.449 852.073 971.68 850.719 971.569 848.989C971.531 848.394 970.599 844.42 971.26 844.007C972.485 843.241 977.881 848.323 978.006 847.844C978.741 845.009 977.515 841.167 976.922 838.437C976.335 835.729 973.671 829.872 974.602 827.08C975.026 825.807 978.581 827.179 979.12 827.483C981.3 828.713 982.338 830.043 982.338 826.214C982.338 824.262 982.01 821.62 981.719 819.716C981.635 819.169 980.408 815.355 980.883 814.548C981.796 812.996 985.808 815.998 986.979 814.95C988.718 813.395 982.596 804.331 981.874 802.603C980.993 800.497 985.042 799.337 986.361 798.116C988.107 796.499 989.284 794.233 990.012 791.989C990.596 790.188 988.936 792.046 988.248 791.587C986.846 790.653 994.505 781.426 992.147 781.19C991.618 781.137 988.796 781.524 988.527 781.035C987.47 779.114 989.925 772.965 990.352 771.071C991.23 767.177 993.433 760.859 991.807 756.898C990.104 752.753 983.418 753.646 980.295 751.205C977.218 748.799 980.372 743.974 981.502 741.457C983.529 736.946 986.431 731.25 985.37 726.078C984.596 722.304 979.726 723.292 977.046 722.21C973.664 720.844 975.897 715.6 976.458 713.143C976.621 712.431 978.348 705.413 975.561 706.614C970.685 708.715 966.34 715.943 964.142 720.57C963.565 721.785 964.452 717.892 964.452 716.547" stroke="#ED544E" stroke-width="18" stroke-linecap="round" stroke-linejoin="round"/>
<path d="M966.68 707.078C961.387 704.888 955.389 703.179 949.66 703.179C948.524 703.179 947.324 703.288 946.195 703.179C943.822 702.951 950.583 697.849 950.867 697.609C954.12 694.866 964.243 687.49 960.243 688.945C956.758 690.212 953.508 691.569 949.97 692.658C946.486 693.73 943.545 696.425 940.068 697.609C935.521 699.157 937.788 681.681 935.921 678.362C935.49 677.595 931.095 688.497 930.784 689.378C930.386 690.509 929.739 693.576 928.556 694.329C927.842 694.784 926.353 689.641 926.328 689.564C925.859 688.108 924.378 679.553 922.027 679.259C919.113 678.895 917.062 679.202 914.26 677.928C911.314 676.589 910.423 676.845 910.423 680.033C910.423 680.774 910.6 685.868 910.299 684.303C909.878 682.115 909.208 679.986 908.752 677.805C908.325 675.762 908.483 672.378 907.329 670.564C906.062 668.574 905.241 669.816 903.522 670.873C901.119 672.352 901.753 676.595 900.149 678.547C899.277 679.61 896.736 679.637 895.57 679.785C891.821 680.261 887.718 680.689 883.966 680.033C880.573 679.439 878.498 676.733 875.827 674.834C871.004 671.405 873.335 678.981 873.661 681.982C873.903 684.212 874.47 686.772 874.187 689.037C874.157 689.281 871.736 684.441 871.433 683.808C869.759 680.313 867.767 675.391 863.171 675.391C860.69 675.391 861.964 686.775 861.964 688.759C861.964 692.636 861.856 693.368 857.91 691.327C856.754 690.729 850.201 685.415 848.596 687.274C846.759 689.4 848.315 692.819 847.389 695.134C846.024 698.546 841.504 696.604 839.251 695.505C837.918 694.855 836.565 694.232 835.042 694.267C833.092 694.311 834.85 699.495 834.981 700.208C835.185 701.329 838.357 713.943 834.3 713.267C831.83 712.855 831.069 708.955 830.463 707.078C829.612 704.443 828.474 702.369 826.069 700.827C816.982 695.002 828.909 719.936 821.922 717.29C818.318 715.924 817.036 714.692 812.948 715.185C807.503 715.843 809.098 719.308 811.215 723.355C812.224 725.283 819.247 735.407 812.917 730.441C812.137 729.829 800.526 718.872 799.828 719.703C798.969 720.726 799.658 724.433 799.704 725.459C799.9 729.842 800.282 734.251 800.106 738.641C799.964 742.193 799.405 743.197 795.805 742.045C794.355 741.581 792.607 740.222 791.101 740.838C789.53 741.481 787.976 742.044 786.305 742.386C784.33 742.79 783.078 742.275 784.17 744.645C785.862 748.315 788.031 751.735 790.049 755.228C790.221 755.525 793.091 760.235 790.761 759.653C788.795 759.161 776.376 750.005 774.887 752.133C773.842 753.625 774.898 757.394 775.196 758.941C775.524 760.639 778.327 765.939 777.486 767.481C775.576 770.982 766.472 760.21 766.841 764.449C767.038 766.708 767.506 768.942 767.708 771.195C767.84 772.682 765.571 771.126 764.892 770.978C763.225 770.616 766.863 785.892 767.027 787.1C767.254 788.777 769.078 796.44 766.037 797.126C762.122 798.009 758.872 793.392 756.506 791.154C756.365 791.021 752.727 788.745 753.287 790.133C754.451 793.012 757.27 795.03 758.703 797.776C759.587 799.471 760.331 803.877 757.125 802.201C751.74 799.386 754.622 808.385 755.361 810.958C756.305 814.248 761.499 825.002 754.278 823.243C753.183 822.977 746.469 817.763 746.263 818.106C745.661 819.11 748.308 823.778 748.522 824.295C750.756 829.686 753.584 835.506 754.773 841.253C755.437 844.463 751.048 835.849 749.388 833.022C748.133 830.883 743.745 821.563 745.18 829.772C745.88 833.78 747.244 837.561 748.182 841.5C748.558 843.081 748.344 843.655 746.665 843.048C746.055 842.827 740.324 839.904 740.105 840.201C739.533 840.978 748.08 850.967 748.862 852.207C748.952 852.35 751.569 858.355 751.338 858.272C748.725 857.339 747.949 852.671 745.242 851.588C743.323 850.821 744.992 855.806 745.613 857.777C746.454 860.444 750.546 865.769 749.667 868.67C748.87 871.298 743.521 868.556 742.364 868.02C741.135 867.45 739.91 866.029 738.62 866.442C738.338 866.532 738.355 867.024 738.434 867.308C738.719 868.327 741.489 873.666 741.59 873.868C743.69 878.068 746.594 882.654 747.656 887.298C748.208 889.714 744.522 886.635 744.221 886.463C741.979 885.182 739.524 884.62 736.949 884.792C735.223 884.907 738.166 891.149 738.372 892.064C740.368 900.893 730.669 895.314 726.149 898.005C722.095 900.418 724.318 904.948 719.001 902.585C718.128 902.196 710.752 897.825 710.46 898.809C709.734 901.26 709.662 903.959 709.346 906.484" stroke="#ED544E" stroke-width="18" stroke-linecap="round" stroke-linejoin="round"/>
<path d="M599.068 321.185C598.131 322.591 598.372 324.877 598.372 326.543C598.372 327.376 598.304 328.173 598.681 328.942C599.041 329.674 599.537 330.256 599.726 331.07C599.946 332.014 601.678 332.49 602.55 332.502C603.951 332.52 605.41 332.598 606.497 331.592C607.453 330.707 608.356 329.64 609.447 328.923C610.578 328.179 612.09 327.653 613.026 326.679C614.811 324.819 615.629 322.234 617.194 320.198C618.524 318.469 619.506 316.506 620.377 314.511C621.046 312.978 622.046 311.65 622.708 310.119C623.639 307.968 624.699 306.063 625.107 303.716C625.453 301.72 625.532 299.634 625.532 297.603C625.532 297.216 627 294.387 627 294C627 293.581 625.532 297.281 625.532 297.7C625.532 300.51 625.354 303.94 623.81 306.396C623.471 306.936 622.868 307.526 622.302 307.798C621.642 308.114 621.229 308.819 620.657 309.268C619.788 309.951 619.458 311.296 619.052 312.257C618.522 313.51 617.769 315.032 616.711 315.952C615.795 316.749 614.61 317.141 613.78 318.09C612.627 319.407 611.658 320.884 610.482 322.191C609.249 323.56 607.628 325.251 605.897 325.944C605.245 326.205 604.113 326.151 603.421 326.021C602.643 325.874 602.562 325.272 602.105 324.754C601.447 324.008 601.087 323.109 600.529 322.365C600.269 322.019 599.914 320.675 599.939 320.662" stroke="black" stroke-width="11" stroke-linecap="round"/>
<path d="M599.591 322.055C598.893 323.373 598.198 324.605 598.198 326.147C598.198 326.338 599.316 324.2 599.513 323.796C599.957 322.889 600.113 321.715 600.113 323.322C600.113 324.812 600.113 326.301 600.113 327.791C600.113 328.051 600.124 328.315 600.113 328.575C600.09 329.122 599.989 329.65 599.852 330.18C599.685 330.827 599.521 331.047 600.065 330.47C600.89 329.594 601.804 328.802 602.512 327.82C602.977 327.173 603.317 326.418 604.04 326.002C604.431 325.777 603.682 327.71 603.614 327.878C603.185 328.952 602.943 330.088 602.492 331.167C601.997 332.353 603.288 331.026 603.547 330.741C604.701 329.469 605.509 327.975 606.245 326.447C606.313 326.307 606.857 328.336 606.884 328.652C606.901 328.858 606.796 330.609 607.077 330.064C607.606 329.04 608.721 328.443 609.331 327.375C609.636 326.841 609.818 326.207 610.172 325.711C610.462 325.306 610.813 325.13 610.994 324.628C611.307 323.763 611.656 322.834 611.778 321.92C611.867 321.252 612.362 322.704 612.378 322.81C612.468 323.431 612.47 324.06 612.474 324.686C612.475 324.742 612.509 326.351 612.552 326.331C612.779 326.223 613.07 325.134 613.122 324.996C613.671 323.562 614.177 322.113 614.709 320.672C615.188 319.373 615.724 318.158 616.479 316.997C616.699 316.658 617.51 314.569 617.523 315.555C617.541 316.842 617.609 318.171 617.504 319.453C617.49 319.627 617.336 320.125 617.407 319.966C617.846 318.983 618.324 318.032 618.665 317.006C619.476 314.561 619.468 312.242 620.967 310.081C621.063 309.942 621.904 308.481 621.963 308.504C622.283 308.632 621.786 309.526 621.702 309.694" stroke="black" stroke-width="11" stroke-linecap="round" stroke-linejoin="round"/>
<path d="M416.944 335.349C421.945 338.076 426.448 338.696 432.032 339.295C429.84 338.047 427.707 336.693 425.543 334.941C422.579 332.541 422.018 330.855 420.92 327.557L420.836 327.306C419.575 323.522 417.857 320.689 417.389 316.557C416.517 308.849 413.148 299.753 415.24 291.984C415.958 289.315 417.179 287.564 418.872 285.424C421.296 282.358 422.321 278.546 424.283 275.157C428.671 267.578 432.865 259.705 435.699 251.399C438.614 242.855 440.372 233.949 442.852 225.269C445.877 214.681 443.649 203.144 443.556 192.319C443.457 180.739 442.659 168.339 440.665 156.923C438.881 146.702 433.416 137.281 432.363 127.013C431.556 119.145 429.011 112.543 424.283 105.997C419.626 99.5495 411.404 96.7128 404.417 93.5068C388.369 86.1435 368.88 87.5024 351.786 89.2445C329.7 91.4953 307.761 95.3153 285.961 99.4371C266.22 103.169 247.25 109.977 229.327 119.007C223.416 121.985 217.634 125.834 211.388 128.124C199.675 132.419 188.296 136.234 177.957 143.543C171.995 147.758 165.767 152.377 161.018 157.961C153.429 166.885 147.972 177.833 141.115 187.353C134.939 195.927 132.584 205.169 129.329 215.076C127.659 220.158 126.472 224.785 126.734 230.161C127.422 244.267 131.082 257.68 136.149 270.746C139.045 278.215 142.627 284.987 146.527 291.947C147.948 294.484 149.843 297.324 150.604 300.175C151.023 301.75 152.971 301.47 154.347 302.065C157.11 303.26 159.811 305.22 162.39 306.772C172.791 313.033 177.95 324.933 186.741 333.014C192.1 337.94 198.137 339.17 204.902 341.093C211.405 342.942 217.696 345.401 224.361 346.653C238.888 349.382 253.991 347.663 268.652 347.357C285.062 347.015 301.902 349.456 318.058 346.134C327.051 344.285 336.259 342.897 344.818 339.463C349.571 337.555 354.29 335.677 359.125 333.977C370.621 329.935 382.994 325.679 393.001 318.633C393.498 318.283 398.724 314.023 399.376 314.926C400.082 315.903 400.415 317.741 400.822 318.892C401.984 322.185 403.859 325.035 406.567 327.157C410.214 330.016 412.848 333.114 416.944 335.349Z" fill="white"/>
<path d="M432.215 339.314C426.546 338.71 422 338.106 416.944 335.349C412.848 333.114 410.214 330.016 406.567 327.157C403.859 325.035 401.984 322.185 400.822 318.892C400.415 317.741 400.082 315.903 399.376 314.926C398.724 314.023 393.498 318.283 393.001 318.633C382.994 325.679 370.621 329.935 359.125 333.977C354.29 335.677 349.571 337.555 344.818 339.463C336.259 342.897 327.051 344.285 318.058 346.134C301.902 349.456 285.062 347.015 268.652 347.357C253.991 347.663 238.888 349.382 224.361 346.653C217.696 345.401 211.405 342.942 204.902 341.093C198.137 339.17 192.1 337.94 186.741 333.014C177.95 324.933 172.791 313.033 162.39 306.772C159.811 305.22 157.11 303.26 154.347 302.065C152.971 301.47 151.023 301.75 150.604 300.175C149.843 297.324 147.948 294.484 146.527 291.947C142.627 284.987 139.045 278.215 136.149 270.746C131.082 257.68 127.422 244.267 126.734 230.161C126.472 224.785 127.659 220.158 129.329 215.076C132.584 205.169 134.939 195.927 141.115 187.353C147.972 177.833 153.429 166.885 161.018 157.961C165.767 152.377 171.995 147.758 177.957 143.543C188.296 136.234 199.675 132.419 211.388 128.124C217.634 125.834 223.416 121.985 229.327 119.007C247.25 109.977 266.22 103.169 285.961 99.4371C307.761 95.3153 329.7 91.4953 351.786 89.2445C368.88 87.5024 388.369 86.1435 404.417 93.5068C411.404 96.7128 419.626 99.5495 424.283 105.997C429.011 112.543 431.556 119.145 432.363 127.013C433.416 137.281 438.881 146.702 440.665 156.923C442.659 168.339 443.457 180.739 443.556 192.319C443.649 203.144 445.877 214.681 442.852 225.269C440.372 233.949 438.614 242.855 435.699 251.399C432.865 259.705 428.671 267.578 424.283 275.157C422.321 278.546 421.296 282.358 418.872 285.424C417.179 287.564 415.958 289.315 415.24 291.984C413.148 299.753 416.517 308.849 417.389 316.557C417.857 320.689 419.575 323.522 420.836 327.306C421.991 330.771 422.505 332.481 425.543 334.941C429.673 338.284 433.687 340.178 438.219 342.65" stroke="black" stroke-width="11" stroke-linecap="round" stroke-linejoin="round"/>
<path d="M150.678 223.898C153.526 233.341 158.509 242.177 163.65 250.546C167.221 256.36 168.486 261.553 170.099 268.004C170.986 271.549 172.064 275.38 173.509 278.752C174.622 281.348 177.067 283.893 177.364 286.758C177.454 287.629 177.681 289.425 178.105 290.168C178.324 290.551 178.992 289.995 179.365 289.76C181.044 288.701 184.689 286.086 185.888 285.238C192.719 280.414 199.456 275.667 207.311 272.637C212.435 270.66 217.415 270.009 221.914 266.743C223.823 265.358 224.914 263.138 226.733 261.925" stroke="black" stroke-width="11" stroke-linecap="round" stroke-linejoin="round"/>
<path d="M236.74 190.54C228.759 198.787 225.733 206.174 225.398 217.893C225.335 220.117 225.158 222.595 225.547 224.787C226.132 228.086 230.304 231.519 232.292 233.979C234.971 237.293 238.021 240.327 241.262 243.097C244.09 245.514 247.887 245.251 251.269 246.21C253.452 246.829 255.026 248.572 257.422 247.322C260.472 245.731 262.89 241.306 264.76 238.501C271.223 228.807 273.051 212.352 262.685 204.254C258.357 200.873 254.348 197.898 249.453 195.321C245.273 193.121 239.991 193.876 235.406 193.876" stroke="black" stroke-width="11" stroke-linecap="round" stroke-linejoin="round"/>
<path d="M272.099 177.864C274.468 180.84 277.082 182.705 280.216 184.943C287.889 190.424 295.553 195.883 303.01 201.659C308.187 205.669 312.617 210.601 317.762 214.52C319.288 215.684 320.029 217.037 321.171 218.56C321.883 219.509 322.668 220.359 323.469 221.229C323.999 221.804 324.748 223.936 324.804 223.156C325.096 219.063 324.155 214.608 324.137 210.48C324.099 202.166 324.137 193.851 324.137 185.536C324.137 177.602 321.325 170.931 320.134 163.187" stroke="black" stroke-width="11" stroke-linecap="round" stroke-linejoin="round"/>
<path d="M344.818 151.178C347.459 162.46 352.133 173.358 354.937 184.573C355.588 187.176 357.75 189.759 358.977 192.171C361.407 196.949 364.866 200.861 368.28 204.958C369.314 206.199 370.692 208.478 372.283 206.774C375.512 203.314 378.672 199.649 382.03 196.322C388.592 189.822 397.31 186.937 404.195 181.2" stroke="black" stroke-width="11" stroke-linecap="round" stroke-linejoin="round"/>
<path d="M353.491 183.201C359.869 178.191 365.204 172.355 370.541 166.3C371.249 165.496 372.721 163.579 373.506 163.187" stroke="black" stroke-width="11" stroke-linecap="round" stroke-linejoin="round"/>
<path d="M274.768 291.947C278.485 297.177 283.082 301.706 286.739 306.958C288.433 309.39 289.478 312.166 291.372 314.482C293.736 317.371 295.016 317.857 299.156 317.966C305.158 318.124 310.235 312.008 312.721 307.328C314.418 304.133 315.464 300.012 315.464 296.32C315.464 293.034 312.762 291.57 311.312 288.982C310.347 287.258 309.315 286.391 307.828 285.201C306.764 284.35 306.768 282.722 305.79 281.94C304.317 280.761 303.539 278.876 302.64 277.269C301.694 275.581 299.452 275.274 299.452 273.267" stroke="black" stroke-width="11" stroke-linecap="round" stroke-linejoin="round"/>
<path d="M320.134 269.931C326.37 282.64 338.268 289.332 346.634 300.138C347.834 301.687 348.222 303.494 348.821 305.29" stroke="black" stroke-width="11" stroke-linecap="round" stroke-linejoin="round"/>
<path d="M320.134 273.267C321.003 268.659 322.624 262.309 326.435 259.108C329.966 256.142 335.247 254.343 339.555 252.881C347.431 250.209 356.987 253.377 363.35 257.922C369.13 262.051 360.873 271.599 357.716 274.082C351.859 278.69 345.62 285.782 338.147 287.277" stroke="black" stroke-width="11" stroke-linecap="round" stroke-linejoin="round"/>
<path d="M342.817 151.178C352.604 146.86 361.778 141.558 371.134 136.501C373.259 135.352 374.429 134.499 376.841 134.499" stroke="black" stroke-width="11" stroke-linecap="round" stroke-linejoin="round"/>
</svg>
