<svg width="53" height="54" viewBox="0 0 53 54" fill="none" xmlns="http://www.w3.org/2000/svg">
<path d="M48.4766 53.8388H32.2071C31.1578 53.8388 30.2946 52.9988 30.2946 51.9488V23.5069H50.3891V51.9488C50.3891 52.9988 49.5258 53.8388 48.4766 53.8388ZM32.4196 51.7388H48.2641V25.6069H32.4196V51.7388Z" fill="#4D6990"/>
<path d="M20.2008 53.8388H3.93127C2.88205 53.8388 2.01877 52.9988 2.01877 51.9488V23.5069H22.1133V51.9488C22.1133 52.9988 21.2633 53.8388 20.2008 53.8388ZM4.14377 51.7388H19.9883V25.6069H4.14377V51.7388Z" fill="#4D6990"/>
<path d="M51.3453 25.6069H31.3571C30.7727 25.6069 30.2946 25.1344 30.2946 24.5569V13.8862C30.2946 13.3087 30.7727 12.8362 31.3571 12.8362H51.3453C51.9297 12.8362 52.4078 13.3087 52.4078 13.8862V24.5569C52.4078 25.1344 51.9297 25.6069 51.3453 25.6069ZM32.4196 23.5069H50.2828V14.9362H32.4196V23.5069Z" fill="#4D6990"/>
<path d="M21.0508 25.6069H1.0625C0.478124 25.6069 0 25.1344 0 24.5569V13.8862C0 13.3087 0.478124 12.8362 1.0625 12.8362H21.0508C21.6352 12.8362 22.1133 13.3087 22.1133 13.8862V24.5569C22.1133 25.1344 21.6352 25.6069 21.0508 25.6069ZM2.125 23.5069H19.9883V14.9362H2.125V23.5069Z" fill="#4D6990"/>
<path d="M32.4195 53.8387H19.9883V12.8362H32.4195V53.8387ZM22.1133 51.7387H30.2945V14.9362H22.1133V51.7387V51.7387Z" fill="#4D6990"/>
<path d="M26.2039 14.805C25.925 14.805 25.6594 14.7 25.4602 14.5031C25.2344 14.28 25.1149 13.965 25.1547 13.65C25.2477 12.705 26.1906 4.34438 28.5149 1.95563C29.75 0.695626 31.3969 0 33.15 0C34.9031 0 36.55 0.695626 37.7852 1.95563C40.3219 4.54125 40.3219 8.75438 37.7852 11.34C35.4477 13.7288 27.2399 14.6869 26.3102 14.7919C26.2703 14.805 26.2305 14.805 26.2039 14.805ZM33.15 2.1C31.9813 2.1 30.8656 2.5725 30.0422 3.42563C28.8336 4.65938 27.8774 9.22688 27.4258 12.5475C30.6664 12.0881 35.0758 11.1038 36.2711 9.89626C38.011 8.11125 38.011 5.21063 36.2711 3.42563C35.4211 2.5725 34.3188 2.1 33.15 2.1Z" fill="#4D6990"/>
<path d="M26.2039 14.805C26.1641 14.805 26.1242 14.805 26.0844 14.805C25.1547 14.7 16.9469 13.7419 14.6094 11.3531C12.0727 8.76751 12.0727 4.55438 14.6094 1.96875C15.8445 0.708748 17.4914 0.0131226 19.2445 0.0131226C20.9977 0.0131226 22.6445 0.708748 23.8797 1.96875C26.2039 4.34438 27.1469 12.7181 27.2399 13.6631C27.2664 13.9781 27.1602 14.2931 26.9344 14.5163C26.7617 14.7 26.4828 14.805 26.2039 14.805ZM19.2578 2.1C18.0891 2.1 16.9735 2.5725 16.15 3.42563C14.4102 5.21063 14.4102 8.11126 16.15 9.89626C17.3453 11.1169 21.7547 12.0881 24.9953 12.5475C24.5438 9.21376 23.5742 4.65938 22.3789 3.42563C21.5422 2.5725 20.4399 2.1 19.2578 2.1Z" fill="#4D6990"/>
</svg>
