<svg width="58" height="62" viewBox="0 0 58 62" fill="none" xmlns="http://www.w3.org/2000/svg">
<path d="M53.734 56.8333V30.9996H53.7278C53.7288 30.8486 53.6966 30.6991 53.6336 30.5618C53.5706 30.4245 53.4782 30.3027 53.363 30.205L47.5339 25.3482V7.23266C47.5339 6.9586 47.425 6.69576 47.2313 6.50197C47.0375 6.30818 46.7746 6.19931 46.5006 6.19931H41.3338V1.03258C41.3337 0.880749 41.3002 0.730805 41.2355 0.593417C41.1709 0.45603 41.0768 0.334576 40.9598 0.237694C40.8429 0.140813 40.7061 0.0708853 40.5591 0.0328856C40.4121 -0.00511421 40.2585 -0.0102523 40.1093 0.0178371L7.04225 6.21791V6.23651C6.80753 6.27784 6.59473 6.40014 6.44086 6.58215C6.28698 6.76415 6.20178 6.99433 6.20008 7.23266V25.3482L0.370971 30.205C0.25578 30.3027 0.16342 30.4245 0.100396 30.5618C0.0373729 30.6991 0.00521936 30.8486 0.00620012 30.9996H0V56.8333C0 57.1073 0.10887 57.3702 0.30266 57.564C0.49645 57.7577 0.759286 57.8666 1.03335 57.8666H52.7006C52.9747 57.8666 53.2375 57.7577 53.4313 57.564C53.6251 57.3702 53.734 57.1073 53.734 56.8333ZM2.06669 32.8245L13.7125 39.812L2.06669 53.9533V32.8245ZM15.5002 40.8846L26.3317 47.3833C26.4924 47.4799 26.6764 47.5309 26.8639 47.5309C27.0514 47.5309 27.2354 47.4799 27.3961 47.3833L38.2338 40.8867L50.511 55.7999H3.22301L15.5002 40.8846ZM40.0184 39.8099L51.6673 32.8245V53.9533L40.0184 39.8099ZM50.9181 30.8601L47.5339 32.8948V28.038L50.9181 30.8601ZM45.4672 34.1348L26.867 45.2949L8.26677 34.1348V8.26601H45.4672V34.1348ZM39.2672 6.19931H18.3502L39.2672 2.27776V6.19931ZM6.20008 28.0401V32.8968L2.81277 30.8622L6.20008 28.0401Z" fill="#4D6990"/>
<path d="M41.3338 29.9663H16.5335V32.033H41.3338V29.9663Z" fill="#4D6990"/>
<path d="M39.2672 34.0997H16.5335V36.1664H39.2672V34.0997Z" fill="#4D6990"/>
<path d="M14.4668 29.9663H12.4001V32.033H14.4668V29.9663Z" fill="#4D6990"/>
<path d="M22.003 27.5968C22.1968 27.7905 22.4596 27.8993 22.7336 27.8993C23.0076 27.8993 23.2704 27.7905 23.4642 27.5968L28.8087 22.2523C28.851 22.2099 28.881 22.1593 28.9213 22.1149L30.2646 23.4582C30.4584 23.6519 30.7212 23.7608 30.9952 23.7608C31.2692 23.7608 31.532 23.6519 31.7258 23.4582L37.0703 18.1137C37.8121 17.3719 38.2289 16.3656 38.2289 15.3165C38.2289 14.2673 37.8121 13.2611 37.0703 12.5192C36.3284 11.7773 35.3222 11.3605 34.273 11.3605C33.2238 11.3605 32.2176 11.7773 31.4757 12.5192L31.0004 13.0049L30.5199 12.5244C29.9667 11.9711 29.2618 11.5943 28.4944 11.4416C27.7271 11.2889 26.9316 11.3673 26.2088 11.6667C25.4859 11.9661 24.8681 12.4732 24.4335 13.1238C23.9988 13.7744 23.7669 14.5392 23.767 15.3216C23.7717 15.5957 23.8046 15.8686 23.8651 16.1359C23.6308 16.2852 23.4127 16.4583 23.2141 16.6526L22.7336 17.1383L22.2531 16.6578C21.5112 15.9159 20.505 15.4991 19.4558 15.4991C18.4067 15.4991 17.4005 15.9159 16.6586 16.6578C15.9167 17.3996 15.4999 18.4058 15.4999 19.455C15.4999 20.5042 15.9167 21.5104 16.6586 22.2523L22.003 27.5968ZM25.8337 15.3216C25.834 14.9481 25.945 14.5831 26.1526 14.2726C26.3602 13.9622 26.6552 13.7202 27.0003 13.5772C27.3453 13.4343 27.725 13.3967 28.0914 13.4694C28.4577 13.5421 28.7944 13.7217 29.0587 13.9855L30.2698 15.1966C30.4636 15.3903 30.7264 15.4991 31.0004 15.4991C31.2744 15.4991 31.5372 15.3903 31.731 15.1966L32.942 13.9855C33.2989 13.6436 33.7756 13.4551 34.2698 13.4605C34.7639 13.4658 35.2364 13.6644 35.5859 14.0139C35.9354 14.3634 36.134 14.8358 36.1393 15.33C36.1446 15.8242 35.9562 16.3009 35.6143 16.6578L31.0004 21.2716L29.8978 20.168C30.0063 19.5975 29.9871 19.0101 29.8416 18.4479C29.6962 17.8857 29.4281 17.3627 29.0565 16.9164C28.685 16.4701 28.2193 16.1116 27.6928 15.8666C27.1663 15.6216 26.5921 15.4962 26.0114 15.4994C25.9587 15.4994 25.9081 15.5128 25.8574 15.5149C25.8459 15.4509 25.838 15.3864 25.8337 15.3216ZM19.4558 17.5661C19.9566 17.5672 20.4368 17.7659 20.792 18.1189L22.003 19.33C22.1968 19.5237 22.4596 19.6325 22.7336 19.6325C23.0076 19.6325 23.2704 19.5237 23.4642 19.33L24.6753 18.1189C25.0322 17.777 25.5088 17.5885 26.003 17.5938C26.4972 17.5991 26.9696 17.7978 27.3191 18.1473C27.6686 18.4968 27.8673 18.9692 27.8726 19.4634C27.8779 19.9576 27.6894 20.4342 27.3475 20.7911L22.7336 25.405L18.1197 20.7911C17.8559 20.5268 17.6763 20.1901 17.6036 19.8238C17.5309 19.4574 17.5685 19.0777 17.7114 18.7327C17.8544 18.3876 18.0964 18.0926 18.4068 17.885C18.7173 17.6774 19.0823 17.5664 19.4558 17.5661V17.5661Z" fill="#4D6990"/>
<path d="M55.8007 49.5999V57.8666C55.8007 58.4147 55.5829 58.9404 55.1954 59.328C54.8078 59.7156 54.2821 59.9333 53.734 59.9333H37.2005V62H53.734C54.8302 62 55.8816 61.5645 56.6567 60.7894C57.4319 60.0142 57.8674 58.9629 57.8674 57.8666V49.5999H55.8007Z" fill="#4D6990"/>
<path d="M35.1338 59.9333H33.0671V62H35.1338V59.9333Z" fill="#4D6990"/>
<path d="M4.13339 5.78596C4.13532 5.28886 4.31556 4.80896 4.64134 4.4335C4.96713 4.05803 5.41682 3.81193 5.90868 3.73993L10.4802 3.08686L10.1867 1.04083L5.61624 1.69391C4.63289 1.83854 3.73399 2.33095 3.08271 3.08177C2.43144 3.83259 2.07095 4.79204 2.0667 5.78596V17.5661H4.13339V5.78596Z" fill="#4D6990"/>
<path d="M4.13339 19.6328H2.0667V21.6995H4.13339V19.6328Z" fill="#4D6990"/>
</svg>
