<svg width="64" height="64" viewBox="0 0 64 64" fill="none" xmlns="http://www.w3.org/2000/svg">
<path d="M60.2469 16.0286C60.1471 16.0286 60.0474 16.0286 60.0474 16.0286H47.2798C45.9831 16.0286 44.6864 15.329 44.1877 14.0298C43.7887 13.2303 43.7887 12.2309 44.0879 11.4314C44.3872 10.5319 45.0854 9.93225 45.8834 9.53249C46.2824 9.33261 46.7811 9.23267 47.1801 9.23267C47.4793 9.23267 47.6788 9.23267 47.8783 9.33261C48.0778 8.43315 48.5765 7.53368 49.3745 6.93404C50.2722 6.23446 51.2697 5.93464 52.3669 6.13452C53.5639 6.3344 54.6611 6.93404 55.2595 7.93344C55.6585 7.73356 56.0575 7.73356 56.5562 7.73356C57.454 7.73356 58.2519 8.13332 58.8504 8.73297C59.2494 8.63303 59.6484 8.53309 60.0474 8.53309C62.1421 8.53309 63.738 10.2321 63.738 12.3308C63.738 14.2297 62.4413 15.8287 60.5461 16.1285C60.5461 16.0286 60.3466 16.0286 60.2469 16.0286ZM60.1471 14.0298C60.3466 14.0298 60.3466 14.0298 60.4464 14.0298C61.2443 13.9299 61.8428 13.1303 61.8428 12.2309C61.8428 11.2315 61.0448 10.432 60.0474 10.432C59.7481 10.432 59.4489 10.5319 59.1497 10.7318C58.9502 10.9317 58.6509 10.9317 58.3517 10.8317C58.0524 10.7318 57.853 10.6318 57.7532 10.332C57.5537 9.93225 57.055 9.63243 56.5562 9.63243C56.257 9.63243 55.858 9.73237 55.6585 10.0322C55.459 10.332 55.0601 10.432 54.6611 10.332C54.2621 10.2321 54.0626 9.93225 53.9628 9.63243C53.7633 8.73297 53.0651 8.13332 52.1674 8.03338C51.5689 7.93344 51.0702 8.13332 50.5715 8.43315C50.1725 8.83291 49.8732 9.33261 49.8732 9.93225C49.8732 10.2321 49.8732 10.5319 49.8732 10.8317C49.973 11.2315 49.7735 11.7312 49.3745 11.9311C48.9755 12.1309 48.4768 12.031 48.1775 11.7312C47.978 11.5313 47.5791 11.3314 47.2798 11.3314C47.0803 11.3314 46.8808 11.3314 46.7811 11.4314C46.4819 11.6312 46.1826 11.8311 46.0829 12.2309C45.9831 12.6306 45.9831 12.9305 46.0829 13.3302C46.2824 13.8299 46.7811 14.1297 47.3796 14.1297L60.1471 14.0298Z" fill="#4D6990"/>
<path d="M3.49113 10.0322C3.39138 10.0322 3.29163 10.0322 3.19189 10.0322C1.2967 9.73241 0 8.13337 0 6.2345C0 4.13575 1.69569 2.43677 3.69062 2.43677C4.08961 2.43677 4.48859 2.53671 4.88758 2.63665C5.48606 2.03701 6.38378 1.63725 7.2815 1.63725C7.68048 1.63725 8.07947 1.73719 8.47845 1.83713C9.07693 0.837724 10.1741 0.138143 11.3711 0.0382023C13.4658 -0.261619 15.4607 1.23749 15.8597 3.33623C16.0592 3.23629 16.3584 3.23629 16.5579 3.23629C17.0567 3.23629 17.4556 3.33623 17.9544 3.53611C18.7523 3.93587 19.4506 4.63546 19.7498 5.43498C20.049 6.33444 20.049 7.2339 19.6501 8.03343C19.0516 9.23271 17.8546 10.0322 16.5579 10.0322H3.69062C3.69062 10.0322 3.59087 10.0322 3.49113 10.0322ZM3.69062 4.43558C2.7929 4.43558 1.99493 5.2351 1.99493 6.2345C1.99493 7.13396 2.59341 7.93349 3.49113 8.03343C3.49113 8.03343 3.59087 8.03343 3.69062 8.03343H16.5579C17.1564 8.03343 17.6551 7.7336 17.8546 7.2339C18.0541 6.93408 18.0541 6.53432 17.8546 6.13456C17.6551 5.7348 17.4556 5.53492 17.1564 5.33504C16.9569 5.2351 16.7574 5.2351 16.5579 5.2351C16.2587 5.2351 15.8597 5.33504 15.6602 5.63486C15.361 5.93468 14.8622 6.03462 14.4632 5.83474C14.0643 5.63486 13.8648 5.2351 13.9645 4.7354C13.9645 4.43557 13.9645 4.13575 13.9645 3.93587C13.8648 2.73659 12.7676 1.93707 11.5706 2.03701C10.6729 2.13695 9.97465 2.73659 9.77516 3.63605C9.77516 3.93587 9.47592 4.23569 9.07693 4.33563C8.67795 4.43558 8.37871 4.33563 8.07947 4.03581C7.87997 3.83593 7.58073 3.63605 7.18175 3.63605C6.68302 3.63605 6.28403 3.93587 5.98479 4.33563C5.88504 4.63546 5.68555 4.7354 5.38631 4.83534C5.08707 4.93528 4.78783 4.83534 4.58834 4.7354C4.38885 4.53552 4.08961 4.43558 3.69062 4.43558Z" fill="#4D6990"/>
<path d="M28.9265 25.0233C26.7321 25.0233 24.9366 23.2244 24.9366 21.0257C24.9366 18.827 26.7321 17.0281 28.9265 17.0281C31.1209 17.0281 32.9164 18.827 32.9164 21.0257C32.9164 23.2244 31.1209 25.0233 28.9265 25.0233ZM28.9265 19.0269C27.8293 19.0269 26.9316 19.9263 26.9316 21.0257C26.9316 22.125 27.8293 23.0245 28.9265 23.0245C30.0237 23.0245 30.9214 22.125 30.9214 21.0257C30.9214 19.9263 30.0237 19.0269 28.9265 19.0269Z" fill="#4D6990"/>
<path d="M28.9265 16.0287C28.328 16.0287 27.929 15.6289 27.929 15.0293V13.0305C27.929 12.4308 28.328 12.0311 28.9265 12.0311C29.525 12.0311 29.9239 12.4308 29.9239 13.0305V15.0293C29.9239 15.6289 29.525 16.0287 28.9265 16.0287Z" fill="#4D6990"/>
<path d="M22.9417 22.0251H20.9468C20.3483 22.0251 19.9493 21.6254 19.9493 21.0257C19.9493 20.4261 20.3483 20.0263 20.9468 20.0263H22.9417C23.5402 20.0263 23.9392 20.4261 23.9392 21.0257C23.9392 21.6254 23.5402 22.0251 22.9417 22.0251Z" fill="#4D6990"/>
<path d="M28.9265 30.0203C28.328 30.0203 27.929 29.6206 27.929 29.0209V27.0221C27.929 26.4225 28.328 26.0227 28.9265 26.0227C29.525 26.0227 29.9239 26.4225 29.9239 27.0221V29.0209C29.9239 29.6206 29.525 30.0203 28.9265 30.0203Z" fill="#4D6990"/>
<path d="M36.9062 22.0251H34.9113C34.3128 22.0251 33.9138 21.6254 33.9138 21.0257C33.9138 20.4261 34.3128 20.0263 34.9113 20.0263H36.9062C37.5047 20.0263 37.9037 20.4261 37.9037 21.0257C37.9037 21.6254 37.5047 22.0251 36.9062 22.0251Z" fill="#4D6990"/>
<path d="M24.9366 18.0274C24.6374 18.0274 24.4379 17.9275 24.2384 17.7276L22.5427 16.0286C22.1437 15.6289 22.1437 15.0292 22.5427 14.6295C22.9417 14.2297 23.5402 14.2297 23.9392 14.6295L25.5351 16.2285C25.9341 16.6283 25.9341 17.2279 25.5351 17.6277C25.4354 17.9275 25.1361 18.0274 24.9366 18.0274Z" fill="#4D6990"/>
<path d="M23.2409 27.7216C22.9417 27.7216 22.7422 27.6217 22.5427 27.4218C22.1437 27.022 22.1437 26.4224 22.5427 26.0226L24.1387 24.4236C24.5376 24.0238 25.1361 24.0238 25.5351 24.4236C25.9341 24.8234 25.9341 25.423 25.5351 25.8228L23.9392 27.4218C23.8394 27.6217 23.5402 27.7216 23.2409 27.7216Z" fill="#4D6990"/>
<path d="M34.6121 27.7216C34.3128 27.7216 34.1133 27.6217 33.9138 27.4218L32.3179 25.8228C31.9189 25.423 31.9189 24.8234 32.3179 24.4236C32.7169 24.0238 33.3153 24.0238 33.7143 24.4236L35.3103 26.0226C35.7093 26.4224 35.7093 27.022 35.3103 27.4218C35.1108 27.6217 34.8115 27.7216 34.6121 27.7216Z" fill="#4D6990"/>
<path d="M32.9164 18.0275C32.6171 18.0275 32.4176 17.9275 32.2181 17.7277C31.8191 17.3279 31.8191 16.7283 32.2181 16.3285L33.8141 14.7294C34.2131 14.3297 34.8115 14.3297 35.2105 14.7294C35.6095 15.1292 35.6095 15.7289 35.2105 16.1286L33.6146 17.7277C33.5148 17.9275 33.2156 18.0275 32.9164 18.0275Z" fill="#4D6990"/>
<path d="M14.0642 59.003H13.9645C12.4683 59.1029 11.0719 57.9036 10.9721 56.3046C10.9721 56.2047 11.5706 50.0084 13.9645 50.0084C16.3584 50.0084 16.9569 56.2047 16.9569 56.3046C16.9569 56.3046 16.9569 56.3046 16.9569 56.4045C16.8572 57.8037 15.5604 59.003 14.0642 59.003ZM13.9645 52.307C13.4658 53.3064 12.967 55.4051 12.967 56.2047C12.967 56.6044 13.366 57.0042 13.8648 57.0042H13.9645C14.4632 57.0042 14.8622 56.7044 14.8622 56.2047C14.962 55.4051 14.4632 53.3064 13.9645 52.307Z" fill="#4D6990"/>
<path d="M13.9645 64C13.366 64 12.967 63.6002 12.967 63.0006V58.0036C12.967 57.4039 13.366 57.0042 13.9645 57.0042C14.563 57.0042 14.962 57.4039 14.962 58.0036V63.0006C14.962 63.6002 14.563 64 13.9645 64Z" fill="#4D6990"/>
<path d="M52.8657 59.3028C51.17 59.3028 49.8733 58.0036 49.8733 56.3046C49.8733 56.2047 50.4717 50.0084 52.8657 50.0084C55.2596 50.0084 55.8581 56.2047 55.8581 56.3046C55.8581 57.9036 54.5613 59.3028 52.8657 59.3028ZM52.8657 52.307C52.3669 53.3064 51.8682 55.4051 51.8682 56.2047C51.8682 56.8043 52.2672 57.2041 52.8657 57.2041C53.4641 57.2041 53.8631 56.8043 53.8631 56.2047C53.8631 55.5051 53.3644 53.3064 52.8657 52.307Z" fill="#4D6990"/>
<path d="M52.8657 64C52.2672 64 51.8682 63.6002 51.8682 63.0006V58.0036C51.8682 57.4039 52.2672 57.0042 52.8657 57.0042C53.4642 57.0042 53.8632 57.4039 53.8632 58.0036V63.0006C53.8632 63.6002 53.4642 64 52.8657 64Z" fill="#4D6990"/>
<path d="M34.9108 64C34.5118 64 34.1129 63.8001 34.0131 63.4003L24.6369 41.8132L21.7443 44.7115C21.4451 45.0113 20.8466 45.1113 20.4476 44.8114L17.9539 43.2124L15.56 44.8114C15.161 45.1113 14.6623 45.0113 14.2633 44.7115L11.3707 41.8132L1.89474 63.4003C1.69525 63.9 1.09677 64.0999 0.598037 63.9C0.0993041 63.7001 -0.100189 63.1005 0.0993041 62.6008L10.074 39.6145C10.1737 39.3147 10.4729 39.1148 10.7722 39.0149C11.0714 38.915 11.4704 39.0149 11.6699 39.3147L15.0613 42.7127L17.3554 41.2136C17.6547 41.0137 18.1534 41.0137 18.4527 41.2136L20.7468 42.7127L24.1382 39.3147C24.3377 39.1148 24.7367 39.0149 25.0359 39.0149C25.3352 39.1148 25.6344 39.3147 25.7342 39.6145L35.7088 62.6008C35.9083 63.1005 35.7088 63.7001 35.2101 63.9C35.2101 64 35.0106 64 34.9108 64Z" fill="#4D6990"/>
<path d="M20.9468 45.0113C20.7473 45.0113 20.5478 44.9114 20.3483 44.8114L17.9544 43.2124L15.5605 44.8114C15.1615 45.1112 14.6627 45.0113 14.2638 44.7115L10.2739 40.7139C9.97465 40.4141 9.87491 40.0143 10.0744 39.6145L15.0617 28.6211C15.361 27.8216 15.8597 27.2219 16.5579 26.9221C17.2561 26.5224 18.1539 26.5224 18.9518 26.7222C19.8496 27.0221 20.5478 27.7216 20.9468 28.721C22.1437 31.4194 25.9341 39.6145 25.9341 39.6145C26.1336 40.0143 26.0338 40.4141 25.7346 40.7139L21.7447 44.7115C21.4455 44.9114 21.246 45.0113 20.9468 45.0113ZM17.9544 41.0137C18.1539 41.0137 18.3534 41.1136 18.5529 41.2136L20.847 42.7127L23.7397 39.8144C22.842 37.8156 20.0491 31.7192 19.0516 29.4206C18.9518 29.0209 18.6526 28.721 18.3534 28.6211C17.7549 28.4212 17.1564 28.721 16.9569 29.3207V29.4206L12.2688 39.8144L15.1615 42.7127L17.4556 41.2136C17.5554 41.1136 17.7549 41.0137 17.9544 41.0137Z" fill="#4D6990"/>
<path d="M40.8961 46.0107C40.4971 46.0107 40.0981 45.8109 39.9983 45.4111L35.011 33.4183C34.9113 33.1184 34.7118 32.9186 34.4125 32.8186C34.1133 32.7187 33.8141 32.7187 33.5148 32.8186C33.2156 32.9186 33.0161 33.1184 32.9163 33.4183L27.929 44.4117C27.7295 44.9114 27.131 45.1113 26.6323 44.9114C26.1336 44.7115 25.9341 44.1119 26.1336 43.6122L31.1209 32.6187C31.4201 31.8192 32.0186 31.2196 32.8166 30.9198C33.6146 30.6199 34.4125 30.6199 35.2105 30.9198C36.0085 31.2196 36.607 31.8192 36.9062 32.6187L41.8935 44.6116C42.093 45.1113 41.8935 45.7109 41.3948 45.9108C41.1953 46.0107 40.9958 46.0107 40.8961 46.0107Z" fill="#4D6990"/>
<path d="M24.9367 41.0137C24.6374 41.0137 24.4379 40.9138 24.2384 40.7139C23.8395 40.3141 23.8395 39.7145 24.2384 39.3147C24.6374 38.915 25.2359 38.915 25.6349 39.3147C26.0339 39.7145 26.0339 40.3141 25.6349 40.7139C25.4354 40.9138 25.1362 41.0137 24.9367 41.0137Z" fill="#4D6990"/>
<path d="M10.9721 41.0137C10.7726 41.0137 10.4733 40.9138 10.2738 40.7139C9.87486 40.3141 9.87486 39.7145 10.2738 39.3147C10.6728 38.915 11.2713 38.915 11.6703 39.3147C12.0693 39.7145 12.0693 40.3141 11.6703 40.7139C11.4708 40.9138 11.2713 41.0137 10.9721 41.0137Z" fill="#4D6990"/>
<path d="M62.8403 64C62.4413 64 62.0423 63.7002 61.9426 63.3004L49.973 27.3219C49.8733 27.0221 49.574 26.7223 49.2748 26.6223C48.9755 26.5224 48.6763 26.5224 48.4768 26.7223C48.1776 26.8222 47.9781 27.122 47.8783 27.3219L35.9088 63.3004C35.7093 63.8001 35.2105 64.1 34.612 63.9001C34.1133 63.7002 33.8141 63.2005 34.0136 62.6009L45.9831 26.6223C46.2824 25.8228 46.7811 25.2232 47.5791 24.8234C48.2773 24.4237 49.175 24.4237 49.973 24.6235C50.8707 24.9234 51.569 25.6229 51.9679 26.6223L63.9375 62.6009C64.137 63.1006 63.8378 63.7002 63.339 63.9001C63.0398 64 62.9401 64 62.8403 64Z" fill="#4D6990"/>
<path d="M48.4768 46.0107C48.377 46.0107 48.377 46.0107 48.2773 46.0107C47.9781 46.0107 47.7786 45.8108 47.5791 45.511L46.0829 43.0125H42.891C42.2925 43.0125 41.8935 42.6127 41.8935 42.0131C41.8935 41.4134 42.2925 41.0137 42.891 41.0137H46.5816C46.8809 41.0137 47.2798 41.2136 47.3796 41.5134L48.6763 43.5122L51.4692 41.2136C51.6687 41.1136 51.8682 41.0137 52.0677 41.0137H55.858C56.4565 41.0137 56.8555 41.4134 56.8555 42.0131C56.8555 42.6127 56.4565 43.0125 55.858 43.0125H52.4667L49.0753 45.8108C48.8758 45.9107 48.6763 46.0107 48.4768 46.0107Z" fill="#4D6990"/>
<path d="M31.9189 42.0131C31.8191 42.0131 31.7194 42.0131 31.6196 41.9132L28.6272 40.9138C28.1285 40.7139 27.8293 40.2142 28.0288 39.6146C28.2283 39.1149 28.727 38.8151 29.3255 39.0149L31.7194 39.8145L33.3153 38.2154C33.7143 37.8156 34.3128 37.8156 34.7118 38.2154L36.0085 39.5146L37.3052 38.2154C37.7042 37.8156 38.3027 37.8156 38.7016 38.2154C39.1006 38.6152 39.1006 39.2148 38.7016 39.6146L36.7067 41.6134C36.3077 42.0131 35.7092 42.0131 35.3103 41.6134L33.9138 40.4141L32.6171 41.7133C32.4176 41.9132 32.2181 42.0131 31.9189 42.0131Z" fill="#4D6990"/>
<path d="M11.9696 21.0257C11.3711 21.0257 10.9722 20.6259 10.9722 20.0263C10.9722 19.4266 10.5732 19.0269 9.97469 19.0269C9.37621 19.0269 8.97722 19.4266 8.97722 20.0263C8.97722 20.6259 8.57824 21.0257 7.97976 21.0257C7.38128 21.0257 6.98229 20.6259 6.98229 20.0263C6.98229 19.4266 6.58331 19.0269 5.98483 19.0269C5.38635 19.0269 4.98736 19.4266 4.98736 20.0263C4.98736 20.6259 4.58838 21.0257 3.9899 21.0257C3.39142 21.0257 2.99243 20.6259 2.99243 20.0263C2.99243 18.3273 4.28914 17.0281 5.98483 17.0281C6.7828 17.0281 7.48102 17.3279 7.97976 17.8276C8.47849 17.3279 9.17672 17.0281 9.97469 17.0281C11.6704 17.0281 12.9671 18.3273 12.9671 20.0263C12.9671 20.6259 12.5681 21.0257 11.9696 21.0257Z" fill="#4D6990"/>
<path d="M39.8986 9.03283C39.3001 9.03283 38.9011 8.63307 38.9011 8.03343C38.9011 7.43378 38.5022 7.03402 37.9037 7.03402C37.3052 7.03402 36.9062 7.43378 36.9062 8.03343C36.9062 8.63307 36.5072 9.03283 35.9087 9.03283C35.3103 9.03283 34.9113 8.63307 34.9113 8.03343C34.9113 7.43378 34.5123 7.03402 33.9138 7.03402C33.3153 7.03402 32.9163 7.43378 32.9163 8.03343C32.9163 8.63307 32.5174 9.03283 31.9189 9.03283C31.3204 9.03283 30.9214 8.63307 30.9214 8.03343C30.9214 6.33444 32.2181 5.03522 33.9138 5.03522C34.7118 5.03522 35.41 5.33504 35.9087 5.83474C36.4075 5.33504 37.1057 5.03522 37.9037 5.03522C39.5994 5.03522 40.8961 6.33444 40.8961 8.03343C40.8961 8.63307 40.4971 9.03283 39.8986 9.03283Z" fill="#4D6990"/>
<path d="M41.8935 64H8.9772C8.37872 64 7.97974 63.6002 7.97974 63.0006C7.97974 62.4009 8.37872 62.0012 8.9772 62.0012H41.8935C42.492 62.0012 42.891 62.4009 42.891 63.0006C42.891 63.6002 42.492 64 41.8935 64Z" fill="#4D6990"/>
<path d="M3.98986 64H0.997465C0.398986 64 0 63.6002 0 63.0006C0 62.4009 0.398986 62.0012 0.997465 62.0012H3.98986C4.58834 62.0012 4.98733 62.4009 4.98733 63.0006C4.98733 63.6002 4.58834 64 3.98986 64Z" fill="#4D6990"/>
<path d="M62.8403 64H46.8809C46.2824 64 45.8834 63.6002 45.8834 63.0006C45.8834 62.4009 46.2824 62.0012 46.8809 62.0012H62.8403C63.4388 62.0012 63.8378 62.4009 63.8378 63.0006C63.8378 63.6002 63.4388 64 62.8403 64Z" fill="#4D6990"/>
</svg>
