<svg width="226" height="295" viewBox="0 0 226 295" fill="none" xmlns="http://www.w3.org/2000/svg">
<path d="M9.02902 58.978C8.53035 58.978 8.04635 58.01 7.57702 56.074C7.12235 54.1233 6.89502 51.938 6.89502 49.518C6.89502 49.2687 6.99769 49.078 7.20302 48.946C7.42302 48.7993 7.62102 48.726 7.79702 48.726C7.97302 48.726 8.11235 48.7847 8.21502 48.902C8.33235 49.0047 8.39102 49.144 8.39102 49.32C8.39102 51.608 8.77969 53.808 9.55702 55.92C9.67435 55.744 9.85769 55.392 10.107 54.864C10.3564 54.3213 10.591 53.9253 10.811 53.676C11.031 53.4267 11.295 53.302 11.603 53.302C11.911 53.302 12.2337 53.5293 12.571 53.984C12.9084 54.4387 13.1944 54.93 13.429 55.458C13.6784 55.9713 13.8177 56.2427 13.847 56.272C14.243 55.04 14.441 53.896 14.441 52.84L14.309 49.496C14.2944 49.276 14.397 49.0927 14.617 48.946C14.837 48.7847 15.0497 48.704 15.255 48.704C15.6804 48.704 15.893 49.5327 15.893 51.19V52.4C15.893 54.3653 15.5924 56.118 14.991 57.658C14.6684 58.538 14.265 58.978 13.781 58.978C13.5024 58.978 13.2457 58.802 13.011 58.45C12.7764 58.0833 12.5124 57.57 12.219 56.91C11.9257 56.25 11.6984 55.7953 11.537 55.546L10.877 56.844C10.6277 57.3573 10.437 57.7313 10.305 57.966C10.173 58.186 9.98969 58.4133 9.75502 58.648C9.52035 58.868 9.27835 58.978 9.02902 58.978Z" fill="#4D6990"/>
<path d="M20.5546 48.814C21.3319 48.814 22.0726 49.0413 22.7766 49.496C23.4806 49.9507 23.8326 50.5153 23.8326 51.19C23.8326 51.85 23.5466 52.4953 22.9746 53.126C22.4026 53.742 21.6399 54.116 20.6866 54.248C20.2759 54.3067 19.6599 54.336 18.8386 54.336C18.9999 55.5827 19.3153 56.404 19.7846 56.8C19.9313 56.9613 20.1293 57.042 20.3786 57.042C21.2879 57.042 22.0506 56.756 22.6666 56.184C23.2826 55.5973 23.7226 55.304 23.9866 55.304C24.1039 55.304 24.2799 55.414 24.5146 55.634C24.7493 55.854 24.8666 56.0593 24.8666 56.25C24.8666 56.6313 24.4046 57.1813 23.4806 57.9C23.0699 58.2373 22.5713 58.5233 21.9846 58.758C21.4126 58.978 20.8773 59.088 20.3786 59.088C19.1026 59.088 18.1639 58.2667 17.5626 56.624C17.1813 55.612 16.9906 54.4973 16.9906 53.28C16.9906 52.0627 17.2766 51.014 17.8486 50.134C18.4206 49.254 19.3226 48.814 20.5546 48.814ZM20.6646 50.332C20.1073 50.332 19.6306 50.6473 19.2346 51.278C19.0879 51.498 18.9486 51.9967 18.8166 52.774C20.8699 52.774 21.8966 52.268 21.8966 51.256C21.8966 50.64 21.4859 50.332 20.6646 50.332Z" fill="#4D6990"/>
<path d="M26.9882 58.318L26.7462 49.386C26.7462 49.1073 26.8416 48.88 27.0322 48.704C27.2229 48.528 27.4136 48.44 27.6042 48.44C28.0736 48.44 28.3449 48.638 28.4182 49.034C28.4769 49.43 28.5062 49.8407 28.5062 50.266C29.2982 49.2247 30.2882 48.704 31.4762 48.704C33.2949 48.704 34.2042 50.7793 34.2042 54.93C34.2042 55.3113 34.2042 55.8907 34.2042 56.668C34.2042 57.4307 34.1602 57.988 34.0722 58.34C33.9696 58.78 33.6542 59 33.1262 59C32.7742 59 32.5982 58.7653 32.5982 58.296L32.6202 57.064C32.6202 55.3627 32.5616 54.204 32.4442 53.588C32.3416 52.9573 32.2389 52.4587 32.1362 52.092C31.8869 51.3 31.4836 50.904 30.9262 50.904C30.1929 50.904 29.6796 51.168 29.3862 51.696C29.0636 52.268 28.8729 52.9427 28.8142 53.72C28.7116 55.084 28.6602 56.5287 28.6602 58.054C28.6602 58.3473 28.5502 58.582 28.3302 58.758C28.1102 58.934 27.8462 59.022 27.5382 59.022C27.1716 59.022 26.9882 58.7873 26.9882 58.318Z" fill="#4D6990"/>
<path d="M36.6495 48.726L37.7495 48.748C37.9988 48.748 38.1382 48.7407 38.1675 48.726V44.216C38.1822 43.9667 38.3068 43.754 38.5415 43.578C38.7762 43.402 38.9962 43.314 39.2015 43.314C39.4068 43.314 39.5682 43.38 39.6855 43.512C39.8175 43.644 39.8762 43.8493 39.8615 44.128C39.8468 44.4067 39.8395 45.932 39.8395 48.704L42.4135 48.616C42.8535 48.616 43.0735 48.8727 43.0735 49.386C43.0735 49.7673 42.9562 50.0533 42.7215 50.244C42.5015 50.4347 42.2595 50.5373 41.9955 50.552C41.7462 50.5667 41.4968 50.574 41.2475 50.574L39.9055 50.552C39.9055 51.1533 39.9642 52.3413 40.0815 54.116C40.2135 55.8907 40.3162 57.042 40.3895 57.57C40.4628 58.0833 40.4775 58.4207 40.4335 58.582C40.3895 58.7287 40.3088 58.8313 40.1915 58.89C40.0008 58.978 39.7442 59.022 39.4215 59.022C39.0988 59.022 38.9082 58.846 38.8495 58.494C38.5562 56.5727 38.3582 53.9327 38.2555 50.574C38.1235 50.5887 37.6175 50.596 36.7375 50.596C35.8575 50.596 35.4175 50.3393 35.4175 49.826C35.4175 49.0927 35.8282 48.726 36.6495 48.726Z" fill="#4D6990"/>
<path d="M49.2823 48.726L50.3823 48.748C50.6316 48.748 50.771 48.7407 50.8003 48.726V44.216C50.815 43.9667 50.9396 43.754 51.1743 43.578C51.409 43.402 51.629 43.314 51.8343 43.314C52.0396 43.314 52.201 43.38 52.3183 43.512C52.4503 43.644 52.509 43.8493 52.4943 44.128C52.4796 44.4067 52.4723 45.932 52.4723 48.704L55.0463 48.616C55.4863 48.616 55.7063 48.8727 55.7063 49.386C55.7063 49.7673 55.589 50.0533 55.3543 50.244C55.1343 50.4347 54.8923 50.5373 54.6283 50.552C54.379 50.5667 54.1297 50.574 53.8803 50.574L52.5383 50.552C52.5383 51.1533 52.597 52.3413 52.7143 54.116C52.8463 55.8907 52.949 57.042 53.0223 57.57C53.0956 58.0833 53.1103 58.4207 53.0663 58.582C53.0223 58.7287 52.9417 58.8313 52.8243 58.89C52.6337 58.978 52.377 59.022 52.0543 59.022C51.7317 59.022 51.541 58.846 51.4823 58.494C51.189 56.5727 50.991 53.9327 50.8883 50.574C50.7563 50.5887 50.2503 50.596 49.3703 50.596C48.4903 50.596 48.0503 50.3393 48.0503 49.826C48.0503 49.0927 48.461 48.726 49.2823 48.726Z" fill="#4D6990"/>
<path d="M60.1888 48.748C61.2448 48.748 62.1102 49.254 62.7848 50.266C63.4742 51.278 63.8188 52.4953 63.8188 53.918C63.8188 55.326 63.4668 56.5287 62.7628 57.526C62.0735 58.5233 61.1495 59.022 59.9908 59.022C58.8468 59.022 57.9228 58.516 57.2188 57.504C56.5148 56.4773 56.1628 55.3407 56.1628 54.094C56.1628 52.4953 56.4855 51.2193 57.1308 50.266C57.8202 49.254 58.8395 48.748 60.1888 48.748ZM59.9248 50.552C59.3088 50.552 58.8028 50.8747 58.4068 51.52C58.0108 52.1653 57.8128 52.8473 57.8128 53.566C57.8128 54.6807 58.0328 55.5313 58.4728 56.118C58.9128 56.7047 59.4115 56.998 59.9688 56.998C60.9662 56.998 61.6041 56.5653 61.8828 55.7C62.0001 55.2893 62.0588 54.776 62.0588 54.16C62.0588 51.7547 61.3475 50.552 59.9248 50.552Z" fill="#4D6990"/>
<path d="M70.7882 48.726L71.8882 48.748C72.1375 48.748 72.2768 48.7407 72.3062 48.726V44.216C72.3208 43.9667 72.4455 43.754 72.6802 43.578C72.9148 43.402 73.1348 43.314 73.3402 43.314C73.5455 43.314 73.7068 43.38 73.8242 43.512C73.9562 43.644 74.0148 43.8493 74.0002 44.128C73.9855 44.4067 73.9782 45.932 73.9782 48.704L76.5522 48.616C76.9922 48.616 77.2122 48.8727 77.2122 49.386C77.2122 49.7673 77.0948 50.0533 76.8602 50.244C76.6402 50.4347 76.3982 50.5373 76.1342 50.552C75.8848 50.5667 75.6355 50.574 75.3862 50.574L74.0442 50.552C74.0442 51.1533 74.1028 52.3413 74.2202 54.116C74.3522 55.8907 74.4548 57.042 74.5282 57.57C74.6015 58.0833 74.6162 58.4207 74.5722 58.582C74.5282 58.7287 74.4475 58.8313 74.3302 58.89C74.1395 58.978 73.8828 59.022 73.5602 59.022C73.2375 59.022 73.0468 58.846 72.9882 58.494C72.6948 56.5727 72.4968 53.9327 72.3942 50.574C72.2622 50.5887 71.7562 50.596 70.8762 50.596C69.9962 50.596 69.5562 50.3393 69.5562 49.826C69.5562 49.0927 69.9668 48.726 70.7882 48.726Z" fill="#4D6990"/>
<path d="M80.1547 51.872L80.3307 57.064C80.3307 57.7093 80.3013 58.0833 80.2427 58.186C80.2133 58.45 80.1253 58.6553 79.9787 58.802C79.8467 58.9487 79.5827 59.022 79.1867 59.022C78.996 59.022 78.842 58.9047 78.7247 58.67C78.6073 58.4207 78.5413 58.142 78.5267 57.834C78.424 55.2527 78.2847 52.8327 78.1087 50.574C77.9473 48.3007 77.8667 46.1887 77.8667 44.238C77.8667 43.93 77.9693 43.688 78.1747 43.512C78.38 43.336 78.622 43.248 78.9007 43.248C79.3113 43.248 79.5533 43.6 79.6267 44.304C79.7147 45.008 79.766 45.888 79.7807 46.944C79.81 48 79.8393 48.77 79.8687 49.254C80.602 48.8727 81.3353 48.682 82.0687 48.682C83.77 48.682 84.848 49.43 85.3027 50.926C85.5667 51.7767 85.6987 52.8693 85.6987 54.204C85.6987 54.644 85.6547 55.3407 85.5667 56.294C85.4933 57.2327 85.4493 57.8413 85.4347 58.12C85.42 58.3987 85.2953 58.6187 85.0607 58.78C84.8407 58.9267 84.5987 59 84.3347 59C83.924 59 83.7187 58.78 83.7187 58.34L83.8727 54.512C83.8727 54.1893 83.858 53.654 83.8287 52.906C83.7993 52.158 83.6453 51.564 83.3667 51.124C83.1027 50.684 82.6333 50.464 81.9587 50.464C80.756 50.464 80.1547 50.9333 80.1547 51.872Z" fill="#4D6990"/>
<path d="M90.207 48.814C90.9843 48.814 91.725 49.0413 92.429 49.496C93.133 49.9507 93.485 50.5153 93.485 51.19C93.485 51.85 93.199 52.4953 92.627 53.126C92.055 53.742 91.2923 54.116 90.339 54.248C89.9283 54.3067 89.3123 54.336 88.491 54.336C88.6523 55.5827 88.9676 56.404 89.437 56.8C89.5836 56.9613 89.7816 57.042 90.031 57.042C90.9403 57.042 91.703 56.756 92.319 56.184C92.935 55.5973 93.375 55.304 93.639 55.304C93.7563 55.304 93.9323 55.414 94.167 55.634C94.4016 55.854 94.519 56.0593 94.519 56.25C94.519 56.6313 94.057 57.1813 93.133 57.9C92.7223 58.2373 92.2236 58.5233 91.637 58.758C91.065 58.978 90.5296 59.088 90.031 59.088C88.755 59.088 87.8163 58.2667 87.215 56.624C86.8336 55.612 86.643 54.4973 86.643 53.28C86.643 52.0627 86.929 51.014 87.501 50.134C88.073 49.254 88.975 48.814 90.207 48.814ZM90.317 50.332C89.7596 50.332 89.283 50.6473 88.887 51.278C88.7403 51.498 88.601 51.9967 88.469 52.774C90.5223 52.774 91.549 52.268 91.549 51.256C91.549 50.64 91.1383 50.332 90.317 50.332Z" fill="#4D6990"/>
<path d="M100.567 53.852C100.567 52.8693 100.824 51.9747 101.337 51.168C101.865 50.3613 102.532 49.76 103.339 49.364C104.146 48.9533 104.93 48.748 105.693 48.748C106.456 48.748 107.064 48.8433 107.519 49.034C107.988 49.21 108.223 49.452 108.223 49.76C108.223 50.0533 108.135 50.354 107.959 50.662C107.798 50.9553 107.578 51.102 107.299 51.102C107.196 51.102 106.91 51.0213 106.441 50.86C105.986 50.684 105.693 50.596 105.561 50.596C104.71 50.596 103.984 50.9113 103.383 51.542C102.782 52.158 102.481 52.9793 102.481 54.006C102.481 55.0327 102.642 55.8027 102.965 56.316C103.302 56.8147 103.874 57.064 104.681 57.064C105.004 57.064 105.554 56.8807 106.331 56.514C107.123 56.1327 107.614 55.942 107.805 55.942C107.996 55.942 108.15 56.0007 108.267 56.118C108.384 56.2353 108.443 56.382 108.443 56.558C108.443 56.91 108.216 57.284 107.761 57.68C107.321 58.0613 106.771 58.384 106.111 58.648C105.451 58.8973 104.857 59.022 104.329 59.022C103.156 59.022 102.232 58.56 101.557 57.636C100.897 56.712 100.567 55.4507 100.567 53.852Z" fill="#4D6990"/>
<path d="M113.298 48.748C114.354 48.748 115.22 49.254 115.894 50.266C116.584 51.278 116.928 52.4953 116.928 53.918C116.928 55.326 116.576 56.5287 115.872 57.526C115.183 58.5233 114.259 59.022 113.1 59.022C111.956 59.022 111.032 58.516 110.328 57.504C109.624 56.4773 109.272 55.3407 109.272 54.094C109.272 52.4953 109.595 51.2193 110.24 50.266C110.93 49.254 111.949 48.748 113.298 48.748ZM113.034 50.552C112.418 50.552 111.912 50.8747 111.516 51.52C111.12 52.1653 110.922 52.8473 110.922 53.566C110.922 54.6807 111.142 55.5313 111.582 56.118C112.022 56.7047 112.521 56.998 113.078 56.998C114.076 56.998 114.714 56.5653 114.992 55.7C115.11 55.2893 115.168 54.776 115.168 54.16C115.168 51.7547 114.457 50.552 113.034 50.552Z" fill="#4D6990"/>
<path d="M118.233 49.584C118.292 49.3347 118.417 49.1293 118.607 48.968C118.798 48.792 118.989 48.704 119.179 48.704C119.385 48.704 119.539 48.7407 119.641 48.814C119.759 48.8873 119.825 48.9533 119.839 49.012C119.869 49.0707 119.898 49.1733 119.927 49.32C119.839 50.464 119.795 51.498 119.795 52.422C119.795 53.3313 119.905 54.38 120.125 55.568C120.345 56.7413 120.587 57.328 120.851 57.328C121.247 57.328 121.746 57.108 122.347 56.668C122.963 56.228 123.403 55.766 123.667 55.282C123.491 53.17 123.403 51.3587 123.403 49.848C123.403 49.54 123.499 49.276 123.689 49.056C123.895 48.836 124.137 48.726 124.415 48.726C124.87 48.726 125.097 49.034 125.097 49.65C125.097 50.6913 125.171 52.2387 125.317 54.292C125.479 56.3453 125.64 57.6507 125.801 58.208C125.831 58.3253 125.845 58.4647 125.845 58.626C125.845 58.7727 125.743 58.912 125.537 59.044C125.347 59.1907 125.09 59.264 124.767 59.264C124.459 59.264 124.254 59.088 124.151 58.736C124.122 58.4427 124.049 58.0027 123.931 57.416C122.905 58.4867 121.871 59.022 120.829 59.022C120.345 59.022 119.913 58.8387 119.531 58.472C119.15 58.1053 118.849 57.6067 118.629 56.976C118.248 55.7587 118.057 54.6147 118.057 53.544C118.057 52.4733 118.116 51.1533 118.233 49.584Z" fill="#4D6990"/>
<path d="M129.924 55.788L129.946 58.054C129.946 58.318 129.821 58.56 129.572 58.78C129.337 59 129.103 59.11 128.868 59.11C128.531 59.11 128.318 58.846 128.23 58.318C128.215 58.2007 128.156 57.13 128.054 55.106C127.951 53.0673 127.753 51.4687 127.46 50.31C127.328 49.7527 127.262 49.4227 127.262 49.32C127.262 48.836 127.555 48.594 128.142 48.594C128.391 48.594 128.589 48.6893 128.736 48.88C128.882 49.0707 128.97 49.2687 129 49.474C129.044 49.6647 129.08 49.9287 129.11 50.266C129.139 50.6033 129.161 50.816 129.176 50.904C129.484 50.1707 129.946 49.6207 130.562 49.254C131.178 48.8873 131.852 48.704 132.586 48.704C133.788 48.704 134.39 49.012 134.39 49.628C134.39 49.936 134.28 50.1853 134.06 50.376C133.854 50.552 133.612 50.64 133.334 50.64C132.087 50.64 131.207 51.036 130.694 51.828C130.18 52.62 129.924 53.94 129.924 55.788Z" fill="#4D6990"/>
<path d="M136.101 48.726L137.201 48.748C137.45 48.748 137.589 48.7407 137.619 48.726V44.216C137.633 43.9667 137.758 43.754 137.993 43.578C138.227 43.402 138.447 43.314 138.653 43.314C138.858 43.314 139.019 43.38 139.137 43.512C139.269 43.644 139.327 43.8493 139.313 44.128C139.298 44.4067 139.291 45.932 139.291 48.704L141.865 48.616C142.305 48.616 142.525 48.8727 142.525 49.386C142.525 49.7673 142.407 50.0533 142.173 50.244C141.953 50.4347 141.711 50.5373 141.447 50.552C141.197 50.5667 140.948 50.574 140.699 50.574L139.357 50.552C139.357 51.1533 139.415 52.3413 139.533 54.116C139.665 55.8907 139.767 57.042 139.841 57.57C139.914 58.0833 139.929 58.4207 139.885 58.582C139.841 58.7287 139.76 58.8313 139.643 58.89C139.452 58.978 139.195 59.022 138.873 59.022C138.55 59.022 138.359 58.846 138.301 58.494C138.007 56.5727 137.809 53.9327 137.707 50.574C137.575 50.5887 137.069 50.596 136.189 50.596C135.309 50.596 134.869 50.3393 134.869 49.826C134.869 49.0927 135.279 48.726 136.101 48.726Z" fill="#4D6990"/>
<path d="M145.467 51.872L145.643 57.064C145.643 57.7093 145.614 58.0833 145.555 58.186C145.526 58.45 145.438 58.6553 145.291 58.802C145.159 58.9487 144.895 59.022 144.499 59.022C144.309 59.022 144.155 58.9047 144.037 58.67C143.92 58.4207 143.854 58.142 143.839 57.834C143.737 55.2527 143.597 52.8327 143.421 50.574C143.26 48.3007 143.179 46.1887 143.179 44.238C143.179 43.93 143.282 43.688 143.487 43.512C143.693 43.336 143.935 43.248 144.213 43.248C144.624 43.248 144.866 43.6 144.939 44.304C145.027 45.008 145.079 45.888 145.093 46.944C145.123 48 145.152 48.77 145.181 49.254C145.915 48.8727 146.648 48.682 147.381 48.682C149.083 48.682 150.161 49.43 150.615 50.926C150.879 51.7767 151.011 52.8693 151.011 54.204C151.011 54.644 150.967 55.3407 150.879 56.294C150.806 57.2327 150.762 57.8413 150.747 58.12C150.733 58.3987 150.608 58.6187 150.373 58.78C150.153 58.9267 149.911 59 149.647 59C149.237 59 149.031 58.78 149.031 58.34L149.185 54.512C149.185 54.1893 149.171 53.654 149.141 52.906C149.112 52.158 148.958 51.564 148.679 51.124C148.415 50.684 147.946 50.464 147.271 50.464C146.069 50.464 145.467 50.9333 145.467 51.872Z" fill="#4D6990"/>
<path d="M156.245 48.748C157.301 48.748 158.167 49.254 158.841 50.266C159.531 51.278 159.875 52.4953 159.875 53.918C159.875 55.326 159.523 56.5287 158.819 57.526C158.13 58.5233 157.206 59.022 156.047 59.022C154.903 59.022 153.979 58.516 153.275 57.504C152.571 56.4773 152.219 55.3407 152.219 54.094C152.219 52.4953 152.542 51.2193 153.187 50.266C153.877 49.254 154.896 48.748 156.245 48.748ZM155.981 50.552C155.365 50.552 154.859 50.8747 154.463 51.52C154.067 52.1653 153.869 52.8473 153.869 53.566C153.869 54.6807 154.089 55.5313 154.529 56.118C154.969 56.7047 155.468 56.998 156.025 56.998C157.023 56.998 157.661 56.5653 157.939 55.7C158.057 55.2893 158.115 54.776 158.115 54.16C158.115 51.7547 157.404 50.552 155.981 50.552Z" fill="#4D6990"/>
<path d="M161.181 49.584C161.239 49.3347 161.364 49.1293 161.555 48.968C161.745 48.792 161.936 48.704 162.127 48.704C162.332 48.704 162.486 48.7407 162.589 48.814C162.706 48.8873 162.772 48.9533 162.786 49.012C162.816 49.0707 162.845 49.1733 162.875 49.32C162.787 50.464 162.743 51.498 162.743 52.422C162.743 53.3313 162.853 54.38 163.073 55.568C163.293 56.7413 163.535 57.328 163.799 57.328C164.195 57.328 164.693 57.108 165.295 56.668C165.911 56.228 166.351 55.766 166.615 55.282C166.439 53.17 166.351 51.3587 166.351 49.848C166.351 49.54 166.446 49.276 166.637 49.056C166.842 48.836 167.084 48.726 167.363 48.726C167.817 48.726 168.045 49.034 168.045 49.65C168.045 50.6913 168.118 52.2387 168.265 54.292C168.426 56.3453 168.587 57.6507 168.749 58.208C168.778 58.3253 168.793 58.4647 168.793 58.626C168.793 58.7727 168.69 58.912 168.485 59.044C168.294 59.1907 168.037 59.264 167.715 59.264C167.407 59.264 167.201 59.088 167.099 58.736C167.069 58.4427 166.996 58.0027 166.879 57.416C165.852 58.4867 164.818 59.022 163.777 59.022C163.293 59.022 162.86 58.8387 162.479 58.472C162.097 58.1053 161.797 57.6067 161.577 56.976C161.195 55.7587 161.005 54.6147 161.005 53.544C161.005 52.4733 161.063 51.1533 161.181 49.584Z" fill="#4D6990"/>
<path d="M170.407 51.52C170.407 50.6547 170.715 49.9653 171.331 49.452C171.947 48.9387 172.658 48.682 173.465 48.682C174.286 48.682 175.071 48.8287 175.819 49.122C176.567 49.4153 176.941 49.804 176.941 50.288C176.941 50.5373 176.846 50.7353 176.655 50.882C176.464 51.0287 176.296 51.102 176.149 51.102C176.017 51.102 175.907 51.102 175.819 51.102C175.746 51.0873 175.452 50.948 174.939 50.684C174.44 50.42 173.978 50.288 173.553 50.288C173.128 50.288 172.761 50.398 172.453 50.618C172.16 50.8233 172.013 51.1313 172.013 51.542C172.013 51.9527 172.182 52.2753 172.519 52.51C172.871 52.7447 173.48 52.95 174.345 53.126C175.21 53.2873 175.87 53.522 176.325 53.83C176.794 54.138 177.029 54.71 177.029 55.546C177.029 56.7633 176.706 57.6287 176.061 58.142C175.43 58.6407 174.66 58.89 173.751 58.89C172.842 58.89 172.064 58.7653 171.419 58.516C170.788 58.2667 170.473 57.8927 170.473 57.394C170.473 56.822 170.759 56.536 171.331 56.536C171.478 56.536 171.8 56.6387 172.299 56.844C172.798 57.0493 173.289 57.152 173.773 57.152C174.272 57.152 174.646 56.998 174.895 56.69C175.159 56.3673 175.291 56.0007 175.291 55.59C175.291 55.1793 175.122 54.886 174.785 54.71C174.448 54.5193 173.934 54.3653 173.245 54.248C172.556 54.1307 172.05 54.006 171.727 53.874C170.847 53.522 170.407 52.7373 170.407 51.52Z" fill="#4D6990"/>
<path d="M181.666 48.814C182.443 48.814 183.184 49.0413 183.888 49.496C184.592 49.9507 184.944 50.5153 184.944 51.19C184.944 51.85 184.658 52.4953 184.086 53.126C183.514 53.742 182.751 54.116 181.798 54.248C181.387 54.3067 180.771 54.336 179.95 54.336C180.111 55.5827 180.427 56.404 180.896 56.8C181.043 56.9613 181.241 57.042 181.49 57.042C182.399 57.042 183.162 56.756 183.778 56.184C184.394 55.5973 184.834 55.304 185.098 55.304C185.215 55.304 185.391 55.414 185.626 55.634C185.861 55.854 185.978 56.0593 185.978 56.25C185.978 56.6313 185.516 57.1813 184.592 57.9C184.181 58.2373 183.683 58.5233 183.096 58.758C182.524 58.978 181.989 59.088 181.49 59.088C180.214 59.088 179.275 58.2667 178.674 56.624C178.293 55.612 178.102 54.4973 178.102 53.28C178.102 52.0627 178.388 51.014 178.96 50.134C179.532 49.254 180.434 48.814 181.666 48.814ZM181.776 50.332C181.219 50.332 180.742 50.6473 180.346 51.278C180.199 51.498 180.06 51.9967 179.928 52.774C181.981 52.774 183.008 52.268 183.008 51.256C183.008 50.64 182.597 50.332 181.776 50.332Z" fill="#4D6990"/>
<path d="M198.472 48.726C199.117 48.726 199.44 49.276 199.44 50.376C199.44 50.4933 199.44 50.618 199.44 50.75L199.396 52.29C199.381 52.774 199.374 53.2507 199.374 53.72L199.704 58.692C199.704 59.0587 199.33 59.242 198.582 59.242C198.538 59.242 198.428 59.242 198.252 59.242C198.091 59.242 197.973 59.176 197.9 59.044C197.841 58.912 197.834 58.7507 197.878 58.56C197.937 58.3693 197.922 58.1567 197.834 57.922C197.159 58.6407 196.265 59 195.15 59C193.082 59 192.048 57.4013 192.048 54.204C192.048 52.4293 192.378 51.0873 193.038 50.178C193.713 49.2687 194.673 48.814 195.92 48.814C196.507 48.814 197.093 48.9167 197.68 49.122C197.871 48.858 198.135 48.726 198.472 48.726ZM196.184 50.728C195.348 50.728 194.725 50.97 194.314 51.454C193.903 51.938 193.698 52.8253 193.698 54.116C193.698 56.2867 194.285 57.372 195.458 57.372C195.766 57.372 196.103 57.2327 196.47 56.954C196.851 56.6753 197.115 56.36 197.262 56.008C197.541 55.216 197.68 54.3507 197.68 53.412C197.68 52.4733 197.563 51.7913 197.328 51.366C197.108 50.9407 196.727 50.728 196.184 50.728Z" fill="#4D6990"/>
<path d="M201.785 58.318L201.543 49.386C201.543 49.1073 201.638 48.88 201.829 48.704C202.02 48.528 202.21 48.44 202.401 48.44C202.87 48.44 203.142 48.638 203.215 49.034C203.274 49.43 203.303 49.8407 203.303 50.266C204.095 49.2247 205.085 48.704 206.273 48.704C208.092 48.704 209.001 50.7793 209.001 54.93C209.001 55.3113 209.001 55.8907 209.001 56.668C209.001 57.4307 208.957 57.988 208.869 58.34C208.766 58.78 208.451 59 207.923 59C207.571 59 207.395 58.7653 207.395 58.296L207.417 57.064C207.417 55.3627 207.358 54.204 207.241 53.588C207.138 52.9573 207.036 52.4587 206.933 52.092C206.684 51.3 206.28 50.904 205.723 50.904C204.99 50.904 204.476 51.168 204.183 51.696C203.86 52.268 203.67 52.9427 203.611 53.72C203.508 55.084 203.457 56.5287 203.457 58.054C203.457 58.3473 203.347 58.582 203.127 58.758C202.907 58.934 202.643 59.022 202.335 59.022C201.968 59.022 201.785 58.7873 201.785 58.318Z" fill="#4D6990"/>
<path d="M216.154 48.704L216.132 44.458C216.132 43.666 216.382 43.27 216.88 43.27C217.394 43.27 217.68 43.49 217.738 43.93C217.768 44.1207 217.804 45.272 217.848 47.384C217.892 49.496 217.958 51.476 218.046 53.324C218.149 55.172 218.2 56.8953 218.2 58.494C218.2 58.934 217.87 59.154 217.21 59.154C216.77 59.154 216.55 58.846 216.55 58.23C215.92 58.7287 215.172 58.978 214.306 58.978C213.206 58.978 212.312 58.5673 211.622 57.746C210.948 56.9247 210.61 55.9127 210.61 54.71C210.61 53.5073 210.852 52.3853 211.336 51.344C211.835 50.288 212.605 49.5327 213.646 49.078C214.292 48.7993 214.915 48.66 215.516 48.66C215.736 48.66 215.949 48.6747 216.154 48.704ZM216.264 51.718C216.162 51.3953 216.037 51.1533 215.89 50.992C215.744 50.816 215.582 50.7133 215.406 50.684C215.245 50.64 215.047 50.618 214.812 50.618C214.578 50.618 214.292 50.706 213.954 50.882C213.617 51.058 213.331 51.344 213.096 51.74C212.627 52.532 212.392 53.368 212.392 54.248C212.392 55.1133 212.561 55.8247 212.898 56.382C213.25 56.9247 213.742 57.196 214.372 57.196C215.018 57.196 215.524 56.8807 215.89 56.25C216.257 55.6193 216.44 54.8127 216.44 53.83C216.44 52.73 216.382 52.026 216.264 51.718Z" fill="#4D6990"/>
<path d="M13.9963 140.726C14.6416 140.726 14.9643 141.276 14.9643 142.376C14.9643 142.493 14.9643 142.618 14.9643 142.75L14.9203 144.29C14.9056 144.774 14.8983 145.251 14.8983 145.72L15.2283 150.692C15.2283 151.059 14.8543 151.242 14.1063 151.242C14.0623 151.242 13.9523 151.242 13.7763 151.242C13.6149 151.242 13.4976 151.176 13.4243 151.044C13.3656 150.912 13.3583 150.751 13.4023 150.56C13.4609 150.369 13.4463 150.157 13.3583 149.922C12.6836 150.641 11.7889 151 10.6743 151C8.60627 151 7.57227 149.401 7.57227 146.204C7.57227 144.429 7.90227 143.087 8.56227 142.178C9.23693 141.269 10.1976 140.814 11.4443 140.814C12.0309 140.814 12.6176 140.917 13.2043 141.122C13.3949 140.858 13.6589 140.726 13.9963 140.726ZM11.7083 142.728C10.8723 142.728 10.2489 142.97 9.83827 143.454C9.4276 143.938 9.22227 144.825 9.22227 146.116C9.22227 148.287 9.80893 149.372 10.9823 149.372C11.2903 149.372 11.6276 149.233 11.9943 148.954C12.3756 148.675 12.6396 148.36 12.7863 148.008C13.0649 147.216 13.2043 146.351 13.2043 145.412C13.2043 144.473 13.0869 143.791 12.8523 143.366C12.6323 142.941 12.2509 142.728 11.7083 142.728Z" fill="#4D6990"/>
<path d="M17.3095 150.318L17.0675 141.386C17.0675 141.107 17.1628 140.88 17.3535 140.704C17.5442 140.528 17.7348 140.44 17.9255 140.44C18.3948 140.44 18.6662 140.638 18.7395 141.034C18.7982 141.43 18.8275 141.841 18.8275 142.266C19.6195 141.225 20.6095 140.704 21.7975 140.704C23.6162 140.704 24.5255 142.779 24.5255 146.93C24.5255 147.311 24.5255 147.891 24.5255 148.668C24.5255 149.431 24.4815 149.988 24.3935 150.34C24.2908 150.78 23.9755 151 23.4475 151C23.0955 151 22.9195 150.765 22.9195 150.296L22.9415 149.064C22.9415 147.363 22.8828 146.204 22.7655 145.588C22.6628 144.957 22.5602 144.459 22.4575 144.092C22.2082 143.3 21.8048 142.904 21.2475 142.904C20.5142 142.904 20.0008 143.168 19.7075 143.696C19.3848 144.268 19.1942 144.943 19.1355 145.72C19.0328 147.084 18.9815 148.529 18.9815 150.054C18.9815 150.347 18.8715 150.582 18.6515 150.758C18.4315 150.934 18.1675 151.022 17.8595 151.022C17.4928 151.022 17.3095 150.787 17.3095 150.318Z" fill="#4D6990"/>
<path d="M31.6788 140.704L31.6568 136.458C31.6568 135.666 31.9061 135.27 32.4048 135.27C32.9181 135.27 33.2041 135.49 33.2628 135.93C33.2921 136.121 33.3288 137.272 33.3728 139.384C33.4168 141.496 33.4828 143.476 33.5708 145.324C33.6734 147.172 33.7248 148.895 33.7248 150.494C33.7248 150.934 33.3948 151.154 32.7348 151.154C32.2948 151.154 32.0748 150.846 32.0748 150.23C31.4441 150.729 30.6961 150.978 29.8308 150.978C28.7308 150.978 27.8361 150.567 27.1468 149.746C26.4721 148.925 26.1348 147.913 26.1348 146.71C26.1348 145.507 26.3768 144.385 26.8608 143.344C27.3594 142.288 28.1294 141.533 29.1708 141.078C29.8161 140.799 30.4394 140.66 31.0408 140.66C31.2608 140.66 31.4734 140.675 31.6788 140.704ZM31.7888 143.718C31.6861 143.395 31.5614 143.153 31.4148 142.992C31.2681 142.816 31.1068 142.713 30.9308 142.684C30.7694 142.64 30.5714 142.618 30.3368 142.618C30.1021 142.618 29.8161 142.706 29.4788 142.882C29.1414 143.058 28.8554 143.344 28.6208 143.74C28.1514 144.532 27.9168 145.368 27.9168 146.248C27.9168 147.113 28.0854 147.825 28.4228 148.382C28.7748 148.925 29.2661 149.196 29.8968 149.196C30.5421 149.196 31.0481 148.881 31.4148 148.25C31.7814 147.619 31.9648 146.813 31.9648 145.83C31.9648 144.73 31.9061 144.026 31.7888 143.718Z" fill="#4D6990"/>
<path d="M40.8993 150.318L40.6573 141.386C40.6573 141.107 40.7527 140.88 40.9433 140.704C41.134 140.528 41.3247 140.44 41.5153 140.44C41.9847 140.44 42.256 140.638 42.3293 141.034C42.388 141.43 42.4173 141.841 42.4173 142.266C43.2093 141.225 44.1993 140.704 45.3873 140.704C47.206 140.704 48.1153 142.779 48.1153 146.93C48.1153 147.311 48.1153 147.891 48.1153 148.668C48.1153 149.431 48.0713 149.988 47.9833 150.34C47.8807 150.78 47.5653 151 47.0373 151C46.6853 151 46.5093 150.765 46.5093 150.296L46.5313 149.064C46.5313 147.363 46.4727 146.204 46.3553 145.588C46.2527 144.957 46.15 144.459 46.0473 144.092C45.798 143.3 45.3947 142.904 44.8373 142.904C44.104 142.904 43.5907 143.168 43.2973 143.696C42.9747 144.268 42.784 144.943 42.7253 145.72C42.6227 147.084 42.5713 148.529 42.5713 150.054C42.5713 150.347 42.4613 150.582 42.2413 150.758C42.0213 150.934 41.7573 151.022 41.4493 151.022C41.0827 151.022 40.8993 150.787 40.8993 150.318Z" fill="#4D6990"/>
<path d="M53.9046 140.748C54.9606 140.748 55.8259 141.254 56.5006 142.266C57.1899 143.278 57.5346 144.495 57.5346 145.918C57.5346 147.326 57.1826 148.529 56.4786 149.526C55.7893 150.523 54.8653 151.022 53.7066 151.022C52.5626 151.022 51.6386 150.516 50.9346 149.504C50.2306 148.477 49.8786 147.341 49.8786 146.094C49.8786 144.495 50.2013 143.219 50.8466 142.266C51.5359 141.254 52.5553 140.748 53.9046 140.748ZM53.6406 142.552C53.0246 142.552 52.5186 142.875 52.1226 143.52C51.7266 144.165 51.5286 144.847 51.5286 145.566C51.5286 146.681 51.7486 147.531 52.1886 148.118C52.6286 148.705 53.1273 148.998 53.6846 148.998C54.6819 148.998 55.3199 148.565 55.5986 147.7C55.7159 147.289 55.7746 146.776 55.7746 146.16C55.7746 143.755 55.0633 142.552 53.6406 142.552Z" fill="#4D6990"/>
<path d="M60.7097 150.978C60.211 150.978 59.727 150.01 59.2577 148.074C58.803 146.123 58.5757 143.938 58.5757 141.518C58.5757 141.269 58.6783 141.078 58.8837 140.946C59.1037 140.799 59.3017 140.726 59.4777 140.726C59.6537 140.726 59.793 140.785 59.8957 140.902C60.013 141.005 60.0717 141.144 60.0717 141.32C60.0717 143.608 60.4603 145.808 61.2377 147.92C61.355 147.744 61.5383 147.392 61.7877 146.864C62.037 146.321 62.2717 145.925 62.4917 145.676C62.7117 145.427 62.9757 145.302 63.2837 145.302C63.5917 145.302 63.9143 145.529 64.2517 145.984C64.589 146.439 64.875 146.93 65.1097 147.458C65.359 147.971 65.4983 148.243 65.5277 148.272C65.9237 147.04 66.1217 145.896 66.1217 144.84L65.9897 141.496C65.975 141.276 66.0777 141.093 66.2977 140.946C66.5177 140.785 66.7303 140.704 66.9357 140.704C67.361 140.704 67.5737 141.533 67.5737 143.19V144.4C67.5737 146.365 67.273 148.118 66.6717 149.658C66.349 150.538 65.9457 150.978 65.4617 150.978C65.183 150.978 64.9263 150.802 64.6917 150.45C64.457 150.083 64.193 149.57 63.8997 148.91C63.6063 148.25 63.379 147.795 63.2177 147.546L62.5577 148.844C62.3083 149.357 62.1177 149.731 61.9857 149.966C61.8537 150.186 61.6703 150.413 61.4357 150.648C61.201 150.868 60.959 150.978 60.7097 150.978Z" fill="#4D6990"/>
<path d="M74.6876 140.726L75.7876 140.748C76.0369 140.748 76.1762 140.741 76.2056 140.726V136.216C76.2202 135.967 76.3449 135.754 76.5796 135.578C76.8142 135.402 77.0342 135.314 77.2396 135.314C77.4449 135.314 77.6062 135.38 77.7236 135.512C77.8556 135.644 77.9142 135.849 77.8996 136.128C77.8849 136.407 77.8776 137.932 77.8776 140.704L80.4516 140.616C80.8916 140.616 81.1116 140.873 81.1116 141.386C81.1116 141.767 80.9942 142.053 80.7596 142.244C80.5396 142.435 80.2976 142.537 80.0336 142.552C79.7842 142.567 79.5349 142.574 79.2856 142.574L77.9436 142.552C77.9436 143.153 78.0022 144.341 78.1196 146.116C78.2516 147.891 78.3542 149.042 78.4276 149.57C78.5009 150.083 78.5156 150.421 78.4716 150.582C78.4276 150.729 78.3469 150.831 78.2296 150.89C78.0389 150.978 77.7822 151.022 77.4596 151.022C77.1369 151.022 76.9462 150.846 76.8876 150.494C76.5942 148.573 76.3962 145.933 76.2936 142.574C76.1616 142.589 75.6556 142.596 74.7756 142.596C73.8956 142.596 73.4556 142.339 73.4556 141.826C73.4556 141.093 73.8662 140.726 74.6876 140.726Z" fill="#4D6990"/>
<path d="M84.0541 143.872L84.2301 149.064C84.2301 149.709 84.2007 150.083 84.1421 150.186C84.1127 150.45 84.0247 150.655 83.8781 150.802C83.7461 150.949 83.4821 151.022 83.0861 151.022C82.8954 151.022 82.7414 150.905 82.6241 150.67C82.5067 150.421 82.4407 150.142 82.4261 149.834C82.3234 147.253 82.1841 144.833 82.0081 142.574C81.8467 140.301 81.7661 138.189 81.7661 136.238C81.7661 135.93 81.8687 135.688 82.0741 135.512C82.2794 135.336 82.5214 135.248 82.8001 135.248C83.2107 135.248 83.4527 135.6 83.5261 136.304C83.6141 137.008 83.6654 137.888 83.6801 138.944C83.7094 140 83.7387 140.77 83.7681 141.254C84.5014 140.873 85.2347 140.682 85.9681 140.682C87.6694 140.682 88.7474 141.43 89.2021 142.926C89.4661 143.777 89.5981 144.869 89.5981 146.204C89.5981 146.644 89.5541 147.341 89.4661 148.294C89.3927 149.233 89.3487 149.841 89.3341 150.12C89.3194 150.399 89.1947 150.619 88.9601 150.78C88.7401 150.927 88.4981 151 88.2341 151C87.8234 151 87.6181 150.78 87.6181 150.34L87.7721 146.512C87.7721 146.189 87.7574 145.654 87.7281 144.906C87.6987 144.158 87.5447 143.564 87.2661 143.124C87.0021 142.684 86.5327 142.464 85.8581 142.464C84.6554 142.464 84.0541 142.933 84.0541 143.872Z" fill="#4D6990"/>
<path d="M94.1063 140.814C94.8837 140.814 95.6243 141.041 96.3283 141.496C97.0323 141.951 97.3843 142.515 97.3843 143.19C97.3843 143.85 97.0983 144.495 96.5263 145.126C95.9543 145.742 95.1917 146.116 94.2383 146.248C93.8277 146.307 93.2117 146.336 92.3903 146.336C92.5517 147.583 92.867 148.404 93.3363 148.8C93.483 148.961 93.681 149.042 93.9303 149.042C94.8397 149.042 95.6023 148.756 96.2183 148.184C96.8343 147.597 97.2743 147.304 97.5383 147.304C97.6557 147.304 97.8317 147.414 98.0663 147.634C98.301 147.854 98.4183 148.059 98.4183 148.25C98.4183 148.631 97.9563 149.181 97.0323 149.9C96.6217 150.237 96.123 150.523 95.5363 150.758C94.9643 150.978 94.429 151.088 93.9303 151.088C92.6543 151.088 91.7157 150.267 91.1143 148.624C90.733 147.612 90.5423 146.497 90.5423 145.28C90.5423 144.063 90.8283 143.014 91.4003 142.134C91.9723 141.254 92.8743 140.814 94.1063 140.814ZM94.2163 142.332C93.659 142.332 93.1823 142.647 92.7863 143.278C92.6397 143.498 92.5003 143.997 92.3683 144.774C94.4217 144.774 95.4483 144.268 95.4483 143.256C95.4483 142.64 95.0377 142.332 94.2163 142.332Z" fill="#4D6990"/>
<path d="M106.722 140.836C106.913 140.836 107.096 140.902 107.272 141.034C107.463 141.166 107.558 141.313 107.558 141.474C107.558 141.899 106.935 144.202 105.688 148.382C104.441 152.562 103.517 155.495 102.916 157.182C102.784 157.578 102.579 157.776 102.3 157.776C102.021 157.776 101.801 157.673 101.64 157.468C101.479 157.277 101.398 156.991 101.398 156.61C101.398 156.229 101.64 155.312 102.124 153.86C102.623 152.423 102.923 151.506 103.026 151.11C102.659 150.494 101.42 147.414 99.308 141.87C99.2786 141.797 99.264 141.701 99.264 141.584C99.264 141.467 99.352 141.313 99.528 141.122C99.704 140.931 99.946 140.836 100.254 140.836C100.562 140.836 100.811 140.99 101.002 141.298C101.207 141.826 101.545 142.75 102.014 144.07C102.483 145.375 102.843 146.321 103.092 146.908C103.356 147.495 103.605 148.103 103.84 148.734C104.045 148.045 104.397 146.71 104.896 144.73C105.395 142.735 105.681 141.599 105.754 141.32C105.813 140.997 106.135 140.836 106.722 140.836Z" fill="#4D6990"/>
<path d="M109.909 134.984C109.909 134.779 109.982 134.61 110.129 134.478C110.29 134.346 110.466 134.28 110.657 134.28C110.862 134.28 111.045 134.353 111.207 134.5C111.383 134.632 111.471 134.815 111.471 135.05C111.471 135.857 111.324 136.634 111.031 137.382C110.737 138.13 110.349 138.504 109.865 138.504C109.381 138.504 109.139 138.255 109.139 137.756C109.139 137.551 109.263 137.184 109.513 136.656C109.777 136.128 109.909 135.571 109.909 134.984Z" fill="#4D6990"/>
<path d="M116.679 147.788L116.701 150.054C116.701 150.318 116.576 150.56 116.327 150.78C116.092 151 115.857 151.11 115.623 151.11C115.285 151.11 115.073 150.846 114.985 150.318C114.97 150.201 114.911 149.13 114.809 147.106C114.706 145.067 114.508 143.469 114.215 142.31C114.083 141.753 114.017 141.423 114.017 141.32C114.017 140.836 114.31 140.594 114.897 140.594C115.146 140.594 115.344 140.689 115.491 140.88C115.637 141.071 115.725 141.269 115.755 141.474C115.799 141.665 115.835 141.929 115.865 142.266C115.894 142.603 115.916 142.816 115.931 142.904C116.239 142.171 116.701 141.621 117.317 141.254C117.933 140.887 118.607 140.704 119.341 140.704C120.543 140.704 121.145 141.012 121.145 141.628C121.145 141.936 121.035 142.185 120.815 142.376C120.609 142.552 120.367 142.64 120.089 142.64C118.842 142.64 117.962 143.036 117.449 143.828C116.935 144.62 116.679 145.94 116.679 147.788Z" fill="#4D6990"/>
<path d="M125.474 140.814C126.251 140.814 126.992 141.041 127.696 141.496C128.4 141.951 128.752 142.515 128.752 143.19C128.752 143.85 128.466 144.495 127.894 145.126C127.322 145.742 126.559 146.116 125.606 146.248C125.195 146.307 124.579 146.336 123.758 146.336C123.919 147.583 124.234 148.404 124.704 148.8C124.85 148.961 125.048 149.042 125.298 149.042C126.207 149.042 126.97 148.756 127.586 148.184C128.202 147.597 128.642 147.304 128.906 147.304C129.023 147.304 129.199 147.414 129.434 147.634C129.668 147.854 129.786 148.059 129.786 148.25C129.786 148.631 129.324 149.181 128.4 149.9C127.989 150.237 127.49 150.523 126.904 150.758C126.332 150.978 125.796 151.088 125.298 151.088C124.022 151.088 123.083 150.267 122.482 148.624C122.1 147.612 121.91 146.497 121.91 145.28C121.91 144.063 122.196 143.014 122.768 142.134C123.34 141.254 124.242 140.814 125.474 140.814ZM125.584 142.332C125.026 142.332 124.55 142.647 124.154 143.278C124.007 143.498 123.868 143.997 123.736 144.774C125.789 144.774 126.816 144.268 126.816 143.256C126.816 142.64 126.405 142.332 125.584 142.332Z" fill="#4D6990"/>
<path d="M136.691 140.726L137.791 140.748C138.041 140.748 138.18 140.741 138.209 140.726V136.216C138.224 135.967 138.349 135.754 138.583 135.578C138.818 135.402 139.038 135.314 139.243 135.314C139.449 135.314 139.61 135.38 139.727 135.512C139.859 135.644 139.918 135.849 139.903 136.128C139.889 136.407 139.881 137.932 139.881 140.704L142.455 140.616C142.895 140.616 143.115 140.873 143.115 141.386C143.115 141.767 142.998 142.053 142.763 142.244C142.543 142.435 142.301 142.537 142.037 142.552C141.788 142.567 141.539 142.574 141.289 142.574L139.947 142.552C139.947 143.153 140.006 144.341 140.123 146.116C140.255 147.891 140.358 149.042 140.431 149.57C140.505 150.083 140.519 150.421 140.475 150.582C140.431 150.729 140.351 150.831 140.233 150.89C140.043 150.978 139.786 151.022 139.463 151.022C139.141 151.022 138.95 150.846 138.891 150.494C138.598 148.573 138.4 145.933 138.297 142.574C138.165 142.589 137.659 142.596 136.779 142.596C135.899 142.596 135.459 142.339 135.459 141.826C135.459 141.093 135.87 140.726 136.691 140.726Z" fill="#4D6990"/>
<path d="M146.058 143.872L146.234 149.064C146.234 149.709 146.205 150.083 146.146 150.186C146.117 150.45 146.029 150.655 145.882 150.802C145.75 150.949 145.486 151.022 145.09 151.022C144.899 151.022 144.745 150.905 144.628 150.67C144.511 150.421 144.445 150.142 144.43 149.834C144.327 147.253 144.188 144.833 144.012 142.574C143.851 140.301 143.77 138.189 143.77 136.238C143.77 135.93 143.873 135.688 144.078 135.512C144.283 135.336 144.525 135.248 144.804 135.248C145.215 135.248 145.457 135.6 145.53 136.304C145.618 137.008 145.669 137.888 145.684 138.944C145.713 140 145.743 140.77 145.772 141.254C146.505 140.873 147.239 140.682 147.972 140.682C149.673 140.682 150.751 141.43 151.206 142.926C151.47 143.777 151.602 144.869 151.602 146.204C151.602 146.644 151.558 147.341 151.47 148.294C151.397 149.233 151.353 149.841 151.338 150.12C151.323 150.399 151.199 150.619 150.964 150.78C150.744 150.927 150.502 151 150.238 151C149.827 151 149.622 150.78 149.622 150.34L149.776 146.512C149.776 146.189 149.761 145.654 149.732 144.906C149.703 144.158 149.549 143.564 149.27 143.124C149.006 142.684 148.537 142.464 147.862 142.464C146.659 142.464 146.058 142.933 146.058 143.872Z" fill="#4D6990"/>
<path d="M155.78 147.788L155.802 150.054C155.802 150.318 155.678 150.56 155.428 150.78C155.194 151 154.959 151.11 154.724 151.11C154.387 151.11 154.174 150.846 154.086 150.318C154.072 150.201 154.013 149.13 153.91 147.106C153.808 145.067 153.61 143.469 153.316 142.31C153.184 141.753 153.118 141.423 153.118 141.32C153.118 140.836 153.412 140.594 153.998 140.594C154.248 140.594 154.446 140.689 154.592 140.88C154.739 141.071 154.827 141.269 154.856 141.474C154.9 141.665 154.937 141.929 154.966 142.266C154.996 142.603 155.018 142.816 155.032 142.904C155.34 142.171 155.802 141.621 156.418 141.254C157.034 140.887 157.709 140.704 158.442 140.704C159.645 140.704 160.246 141.012 160.246 141.628C160.246 141.936 160.136 142.185 159.916 142.376C159.711 142.552 159.469 142.64 159.19 142.64C157.944 142.64 157.064 143.036 156.55 143.828C156.037 144.62 155.78 145.94 155.78 147.788Z" fill="#4D6990"/>
<path d="M165.301 140.748C166.357 140.748 167.222 141.254 167.897 142.266C168.586 143.278 168.931 144.495 168.931 145.918C168.931 147.326 168.579 148.529 167.875 149.526C167.186 150.523 166.262 151.022 165.103 151.022C163.959 151.022 163.035 150.516 162.331 149.504C161.627 148.477 161.275 147.341 161.275 146.094C161.275 144.495 161.598 143.219 162.243 142.266C162.932 141.254 163.952 140.748 165.301 140.748ZM165.037 142.552C164.421 142.552 163.915 142.875 163.519 143.52C163.123 144.165 162.925 144.847 162.925 145.566C162.925 146.681 163.145 147.531 163.585 148.118C164.025 148.705 164.524 148.998 165.081 148.998C166.078 148.998 166.716 148.565 166.995 147.7C167.112 147.289 167.171 146.776 167.171 146.16C167.171 143.755 166.46 142.552 165.037 142.552Z" fill="#4D6990"/>
<path d="M172.106 150.978C171.607 150.978 171.123 150.01 170.654 148.074C170.199 146.123 169.972 143.938 169.972 141.518C169.972 141.269 170.075 141.078 170.28 140.946C170.5 140.799 170.698 140.726 170.874 140.726C171.05 140.726 171.189 140.785 171.292 140.902C171.409 141.005 171.468 141.144 171.468 141.32C171.468 143.608 171.857 145.808 172.634 147.92C172.751 147.744 172.935 147.392 173.184 146.864C173.433 146.321 173.668 145.925 173.888 145.676C174.108 145.427 174.372 145.302 174.68 145.302C174.988 145.302 175.311 145.529 175.648 145.984C175.985 146.439 176.271 146.93 176.506 147.458C176.755 147.971 176.895 148.243 176.924 148.272C177.32 147.04 177.518 145.896 177.518 144.84L177.386 141.496C177.371 141.276 177.474 141.093 177.694 140.946C177.914 140.785 178.127 140.704 178.332 140.704C178.757 140.704 178.97 141.533 178.97 143.19V144.4C178.97 146.365 178.669 148.118 178.068 149.658C177.745 150.538 177.342 150.978 176.858 150.978C176.579 150.978 176.323 150.802 176.088 150.45C175.853 150.083 175.589 149.57 175.296 148.91C175.003 148.25 174.775 147.795 174.614 147.546L173.954 148.844C173.705 149.357 173.514 149.731 173.382 149.966C173.25 150.186 173.067 150.413 172.832 150.648C172.597 150.868 172.355 150.978 172.106 150.978Z" fill="#4D6990"/>
<path d="M181.916 137.096C182.18 137.096 182.429 137.221 182.664 137.47C182.898 137.719 183.016 137.983 183.016 138.262C183.016 138.526 182.884 138.797 182.62 139.076C182.37 139.355 182.106 139.494 181.828 139.494C181.549 139.494 181.292 139.377 181.058 139.142C180.838 138.907 180.728 138.607 180.728 138.24C180.728 137.536 181.109 137.155 181.872 137.096C181.886 137.096 181.901 137.096 181.916 137.096ZM182.84 148.624L182.862 150.164C182.862 150.443 182.752 150.677 182.532 150.868C182.312 151.044 182.077 151.132 181.828 151.132C181.461 151.132 181.27 150.949 181.256 150.582C181.065 145.903 180.97 143.315 180.97 142.816C180.97 142.317 180.992 141.709 181.036 140.99C181.065 140.726 181.234 140.594 181.542 140.594C182.319 140.594 182.759 140.909 182.862 141.54C182.906 141.863 182.928 142.119 182.928 142.31L182.84 143.696V148.624Z" fill="#4D6990"/>
<path d="M186.22 150.318L185.978 141.386C185.978 141.107 186.073 140.88 186.264 140.704C186.454 140.528 186.645 140.44 186.836 140.44C187.305 140.44 187.576 140.638 187.65 141.034C187.708 141.43 187.738 141.841 187.738 142.266C188.53 141.225 189.52 140.704 190.708 140.704C192.526 140.704 193.436 142.779 193.436 146.93C193.436 147.311 193.436 147.891 193.436 148.668C193.436 149.431 193.392 149.988 193.304 150.34C193.201 150.78 192.886 151 192.358 151C192.006 151 191.83 150.765 191.83 150.296L191.852 149.064C191.852 147.363 191.793 146.204 191.676 145.588C191.573 144.957 191.47 144.459 191.368 144.092C191.118 143.3 190.715 142.904 190.158 142.904C189.424 142.904 188.911 143.168 188.618 143.696C188.295 144.268 188.104 144.943 188.046 145.72C187.943 147.084 187.892 148.529 187.892 150.054C187.892 150.347 187.782 150.582 187.562 150.758C187.342 150.934 187.078 151.022 186.77 151.022C186.403 151.022 186.22 150.787 186.22 150.318Z" fill="#4D6990"/>
<path d="M201.645 150.098C201.117 150.714 200.45 151.022 199.643 151.022C198.836 151.022 198.14 150.773 197.553 150.274C196.321 149.321 195.705 147.861 195.705 145.896C195.705 144.356 196.13 143.124 196.981 142.2C197.832 141.261 198.88 140.792 200.127 140.792C201.374 140.792 202.224 141.217 202.679 142.068C203.075 142.816 203.273 143.945 203.273 145.456L203.229 147.26C203.229 148.111 203.266 149.291 203.339 150.802C203.427 152.298 203.471 153.427 203.471 154.19C203.471 155.451 203.156 156.375 202.525 156.962C201.909 157.563 200.963 157.864 199.687 157.864C198.924 157.864 198.147 157.703 197.355 157.38C196.563 157.057 196.167 156.683 196.167 156.258C196.167 155.95 196.248 155.715 196.409 155.554C196.585 155.393 196.783 155.312 197.003 155.312C197.223 155.312 197.714 155.473 198.477 155.796C199.254 156.119 199.812 156.28 200.149 156.28C201.205 156.28 201.733 155.415 201.733 153.684C201.733 151.953 201.704 150.758 201.645 150.098ZM201.623 145.456C201.623 144.385 201.462 143.637 201.139 143.212C200.831 142.772 200.34 142.552 199.665 142.552C198.99 142.552 198.448 142.86 198.037 143.476C197.626 144.092 197.421 144.877 197.421 145.83C197.421 146.769 197.612 147.517 197.993 148.074C198.389 148.631 198.99 148.91 199.797 148.91C200.604 148.91 201.124 148.565 201.359 147.876C201.535 147.319 201.623 146.512 201.623 145.456Z" fill="#4D6990"/>
<path d="M216.336 140.726C216.981 140.726 217.304 141.276 217.304 142.376C217.304 142.493 217.304 142.618 217.304 142.75L217.26 144.29C217.245 144.774 217.238 145.251 217.238 145.72L217.568 150.692C217.568 151.059 217.194 151.242 216.446 151.242C216.402 151.242 216.292 151.242 216.116 151.242C215.955 151.242 215.837 151.176 215.764 151.044C215.705 150.912 215.698 150.751 215.742 150.56C215.801 150.369 215.786 150.157 215.698 149.922C215.023 150.641 214.129 151 213.014 151C210.946 151 209.912 149.401 209.912 146.204C209.912 144.429 210.242 143.087 210.902 142.178C211.577 141.269 212.537 140.814 213.784 140.814C214.371 140.814 214.957 140.917 215.544 141.122C215.735 140.858 215.999 140.726 216.336 140.726ZM214.048 142.728C213.212 142.728 212.589 142.97 212.178 143.454C211.767 143.938 211.562 144.825 211.562 146.116C211.562 148.287 212.149 149.372 213.322 149.372C213.63 149.372 213.967 149.233 214.334 148.954C214.715 148.675 214.979 148.36 215.126 148.008C215.405 147.216 215.544 146.351 215.544 145.412C215.544 144.473 215.427 143.791 215.192 143.366C214.972 142.941 214.591 142.728 214.048 142.728Z" fill="#4D6990"/>
<path d="M5.39903 280.957C4.42436 280.957 3.47836 279.065 2.56103 275.281C1.67236 271.468 1.22803 267.197 1.22803 262.467C1.22803 261.98 1.42869 261.607 1.83003 261.349C2.26003 261.062 2.64703 260.919 2.99103 260.919C3.33503 260.919 3.60736 261.034 3.80803 261.263C4.03736 261.464 4.15203 261.736 4.15203 262.08C4.15203 266.552 4.91169 270.852 6.43103 274.98C6.66036 274.636 7.01869 273.948 7.50603 272.916C7.99336 271.855 8.45203 271.081 8.88203 270.594C9.31203 270.107 9.82803 269.863 10.43 269.863C11.032 269.863 11.6627 270.307 12.322 271.196C12.9814 272.085 13.5404 273.045 13.999 274.077C14.4864 275.08 14.7587 275.611 14.816 275.668C15.59 273.26 15.977 271.024 15.977 268.96L15.719 262.424C15.6904 261.994 15.891 261.636 16.321 261.349C16.751 261.034 17.1667 260.876 17.568 260.876C18.3994 260.876 18.815 262.496 18.815 265.735V268.1C18.815 271.941 18.2274 275.367 17.052 278.377C16.4214 280.097 15.633 280.957 14.687 280.957C14.1424 280.957 13.6407 280.613 13.182 279.925C12.7234 279.208 12.2074 278.205 11.634 276.915C11.0607 275.625 10.6164 274.736 10.301 274.249L9.01103 276.786C8.52369 277.789 8.15103 278.52 7.89303 278.979C7.63503 279.409 7.27669 279.853 6.81803 280.312C6.35936 280.742 5.88636 280.957 5.39903 280.957Z" fill="#4D6990"/>
<path d="M24.5723 253.824C25.0883 253.824 25.5757 254.068 26.0343 254.555C26.493 255.042 26.7223 255.558 26.7223 256.103C26.7223 256.619 26.4643 257.149 25.9483 257.694C25.461 258.239 24.945 258.511 24.4003 258.511C23.8557 258.511 23.354 258.282 22.8953 257.823C22.4653 257.364 22.2503 256.777 22.2503 256.06C22.2503 254.684 22.9957 253.939 24.4863 253.824C24.515 253.824 24.5437 253.824 24.5723 253.824ZM26.3783 276.356L26.4213 279.366C26.4213 279.911 26.2063 280.369 25.7763 280.742C25.3463 281.086 24.8877 281.258 24.4003 281.258C23.6837 281.258 23.311 280.9 23.2823 280.183C22.9097 271.038 22.7233 265.979 22.7233 265.004C22.7233 264.029 22.7663 262.84 22.8523 261.435C22.9097 260.919 23.2393 260.661 23.8413 260.661C25.3607 260.661 26.2207 261.277 26.4213 262.51C26.5073 263.141 26.5503 263.642 26.5503 264.015L26.3783 266.724V276.356Z" fill="#4D6990"/>
<path d="M32.4255 260.919L34.5755 260.962C35.0629 260.962 35.3352 260.948 35.3925 260.919V252.104C35.4212 251.617 35.6649 251.201 36.1235 250.857C36.5822 250.513 37.0122 250.341 37.4135 250.341C37.8149 250.341 38.1302 250.47 38.3595 250.728C38.6175 250.986 38.7322 251.387 38.7035 251.932C38.6749 252.477 38.6605 255.458 38.6605 260.876L43.6915 260.704C44.5515 260.704 44.9815 261.206 44.9815 262.209C44.9815 262.954 44.7522 263.513 44.2935 263.886C43.8635 264.259 43.3905 264.459 42.8745 264.488C42.3872 264.517 41.8999 264.531 41.4125 264.531L38.7895 264.488C38.7895 265.663 38.9042 267.985 39.1335 271.454C39.3915 274.923 39.5922 277.173 39.7355 278.205C39.8789 279.208 39.9075 279.868 39.8215 280.183C39.7355 280.47 39.5779 280.67 39.3485 280.785C38.9759 280.957 38.4742 281.043 37.8435 281.043C37.2129 281.043 36.8402 280.699 36.7255 280.011C36.1522 276.256 35.7652 271.096 35.5645 264.531C35.3065 264.56 34.3175 264.574 32.5975 264.574C30.8775 264.574 30.0175 264.072 30.0175 263.069C30.0175 261.636 30.8202 260.919 32.4255 260.919Z" fill="#4D6990"/>
<path d="M50.7328 267.068L51.0768 277.216C51.0768 278.477 51.0195 279.208 50.9048 279.409C50.8475 279.925 50.6754 280.326 50.3888 280.613C50.1308 280.9 49.6148 281.043 48.8408 281.043C48.4681 281.043 48.1671 280.814 47.9378 280.355C47.7084 279.868 47.5795 279.323 47.5508 278.721C47.3501 273.676 47.0778 268.946 46.7338 264.531C46.4185 260.088 46.2608 255.96 46.2608 252.147C46.2608 251.545 46.4615 251.072 46.8628 250.728C47.2641 250.384 47.7371 250.212 48.2818 250.212C49.0845 250.212 49.5574 250.9 49.7008 252.276C49.8728 253.652 49.9731 255.372 50.0018 257.436C50.0591 259.5 50.1164 261.005 50.1738 261.951C51.6071 261.206 53.0405 260.833 54.4738 260.833C57.7991 260.833 59.9061 262.295 60.7948 265.219C61.3108 266.882 61.5688 269.017 61.5688 271.626C61.5688 272.486 61.4828 273.848 61.3108 275.711C61.1674 277.546 61.0815 278.735 61.0528 279.28C61.0241 279.825 60.7805 280.255 60.3218 280.57C59.8918 280.857 59.4188 281 58.9028 281C58.1001 281 57.6988 280.57 57.6988 279.71L57.9998 272.228C57.9998 271.597 57.9711 270.551 57.9138 269.089C57.8565 267.627 57.5555 266.466 57.0108 265.606C56.4948 264.746 55.5775 264.316 54.2588 264.316C51.9081 264.316 50.7328 265.233 50.7328 267.068Z" fill="#4D6990"/>
<path d="M86.0956 260.919C87.3569 260.919 87.9876 261.994 87.9876 264.144C87.9876 264.373 87.9876 264.617 87.9876 264.875L87.9016 267.885C87.8729 268.831 87.8586 269.763 87.8586 270.68L88.5036 280.398C88.5036 281.115 87.7726 281.473 86.3106 281.473C86.2246 281.473 86.0096 281.473 85.6656 281.473C85.3503 281.473 85.1209 281.344 84.9776 281.086C84.8629 280.828 84.8486 280.513 84.9346 280.14C85.0493 279.767 85.0206 279.352 84.8486 278.893C83.5299 280.298 81.7813 281 79.6026 281C75.5606 281 73.5396 277.875 73.5396 271.626C73.5396 268.157 74.1846 265.534 75.4746 263.757C76.7933 261.98 78.6709 261.091 81.1076 261.091C82.2542 261.091 83.4009 261.292 84.5476 261.693C84.9203 261.177 85.4362 260.919 86.0956 260.919ZM81.6236 264.832C79.9896 264.832 78.7712 265.305 77.9686 266.251C77.1659 267.197 76.7646 268.931 76.7646 271.454C76.7646 275.697 77.9112 277.818 80.2046 277.818C80.8066 277.818 81.4659 277.546 82.1826 277.001C82.9279 276.456 83.4439 275.84 83.7306 275.152C84.2752 273.604 84.5476 271.913 84.5476 270.078C84.5476 268.243 84.3183 266.91 83.8596 266.079C83.4296 265.248 82.6843 264.832 81.6236 264.832Z" fill="#4D6990"/>
<path d="M106.546 274.593C107.55 274.593 108.051 275.439 108.051 277.13C108.051 278.047 107.55 278.965 106.546 279.882C105.572 280.771 104.497 281.215 103.321 281.215C101.573 281.215 100.283 280.326 99.4515 278.549C99.0788 279.266 98.4768 279.896 97.6455 280.441C96.8428 280.957 96.0258 281.215 95.1945 281.215C94.3918 281.215 93.6894 281.057 93.0874 280.742C92.5141 280.398 92.0411 279.896 91.6684 279.237C91.3244 278.578 91.0378 277.947 90.8084 277.345C90.6078 276.714 90.4501 275.955 90.3354 275.066C90.1921 273.633 90.0775 271.339 89.9915 268.186C89.9341 265.004 89.9054 261.98 89.9054 259.113C89.9054 256.218 89.9341 254.24 89.9915 253.179C90.0775 252.09 90.2495 251.387 90.5075 251.072C90.7941 250.728 91.2241 250.556 91.7975 250.556C93.0588 250.556 93.6895 251.058 93.6895 252.061C93.6895 252.835 93.6178 254.856 93.4744 258.124C93.3598 261.392 93.3025 264.316 93.3025 266.896C93.3025 269.476 93.4028 271.554 93.6035 273.131C93.9475 275.883 94.4348 277.259 95.0655 277.259C95.6961 277.259 96.1835 276.815 96.5275 275.926C96.6421 275.582 96.8571 275.281 97.1725 275.023C97.4878 274.736 97.8891 274.593 98.3764 274.593H98.4625C98.2045 272.07 98.0755 268.143 98.0755 262.811C98.0755 257.45 98.1041 254.24 98.1615 253.179C98.2475 252.09 98.4195 251.387 98.6775 251.072C98.9641 250.728 99.3941 250.556 99.9675 250.556C101.229 250.556 101.859 251.058 101.859 252.061C101.859 252.835 101.788 254.856 101.644 258.124C101.53 261.392 101.472 264.316 101.472 266.896C101.472 269.476 101.573 271.554 101.773 273.131C102.117 275.883 102.605 277.259 103.235 277.259C103.866 277.259 104.353 276.815 104.697 275.926C104.812 275.582 105.027 275.281 105.342 275.023C105.658 274.736 106.059 274.593 106.546 274.593Z" fill="#4D6990"/>
<path d="M126.977 260.962C129.041 260.962 130.732 261.951 132.051 263.929C133.398 265.907 134.072 268.286 134.072 271.067C134.072 273.819 133.384 276.17 132.008 278.119C130.661 280.068 128.855 281.043 126.59 281.043C124.354 281.043 122.548 280.054 121.172 278.076C119.796 276.069 119.108 273.848 119.108 271.411C119.108 268.286 119.739 265.792 121 263.929C122.347 261.951 124.34 260.962 126.977 260.962ZM126.461 264.488C125.257 264.488 124.268 265.119 123.494 266.38C122.72 267.641 122.333 268.974 122.333 270.379C122.333 272.558 122.763 274.22 123.623 275.367C124.483 276.514 125.458 277.087 126.547 277.087C128.496 277.087 129.743 276.241 130.288 274.55C130.517 273.747 130.632 272.744 130.632 271.54C130.632 266.839 129.242 264.488 126.461 264.488Z" fill="#4D6990"/>
<path d="M142.557 250.9C143.016 250.556 143.403 250.37 143.718 250.341C144.062 250.284 144.822 250.255 145.997 250.255C147.201 250.255 148.19 250.427 148.964 250.771C149.738 251.115 150.125 251.803 150.125 252.835C150.125 253.867 149.709 254.383 148.878 254.383C148.706 254.383 148.219 254.24 147.416 253.953C146.613 253.638 146.097 253.48 145.868 253.48C144.865 253.48 144.263 254.082 144.062 255.286C144.005 255.716 143.976 256.605 143.976 257.952C143.976 259.271 143.976 260.36 143.976 261.22H146.986C148.247 261.277 148.878 261.722 148.878 262.553C148.878 263.757 148.018 264.388 146.298 264.445C146.04 264.474 145.725 264.488 145.352 264.488C144.979 264.488 144.549 264.474 144.062 264.445C144.119 265.592 144.248 267.641 144.449 270.594C144.65 273.518 144.75 276.37 144.75 279.151C144.75 279.724 144.521 280.183 144.062 280.527C143.603 280.871 143.13 281.043 142.643 281.043C141.869 281.043 141.482 280.584 141.482 279.667C141.482 277.087 141.382 274.579 141.181 272.142C140.98 269.705 140.837 267.14 140.751 264.445C138.171 264.445 136.666 264.187 136.236 263.671C136.064 263.47 135.978 263.212 135.978 262.897C135.978 262.152 136.279 261.664 136.881 261.435C137.512 261.206 138.228 261.091 139.031 261.091C139.834 261.091 140.407 261.091 140.751 261.091C140.837 256.418 141.095 253.523 141.525 252.405C141.783 251.717 142.127 251.215 142.557 250.9Z" fill="#4D6990"/>
<path d="M175.789 261.134C176.162 261.134 176.52 261.263 176.864 261.521C177.237 261.779 177.423 262.066 177.423 262.381C177.423 263.212 176.205 267.713 173.768 275.883C171.332 284.053 169.526 289.786 168.35 293.083C168.092 293.857 167.691 294.244 167.146 294.244C166.602 294.244 166.172 294.043 165.856 293.642C165.541 293.269 165.383 292.71 165.383 291.965C165.383 291.22 165.856 289.428 166.802 286.59C167.777 283.781 168.365 281.989 168.565 281.215C167.849 280.011 165.426 273.991 161.298 263.155C161.241 263.012 161.212 262.825 161.212 262.596C161.212 262.367 161.384 262.066 161.728 261.693C162.072 261.32 162.545 261.134 163.147 261.134C163.749 261.134 164.237 261.435 164.609 262.037C165.011 263.069 165.67 264.875 166.587 267.455C167.505 270.006 168.207 271.855 168.694 273.002C169.21 274.149 169.698 275.338 170.156 276.571C170.558 275.224 171.246 272.615 172.22 268.745C173.195 264.846 173.754 262.625 173.897 262.08C174.012 261.449 174.643 261.134 175.789 261.134Z" fill="#4D6990"/>
<path d="M187.866 260.962C189.93 260.962 191.621 261.951 192.94 263.929C194.287 265.907 194.961 268.286 194.961 271.067C194.961 273.819 194.273 276.17 192.897 278.119C191.55 280.068 189.744 281.043 187.479 281.043C185.243 281.043 183.437 280.054 182.061 278.076C180.685 276.069 179.997 273.848 179.997 271.411C179.997 268.286 180.628 265.792 181.889 263.929C183.236 261.951 185.228 260.962 187.866 260.962ZM187.35 264.488C186.146 264.488 185.157 265.119 184.383 266.38C183.609 267.641 183.222 268.974 183.222 270.379C183.222 272.558 183.652 274.22 184.512 275.367C185.372 276.514 186.347 277.087 187.436 277.087C189.385 277.087 190.632 276.241 191.177 274.55C191.406 273.747 191.521 272.744 191.521 271.54C191.521 266.839 190.131 264.488 187.35 264.488Z" fill="#4D6990"/>
<path d="M197.512 262.596C197.626 262.109 197.87 261.707 198.243 261.392C198.615 261.048 198.988 260.876 199.361 260.876C199.762 260.876 200.063 260.948 200.264 261.091C200.493 261.234 200.622 261.363 200.651 261.478C200.708 261.593 200.765 261.793 200.823 262.08C200.651 264.316 200.565 266.337 200.565 268.143C200.565 269.92 200.78 271.97 201.21 274.292C201.64 276.585 202.113 277.732 202.629 277.732C203.403 277.732 204.377 277.302 205.553 276.442C206.757 275.582 207.617 274.679 208.133 273.733C207.789 269.605 207.617 266.065 207.617 263.112C207.617 262.51 207.803 261.994 208.176 261.564C208.577 261.134 209.05 260.919 209.595 260.919C210.483 260.919 210.928 261.521 210.928 262.725C210.928 264.76 211.071 267.785 211.358 271.798C211.673 275.811 211.988 278.363 212.304 279.452C212.361 279.681 212.39 279.954 212.39 280.269C212.39 280.556 212.189 280.828 211.788 281.086C211.415 281.373 210.913 281.516 210.283 281.516C209.681 281.516 209.279 281.172 209.079 280.484C209.021 279.911 208.878 279.051 208.649 277.904C206.642 279.997 204.621 281.043 202.586 281.043C201.64 281.043 200.794 280.685 200.049 279.968C199.303 279.251 198.716 278.277 198.286 277.044C197.54 274.665 197.168 272.429 197.168 270.336C197.168 268.243 197.282 265.663 197.512 262.596Z" fill="#4D6990"/>
<path d="M220.232 251.416L219.845 266.079C219.845 267.656 219.86 268.688 219.888 269.175C219.774 269.548 219.544 269.877 219.2 270.164C218.885 270.451 218.527 270.594 218.125 270.594C217.724 270.594 217.394 270.279 217.136 269.648C216.706 262.424 216.491 256.347 216.491 251.416C216.749 250.699 217.409 250.341 218.469 250.341C219.53 250.341 220.118 250.699 220.232 251.416ZM217.265 278.936C216.835 278.42 216.62 277.904 216.62 277.388C216.62 276.872 216.821 276.399 217.222 275.969C217.624 275.539 218.154 275.324 218.813 275.324C219.501 275.324 219.989 275.453 220.275 275.711C220.591 275.969 220.748 276.528 220.748 277.388C220.748 278.907 220.118 279.667 218.856 279.667C218.226 279.667 217.695 279.423 217.265 278.936Z" fill="#4D6990"/>
<path d="M3.1792 22.301L3.2202 19.103L3.5892 1.965C3.5892 1.637 3.76687 1.37734 4.1222 1.186C4.47753 0.994669 4.92853 0.899002 5.4752 0.899002C6.7872 0.899002 7.4432 1.36367 7.4432 2.293C7.4432 2.59367 7.2792 4.88967 6.9512 9.181C6.65053 13.4723 6.5002 16.0417 6.5002 16.889C6.5002 16.889 6.5002 18.3377 6.5002 21.235C6.5002 23.285 6.63687 24.4057 6.9102 24.597C7.3202 24.7337 7.79853 24.802 8.3452 24.802L14.2492 24.392C15.5339 24.392 16.1762 24.8567 16.1762 25.786C16.1762 26.524 15.8209 27.0707 15.1102 27.426C14.4269 27.754 13.7435 27.9453 13.0602 28C12.3769 28.0273 11.5432 28.041 10.5592 28.041C6.26787 28.041 3.94453 27.9043 3.5892 27.631C3.39787 27.467 3.28853 26.852 3.2612 25.786C3.23387 24.6927 3.20653 23.9273 3.1792 23.49C3.1792 23.0527 3.1792 22.6563 3.1792 22.301Z" fill="#4D6990"/>
<path d="M26.1421 8.894C28.1101 8.894 29.7227 9.837 30.9801 11.723C32.2647 13.609 32.9071 15.8777 32.9071 18.529C32.9071 21.153 32.2511 23.3943 30.9391 25.253C29.6544 27.1117 27.9324 28.041 25.7731 28.041C23.6411 28.041 21.9191 27.098 20.6071 25.212C19.2951 23.2987 18.6391 21.1803 18.6391 18.857C18.6391 15.8777 19.2404 13.4997 20.4431 11.723C21.7277 9.837 23.6274 8.894 26.1421 8.894ZM25.6501 12.256C24.5021 12.256 23.5591 12.8573 22.8211 14.06C22.0831 15.2627 21.7141 16.5337 21.7141 17.873C21.7141 19.9503 22.1241 21.5357 22.9441 22.629C23.7641 23.7223 24.6934 24.269 25.7321 24.269C27.5907 24.269 28.7797 23.4627 29.2991 21.85C29.5177 21.0847 29.6271 20.128 29.6271 18.98C29.6271 14.4973 28.3014 12.256 25.6501 12.256Z" fill="#4D6990"/>
<path d="M47.1882 26.319C46.2042 27.467 44.9606 28.041 43.4572 28.041C41.9539 28.041 40.6556 27.5763 39.5622 26.647C37.2662 24.8703 36.1182 22.1507 36.1182 18.488C36.1182 15.618 36.9109 13.322 38.4962 11.6C40.0815 9.85067 42.0359 8.976 44.3592 8.976C46.6826 8.976 48.2679 9.76867 49.1152 11.354C49.8532 12.748 50.2222 14.8527 50.2222 17.668L50.1402 21.03C50.1402 22.6153 50.2086 24.8157 50.3452 27.631C50.5092 30.419 50.5912 32.5237 50.5912 33.945C50.5912 36.2957 50.0036 38.0177 48.8282 39.111C47.6802 40.2317 45.9172 40.792 43.5392 40.792C42.1179 40.792 40.6692 40.4913 39.1932 39.89C37.7172 39.2887 36.9792 38.5917 36.9792 37.799C36.9792 37.225 37.1296 36.7877 37.4302 36.487C37.7582 36.1863 38.1272 36.036 38.5372 36.036C38.9472 36.036 39.8629 36.3367 41.2842 36.938C42.7329 37.5393 43.7715 37.84 44.4002 37.84C46.3682 37.84 47.3522 36.2273 47.3522 33.002C47.3522 29.7767 47.2976 27.549 47.1882 26.319ZM47.1472 17.668C47.1472 15.6727 46.8465 14.2787 46.2452 13.486C45.6712 12.666 44.7556 12.256 43.4982 12.256C42.2409 12.256 41.2296 12.83 40.4642 13.978C39.6989 15.126 39.3162 16.5883 39.3162 18.365C39.3162 20.1143 39.6716 21.5083 40.3822 22.547C41.1202 23.5857 42.2409 24.105 43.7442 24.105C45.2476 24.105 46.2179 23.4627 46.6552 22.178C46.9832 21.1393 47.1472 19.636 47.1472 17.668Z" fill="#4D6990"/>
<path d="M65.118 8.853C66.3207 8.853 66.922 9.878 66.922 11.928C66.922 12.1467 66.922 12.379 66.922 12.625L66.84 15.495C66.8127 16.397 66.799 17.2853 66.799 18.16L67.414 27.426C67.414 28.1093 66.717 28.451 65.323 28.451C65.241 28.451 65.036 28.451 64.708 28.451C64.4074 28.451 64.1887 28.328 64.052 28.082C63.9427 27.836 63.929 27.5353 64.011 27.18C64.1204 26.8247 64.093 26.4283 63.929 25.991C62.6717 27.3303 61.0044 28 58.927 28C55.073 28 53.146 25.0207 53.146 19.062C53.146 15.7547 53.761 13.2537 54.991 11.559C56.2484 9.86433 58.0387 9.017 60.362 9.017C61.4554 9.017 62.5487 9.20834 63.642 9.591C63.9974 9.099 64.4894 8.853 65.118 8.853ZM60.854 12.584C59.296 12.584 58.1344 13.035 57.369 13.937C56.6037 14.839 56.221 16.4927 56.221 18.898C56.221 22.9433 57.3144 24.966 59.501 24.966C60.075 24.966 60.7037 24.7063 61.387 24.187C62.0977 23.6677 62.5897 23.08 62.863 22.424C63.3824 20.948 63.642 19.3353 63.642 17.586C63.642 15.8367 63.4234 14.5657 62.986 13.773C62.576 12.9803 61.8654 12.584 60.854 12.584Z" fill="#4D6990"/>
<path d="M71.2927 26.729L70.8417 10.083C70.8417 9.56367 71.0194 9.14 71.3747 8.812C71.73 8.484 72.0854 8.32 72.4407 8.32C73.3154 8.32 73.821 8.689 73.9577 9.427C74.067 10.165 74.1217 10.9303 74.1217 11.723C75.5977 9.78234 77.4427 8.812 79.6567 8.812C83.046 8.812 84.7407 12.6797 84.7407 20.415C84.7407 21.1257 84.7407 22.2053 84.7407 23.654C84.7407 25.0753 84.6587 26.114 84.4947 26.77C84.3034 27.59 83.7157 28 82.7317 28C82.0757 28 81.7477 27.5627 81.7477 26.688L81.7887 24.392C81.7887 21.2213 81.6794 19.062 81.4607 17.914C81.2694 16.7387 81.078 15.8093 80.8867 15.126C80.422 13.65 79.6704 12.912 78.6317 12.912C77.265 12.912 76.3084 13.404 75.7617 14.388C75.1604 15.454 74.805 16.7113 74.6957 18.16C74.5044 20.702 74.4087 23.3943 74.4087 26.237C74.4087 26.7837 74.2037 27.221 73.7937 27.549C73.3837 27.877 72.8917 28.041 72.3177 28.041C71.6344 28.041 71.2927 27.6037 71.2927 26.729Z" fill="#4D6990"/>
<path d="M112.072 6.639C112.072 8.06033 111.689 9.24934 110.924 10.206C110.186 11.1353 108.956 12.133 107.234 13.199C107.562 13.691 108.095 14.4427 108.833 15.454C109.571 16.4653 110.022 17.094 110.186 17.34L111.457 19.431C112.277 18.0917 112.755 17.0803 112.892 16.397C113.111 15.577 113.671 15.167 114.573 15.167C115.038 15.167 115.42 15.3037 115.721 15.577C116.022 15.823 116.172 16.1647 116.172 16.602C116.172 17.668 115.106 19.4857 112.974 22.055C113.821 23.695 114.45 25.1163 114.86 26.319C114.805 26.729 114.614 27.0843 114.286 27.385C113.958 27.6857 113.589 27.836 113.179 27.836C112.769 27.836 112.4 27.672 112.072 27.344C111.853 27.016 111.676 26.647 111.539 26.237C111.402 25.827 111.17 25.2393 110.842 24.474C109.585 25.8133 108.532 26.729 107.685 27.221C106.838 27.6857 105.854 27.918 104.733 27.918C103.64 27.918 102.533 27.4807 101.412 26.606C100.291 25.7313 99.444 24.6517 98.87 23.367C98.296 22.219 98.009 21.071 98.009 19.923C98.009 18.119 98.4737 16.6703 99.403 15.577C100.332 14.4563 101.699 13.3767 103.503 12.338C102.218 10.0147 101.576 8.01934 101.576 6.352C101.576 4.68467 102.082 3.359 103.093 2.375C104.132 1.391 105.375 0.899002 106.824 0.899002C108.273 0.899002 109.503 1.50034 110.514 2.703C111.553 3.90567 112.072 5.21767 112.072 6.639ZM106.906 4.015C105.485 4.015 104.747 5.163 104.692 7.459C104.829 8.63433 105.225 9.80967 105.881 10.985C107.794 9.837 108.751 8.70267 108.751 7.582C108.751 6.434 108.546 5.54567 108.136 4.917C107.781 4.31567 107.371 4.015 106.906 4.015ZM104.692 24.433C106.113 24.433 107.685 23.5583 109.407 21.809C109.298 21.645 109.161 21.44 108.997 21.194C108.833 20.9207 108.587 20.5517 108.259 20.087C107.958 19.595 107.494 18.9253 106.865 18.078C106.264 17.2033 105.717 16.2877 105.225 15.331L104.897 14.757C104.022 15.3857 103.407 15.864 103.052 16.192C101.822 17.258 101.207 18.5017 101.207 19.923C101.207 21.317 101.685 22.5197 102.642 23.531C103.189 24.1323 103.872 24.433 104.692 24.433Z" fill="#4D6990"/>
<path d="M141.13 1.186C142.962 1.186 144.984 1.54133 147.198 2.252C147.69 2.63467 147.936 3.05834 147.936 3.523C147.936 3.96034 147.704 4.35667 147.239 4.712C146.802 5.04 146.296 5.204 145.722 5.204C144.246 4.82133 142.866 4.63 141.581 4.63C138.629 4.63 136.388 5.50467 134.857 7.254C133.327 9.00333 132.561 11.6 132.561 15.044C132.561 18.488 133.463 21.1803 135.267 23.121C136.197 24.1323 137.304 24.638 138.588 24.638C139.873 24.638 141.923 23.9547 144.738 22.588C145.722 22.1233 146.378 21.891 146.706 21.891C147.417 21.891 147.772 22.26 147.772 22.998C147.772 23.736 147.431 24.351 146.747 24.843C144.397 26.073 142.565 26.9067 141.253 27.344C139.941 27.754 138.807 27.959 137.85 27.959C135.882 27.959 134.201 27.2347 132.807 25.786C130.32 23.1073 129.076 19.4583 129.076 14.839C129.076 10.1923 130.252 6.762 132.602 4.548C134.98 2.30667 137.823 1.186 141.13 1.186Z" fill="#4D6990"/>
<path d="M162.813 8.853C164.016 8.853 164.617 9.878 164.617 11.928C164.617 12.1467 164.617 12.379 164.617 12.625L164.535 15.495C164.508 16.397 164.494 17.2853 164.494 18.16L165.109 27.426C165.109 28.1093 164.412 28.451 163.018 28.451C162.936 28.451 162.731 28.451 162.403 28.451C162.103 28.451 161.884 28.328 161.747 28.082C161.638 27.836 161.624 27.5353 161.706 27.18C161.816 26.8247 161.788 26.4283 161.624 25.991C160.367 27.3303 158.7 28 156.622 28C152.768 28 150.841 25.0207 150.841 19.062C150.841 15.7547 151.456 13.2537 152.686 11.559C153.944 9.86433 155.734 9.017 158.057 9.017C159.151 9.017 160.244 9.20834 161.337 9.591C161.693 9.099 162.185 8.853 162.813 8.853ZM158.549 12.584C156.991 12.584 155.83 13.035 155.064 13.937C154.299 14.839 153.916 16.4927 153.916 18.898C153.916 22.9433 155.01 24.966 157.196 24.966C157.77 24.966 158.399 24.7063 159.082 24.187C159.793 23.6677 160.285 23.08 160.558 22.424C161.078 20.948 161.337 19.3353 161.337 17.586C161.337 15.8367 161.119 14.5657 160.681 13.773C160.271 12.9803 159.561 12.584 158.549 12.584Z" fill="#4D6990"/>
<path d="M168.127 14.06C168.127 12.4473 168.701 11.1627 169.849 10.206C170.997 9.24934 172.323 8.771 173.826 8.771C175.357 8.771 176.819 9.04434 178.213 9.591C179.607 10.1377 180.304 10.862 180.304 11.764C180.304 12.2287 180.126 12.5977 179.771 12.871C179.416 13.1443 179.101 13.281 178.828 13.281C178.582 13.281 178.377 13.281 178.213 13.281C178.076 13.2537 177.53 12.994 176.573 12.502C175.644 12.01 174.783 11.764 173.99 11.764C173.197 11.764 172.514 11.969 171.94 12.379C171.393 12.7617 171.12 13.3357 171.12 14.101C171.12 14.8663 171.434 15.4677 172.063 15.905C172.719 16.3423 173.853 16.725 175.466 17.053C177.079 17.3537 178.309 17.791 179.156 18.365C180.031 18.939 180.468 20.005 180.468 21.563C180.468 23.8317 179.867 25.4443 178.664 26.401C177.489 27.3303 176.054 27.795 174.359 27.795C172.664 27.795 171.216 27.5627 170.013 27.098C168.838 26.6333 168.25 25.9363 168.25 25.007C168.25 23.941 168.783 23.408 169.849 23.408C170.122 23.408 170.724 23.5993 171.653 23.982C172.582 24.3647 173.498 24.556 174.4 24.556C175.329 24.556 176.026 24.269 176.491 23.695C176.983 23.0937 177.229 22.4103 177.229 21.645C177.229 20.8797 176.915 20.333 176.286 20.005C175.657 19.6497 174.701 19.3627 173.416 19.144C172.131 18.9253 171.188 18.693 170.587 18.447C168.947 17.791 168.127 16.3287 168.127 14.06Z" fill="#4D6990"/>
<path d="M183.902 14.06C183.902 12.4473 184.476 11.1627 185.624 10.206C186.772 9.24934 188.098 8.771 189.601 8.771C191.132 8.771 192.594 9.04434 193.988 9.591C195.382 10.1377 196.079 10.862 196.079 11.764C196.079 12.2287 195.902 12.5977 195.546 12.871C195.191 13.1443 194.877 13.281 194.603 13.281C194.357 13.281 194.152 13.281 193.988 13.281C193.852 13.2537 193.305 12.994 192.348 12.502C191.419 12.01 190.558 11.764 189.765 11.764C188.973 11.764 188.289 11.969 187.715 12.379C187.169 12.7617 186.895 13.3357 186.895 14.101C186.895 14.8663 187.21 15.4677 187.838 15.905C188.494 16.3423 189.629 16.725 191.241 17.053C192.854 17.3537 194.084 17.791 194.931 18.365C195.806 18.939 196.243 20.005 196.243 21.563C196.243 23.8317 195.642 25.4443 194.439 26.401C193.264 27.3303 191.829 27.795 190.134 27.795C188.44 27.795 186.991 27.5627 185.788 27.098C184.613 26.6333 184.025 25.9363 184.025 25.007C184.025 23.941 184.558 23.408 185.624 23.408C185.898 23.408 186.499 23.5993 187.428 23.982C188.358 24.3647 189.273 24.556 190.175 24.556C191.105 24.556 191.802 24.269 192.266 23.695C192.758 23.0937 193.004 22.4103 193.004 21.645C193.004 20.8797 192.69 20.333 192.061 20.005C191.433 19.6497 190.476 19.3627 189.191 19.144C187.907 18.9253 186.964 18.693 186.362 18.447C184.722 17.791 183.902 16.3287 183.902 14.06Z" fill="#4D6990"/>
<path d="M201.687 2.088C202.179 2.088 202.643 2.32034 203.081 2.785C203.518 3.24967 203.737 3.74167 203.737 4.261C203.737 4.753 203.491 5.25867 202.999 5.778C202.534 6.29734 202.042 6.557 201.523 6.557C201.003 6.557 200.525 6.33834 200.088 5.901C199.678 5.46367 199.473 4.90333 199.473 4.22C199.473 2.908 200.183 2.19734 201.605 2.088C201.632 2.088 201.659 2.088 201.687 2.088ZM203.409 23.572L203.45 26.442C203.45 26.9613 203.245 27.3987 202.835 27.754C202.425 28.082 201.987 28.246 201.523 28.246C200.839 28.246 200.484 27.9043 200.457 27.221C200.101 18.5017 199.924 13.6773 199.924 12.748C199.924 11.8187 199.965 10.6843 200.047 9.345C200.101 8.853 200.416 8.607 200.99 8.607C202.438 8.607 203.258 9.19467 203.45 10.37C203.532 10.9713 203.573 11.4497 203.573 11.805L203.409 14.388V23.572Z" fill="#4D6990"/>
<path d="M214.054 9.017C215.502 9.017 216.883 9.44067 218.195 10.288C219.507 11.1353 220.163 12.1877 220.163 13.445C220.163 14.675 219.63 15.8777 218.564 17.053C217.498 18.201 216.076 18.898 214.3 19.144C213.534 19.2533 212.386 19.308 210.856 19.308C211.156 21.6313 211.744 23.162 212.619 23.9C212.892 24.2007 213.261 24.351 213.726 24.351C215.42 24.351 216.842 23.818 217.99 22.752C219.138 21.6587 219.958 21.112 220.45 21.112C220.668 21.112 220.996 21.317 221.434 21.727C221.871 22.137 222.09 22.5197 222.09 22.875C222.09 23.5857 221.229 24.6107 219.507 25.95C218.741 26.5787 217.812 27.1117 216.719 27.549C215.653 27.959 214.655 28.164 213.726 28.164C211.348 28.164 209.598 26.6333 208.478 23.572C207.767 21.686 207.412 19.6087 207.412 17.34C207.412 15.0713 207.945 13.117 209.011 11.477C210.077 9.837 211.758 9.017 214.054 9.017ZM214.259 11.846C213.22 11.846 212.332 12.4337 211.594 13.609C211.32 14.019 211.061 14.9483 210.815 16.397C214.641 16.397 216.555 15.454 216.555 13.568C216.555 12.42 215.789 11.846 214.259 11.846Z" fill="#4D6990"/>
<path d="M16.4272 110.827C15.1552 112.311 13.5475 113.053 11.6042 113.053C9.66085 113.053 7.98252 112.452 6.56919 111.251C3.60119 108.954 2.11719 105.439 2.11719 100.704C2.11719 96.994 3.14185 94.026 5.19119 91.8C7.24052 89.5387 9.76685 88.408 12.7702 88.408C15.7735 88.408 17.8229 89.4327 18.9182 91.482C19.8722 93.284 20.3492 96.0047 20.3492 99.644L20.2432 103.99C20.2432 106.039 20.3315 108.884 20.5082 112.523C20.7202 116.127 20.8262 118.848 20.8262 120.685C20.8262 123.724 20.0665 125.95 18.5472 127.363C17.0632 128.812 14.7842 129.536 11.7102 129.536C9.87286 129.536 8.00019 129.147 6.09219 128.37C4.18419 127.593 3.23019 126.692 3.23019 125.667C3.23019 124.925 3.42452 124.36 3.81319 123.971C4.23719 123.582 4.71419 123.388 5.24419 123.388C5.77419 123.388 6.95785 123.777 8.79519 124.554C10.6679 125.331 12.0105 125.72 12.8232 125.72C15.3672 125.72 16.6392 123.635 16.6392 119.466C16.6392 115.297 16.5685 112.417 16.4272 110.827ZM16.3742 99.644C16.3742 97.0647 15.9855 95.2627 15.2082 94.238C14.4662 93.178 13.2825 92.648 11.6572 92.648C10.0319 92.648 8.72452 93.39 7.73519 94.874C6.74585 96.358 6.25119 98.2483 6.25119 100.545C6.25119 102.806 6.71052 104.608 7.62919 105.951C8.58319 107.294 10.0319 107.965 11.9752 107.965C13.9185 107.965 15.1729 107.135 15.7382 105.474C16.1622 104.131 16.3742 102.188 16.3742 99.644Z" fill="#4D6990"/>
<path d="M34.1987 88.302C36.7427 88.302 38.8274 89.521 40.4528 91.959C42.1134 94.397 42.9438 97.3297 42.9438 100.757C42.9438 104.149 42.0958 107.046 40.3997 109.449C38.7391 111.852 36.5131 113.053 33.7217 113.053C30.9657 113.053 28.7397 111.834 27.0437 109.396C25.3477 106.923 24.4997 104.184 24.4997 101.181C24.4997 97.3297 25.2771 94.2557 26.8317 91.959C28.4924 89.521 30.9481 88.302 34.1987 88.302ZM33.5627 92.648C32.0787 92.648 30.8597 93.4253 29.9057 94.98C28.9517 96.5347 28.4747 98.1777 28.4747 99.909C28.4747 102.594 29.0047 104.644 30.0647 106.057C31.1247 107.47 32.3261 108.177 33.6688 108.177C36.0714 108.177 37.6084 107.135 38.2798 105.05C38.5624 104.061 38.7038 102.824 38.7038 101.34C38.7038 95.5453 36.9901 92.648 33.5627 92.648Z" fill="#4D6990"/>
<path d="M47.5187 88.249L50.1687 88.302C50.7694 88.302 51.1051 88.2843 51.1757 88.249V77.384C51.2111 76.7833 51.5114 76.271 52.0767 75.847C52.6421 75.423 53.1721 75.211 53.6667 75.211C54.1614 75.211 54.5501 75.37 54.8327 75.688C55.1507 76.006 55.2921 76.5007 55.2567 77.172C55.2214 77.8433 55.2037 81.518 55.2037 88.196L61.4047 87.984C62.4647 87.984 62.9947 88.6023 62.9947 89.839C62.9947 90.7577 62.7121 91.4467 62.1467 91.906C61.6167 92.3653 61.0337 92.6127 60.3977 92.648C59.7971 92.6833 59.1964 92.701 58.5957 92.701L55.3627 92.648C55.3627 94.0967 55.5041 96.9587 55.7867 101.234C56.1047 105.509 56.3521 108.283 56.5287 109.555C56.7054 110.792 56.7407 111.604 56.6347 111.993C56.5287 112.346 56.3344 112.594 56.0517 112.735C55.5924 112.947 54.9741 113.053 54.1967 113.053C53.4194 113.053 52.9601 112.629 52.8187 111.781C52.1121 107.152 51.6351 100.792 51.3877 92.701C51.0697 92.7363 49.8507 92.754 47.7307 92.754C45.6107 92.754 44.5507 92.1357 44.5507 90.899C44.5507 89.1323 45.5401 88.249 47.5187 88.249Z" fill="#4D6990"/>
<path d="M79.6483 113.053C78.7297 113.053 78.182 112.541 78.0053 111.516C78.0053 104.379 77.5813 98.0187 76.7333 92.436C76.7333 91.7293 76.9807 91.0933 77.4753 90.528C78.0053 89.9627 78.5883 89.68 79.2243 89.68C79.8957 89.68 80.3903 90.051 80.7083 90.793C82.0157 89.0617 83.7647 88.196 85.9553 88.196C88.7467 88.196 90.902 89.5387 92.4213 92.224C94.188 89.68 96.52 88.408 99.4173 88.408C102.35 88.408 104.541 89.574 105.989 91.906C106.943 93.3547 107.615 95.2627 108.003 97.63C108.392 99.9973 108.586 103.354 108.586 107.7C108.586 109.396 108.41 110.721 108.056 111.675C107.703 112.594 106.961 113.053 105.83 113.053C104.912 113.053 104.452 112.47 104.452 111.304L104.611 104.679C104.611 96.729 102.544 92.754 98.4103 92.754C97.103 92.754 96.1843 93.2133 95.6543 94.132C95.0537 95.2273 94.7003 96.3757 94.5943 97.577C94.453 99.697 94.3823 101.623 94.3823 103.354V111.039C94.3823 111.604 94.0997 112.081 93.5343 112.47C92.969 112.859 92.386 113.053 91.7853 113.053C91.008 113.053 90.5133 112.541 90.3013 111.516L90.4603 100.545C90.4603 96.6583 89.8067 94.238 88.4993 93.284C87.8633 92.8247 86.8917 92.595 85.5843 92.595C84.3123 92.595 83.3583 93.072 82.7223 94.026C82.1217 94.98 81.8213 96.517 81.8213 98.637L82.1393 108.495C82.1393 111.534 81.309 113.053 79.6483 113.053Z" fill="#4D6990"/>
<path d="M127.438 88.249C128.992 88.249 129.77 89.574 129.77 92.224C129.77 92.5067 129.77 92.807 129.77 93.125L129.664 96.835C129.628 98.001 129.611 99.1493 129.611 100.28L130.406 112.258C130.406 113.141 129.505 113.583 127.703 113.583C127.597 113.583 127.332 113.583 126.908 113.583C126.519 113.583 126.236 113.424 126.06 113.106C125.918 112.788 125.901 112.399 126.007 111.94C126.148 111.481 126.113 110.968 125.901 110.403C124.275 112.134 122.12 113 119.435 113C114.453 113 111.962 109.149 111.962 101.446C111.962 97.1707 112.757 93.9377 114.347 91.747C115.972 89.5563 118.286 88.461 121.29 88.461C122.703 88.461 124.116 88.7083 125.53 89.203C125.989 88.567 126.625 88.249 127.438 88.249ZM121.926 93.072C119.912 93.072 118.41 93.655 117.421 94.821C116.431 95.987 115.937 98.1247 115.937 101.234C115.937 106.463 117.35 109.078 120.177 109.078C120.919 109.078 121.731 108.742 122.615 108.071C123.533 107.4 124.169 106.64 124.523 105.792C125.194 103.884 125.53 101.799 125.53 99.538C125.53 97.2767 125.247 95.6337 124.682 94.609C124.152 93.5843 123.233 93.072 121.926 93.072Z" fill="#4D6990"/>
<path d="M140.243 105.262L140.296 110.721C140.296 111.357 139.995 111.94 139.395 112.47C138.829 113 138.264 113.265 137.699 113.265C136.886 113.265 136.374 112.629 136.162 111.357C136.126 111.074 135.985 108.495 135.738 103.619C135.49 98.7077 135.013 94.8563 134.307 92.065C133.989 90.7223 133.83 89.9273 133.83 89.68C133.83 88.514 134.536 87.931 135.95 87.931C136.55 87.931 137.027 88.1607 137.381 88.62C137.734 89.0793 137.946 89.5563 138.017 90.051C138.123 90.5103 138.211 91.1463 138.282 91.959C138.352 92.7717 138.405 93.284 138.441 93.496C139.183 91.7293 140.296 90.4043 141.78 89.521C143.264 88.6377 144.889 88.196 146.656 88.196C149.553 88.196 151.002 88.938 151.002 90.422C151.002 91.164 150.737 91.7647 150.207 92.224C149.712 92.648 149.129 92.86 148.458 92.86C145.454 92.86 143.334 93.814 142.098 95.722C140.861 97.63 140.243 100.81 140.243 105.262Z" fill="#4D6990"/>
<path d="M160.635 105.262L160.688 110.721C160.688 111.357 160.388 111.94 159.787 112.47C159.222 113 158.657 113.265 158.091 113.265C157.279 113.265 156.766 112.629 156.554 111.357C156.519 111.074 156.378 108.495 156.13 103.619C155.883 98.7077 155.406 94.8563 154.699 92.065C154.381 90.7223 154.222 89.9273 154.222 89.68C154.222 88.514 154.929 87.931 156.342 87.931C156.943 87.931 157.42 88.1607 157.773 88.62C158.127 89.0793 158.339 89.5563 158.409 90.051C158.515 90.5103 158.604 91.1463 158.674 91.959C158.745 92.7717 158.798 93.284 158.833 93.496C159.575 91.7293 160.688 90.4043 162.172 89.521C163.656 88.6377 165.282 88.196 167.048 88.196C169.946 88.196 171.394 88.938 171.394 90.422C171.394 91.164 171.129 91.7647 170.599 92.224C170.105 92.648 169.522 92.86 168.85 92.86C165.847 92.86 163.727 93.814 162.49 95.722C161.254 97.63 160.635 100.81 160.635 105.262Z" fill="#4D6990"/>
<path d="M177.689 79.504C178.325 79.504 178.925 79.8043 179.491 80.405C180.056 81.0057 180.339 81.6417 180.339 82.313C180.339 82.949 180.021 83.6027 179.385 84.274C178.784 84.9453 178.148 85.281 177.477 85.281C176.805 85.281 176.187 84.9983 175.622 84.433C175.092 83.8677 174.827 83.1433 174.827 82.26C174.827 80.564 175.745 79.6453 177.583 79.504C177.618 79.504 177.653 79.504 177.689 79.504ZM179.915 107.276L179.968 110.986C179.968 111.657 179.703 112.223 179.173 112.682C178.643 113.106 178.077 113.318 177.477 113.318C176.593 113.318 176.134 112.876 176.099 111.993C175.639 100.722 175.41 94.4853 175.41 93.284C175.41 92.0827 175.463 90.6163 175.569 88.885C175.639 88.249 176.046 87.931 176.788 87.931C178.66 87.931 179.72 88.6907 179.968 90.21C180.074 90.9873 180.127 91.6057 180.127 92.065L179.915 95.404V107.276Z" fill="#4D6990"/>
<path d="M193.675 88.461C195.548 88.461 197.332 89.0087 199.028 90.104C200.724 91.1993 201.572 92.5597 201.572 94.185C201.572 95.775 200.883 97.3297 199.505 98.849C198.127 100.333 196.29 101.234 193.993 101.552C193.004 101.693 191.52 101.764 189.541 101.764C189.93 104.767 190.69 106.746 191.82 107.7C192.174 108.089 192.651 108.283 193.251 108.283C195.442 108.283 197.279 107.594 198.763 106.216C200.247 104.803 201.307 104.096 201.943 104.096C202.226 104.096 202.65 104.361 203.215 104.891C203.781 105.421 204.063 105.916 204.063 106.375C204.063 107.294 202.95 108.619 200.724 110.35C199.735 111.163 198.534 111.852 197.12 112.417C195.742 112.947 194.453 113.212 193.251 113.212C190.177 113.212 187.916 111.233 186.467 107.276C185.549 104.838 185.089 102.153 185.089 99.22C185.089 96.2873 185.778 93.761 187.156 91.641C188.534 89.521 190.707 88.461 193.675 88.461ZM193.94 92.118C192.598 92.118 191.449 92.8777 190.495 94.397C190.142 94.927 189.806 96.1283 189.488 98.001C194.435 98.001 196.908 96.782 196.908 94.344C196.908 92.86 195.919 92.118 193.94 92.118Z" fill="#4D6990"/>
<path d="M219.828 88.196L219.775 77.967C219.775 76.059 220.375 75.105 221.577 75.105C222.813 75.105 223.502 75.635 223.644 76.695C223.714 77.1543 223.803 79.928 223.909 85.016C224.015 90.104 224.174 94.874 224.386 99.326C224.633 103.778 224.757 107.93 224.757 111.781C224.757 112.841 223.962 113.371 222.372 113.371C221.312 113.371 220.782 112.629 220.782 111.145C219.262 112.346 217.46 112.947 215.376 112.947C212.726 112.947 210.57 111.958 208.91 109.979C207.284 108 206.472 105.562 206.472 102.665C206.472 99.7677 207.055 97.0647 208.221 94.556C209.422 92.012 211.277 90.1923 213.786 89.097C215.34 88.4257 216.842 88.09 218.291 88.09C218.821 88.09 219.333 88.1253 219.828 88.196ZM220.093 95.457C219.845 94.6797 219.545 94.0967 219.192 93.708C218.838 93.284 218.45 93.0367 218.026 92.966C217.637 92.86 217.16 92.807 216.595 92.807C216.029 92.807 215.34 93.019 214.528 93.443C213.715 93.867 213.026 94.556 212.461 95.51C211.33 97.418 210.765 99.432 210.765 101.552C210.765 103.637 211.171 105.35 211.984 106.693C212.832 108 214.015 108.654 215.535 108.654C217.089 108.654 218.308 107.894 219.192 106.375C220.075 104.856 220.517 102.912 220.517 100.545C220.517 97.895 220.375 96.199 220.093 95.457Z" fill="#4D6990"/>
<path d="M0.921875 172.68C0.921875 170.813 2.08854 169.88 4.42188 169.88C5.49521 169.88 6.12521 170.533 6.31188 171.84V182.34C6.31188 184.3 6.33521 186.26 6.38188 188.22C7.31521 187.94 8.50521 187.8 9.95188 187.8C14.4785 187.8 17.9785 189.317 20.4519 192.35C22.9252 195.383 24.1619 199.187 24.1619 203.76C24.1619 208.333 22.6919 212.207 19.7519 215.38C16.8585 218.507 13.1252 220.07 8.55188 220.07C3.97854 220.07 1.69187 218.787 1.69187 216.22C1.69187 213.607 1.55187 207.027 1.27187 196.48C1.03854 185.887 0.921875 177.953 0.921875 172.68ZM15.0619 195.22C13.3819 193.913 11.6085 193.26 9.74188 193.26C8.71521 193.26 7.66521 193.447 6.59188 193.82C6.87187 197.647 7.01188 204.437 7.01188 214.19C7.80521 214.47 8.62188 214.61 9.46187 214.61C11.2819 214.61 13.1019 213.933 14.9219 212.58C17.6285 210.713 18.9819 207.867 18.9819 204.04C18.9819 200.167 17.6752 197.227 15.0619 195.22Z" fill="#4D6990"/>
<path d="M34.2495 175.76C35.0895 175.76 35.8829 176.157 36.6295 176.95C37.3762 177.743 37.7495 178.583 37.7495 179.47C37.7495 180.31 37.3295 181.173 36.4895 182.06C35.6962 182.947 34.8562 183.39 33.9695 183.39C33.0829 183.39 32.2662 183.017 31.5195 182.27C30.8195 181.523 30.4695 180.567 30.4695 179.4C30.4695 177.16 31.6829 175.947 34.1095 175.76C34.1562 175.76 34.2029 175.76 34.2495 175.76ZM37.1895 212.44L37.2595 217.34C37.2595 218.227 36.9095 218.973 36.2095 219.58C35.5095 220.14 34.7629 220.42 33.9695 220.42C32.8029 220.42 32.1962 219.837 32.1495 218.67C31.5429 203.783 31.2395 195.547 31.2395 193.96C31.2395 192.373 31.3095 190.437 31.4495 188.15C31.5429 187.31 32.0795 186.89 33.0595 186.89C35.5329 186.89 36.9329 187.893 37.2595 189.9C37.3995 190.927 37.4695 191.743 37.4695 192.35L37.1895 196.76V212.44Z" fill="#4D6990"/>
<path d="M65.3738 217.13C63.6938 219.09 61.5705 220.07 59.0038 220.07C56.4372 220.07 54.2205 219.277 52.3538 217.69C48.4338 214.657 46.4738 210.013 46.4738 203.76C46.4738 198.86 47.8272 194.94 50.5338 192C53.2405 189.013 56.5772 187.52 60.5438 187.52C64.5105 187.52 67.2172 188.873 68.6638 191.58C69.9238 193.96 70.5538 197.553 70.5538 202.36L70.4138 208.1C70.4138 210.807 70.5305 214.563 70.7638 219.37C71.0438 224.13 71.1838 227.723 71.1838 230.15C71.1838 234.163 70.1805 237.103 68.1738 238.97C66.2138 240.883 63.2038 241.84 59.1438 241.84C56.7172 241.84 54.2438 241.327 51.7238 240.3C49.2038 239.273 47.9438 238.083 47.9438 236.73C47.9438 235.75 48.2005 235.003 48.7138 234.49C49.2738 233.977 49.9038 233.72 50.6038 233.72C51.3038 233.72 52.8672 234.233 55.2938 235.26C57.7672 236.287 59.5405 236.8 60.6138 236.8C63.9738 236.8 65.6538 234.047 65.6538 228.54C65.6538 223.033 65.5605 219.23 65.3738 217.13ZM65.3038 202.36C65.3038 198.953 64.7905 196.573 63.7638 195.22C62.7838 193.82 61.2205 193.12 59.0738 193.12C56.9272 193.12 55.2005 194.1 53.8938 196.06C52.5872 198.02 51.9338 200.517 51.9338 203.55C51.9338 206.537 52.5405 208.917 53.7538 210.69C55.0138 212.463 56.9272 213.35 59.4938 213.35C62.0605 213.35 63.7172 212.253 64.4638 210.06C65.0238 208.287 65.3038 205.72 65.3038 202.36Z" fill="#4D6990"/>
<path d="M103.649 219.93C102.062 219.93 100.592 219.393 99.2385 218.32C99.2385 218.32 98.9352 218.063 98.3285 217.55V238.55C98.0485 239.483 97.5585 240.253 96.8585 240.86C96.1585 241.513 95.4118 241.84 94.6185 241.84C93.4052 241.84 92.7985 241.023 92.7985 239.39V190.6C93.0785 189.387 93.4052 188.523 93.7785 188.01C94.1985 187.497 94.8285 187.24 95.6685 187.24C96.5552 187.24 97.1152 187.45 97.3485 187.87C97.6285 188.243 97.9552 189.317 98.3285 191.09C98.5152 190.157 99.2618 189.293 100.569 188.5C101.875 187.707 103.625 187.31 105.819 187.31C110.579 187.31 113.962 189.037 115.969 192.49C117.975 195.943 118.979 200.027 118.979 204.74C118.979 209.407 117.602 213.117 114.849 215.87C112.142 218.577 108.409 219.93 103.649 219.93ZM98.3285 198.93V211.95C98.6085 212.09 98.9352 212.323 99.3085 212.65C100.662 213.863 102.132 214.47 103.719 214.47C110.159 214.47 113.379 211.157 113.379 204.53C113.379 198.883 111.932 195.313 109.039 193.82C107.825 193.167 106.332 192.84 104.559 192.84C102.832 193.073 101.362 193.843 100.149 195.15C98.9352 196.41 98.3285 197.67 98.3285 198.93Z" fill="#4D6990"/>
<path d="M142.06 187.31C144.113 187.31 145.14 189.06 145.14 192.56C145.14 192.933 145.14 193.33 145.14 193.75L145 198.65C144.953 200.19 144.93 201.707 144.93 203.2L145.98 219.02C145.98 220.187 144.79 220.77 142.41 220.77C142.27 220.77 141.92 220.77 141.36 220.77C140.847 220.77 140.473 220.56 140.24 220.14C140.053 219.72 140.03 219.207 140.17 218.6C140.357 217.993 140.31 217.317 140.03 216.57C137.883 218.857 135.037 220 131.49 220C124.91 220 121.62 214.913 121.62 204.74C121.62 199.093 122.67 194.823 124.77 191.93C126.917 189.037 129.973 187.59 133.94 187.59C135.807 187.59 137.673 187.917 139.54 188.57C140.147 187.73 140.987 187.31 142.06 187.31ZM134.78 193.68C132.12 193.68 130.137 194.45 128.83 195.99C127.523 197.53 126.87 200.353 126.87 204.46C126.87 211.367 128.737 214.82 132.47 214.82C133.45 214.82 134.523 214.377 135.69 213.49C136.903 212.603 137.743 211.6 138.21 210.48C139.097 207.96 139.54 205.207 139.54 202.22C139.54 199.233 139.167 197.063 138.42 195.71C137.72 194.357 136.507 193.68 134.78 193.68Z" fill="#4D6990"/>
<path d="M158.972 209.78L159.042 216.99C159.042 217.83 158.645 218.6 157.852 219.3C157.105 220 156.359 220.35 155.612 220.35C154.539 220.35 153.862 219.51 153.582 217.83C153.535 217.457 153.349 214.05 153.022 207.61C152.695 201.123 152.065 196.037 151.132 192.35C150.712 190.577 150.502 189.527 150.502 189.2C150.502 187.66 151.435 186.89 153.302 186.89C154.095 186.89 154.725 187.193 155.192 187.8C155.659 188.407 155.939 189.037 156.032 189.69C156.172 190.297 156.289 191.137 156.382 192.21C156.475 193.283 156.545 193.96 156.592 194.24C157.572 191.907 159.042 190.157 161.002 188.99C162.962 187.823 165.109 187.24 167.442 187.24C171.269 187.24 173.182 188.22 173.182 190.18C173.182 191.16 172.832 191.953 172.132 192.56C171.479 193.12 170.709 193.4 169.822 193.4C165.855 193.4 163.055 194.66 161.422 197.18C159.789 199.7 158.972 203.9 158.972 209.78Z" fill="#4D6990"/>
<path d="M178.626 187.31L182.126 187.38C182.919 187.38 183.362 187.357 183.456 187.31V172.96C183.502 172.167 183.899 171.49 184.646 170.93C185.392 170.37 186.092 170.09 186.746 170.09C187.399 170.09 187.912 170.3 188.286 170.72C188.706 171.14 188.892 171.793 188.846 172.68C188.799 173.567 188.776 178.42 188.776 187.24L196.966 186.96C198.366 186.96 199.066 187.777 199.066 189.41C199.066 190.623 198.692 191.533 197.946 192.14C197.246 192.747 196.476 193.073 195.636 193.12C194.842 193.167 194.049 193.19 193.256 193.19L188.986 193.12C188.986 195.033 189.172 198.813 189.546 204.46C189.966 210.107 190.292 213.77 190.526 215.45C190.759 217.083 190.806 218.157 190.666 218.67C190.526 219.137 190.269 219.463 189.896 219.65C189.289 219.93 188.472 220.07 187.446 220.07C186.419 220.07 185.812 219.51 185.626 218.39C184.692 212.277 184.062 203.877 183.736 193.19C183.316 193.237 181.706 193.26 178.906 193.26C176.106 193.26 174.706 192.443 174.706 190.81C174.706 188.477 176.012 187.31 178.626 187.31Z" fill="#4D6990"/>
<path d="M223.268 187.66C223.875 187.66 224.458 187.87 225.018 188.29C225.625 188.71 225.928 189.177 225.928 189.69C225.928 191.043 223.945 198.37 219.978 211.67C216.011 224.97 213.071 234.303 211.158 239.67C210.738 240.93 210.085 241.56 209.198 241.56C208.311 241.56 207.611 241.233 207.098 240.58C206.585 239.973 206.328 239.063 206.328 237.85C206.328 236.637 207.098 233.72 208.638 229.1C210.225 224.527 211.181 221.61 211.508 220.35C210.341 218.39 206.398 208.59 199.678 190.95C199.585 190.717 199.538 190.413 199.538 190.04C199.538 189.667 199.818 189.177 200.378 188.57C200.938 187.963 201.708 187.66 202.688 187.66C203.668 187.66 204.461 188.15 205.068 189.13C205.721 190.81 206.795 193.75 208.288 197.95C209.781 202.103 210.925 205.113 211.718 206.98C212.558 208.847 213.351 210.783 214.098 212.79C214.751 210.597 215.871 206.35 217.458 200.05C219.045 193.703 219.955 190.087 220.188 189.2C220.375 188.173 221.401 187.66 223.268 187.66Z" fill="#4D6990"/>
</svg>
