<svg width="268" height="295" viewBox="0 0 268 295" fill="none" xmlns="http://www.w3.org/2000/svg">
<path d="M15.5018 87.2138C13.5679 85.7583 11.6539 84.2852 9.75195 82.7908" stroke="#F2CB43" stroke-width="3" stroke-linecap="round" stroke-linejoin="round"/>
<path d="M11.9635 100.925C8.71996 100.925 5.47644 100.925 2.23291 100.925" stroke="#F2CB43" stroke-width="3" stroke-linecap="round" stroke-linejoin="round"/>
<path d="M12.8484 115.963C10.9496 117.804 8.59367 119.639 6.21387 120.828" stroke="#F2CB43" stroke-width="3" stroke-linecap="round" stroke-linejoin="round"/>
<path d="M253 85.2138C254.934 83.7583 256.848 82.2852 258.75 80.7908" stroke="#F2CB43" stroke-width="3" stroke-linecap="round" stroke-linejoin="round"/>
<path d="M256.538 98.925C259.782 98.925 263.026 98.925 266.269 98.925" stroke="#F2CB43" stroke-width="3" stroke-linecap="round" stroke-linejoin="round"/>
<path d="M255.654 113.963C257.552 115.804 259.908 117.639 262.288 118.828" stroke="#F2CB43" stroke-width="3" stroke-linecap="round" stroke-linejoin="round"/>
<path d="M16.3867 192.039C16.4499 188.373 16.5939 188.058 19.704 188.058C20.6497 188.058 21.1759 185.74 21.6943 184.962" stroke="#867EB8" stroke-width="3" stroke-linecap="round" stroke-linejoin="round"/>
<path d="M139 189.077C139.063 185.411 139.207 185.096 142.317 185.096C143.263 185.096 143.789 182.778 144.308 182" stroke="#867EB8" stroke-width="3" stroke-linecap="round" stroke-linejoin="round"/>
<path d="M61 215.077C61.0632 211.411 61.2072 211.096 64.3172 211.096C65.2629 211.096 65.7891 208.778 66.3076 208" stroke="#867EB8" stroke-width="3" stroke-linecap="round" stroke-linejoin="round"/>
<path d="M216 218.077C216.063 214.411 216.207 214.096 219.317 214.096C220.263 214.096 220.789 211.778 221.308 211" stroke="#43B0D6" stroke-width="3" stroke-linecap="round" stroke-linejoin="round"/>
<path d="M170.695 184.856C169.241 181.491 169.242 181.144 172.076 179.862C172.937 179.472 172.46 177.143 172.612 176.22" stroke="#F2CB43" stroke-width="3" stroke-linecap="round" stroke-linejoin="round"/>
<path d="M134.549 219.89C138.107 219.003 138.448 219.061 139.253 222.065C139.497 222.978 141.873 222.887 142.758 223.187" stroke="#ED544E" stroke-width="3" stroke-linecap="round" stroke-linejoin="round"/>
<path d="M94.6733 188.5C94.6733 190.607 94.231 192.614 94.231 194.692" stroke="#F2CB43" stroke-width="3" stroke-linecap="round" stroke-linejoin="round"/>
<path d="M199.442 209C199.442 211.106 199 213.113 199 215.192" stroke="#F2CB43" stroke-width="3" stroke-linecap="round" stroke-linejoin="round"/>
<path d="M235.442 173C235.442 175.106 235 177.113 235 179.192" stroke="#ED544E" stroke-width="3" stroke-linecap="round" stroke-linejoin="round"/>
<path d="M171.168 210.121C169.22 210.924 167.196 211.279 165.274 212.071" stroke="#ED544E" stroke-width="3" stroke-linecap="round" stroke-linejoin="round"/>
<path d="M38.1965 209.98C36.1398 209.526 34.2756 208.661 32.2457 208.212" stroke="#ED544E" stroke-width="3" stroke-linecap="round" stroke-linejoin="round"/>
<path d="M236.056 200.979C235.992 204.645 235.848 204.959 232.738 204.959C231.793 204.959 231.267 207.278 230.748 208.055" stroke="#867EB8" stroke-width="3" stroke-linecap="round" stroke-linejoin="round"/>
<path d="M113.442 203.94C113.379 207.606 113.235 207.921 110.125 207.921C109.179 207.921 108.653 210.24 108.135 211.017" stroke="#43B0D6" stroke-width="3" stroke-linecap="round" stroke-linejoin="round"/>
<path d="M191.442 177.94C191.379 181.606 191.235 181.921 188.125 181.921C187.179 181.921 186.653 184.24 186.135 185.017" stroke="#ED544E" stroke-width="3" stroke-linecap="round" stroke-linejoin="round"/>
<path d="M36.4424 174.94C36.3792 178.606 36.2352 178.921 33.1251 178.921C32.1794 178.921 31.6532 181.24 31.1348 182.017" stroke="#43B0D6" stroke-width="3" stroke-linecap="round" stroke-linejoin="round"/>
<path d="M78.7469 208.161C80.2013 211.527 80.1999 211.873 77.3667 213.155C76.5051 213.545 76.9819 215.874 76.8303 216.797" stroke="#ED544E" stroke-width="3" stroke-linecap="round" stroke-linejoin="round"/>
<path d="M117.893 173.127C114.336 174.014 113.994 173.957 113.19 170.952C112.945 170.039 110.569 170.13 109.684 169.831" stroke="#ED544E" stroke-width="3" stroke-linecap="round" stroke-linejoin="round"/>
<path d="M186.003 210.037C187.463 211.554 188.536 213.307 189.978 214.805" stroke="#43B0D6" stroke-width="3" stroke-linecap="round" stroke-linejoin="round"/>
<path d="M64.0001 184.017C64.0001 181.911 64.4424 179.904 64.4424 177.825" stroke="#ED544E" stroke-width="3" stroke-linecap="round" stroke-linejoin="round"/>
<path d="M17.0001 220.017C17.0001 217.911 17.4424 215.904 17.4424 213.825" stroke="#F2CB43" stroke-width="3" stroke-linecap="round" stroke-linejoin="round"/>
<path d="M81.2744 182.896C83.2221 182.094 85.2462 181.738 87.1684 180.946" stroke="#867EB8" stroke-width="3" stroke-linecap="round" stroke-linejoin="round"/>
<path d="M214.246 183.037C216.303 183.492 218.167 184.357 220.197 184.805" stroke="#867EB8" stroke-width="3" stroke-linecap="round" stroke-linejoin="round"/>
<path d="M29.029 58.978C28.5304 58.978 28.0464 58.01 27.577 56.074C27.1224 54.1233 26.895 51.938 26.895 49.518C26.895 49.2687 26.9977 49.078 27.203 48.946C27.423 48.7993 27.621 48.726 27.797 48.726C27.973 48.726 28.1124 48.7847 28.215 48.902C28.3324 49.0047 28.391 49.144 28.391 49.32C28.391 51.608 28.7797 53.808 29.557 55.92C29.6744 55.744 29.8577 55.392 30.107 54.864C30.3564 54.3213 30.591 53.9253 30.811 53.676C31.031 53.4267 31.295 53.302 31.603 53.302C31.911 53.302 32.2337 53.5293 32.571 53.984C32.9084 54.4387 33.1944 54.93 33.429 55.458C33.6784 55.9713 33.8177 56.2427 33.847 56.272C34.243 55.04 34.441 53.896 34.441 52.84L34.309 49.496C34.2944 49.276 34.397 49.0927 34.617 48.946C34.837 48.7847 35.0497 48.704 35.255 48.704C35.6804 48.704 35.893 49.5327 35.893 51.19V52.4C35.893 54.3653 35.5924 56.118 34.991 57.658C34.6684 58.538 34.265 58.978 33.781 58.978C33.5024 58.978 33.2457 58.802 33.011 58.45C32.7764 58.0833 32.5124 57.57 32.219 56.91C31.9257 56.25 31.6984 55.7953 31.537 55.546L30.877 56.844C30.6277 57.3573 30.437 57.7313 30.305 57.966C30.173 58.186 29.9897 58.4133 29.755 58.648C29.5204 58.868 29.2784 58.978 29.029 58.978Z" fill="#4D6990"/>
<path d="M40.5546 48.814C41.3319 48.814 42.0726 49.0413 42.7766 49.496C43.4806 49.9507 43.8326 50.5153 43.8326 51.19C43.8326 51.85 43.5466 52.4953 42.9746 53.126C42.4026 53.742 41.6399 54.116 40.6866 54.248C40.2759 54.3067 39.6599 54.336 38.8386 54.336C38.9999 55.5827 39.3153 56.404 39.7846 56.8C39.9313 56.9613 40.1293 57.042 40.3786 57.042C41.2879 57.042 42.0506 56.756 42.6666 56.184C43.2826 55.5973 43.7226 55.304 43.9866 55.304C44.1039 55.304 44.2799 55.414 44.5146 55.634C44.7493 55.854 44.8666 56.0593 44.8666 56.25C44.8666 56.6313 44.4046 57.1813 43.4806 57.9C43.0699 58.2373 42.5713 58.5233 41.9846 58.758C41.4126 58.978 40.8773 59.088 40.3786 59.088C39.1026 59.088 38.1639 58.2667 37.5626 56.624C37.1813 55.612 36.9906 54.4973 36.9906 53.28C36.9906 52.0627 37.2766 51.014 37.8486 50.134C38.4206 49.254 39.3226 48.814 40.5546 48.814ZM40.6646 50.332C40.1073 50.332 39.6306 50.6473 39.2346 51.278C39.0879 51.498 38.9486 51.9967 38.8166 52.774C40.8699 52.774 41.8966 52.268 41.8966 51.256C41.8966 50.64 41.4859 50.332 40.6646 50.332Z" fill="#4D6990"/>
<path d="M46.9882 58.318L46.7462 49.386C46.7462 49.1073 46.8416 48.88 47.0322 48.704C47.2229 48.528 47.4136 48.44 47.6042 48.44C48.0736 48.44 48.3449 48.638 48.4182 49.034C48.4769 49.43 48.5062 49.8407 48.5062 50.266C49.2982 49.2247 50.2882 48.704 51.4762 48.704C53.2949 48.704 54.2042 50.7793 54.2042 54.93C54.2042 55.3113 54.2042 55.8907 54.2042 56.668C54.2042 57.4307 54.1602 57.988 54.0722 58.34C53.9696 58.78 53.6542 59 53.1262 59C52.7742 59 52.5982 58.7653 52.5982 58.296L52.6202 57.064C52.6202 55.3627 52.5616 54.204 52.4442 53.588C52.3416 52.9573 52.2389 52.4587 52.1362 52.092C51.8869 51.3 51.4836 50.904 50.9262 50.904C50.1929 50.904 49.6796 51.168 49.3862 51.696C49.0636 52.268 48.8729 52.9427 48.8142 53.72C48.7116 55.084 48.6602 56.5287 48.6602 58.054C48.6602 58.3473 48.5502 58.582 48.3302 58.758C48.1102 58.934 47.8462 59.022 47.5382 59.022C47.1716 59.022 46.9882 58.7873 46.9882 58.318Z" fill="#4D6990"/>
<path d="M56.6495 48.726L57.7495 48.748C57.9988 48.748 58.1382 48.7407 58.1675 48.726V44.216C58.1822 43.9667 58.3068 43.754 58.5415 43.578C58.7762 43.402 58.9962 43.314 59.2015 43.314C59.4068 43.314 59.5682 43.38 59.6855 43.512C59.8175 43.644 59.8762 43.8493 59.8615 44.128C59.8468 44.4067 59.8395 45.932 59.8395 48.704L62.4135 48.616C62.8535 48.616 63.0735 48.8727 63.0735 49.386C63.0735 49.7673 62.9562 50.0533 62.7215 50.244C62.5015 50.4347 62.2595 50.5373 61.9955 50.552C61.7462 50.5667 61.4968 50.574 61.2475 50.574L59.9055 50.552C59.9055 51.1533 59.9642 52.3413 60.0815 54.116C60.2135 55.8907 60.3162 57.042 60.3895 57.57C60.4628 58.0833 60.4775 58.4207 60.4335 58.582C60.3895 58.7287 60.3088 58.8313 60.1915 58.89C60.0008 58.978 59.7442 59.022 59.4215 59.022C59.0988 59.022 58.9082 58.846 58.8495 58.494C58.5562 56.5727 58.3582 53.9327 58.2555 50.574C58.1235 50.5887 57.6175 50.596 56.7375 50.596C55.8575 50.596 55.4175 50.3393 55.4175 49.826C55.4175 49.0927 55.8282 48.726 56.6495 48.726Z" fill="#4D6990"/>
<path d="M69.2823 48.726L70.3823 48.748C70.6316 48.748 70.771 48.7407 70.8003 48.726V44.216C70.815 43.9667 70.9396 43.754 71.1743 43.578C71.409 43.402 71.629 43.314 71.8343 43.314C72.0396 43.314 72.201 43.38 72.3183 43.512C72.4503 43.644 72.509 43.8493 72.4943 44.128C72.4796 44.4067 72.4723 45.932 72.4723 48.704L75.0463 48.616C75.4863 48.616 75.7063 48.8727 75.7063 49.386C75.7063 49.7673 75.589 50.0533 75.3543 50.244C75.1343 50.4347 74.8923 50.5373 74.6283 50.552C74.379 50.5667 74.1297 50.574 73.8803 50.574L72.5383 50.552C72.5383 51.1533 72.597 52.3413 72.7143 54.116C72.8463 55.8907 72.949 57.042 73.0223 57.57C73.0956 58.0833 73.1103 58.4207 73.0663 58.582C73.0223 58.7287 72.9417 58.8313 72.8243 58.89C72.6337 58.978 72.377 59.022 72.0543 59.022C71.7317 59.022 71.541 58.846 71.4823 58.494C71.189 56.5727 70.991 53.9327 70.8883 50.574C70.7563 50.5887 70.2503 50.596 69.3703 50.596C68.4903 50.596 68.0503 50.3393 68.0503 49.826C68.0503 49.0927 68.461 48.726 69.2823 48.726Z" fill="#4D6990"/>
<path d="M80.1888 48.748C81.2448 48.748 82.1102 49.254 82.7848 50.266C83.4742 51.278 83.8188 52.4953 83.8188 53.918C83.8188 55.326 83.4668 56.5287 82.7628 57.526C82.0735 58.5233 81.1495 59.022 79.9908 59.022C78.8468 59.022 77.9228 58.516 77.2188 57.504C76.5148 56.4773 76.1628 55.3407 76.1628 54.094C76.1628 52.4953 76.4855 51.2193 77.1308 50.266C77.8202 49.254 78.8395 48.748 80.1888 48.748ZM79.9248 50.552C79.3088 50.552 78.8028 50.8747 78.4068 51.52C78.0108 52.1653 77.8128 52.8473 77.8128 53.566C77.8128 54.6807 78.0328 55.5313 78.4728 56.118C78.9128 56.7047 79.4115 56.998 79.9688 56.998C80.9662 56.998 81.6041 56.5653 81.8828 55.7C82.0001 55.2893 82.0588 54.776 82.0588 54.16C82.0588 51.7547 81.3475 50.552 79.9248 50.552Z" fill="#4D6990"/>
<path d="M90.7882 48.726L91.8882 48.748C92.1375 48.748 92.2768 48.7407 92.3062 48.726V44.216C92.3208 43.9667 92.4455 43.754 92.6802 43.578C92.9148 43.402 93.1348 43.314 93.3402 43.314C93.5455 43.314 93.7068 43.38 93.8242 43.512C93.9562 43.644 94.0148 43.8493 94.0002 44.128C93.9855 44.4067 93.9782 45.932 93.9782 48.704L96.5522 48.616C96.9922 48.616 97.2122 48.8727 97.2122 49.386C97.2122 49.7673 97.0948 50.0533 96.8602 50.244C96.6402 50.4347 96.3982 50.5373 96.1342 50.552C95.8848 50.5667 95.6355 50.574 95.3862 50.574L94.0442 50.552C94.0442 51.1533 94.1028 52.3413 94.2202 54.116C94.3522 55.8907 94.4548 57.042 94.5282 57.57C94.6015 58.0833 94.6162 58.4207 94.5722 58.582C94.5282 58.7287 94.4475 58.8313 94.3302 58.89C94.1395 58.978 93.8828 59.022 93.5602 59.022C93.2375 59.022 93.0468 58.846 92.9882 58.494C92.6948 56.5727 92.4968 53.9327 92.3942 50.574C92.2622 50.5887 91.7562 50.596 90.8762 50.596C89.9962 50.596 89.5562 50.3393 89.5562 49.826C89.5562 49.0927 89.9668 48.726 90.7882 48.726Z" fill="#4D6990"/>
<path d="M100.155 51.872L100.331 57.064C100.331 57.7093 100.301 58.0833 100.243 58.186C100.213 58.45 100.125 58.6553 99.9787 58.802C99.8467 58.9487 99.5827 59.022 99.1867 59.022C98.996 59.022 98.842 58.9047 98.7247 58.67C98.6073 58.4207 98.5413 58.142 98.5267 57.834C98.424 55.2527 98.2847 52.8327 98.1087 50.574C97.9473 48.3007 97.8667 46.1887 97.8667 44.238C97.8667 43.93 97.9693 43.688 98.1747 43.512C98.38 43.336 98.622 43.248 98.9007 43.248C99.3113 43.248 99.5533 43.6 99.6267 44.304C99.7147 45.008 99.766 45.888 99.7807 46.944C99.81 48 99.8393 48.77 99.8687 49.254C100.602 48.8727 101.335 48.682 102.069 48.682C103.77 48.682 104.848 49.43 105.303 50.926C105.567 51.7767 105.699 52.8693 105.699 54.204C105.699 54.644 105.655 55.3407 105.567 56.294C105.493 57.2327 105.449 57.8413 105.435 58.12C105.42 58.3987 105.295 58.6187 105.061 58.78C104.841 58.9267 104.599 59 104.335 59C103.924 59 103.719 58.78 103.719 58.34L103.873 54.512C103.873 54.1893 103.858 53.654 103.829 52.906C103.799 52.158 103.645 51.564 103.367 51.124C103.103 50.684 102.633 50.464 101.959 50.464C100.756 50.464 100.155 50.9333 100.155 51.872Z" fill="#4D6990"/>
<path d="M110.207 48.814C110.984 48.814 111.725 49.0413 112.429 49.496C113.133 49.9507 113.485 50.5153 113.485 51.19C113.485 51.85 113.199 52.4953 112.627 53.126C112.055 53.742 111.292 54.116 110.339 54.248C109.928 54.3067 109.312 54.336 108.491 54.336C108.652 55.5827 108.968 56.404 109.437 56.8C109.584 56.9613 109.782 57.042 110.031 57.042C110.94 57.042 111.703 56.756 112.319 56.184C112.935 55.5973 113.375 55.304 113.639 55.304C113.756 55.304 113.932 55.414 114.167 55.634C114.402 55.854 114.519 56.0593 114.519 56.25C114.519 56.6313 114.057 57.1813 113.133 57.9C112.722 58.2373 112.224 58.5233 111.637 58.758C111.065 58.978 110.53 59.088 110.031 59.088C108.755 59.088 107.816 58.2667 107.215 56.624C106.834 55.612 106.643 54.4973 106.643 53.28C106.643 52.0627 106.929 51.014 107.501 50.134C108.073 49.254 108.975 48.814 110.207 48.814ZM110.317 50.332C109.76 50.332 109.283 50.6473 108.887 51.278C108.74 51.498 108.601 51.9967 108.469 52.774C110.522 52.774 111.549 52.268 111.549 51.256C111.549 50.64 111.138 50.332 110.317 50.332Z" fill="#4D6990"/>
<path d="M120.567 53.852C120.567 52.8693 120.824 51.9747 121.337 51.168C121.865 50.3613 122.532 49.76 123.339 49.364C124.146 48.9533 124.93 48.748 125.693 48.748C126.456 48.748 127.064 48.8433 127.519 49.034C127.988 49.21 128.223 49.452 128.223 49.76C128.223 50.0533 128.135 50.354 127.959 50.662C127.798 50.9553 127.578 51.102 127.299 51.102C127.196 51.102 126.91 51.0213 126.441 50.86C125.986 50.684 125.693 50.596 125.561 50.596C124.71 50.596 123.984 50.9113 123.383 51.542C122.782 52.158 122.481 52.9793 122.481 54.006C122.481 55.0327 122.642 55.8027 122.965 56.316C123.302 56.8147 123.874 57.064 124.681 57.064C125.004 57.064 125.554 56.8807 126.331 56.514C127.123 56.1327 127.614 55.942 127.805 55.942C127.996 55.942 128.15 56.0007 128.267 56.118C128.384 56.2353 128.443 56.382 128.443 56.558C128.443 56.91 128.216 57.284 127.761 57.68C127.321 58.0613 126.771 58.384 126.111 58.648C125.451 58.8973 124.857 59.022 124.329 59.022C123.156 59.022 122.232 58.56 121.557 57.636C120.897 56.712 120.567 55.4507 120.567 53.852Z" fill="#4D6990"/>
<path d="M133.298 48.748C134.354 48.748 135.22 49.254 135.894 50.266C136.584 51.278 136.928 52.4953 136.928 53.918C136.928 55.326 136.576 56.5287 135.872 57.526C135.183 58.5233 134.259 59.022 133.1 59.022C131.956 59.022 131.032 58.516 130.328 57.504C129.624 56.4773 129.272 55.3407 129.272 54.094C129.272 52.4953 129.595 51.2193 130.24 50.266C130.93 49.254 131.949 48.748 133.298 48.748ZM133.034 50.552C132.418 50.552 131.912 50.8747 131.516 51.52C131.12 52.1653 130.922 52.8473 130.922 53.566C130.922 54.6807 131.142 55.5313 131.582 56.118C132.022 56.7047 132.521 56.998 133.078 56.998C134.076 56.998 134.714 56.5653 134.992 55.7C135.11 55.2893 135.168 54.776 135.168 54.16C135.168 51.7547 134.457 50.552 133.034 50.552Z" fill="#4D6990"/>
<path d="M138.233 49.584C138.292 49.3347 138.417 49.1293 138.607 48.968C138.798 48.792 138.989 48.704 139.179 48.704C139.385 48.704 139.539 48.7407 139.641 48.814C139.759 48.8873 139.825 48.9533 139.839 49.012C139.869 49.0707 139.898 49.1733 139.927 49.32C139.839 50.464 139.795 51.498 139.795 52.422C139.795 53.3313 139.905 54.38 140.125 55.568C140.345 56.7413 140.587 57.328 140.851 57.328C141.247 57.328 141.746 57.108 142.347 56.668C142.963 56.228 143.403 55.766 143.667 55.282C143.491 53.17 143.403 51.3587 143.403 49.848C143.403 49.54 143.499 49.276 143.689 49.056C143.895 48.836 144.137 48.726 144.415 48.726C144.87 48.726 145.097 49.034 145.097 49.65C145.097 50.6913 145.171 52.2387 145.317 54.292C145.479 56.3453 145.64 57.6507 145.801 58.208C145.831 58.3253 145.845 58.4647 145.845 58.626C145.845 58.7727 145.743 58.912 145.537 59.044C145.347 59.1907 145.09 59.264 144.767 59.264C144.459 59.264 144.254 59.088 144.151 58.736C144.122 58.4427 144.049 58.0027 143.931 57.416C142.905 58.4867 141.871 59.022 140.829 59.022C140.345 59.022 139.913 58.8387 139.531 58.472C139.15 58.1053 138.849 57.6067 138.629 56.976C138.248 55.7587 138.057 54.6147 138.057 53.544C138.057 52.4733 138.116 51.1533 138.233 49.584Z" fill="#4D6990"/>
<path d="M149.924 55.788L149.946 58.054C149.946 58.318 149.821 58.56 149.572 58.78C149.337 59 149.103 59.11 148.868 59.11C148.531 59.11 148.318 58.846 148.23 58.318C148.215 58.2007 148.156 57.13 148.054 55.106C147.951 53.0673 147.753 51.4687 147.46 50.31C147.328 49.7527 147.262 49.4227 147.262 49.32C147.262 48.836 147.555 48.594 148.142 48.594C148.391 48.594 148.589 48.6893 148.736 48.88C148.882 49.0707 148.97 49.2687 149 49.474C149.044 49.6647 149.08 49.9287 149.11 50.266C149.139 50.6033 149.161 50.816 149.176 50.904C149.484 50.1707 149.946 49.6207 150.562 49.254C151.178 48.8873 151.852 48.704 152.586 48.704C153.788 48.704 154.39 49.012 154.39 49.628C154.39 49.936 154.28 50.1853 154.06 50.376C153.854 50.552 153.612 50.64 153.334 50.64C152.087 50.64 151.207 51.036 150.694 51.828C150.18 52.62 149.924 53.94 149.924 55.788Z" fill="#4D6990"/>
<path d="M156.101 48.726L157.201 48.748C157.45 48.748 157.589 48.7407 157.619 48.726V44.216C157.633 43.9667 157.758 43.754 157.993 43.578C158.227 43.402 158.447 43.314 158.653 43.314C158.858 43.314 159.019 43.38 159.137 43.512C159.269 43.644 159.327 43.8493 159.313 44.128C159.298 44.4067 159.291 45.932 159.291 48.704L161.865 48.616C162.305 48.616 162.525 48.8727 162.525 49.386C162.525 49.7673 162.407 50.0533 162.173 50.244C161.953 50.4347 161.711 50.5373 161.447 50.552C161.197 50.5667 160.948 50.574 160.699 50.574L159.357 50.552C159.357 51.1533 159.415 52.3413 159.533 54.116C159.665 55.8907 159.767 57.042 159.841 57.57C159.914 58.0833 159.929 58.4207 159.885 58.582C159.841 58.7287 159.76 58.8313 159.643 58.89C159.452 58.978 159.195 59.022 158.873 59.022C158.55 59.022 158.359 58.846 158.301 58.494C158.007 56.5727 157.809 53.9327 157.707 50.574C157.575 50.5887 157.069 50.596 156.189 50.596C155.309 50.596 154.869 50.3393 154.869 49.826C154.869 49.0927 155.279 48.726 156.101 48.726Z" fill="#4D6990"/>
<path d="M165.467 51.872L165.643 57.064C165.643 57.7093 165.614 58.0833 165.555 58.186C165.526 58.45 165.438 58.6553 165.291 58.802C165.159 58.9487 164.895 59.022 164.499 59.022C164.309 59.022 164.155 58.9047 164.037 58.67C163.92 58.4207 163.854 58.142 163.839 57.834C163.737 55.2527 163.597 52.8327 163.421 50.574C163.26 48.3007 163.179 46.1887 163.179 44.238C163.179 43.93 163.282 43.688 163.487 43.512C163.693 43.336 163.935 43.248 164.213 43.248C164.624 43.248 164.866 43.6 164.939 44.304C165.027 45.008 165.079 45.888 165.093 46.944C165.123 48 165.152 48.77 165.181 49.254C165.915 48.8727 166.648 48.682 167.381 48.682C169.083 48.682 170.161 49.43 170.615 50.926C170.879 51.7767 171.011 52.8693 171.011 54.204C171.011 54.644 170.967 55.3407 170.879 56.294C170.806 57.2327 170.762 57.8413 170.747 58.12C170.733 58.3987 170.608 58.6187 170.373 58.78C170.153 58.9267 169.911 59 169.647 59C169.237 59 169.031 58.78 169.031 58.34L169.185 54.512C169.185 54.1893 169.171 53.654 169.141 52.906C169.112 52.158 168.958 51.564 168.679 51.124C168.415 50.684 167.946 50.464 167.271 50.464C166.069 50.464 165.467 50.9333 165.467 51.872Z" fill="#4D6990"/>
<path d="M176.245 48.748C177.301 48.748 178.167 49.254 178.841 50.266C179.531 51.278 179.875 52.4953 179.875 53.918C179.875 55.326 179.523 56.5287 178.819 57.526C178.13 58.5233 177.206 59.022 176.047 59.022C174.903 59.022 173.979 58.516 173.275 57.504C172.571 56.4773 172.219 55.3407 172.219 54.094C172.219 52.4953 172.542 51.2193 173.187 50.266C173.877 49.254 174.896 48.748 176.245 48.748ZM175.981 50.552C175.365 50.552 174.859 50.8747 174.463 51.52C174.067 52.1653 173.869 52.8473 173.869 53.566C173.869 54.6807 174.089 55.5313 174.529 56.118C174.969 56.7047 175.468 56.998 176.025 56.998C177.023 56.998 177.661 56.5653 177.939 55.7C178.057 55.2893 178.115 54.776 178.115 54.16C178.115 51.7547 177.404 50.552 175.981 50.552Z" fill="#4D6990"/>
<path d="M181.181 49.584C181.239 49.3347 181.364 49.1293 181.555 48.968C181.745 48.792 181.936 48.704 182.127 48.704C182.332 48.704 182.486 48.7407 182.589 48.814C182.706 48.8873 182.772 48.9533 182.786 49.012C182.816 49.0707 182.845 49.1733 182.875 49.32C182.787 50.464 182.743 51.498 182.743 52.422C182.743 53.3313 182.853 54.38 183.073 55.568C183.293 56.7413 183.535 57.328 183.799 57.328C184.195 57.328 184.693 57.108 185.295 56.668C185.911 56.228 186.351 55.766 186.615 55.282C186.439 53.17 186.351 51.3587 186.351 49.848C186.351 49.54 186.446 49.276 186.637 49.056C186.842 48.836 187.084 48.726 187.363 48.726C187.817 48.726 188.045 49.034 188.045 49.65C188.045 50.6913 188.118 52.2387 188.265 54.292C188.426 56.3453 188.587 57.6507 188.749 58.208C188.778 58.3253 188.793 58.4647 188.793 58.626C188.793 58.7727 188.69 58.912 188.485 59.044C188.294 59.1907 188.037 59.264 187.715 59.264C187.407 59.264 187.201 59.088 187.099 58.736C187.069 58.4427 186.996 58.0027 186.879 57.416C185.852 58.4867 184.818 59.022 183.777 59.022C183.293 59.022 182.86 58.8387 182.479 58.472C182.097 58.1053 181.797 57.6067 181.577 56.976C181.195 55.7587 181.005 54.6147 181.005 53.544C181.005 52.4733 181.063 51.1533 181.181 49.584Z" fill="#4D6990"/>
<path d="M190.407 51.52C190.407 50.6547 190.715 49.9653 191.331 49.452C191.947 48.9387 192.658 48.682 193.465 48.682C194.286 48.682 195.071 48.8287 195.819 49.122C196.567 49.4153 196.941 49.804 196.941 50.288C196.941 50.5373 196.846 50.7353 196.655 50.882C196.464 51.0287 196.296 51.102 196.149 51.102C196.017 51.102 195.907 51.102 195.819 51.102C195.746 51.0873 195.452 50.948 194.939 50.684C194.44 50.42 193.978 50.288 193.553 50.288C193.128 50.288 192.761 50.398 192.453 50.618C192.16 50.8233 192.013 51.1313 192.013 51.542C192.013 51.9527 192.182 52.2753 192.519 52.51C192.871 52.7447 193.48 52.95 194.345 53.126C195.21 53.2873 195.87 53.522 196.325 53.83C196.794 54.138 197.029 54.71 197.029 55.546C197.029 56.7633 196.706 57.6287 196.061 58.142C195.43 58.6407 194.66 58.89 193.751 58.89C192.842 58.89 192.064 58.7653 191.419 58.516C190.788 58.2667 190.473 57.8927 190.473 57.394C190.473 56.822 190.759 56.536 191.331 56.536C191.478 56.536 191.8 56.6387 192.299 56.844C192.798 57.0493 193.289 57.152 193.773 57.152C194.272 57.152 194.646 56.998 194.895 56.69C195.159 56.3673 195.291 56.0007 195.291 55.59C195.291 55.1793 195.122 54.886 194.785 54.71C194.448 54.5193 193.934 54.3653 193.245 54.248C192.556 54.1307 192.05 54.006 191.727 53.874C190.847 53.522 190.407 52.7373 190.407 51.52Z" fill="#4D6990"/>
<path d="M201.666 48.814C202.443 48.814 203.184 49.0413 203.888 49.496C204.592 49.9507 204.944 50.5153 204.944 51.19C204.944 51.85 204.658 52.4953 204.086 53.126C203.514 53.742 202.751 54.116 201.798 54.248C201.387 54.3067 200.771 54.336 199.95 54.336C200.111 55.5827 200.427 56.404 200.896 56.8C201.043 56.9613 201.241 57.042 201.49 57.042C202.399 57.042 203.162 56.756 203.778 56.184C204.394 55.5973 204.834 55.304 205.098 55.304C205.215 55.304 205.391 55.414 205.626 55.634C205.861 55.854 205.978 56.0593 205.978 56.25C205.978 56.6313 205.516 57.1813 204.592 57.9C204.181 58.2373 203.683 58.5233 203.096 58.758C202.524 58.978 201.989 59.088 201.49 59.088C200.214 59.088 199.275 58.2667 198.674 56.624C198.293 55.612 198.102 54.4973 198.102 53.28C198.102 52.0627 198.388 51.014 198.96 50.134C199.532 49.254 200.434 48.814 201.666 48.814ZM201.776 50.332C201.219 50.332 200.742 50.6473 200.346 51.278C200.199 51.498 200.06 51.9967 199.928 52.774C201.981 52.774 203.008 52.268 203.008 51.256C203.008 50.64 202.597 50.332 201.776 50.332Z" fill="#4D6990"/>
<path d="M218.472 48.726C219.117 48.726 219.44 49.276 219.44 50.376C219.44 50.4933 219.44 50.618 219.44 50.75L219.396 52.29C219.381 52.774 219.374 53.2507 219.374 53.72L219.704 58.692C219.704 59.0587 219.33 59.242 218.582 59.242C218.538 59.242 218.428 59.242 218.252 59.242C218.091 59.242 217.973 59.176 217.9 59.044C217.841 58.912 217.834 58.7507 217.878 58.56C217.937 58.3693 217.922 58.1567 217.834 57.922C217.159 58.6407 216.265 59 215.15 59C213.082 59 212.048 57.4013 212.048 54.204C212.048 52.4293 212.378 51.0873 213.038 50.178C213.713 49.2687 214.673 48.814 215.92 48.814C216.507 48.814 217.093 48.9167 217.68 49.122C217.871 48.858 218.135 48.726 218.472 48.726ZM216.184 50.728C215.348 50.728 214.725 50.97 214.314 51.454C213.903 51.938 213.698 52.8253 213.698 54.116C213.698 56.2867 214.285 57.372 215.458 57.372C215.766 57.372 216.103 57.2327 216.47 56.954C216.851 56.6753 217.115 56.36 217.262 56.008C217.541 55.216 217.68 54.3507 217.68 53.412C217.68 52.4733 217.563 51.7913 217.328 51.366C217.108 50.9407 216.727 50.728 216.184 50.728Z" fill="#4D6990"/>
<path d="M221.785 58.318L221.543 49.386C221.543 49.1073 221.638 48.88 221.829 48.704C222.02 48.528 222.21 48.44 222.401 48.44C222.87 48.44 223.142 48.638 223.215 49.034C223.274 49.43 223.303 49.8407 223.303 50.266C224.095 49.2247 225.085 48.704 226.273 48.704C228.092 48.704 229.001 50.7793 229.001 54.93C229.001 55.3113 229.001 55.8907 229.001 56.668C229.001 57.4307 228.957 57.988 228.869 58.34C228.766 58.78 228.451 59 227.923 59C227.571 59 227.395 58.7653 227.395 58.296L227.417 57.064C227.417 55.3627 227.358 54.204 227.241 53.588C227.138 52.9573 227.036 52.4587 226.933 52.092C226.684 51.3 226.28 50.904 225.723 50.904C224.99 50.904 224.476 51.168 224.183 51.696C223.86 52.268 223.67 52.9427 223.611 53.72C223.508 55.084 223.457 56.5287 223.457 58.054C223.457 58.3473 223.347 58.582 223.127 58.758C222.907 58.934 222.643 59.022 222.335 59.022C221.968 59.022 221.785 58.7873 221.785 58.318Z" fill="#4D6990"/>
<path d="M236.154 48.704L236.132 44.458C236.132 43.666 236.382 43.27 236.88 43.27C237.394 43.27 237.68 43.49 237.738 43.93C237.768 44.1207 237.804 45.272 237.848 47.384C237.892 49.496 237.958 51.476 238.046 53.324C238.149 55.172 238.2 56.8953 238.2 58.494C238.2 58.934 237.87 59.154 237.21 59.154C236.77 59.154 236.55 58.846 236.55 58.23C235.92 58.7287 235.172 58.978 234.306 58.978C233.206 58.978 232.312 58.5673 231.622 57.746C230.948 56.9247 230.61 55.9127 230.61 54.71C230.61 53.5073 230.852 52.3853 231.336 51.344C231.835 50.288 232.605 49.5327 233.646 49.078C234.292 48.7993 234.915 48.66 235.516 48.66C235.736 48.66 235.949 48.6747 236.154 48.704ZM236.264 51.718C236.162 51.3953 236.037 51.1533 235.89 50.992C235.744 50.816 235.582 50.7133 235.406 50.684C235.245 50.64 235.047 50.618 234.812 50.618C234.578 50.618 234.292 50.706 233.954 50.882C233.617 51.058 233.331 51.344 233.096 51.74C232.627 52.532 232.392 53.368 232.392 54.248C232.392 55.1133 232.561 55.8247 232.898 56.382C233.25 56.9247 233.742 57.196 234.372 57.196C235.018 57.196 235.524 56.8807 235.89 56.25C236.257 55.6193 236.44 54.8127 236.44 53.83C236.44 52.73 236.382 52.026 236.264 51.718Z" fill="#4D6990"/>
<path d="M33.9963 140.726C34.6416 140.726 34.9643 141.276 34.9643 142.376C34.9643 142.493 34.9643 142.618 34.9643 142.75L34.9203 144.29C34.9056 144.774 34.8983 145.251 34.8983 145.72L35.2283 150.692C35.2283 151.059 34.8543 151.242 34.1063 151.242C34.0623 151.242 33.9523 151.242 33.7763 151.242C33.6149 151.242 33.4976 151.176 33.4243 151.044C33.3656 150.912 33.3583 150.751 33.4023 150.56C33.4609 150.369 33.4463 150.157 33.3583 149.922C32.6836 150.641 31.7889 151 30.6743 151C28.6063 151 27.5723 149.401 27.5723 146.204C27.5723 144.429 27.9023 143.087 28.5623 142.178C29.2369 141.269 30.1976 140.814 31.4443 140.814C32.0309 140.814 32.6176 140.917 33.2043 141.122C33.3949 140.858 33.6589 140.726 33.9963 140.726ZM31.7083 142.728C30.8723 142.728 30.2489 142.97 29.8383 143.454C29.4276 143.938 29.2223 144.825 29.2223 146.116C29.2223 148.287 29.8089 149.372 30.9823 149.372C31.2903 149.372 31.6276 149.233 31.9943 148.954C32.3756 148.675 32.6396 148.36 32.7863 148.008C33.0649 147.216 33.2043 146.351 33.2043 145.412C33.2043 144.473 33.0869 143.791 32.8523 143.366C32.6323 142.941 32.2509 142.728 31.7083 142.728Z" fill="#4D6990"/>
<path d="M37.3095 150.318L37.0675 141.386C37.0675 141.107 37.1628 140.88 37.3535 140.704C37.5442 140.528 37.7348 140.44 37.9255 140.44C38.3948 140.44 38.6662 140.638 38.7395 141.034C38.7982 141.43 38.8275 141.841 38.8275 142.266C39.6195 141.225 40.6095 140.704 41.7975 140.704C43.6162 140.704 44.5255 142.779 44.5255 146.93C44.5255 147.311 44.5255 147.891 44.5255 148.668C44.5255 149.431 44.4815 149.988 44.3935 150.34C44.2908 150.78 43.9755 151 43.4475 151C43.0955 151 42.9195 150.765 42.9195 150.296L42.9415 149.064C42.9415 147.363 42.8828 146.204 42.7655 145.588C42.6628 144.957 42.5602 144.459 42.4575 144.092C42.2082 143.3 41.8048 142.904 41.2475 142.904C40.5142 142.904 40.0008 143.168 39.7075 143.696C39.3848 144.268 39.1942 144.943 39.1355 145.72C39.0328 147.084 38.9815 148.529 38.9815 150.054C38.9815 150.347 38.8715 150.582 38.6515 150.758C38.4315 150.934 38.1675 151.022 37.8595 151.022C37.4928 151.022 37.3095 150.787 37.3095 150.318Z" fill="#4D6990"/>
<path d="M51.6788 140.704L51.6568 136.458C51.6568 135.666 51.9061 135.27 52.4048 135.27C52.9181 135.27 53.2041 135.49 53.2628 135.93C53.2921 136.121 53.3288 137.272 53.3728 139.384C53.4168 141.496 53.4828 143.476 53.5708 145.324C53.6734 147.172 53.7248 148.895 53.7248 150.494C53.7248 150.934 53.3948 151.154 52.7348 151.154C52.2948 151.154 52.0748 150.846 52.0748 150.23C51.4441 150.729 50.6961 150.978 49.8308 150.978C48.7308 150.978 47.8361 150.567 47.1468 149.746C46.4721 148.925 46.1348 147.913 46.1348 146.71C46.1348 145.507 46.3768 144.385 46.8608 143.344C47.3594 142.288 48.1294 141.533 49.1708 141.078C49.8161 140.799 50.4394 140.66 51.0408 140.66C51.2608 140.66 51.4734 140.675 51.6788 140.704ZM51.7888 143.718C51.6861 143.395 51.5614 143.153 51.4148 142.992C51.2681 142.816 51.1068 142.713 50.9308 142.684C50.7694 142.64 50.5714 142.618 50.3368 142.618C50.1021 142.618 49.8161 142.706 49.4788 142.882C49.1414 143.058 48.8554 143.344 48.6208 143.74C48.1514 144.532 47.9168 145.368 47.9168 146.248C47.9168 147.113 48.0854 147.825 48.4228 148.382C48.7748 148.925 49.2661 149.196 49.8968 149.196C50.5421 149.196 51.0481 148.881 51.4148 148.25C51.7814 147.619 51.9648 146.813 51.9648 145.83C51.9648 144.73 51.9061 144.026 51.7888 143.718Z" fill="#4D6990"/>
<path d="M60.8993 150.318L60.6573 141.386C60.6573 141.107 60.7527 140.88 60.9433 140.704C61.134 140.528 61.3247 140.44 61.5153 140.44C61.9847 140.44 62.256 140.638 62.3293 141.034C62.388 141.43 62.4173 141.841 62.4173 142.266C63.2093 141.225 64.1993 140.704 65.3873 140.704C67.206 140.704 68.1153 142.779 68.1153 146.93C68.1153 147.311 68.1153 147.891 68.1153 148.668C68.1153 149.431 68.0713 149.988 67.9833 150.34C67.8807 150.78 67.5653 151 67.0373 151C66.6853 151 66.5093 150.765 66.5093 150.296L66.5313 149.064C66.5313 147.363 66.4727 146.204 66.3553 145.588C66.2527 144.957 66.15 144.459 66.0473 144.092C65.798 143.3 65.3947 142.904 64.8373 142.904C64.104 142.904 63.5907 143.168 63.2973 143.696C62.9747 144.268 62.784 144.943 62.7253 145.72C62.6227 147.084 62.5713 148.529 62.5713 150.054C62.5713 150.347 62.4613 150.582 62.2413 150.758C62.0213 150.934 61.7573 151.022 61.4493 151.022C61.0827 151.022 60.8993 150.787 60.8993 150.318Z" fill="#4D6990"/>
<path d="M73.9046 140.748C74.9606 140.748 75.8259 141.254 76.5006 142.266C77.1899 143.278 77.5346 144.495 77.5346 145.918C77.5346 147.326 77.1826 148.529 76.4786 149.526C75.7893 150.523 74.8653 151.022 73.7066 151.022C72.5626 151.022 71.6386 150.516 70.9346 149.504C70.2306 148.477 69.8786 147.341 69.8786 146.094C69.8786 144.495 70.2013 143.219 70.8466 142.266C71.5359 141.254 72.5553 140.748 73.9046 140.748ZM73.6406 142.552C73.0246 142.552 72.5186 142.875 72.1226 143.52C71.7266 144.165 71.5286 144.847 71.5286 145.566C71.5286 146.681 71.7486 147.531 72.1886 148.118C72.6286 148.705 73.1273 148.998 73.6846 148.998C74.6819 148.998 75.3199 148.565 75.5986 147.7C75.7159 147.289 75.7746 146.776 75.7746 146.16C75.7746 143.755 75.0633 142.552 73.6406 142.552Z" fill="#4D6990"/>
<path d="M80.7097 150.978C80.211 150.978 79.727 150.01 79.2577 148.074C78.803 146.123 78.5757 143.938 78.5757 141.518C78.5757 141.269 78.6783 141.078 78.8837 140.946C79.1037 140.799 79.3017 140.726 79.4777 140.726C79.6537 140.726 79.793 140.785 79.8957 140.902C80.013 141.005 80.0717 141.144 80.0717 141.32C80.0717 143.608 80.4603 145.808 81.2377 147.92C81.355 147.744 81.5383 147.392 81.7877 146.864C82.037 146.321 82.2717 145.925 82.4917 145.676C82.7117 145.427 82.9757 145.302 83.2837 145.302C83.5917 145.302 83.9143 145.529 84.2517 145.984C84.589 146.439 84.875 146.93 85.1097 147.458C85.359 147.971 85.4983 148.243 85.5277 148.272C85.9237 147.04 86.1217 145.896 86.1217 144.84L85.9897 141.496C85.975 141.276 86.0777 141.093 86.2977 140.946C86.5177 140.785 86.7303 140.704 86.9357 140.704C87.361 140.704 87.5737 141.533 87.5737 143.19V144.4C87.5737 146.365 87.273 148.118 86.6717 149.658C86.349 150.538 85.9457 150.978 85.4617 150.978C85.183 150.978 84.9263 150.802 84.6917 150.45C84.457 150.083 84.193 149.57 83.8997 148.91C83.6063 148.25 83.379 147.795 83.2177 147.546L82.5577 148.844C82.3083 149.357 82.1177 149.731 81.9857 149.966C81.8537 150.186 81.6703 150.413 81.4357 150.648C81.201 150.868 80.959 150.978 80.7097 150.978Z" fill="#4D6990"/>
<path d="M94.6876 140.726L95.7876 140.748C96.0369 140.748 96.1762 140.741 96.2056 140.726V136.216C96.2202 135.967 96.3449 135.754 96.5796 135.578C96.8142 135.402 97.0342 135.314 97.2396 135.314C97.4449 135.314 97.6062 135.38 97.7236 135.512C97.8556 135.644 97.9142 135.849 97.8996 136.128C97.8849 136.407 97.8776 137.932 97.8776 140.704L100.452 140.616C100.892 140.616 101.112 140.873 101.112 141.386C101.112 141.767 100.994 142.053 100.76 142.244C100.54 142.435 100.298 142.537 100.034 142.552C99.7842 142.567 99.5349 142.574 99.2856 142.574L97.9436 142.552C97.9436 143.153 98.0022 144.341 98.1196 146.116C98.2516 147.891 98.3542 149.042 98.4276 149.57C98.5009 150.083 98.5156 150.421 98.4716 150.582C98.4276 150.729 98.3469 150.831 98.2296 150.89C98.0389 150.978 97.7822 151.022 97.4596 151.022C97.1369 151.022 96.9462 150.846 96.8876 150.494C96.5942 148.573 96.3962 145.933 96.2936 142.574C96.1616 142.589 95.6556 142.596 94.7756 142.596C93.8956 142.596 93.4556 142.339 93.4556 141.826C93.4556 141.093 93.8662 140.726 94.6876 140.726Z" fill="#4D6990"/>
<path d="M104.054 143.872L104.23 149.064C104.23 149.709 104.201 150.083 104.142 150.186C104.113 150.45 104.025 150.655 103.878 150.802C103.746 150.949 103.482 151.022 103.086 151.022C102.895 151.022 102.741 150.905 102.624 150.67C102.507 150.421 102.441 150.142 102.426 149.834C102.323 147.253 102.184 144.833 102.008 142.574C101.847 140.301 101.766 138.189 101.766 136.238C101.766 135.93 101.869 135.688 102.074 135.512C102.279 135.336 102.521 135.248 102.8 135.248C103.211 135.248 103.453 135.6 103.526 136.304C103.614 137.008 103.665 137.888 103.68 138.944C103.709 140 103.739 140.77 103.768 141.254C104.501 140.873 105.235 140.682 105.968 140.682C107.669 140.682 108.747 141.43 109.202 142.926C109.466 143.777 109.598 144.869 109.598 146.204C109.598 146.644 109.554 147.341 109.466 148.294C109.393 149.233 109.349 149.841 109.334 150.12C109.319 150.399 109.195 150.619 108.96 150.78C108.74 150.927 108.498 151 108.234 151C107.823 151 107.618 150.78 107.618 150.34L107.772 146.512C107.772 146.189 107.757 145.654 107.728 144.906C107.699 144.158 107.545 143.564 107.266 143.124C107.002 142.684 106.533 142.464 105.858 142.464C104.655 142.464 104.054 142.933 104.054 143.872Z" fill="#4D6990"/>
<path d="M114.106 140.814C114.884 140.814 115.624 141.041 116.328 141.496C117.032 141.951 117.384 142.515 117.384 143.19C117.384 143.85 117.098 144.495 116.526 145.126C115.954 145.742 115.192 146.116 114.238 146.248C113.828 146.307 113.212 146.336 112.39 146.336C112.552 147.583 112.867 148.404 113.336 148.8C113.483 148.961 113.681 149.042 113.93 149.042C114.84 149.042 115.602 148.756 116.218 148.184C116.834 147.597 117.274 147.304 117.538 147.304C117.656 147.304 117.832 147.414 118.066 147.634C118.301 147.854 118.418 148.059 118.418 148.25C118.418 148.631 117.956 149.181 117.032 149.9C116.622 150.237 116.123 150.523 115.536 150.758C114.964 150.978 114.429 151.088 113.93 151.088C112.654 151.088 111.716 150.267 111.114 148.624C110.733 147.612 110.542 146.497 110.542 145.28C110.542 144.063 110.828 143.014 111.4 142.134C111.972 141.254 112.874 140.814 114.106 140.814ZM114.216 142.332C113.659 142.332 113.182 142.647 112.786 143.278C112.64 143.498 112.5 143.997 112.368 144.774C114.422 144.774 115.448 144.268 115.448 143.256C115.448 142.64 115.038 142.332 114.216 142.332Z" fill="#4D6990"/>
<path d="M126.722 140.836C126.913 140.836 127.096 140.902 127.272 141.034C127.463 141.166 127.558 141.313 127.558 141.474C127.558 141.899 126.935 144.202 125.688 148.382C124.441 152.562 123.517 155.495 122.916 157.182C122.784 157.578 122.579 157.776 122.3 157.776C122.021 157.776 121.801 157.673 121.64 157.468C121.479 157.277 121.398 156.991 121.398 156.61C121.398 156.229 121.64 155.312 122.124 153.86C122.623 152.423 122.923 151.506 123.026 151.11C122.659 150.494 121.42 147.414 119.308 141.87C119.279 141.797 119.264 141.701 119.264 141.584C119.264 141.467 119.352 141.313 119.528 141.122C119.704 140.931 119.946 140.836 120.254 140.836C120.562 140.836 120.811 140.99 121.002 141.298C121.207 141.826 121.545 142.75 122.014 144.07C122.483 145.375 122.843 146.321 123.092 146.908C123.356 147.495 123.605 148.103 123.84 148.734C124.045 148.045 124.397 146.71 124.896 144.73C125.395 142.735 125.681 141.599 125.754 141.32C125.813 140.997 126.135 140.836 126.722 140.836Z" fill="#4D6990"/>
<path d="M129.909 134.984C129.909 134.779 129.982 134.61 130.129 134.478C130.29 134.346 130.466 134.28 130.657 134.28C130.862 134.28 131.045 134.353 131.207 134.5C131.383 134.632 131.471 134.815 131.471 135.05C131.471 135.857 131.324 136.634 131.031 137.382C130.737 138.13 130.349 138.504 129.865 138.504C129.381 138.504 129.139 138.255 129.139 137.756C129.139 137.551 129.263 137.184 129.513 136.656C129.777 136.128 129.909 135.571 129.909 134.984Z" fill="#4D6990"/>
<path d="M136.679 147.788L136.701 150.054C136.701 150.318 136.576 150.56 136.327 150.78C136.092 151 135.857 151.11 135.623 151.11C135.285 151.11 135.073 150.846 134.985 150.318C134.97 150.201 134.911 149.13 134.809 147.106C134.706 145.067 134.508 143.469 134.215 142.31C134.083 141.753 134.017 141.423 134.017 141.32C134.017 140.836 134.31 140.594 134.897 140.594C135.146 140.594 135.344 140.689 135.491 140.88C135.637 141.071 135.725 141.269 135.755 141.474C135.799 141.665 135.835 141.929 135.865 142.266C135.894 142.603 135.916 142.816 135.931 142.904C136.239 142.171 136.701 141.621 137.317 141.254C137.933 140.887 138.607 140.704 139.341 140.704C140.543 140.704 141.145 141.012 141.145 141.628C141.145 141.936 141.035 142.185 140.815 142.376C140.609 142.552 140.367 142.64 140.089 142.64C138.842 142.64 137.962 143.036 137.449 143.828C136.935 144.62 136.679 145.94 136.679 147.788Z" fill="#4D6990"/>
<path d="M145.474 140.814C146.251 140.814 146.992 141.041 147.696 141.496C148.4 141.951 148.752 142.515 148.752 143.19C148.752 143.85 148.466 144.495 147.894 145.126C147.322 145.742 146.559 146.116 145.606 146.248C145.195 146.307 144.579 146.336 143.758 146.336C143.919 147.583 144.234 148.404 144.704 148.8C144.85 148.961 145.048 149.042 145.298 149.042C146.207 149.042 146.97 148.756 147.586 148.184C148.202 147.597 148.642 147.304 148.906 147.304C149.023 147.304 149.199 147.414 149.434 147.634C149.668 147.854 149.786 148.059 149.786 148.25C149.786 148.631 149.324 149.181 148.4 149.9C147.989 150.237 147.49 150.523 146.904 150.758C146.332 150.978 145.796 151.088 145.298 151.088C144.022 151.088 143.083 150.267 142.482 148.624C142.1 147.612 141.91 146.497 141.91 145.28C141.91 144.063 142.196 143.014 142.768 142.134C143.34 141.254 144.242 140.814 145.474 140.814ZM145.584 142.332C145.026 142.332 144.55 142.647 144.154 143.278C144.007 143.498 143.868 143.997 143.736 144.774C145.789 144.774 146.816 144.268 146.816 143.256C146.816 142.64 146.405 142.332 145.584 142.332Z" fill="#4D6990"/>
<path d="M156.691 140.726L157.791 140.748C158.041 140.748 158.18 140.741 158.209 140.726V136.216C158.224 135.967 158.349 135.754 158.583 135.578C158.818 135.402 159.038 135.314 159.243 135.314C159.449 135.314 159.61 135.38 159.727 135.512C159.859 135.644 159.918 135.849 159.903 136.128C159.889 136.407 159.881 137.932 159.881 140.704L162.455 140.616C162.895 140.616 163.115 140.873 163.115 141.386C163.115 141.767 162.998 142.053 162.763 142.244C162.543 142.435 162.301 142.537 162.037 142.552C161.788 142.567 161.539 142.574 161.289 142.574L159.947 142.552C159.947 143.153 160.006 144.341 160.123 146.116C160.255 147.891 160.358 149.042 160.431 149.57C160.505 150.083 160.519 150.421 160.475 150.582C160.431 150.729 160.351 150.831 160.233 150.89C160.043 150.978 159.786 151.022 159.463 151.022C159.141 151.022 158.95 150.846 158.891 150.494C158.598 148.573 158.4 145.933 158.297 142.574C158.165 142.589 157.659 142.596 156.779 142.596C155.899 142.596 155.459 142.339 155.459 141.826C155.459 141.093 155.87 140.726 156.691 140.726Z" fill="#4D6990"/>
<path d="M166.058 143.872L166.234 149.064C166.234 149.709 166.205 150.083 166.146 150.186C166.117 150.45 166.029 150.655 165.882 150.802C165.75 150.949 165.486 151.022 165.09 151.022C164.899 151.022 164.745 150.905 164.628 150.67C164.511 150.421 164.445 150.142 164.43 149.834C164.327 147.253 164.188 144.833 164.012 142.574C163.851 140.301 163.77 138.189 163.77 136.238C163.77 135.93 163.873 135.688 164.078 135.512C164.283 135.336 164.525 135.248 164.804 135.248C165.215 135.248 165.457 135.6 165.53 136.304C165.618 137.008 165.669 137.888 165.684 138.944C165.713 140 165.743 140.77 165.772 141.254C166.505 140.873 167.239 140.682 167.972 140.682C169.673 140.682 170.751 141.43 171.206 142.926C171.47 143.777 171.602 144.869 171.602 146.204C171.602 146.644 171.558 147.341 171.47 148.294C171.397 149.233 171.353 149.841 171.338 150.12C171.323 150.399 171.199 150.619 170.964 150.78C170.744 150.927 170.502 151 170.238 151C169.827 151 169.622 150.78 169.622 150.34L169.776 146.512C169.776 146.189 169.761 145.654 169.732 144.906C169.703 144.158 169.549 143.564 169.27 143.124C169.006 142.684 168.537 142.464 167.862 142.464C166.659 142.464 166.058 142.933 166.058 143.872Z" fill="#4D6990"/>
<path d="M175.78 147.788L175.802 150.054C175.802 150.318 175.678 150.56 175.428 150.78C175.194 151 174.959 151.11 174.724 151.11C174.387 151.11 174.174 150.846 174.086 150.318C174.072 150.201 174.013 149.13 173.91 147.106C173.808 145.067 173.61 143.469 173.316 142.31C173.184 141.753 173.118 141.423 173.118 141.32C173.118 140.836 173.412 140.594 173.998 140.594C174.248 140.594 174.446 140.689 174.592 140.88C174.739 141.071 174.827 141.269 174.856 141.474C174.9 141.665 174.937 141.929 174.966 142.266C174.996 142.603 175.018 142.816 175.032 142.904C175.34 142.171 175.802 141.621 176.418 141.254C177.034 140.887 177.709 140.704 178.442 140.704C179.645 140.704 180.246 141.012 180.246 141.628C180.246 141.936 180.136 142.185 179.916 142.376C179.711 142.552 179.469 142.64 179.19 142.64C177.944 142.64 177.064 143.036 176.55 143.828C176.037 144.62 175.78 145.94 175.78 147.788Z" fill="#4D6990"/>
<path d="M185.301 140.748C186.357 140.748 187.222 141.254 187.897 142.266C188.586 143.278 188.931 144.495 188.931 145.918C188.931 147.326 188.579 148.529 187.875 149.526C187.186 150.523 186.262 151.022 185.103 151.022C183.959 151.022 183.035 150.516 182.331 149.504C181.627 148.477 181.275 147.341 181.275 146.094C181.275 144.495 181.598 143.219 182.243 142.266C182.932 141.254 183.952 140.748 185.301 140.748ZM185.037 142.552C184.421 142.552 183.915 142.875 183.519 143.52C183.123 144.165 182.925 144.847 182.925 145.566C182.925 146.681 183.145 147.531 183.585 148.118C184.025 148.705 184.524 148.998 185.081 148.998C186.078 148.998 186.716 148.565 186.995 147.7C187.112 147.289 187.171 146.776 187.171 146.16C187.171 143.755 186.46 142.552 185.037 142.552Z" fill="#4D6990"/>
<path d="M192.106 150.978C191.607 150.978 191.123 150.01 190.654 148.074C190.199 146.123 189.972 143.938 189.972 141.518C189.972 141.269 190.075 141.078 190.28 140.946C190.5 140.799 190.698 140.726 190.874 140.726C191.05 140.726 191.189 140.785 191.292 140.902C191.409 141.005 191.468 141.144 191.468 141.32C191.468 143.608 191.857 145.808 192.634 147.92C192.751 147.744 192.935 147.392 193.184 146.864C193.433 146.321 193.668 145.925 193.888 145.676C194.108 145.427 194.372 145.302 194.68 145.302C194.988 145.302 195.311 145.529 195.648 145.984C195.985 146.439 196.271 146.93 196.506 147.458C196.755 147.971 196.895 148.243 196.924 148.272C197.32 147.04 197.518 145.896 197.518 144.84L197.386 141.496C197.371 141.276 197.474 141.093 197.694 140.946C197.914 140.785 198.127 140.704 198.332 140.704C198.757 140.704 198.97 141.533 198.97 143.19V144.4C198.97 146.365 198.669 148.118 198.068 149.658C197.745 150.538 197.342 150.978 196.858 150.978C196.579 150.978 196.323 150.802 196.088 150.45C195.853 150.083 195.589 149.57 195.296 148.91C195.003 148.25 194.775 147.795 194.614 147.546L193.954 148.844C193.705 149.357 193.514 149.731 193.382 149.966C193.25 150.186 193.067 150.413 192.832 150.648C192.597 150.868 192.355 150.978 192.106 150.978Z" fill="#4D6990"/>
<path d="M201.916 137.096C202.18 137.096 202.429 137.221 202.664 137.47C202.898 137.719 203.016 137.983 203.016 138.262C203.016 138.526 202.884 138.797 202.62 139.076C202.37 139.355 202.106 139.494 201.828 139.494C201.549 139.494 201.292 139.377 201.058 139.142C200.838 138.907 200.728 138.607 200.728 138.24C200.728 137.536 201.109 137.155 201.872 137.096C201.886 137.096 201.901 137.096 201.916 137.096ZM202.84 148.624L202.862 150.164C202.862 150.443 202.752 150.677 202.532 150.868C202.312 151.044 202.077 151.132 201.828 151.132C201.461 151.132 201.27 150.949 201.256 150.582C201.065 145.903 200.97 143.315 200.97 142.816C200.97 142.317 200.992 141.709 201.036 140.99C201.065 140.726 201.234 140.594 201.542 140.594C202.319 140.594 202.759 140.909 202.862 141.54C202.906 141.863 202.928 142.119 202.928 142.31L202.84 143.696V148.624Z" fill="#4D6990"/>
<path d="M206.22 150.318L205.978 141.386C205.978 141.107 206.073 140.88 206.264 140.704C206.454 140.528 206.645 140.44 206.836 140.44C207.305 140.44 207.576 140.638 207.65 141.034C207.708 141.43 207.738 141.841 207.738 142.266C208.53 141.225 209.52 140.704 210.708 140.704C212.526 140.704 213.436 142.779 213.436 146.93C213.436 147.311 213.436 147.891 213.436 148.668C213.436 149.431 213.392 149.988 213.304 150.34C213.201 150.78 212.886 151 212.358 151C212.006 151 211.83 150.765 211.83 150.296L211.852 149.064C211.852 147.363 211.793 146.204 211.676 145.588C211.573 144.957 211.47 144.459 211.368 144.092C211.118 143.3 210.715 142.904 210.158 142.904C209.424 142.904 208.911 143.168 208.618 143.696C208.295 144.268 208.104 144.943 208.046 145.72C207.943 147.084 207.892 148.529 207.892 150.054C207.892 150.347 207.782 150.582 207.562 150.758C207.342 150.934 207.078 151.022 206.77 151.022C206.403 151.022 206.22 150.787 206.22 150.318Z" fill="#4D6990"/>
<path d="M221.645 150.098C221.117 150.714 220.45 151.022 219.643 151.022C218.836 151.022 218.14 150.773 217.553 150.274C216.321 149.321 215.705 147.861 215.705 145.896C215.705 144.356 216.13 143.124 216.981 142.2C217.832 141.261 218.88 140.792 220.127 140.792C221.374 140.792 222.224 141.217 222.679 142.068C223.075 142.816 223.273 143.945 223.273 145.456L223.229 147.26C223.229 148.111 223.266 149.291 223.339 150.802C223.427 152.298 223.471 153.427 223.471 154.19C223.471 155.451 223.156 156.375 222.525 156.962C221.909 157.563 220.963 157.864 219.687 157.864C218.924 157.864 218.147 157.703 217.355 157.38C216.563 157.057 216.167 156.683 216.167 156.258C216.167 155.95 216.248 155.715 216.409 155.554C216.585 155.393 216.783 155.312 217.003 155.312C217.223 155.312 217.714 155.473 218.477 155.796C219.254 156.119 219.812 156.28 220.149 156.28C221.205 156.28 221.733 155.415 221.733 153.684C221.733 151.953 221.704 150.758 221.645 150.098ZM221.623 145.456C221.623 144.385 221.462 143.637 221.139 143.212C220.831 142.772 220.34 142.552 219.665 142.552C218.99 142.552 218.448 142.86 218.037 143.476C217.626 144.092 217.421 144.877 217.421 145.83C217.421 146.769 217.612 147.517 217.993 148.074C218.389 148.631 218.99 148.91 219.797 148.91C220.604 148.91 221.124 148.565 221.359 147.876C221.535 147.319 221.623 146.512 221.623 145.456Z" fill="#4D6990"/>
<path d="M236.336 140.726C236.981 140.726 237.304 141.276 237.304 142.376C237.304 142.493 237.304 142.618 237.304 142.75L237.26 144.29C237.245 144.774 237.238 145.251 237.238 145.72L237.568 150.692C237.568 151.059 237.194 151.242 236.446 151.242C236.402 151.242 236.292 151.242 236.116 151.242C235.955 151.242 235.837 151.176 235.764 151.044C235.705 150.912 235.698 150.751 235.742 150.56C235.801 150.369 235.786 150.157 235.698 149.922C235.023 150.641 234.129 151 233.014 151C230.946 151 229.912 149.401 229.912 146.204C229.912 144.429 230.242 143.087 230.902 142.178C231.577 141.269 232.537 140.814 233.784 140.814C234.371 140.814 234.957 140.917 235.544 141.122C235.735 140.858 235.999 140.726 236.336 140.726ZM234.048 142.728C233.212 142.728 232.589 142.97 232.178 143.454C231.767 143.938 231.562 144.825 231.562 146.116C231.562 148.287 232.149 149.372 233.322 149.372C233.63 149.372 233.967 149.233 234.334 148.954C234.715 148.675 234.979 148.36 235.126 148.008C235.405 147.216 235.544 146.351 235.544 145.412C235.544 144.473 235.427 143.791 235.192 143.366C234.972 142.941 234.591 142.728 234.048 142.728Z" fill="#4D6990"/>
<path d="M25.399 280.957C24.4244 280.957 23.4784 279.065 22.561 275.281C21.6724 271.468 21.228 267.197 21.228 262.467C21.228 261.98 21.4287 261.607 21.83 261.349C22.26 261.062 22.647 260.919 22.991 260.919C23.335 260.919 23.6074 261.034 23.808 261.263C24.0374 261.464 24.152 261.736 24.152 262.08C24.152 266.552 24.9117 270.852 26.431 274.98C26.6604 274.636 27.0187 273.948 27.506 272.916C27.9934 271.855 28.452 271.081 28.882 270.594C29.312 270.107 29.828 269.863 30.43 269.863C31.032 269.863 31.6627 270.307 32.322 271.196C32.9814 272.085 33.5404 273.045 33.999 274.077C34.4864 275.08 34.7587 275.611 34.816 275.668C35.59 273.26 35.977 271.024 35.977 268.96L35.719 262.424C35.6904 261.994 35.891 261.636 36.321 261.349C36.751 261.034 37.1667 260.876 37.568 260.876C38.3994 260.876 38.815 262.496 38.815 265.735V268.1C38.815 271.941 38.2274 275.367 37.052 278.377C36.4214 280.097 35.633 280.957 34.687 280.957C34.1424 280.957 33.6407 280.613 33.182 279.925C32.7234 279.208 32.2074 278.205 31.634 276.915C31.0607 275.625 30.6164 274.736 30.301 274.249L29.011 276.786C28.5237 277.789 28.151 278.52 27.893 278.979C27.635 279.409 27.2767 279.853 26.818 280.312C26.3594 280.742 25.8864 280.957 25.399 280.957Z" fill="#4D6990"/>
<path d="M44.5723 253.824C45.0883 253.824 45.5757 254.068 46.0343 254.555C46.493 255.042 46.7223 255.558 46.7223 256.103C46.7223 256.619 46.4643 257.149 45.9483 257.694C45.461 258.239 44.945 258.511 44.4003 258.511C43.8557 258.511 43.354 258.282 42.8953 257.823C42.4653 257.364 42.2503 256.777 42.2503 256.06C42.2503 254.684 42.9957 253.939 44.4863 253.824C44.515 253.824 44.5437 253.824 44.5723 253.824ZM46.3783 276.356L46.4213 279.366C46.4213 279.911 46.2063 280.369 45.7763 280.742C45.3463 281.086 44.8877 281.258 44.4003 281.258C43.6837 281.258 43.311 280.9 43.2823 280.183C42.9097 271.038 42.7233 265.979 42.7233 265.004C42.7233 264.029 42.7663 262.84 42.8523 261.435C42.9097 260.919 43.2393 260.661 43.8413 260.661C45.3607 260.661 46.2207 261.277 46.4213 262.51C46.5073 263.141 46.5503 263.642 46.5503 264.015L46.3783 266.724V276.356Z" fill="#4D6990"/>
<path d="M52.4255 260.919L54.5755 260.962C55.0629 260.962 55.3352 260.948 55.3925 260.919V252.104C55.4212 251.617 55.6649 251.201 56.1235 250.857C56.5822 250.513 57.0122 250.341 57.4135 250.341C57.8149 250.341 58.1302 250.47 58.3595 250.728C58.6175 250.986 58.7322 251.387 58.7035 251.932C58.6749 252.477 58.6605 255.458 58.6605 260.876L63.6915 260.704C64.5515 260.704 64.9815 261.206 64.9815 262.209C64.9815 262.954 64.7522 263.513 64.2935 263.886C63.8635 264.259 63.3905 264.459 62.8745 264.488C62.3872 264.517 61.8999 264.531 61.4125 264.531L58.7895 264.488C58.7895 265.663 58.9042 267.985 59.1335 271.454C59.3915 274.923 59.5922 277.173 59.7355 278.205C59.8789 279.208 59.9075 279.868 59.8215 280.183C59.7355 280.47 59.5779 280.67 59.3485 280.785C58.9759 280.957 58.4742 281.043 57.8435 281.043C57.2129 281.043 56.8402 280.699 56.7255 280.011C56.1522 276.256 55.7652 271.096 55.5645 264.531C55.3065 264.56 54.3175 264.574 52.5975 264.574C50.8775 264.574 50.0175 264.072 50.0175 263.069C50.0175 261.636 50.8202 260.919 52.4255 260.919Z" fill="#4D6990"/>
<path d="M70.7328 267.068L71.0768 277.216C71.0768 278.477 71.0195 279.208 70.9048 279.409C70.8475 279.925 70.6754 280.326 70.3888 280.613C70.1308 280.9 69.6148 281.043 68.8408 281.043C68.4681 281.043 68.1671 280.814 67.9378 280.355C67.7084 279.868 67.5795 279.323 67.5508 278.721C67.3501 273.676 67.0778 268.946 66.7338 264.531C66.4185 260.088 66.2608 255.96 66.2608 252.147C66.2608 251.545 66.4615 251.072 66.8628 250.728C67.2641 250.384 67.7371 250.212 68.2818 250.212C69.0845 250.212 69.5574 250.9 69.7008 252.276C69.8728 253.652 69.9731 255.372 70.0018 257.436C70.0591 259.5 70.1164 261.005 70.1738 261.951C71.6071 261.206 73.0405 260.833 74.4738 260.833C77.7991 260.833 79.9061 262.295 80.7948 265.219C81.3108 266.882 81.5688 269.017 81.5688 271.626C81.5688 272.486 81.4828 273.848 81.3108 275.711C81.1674 277.546 81.0815 278.735 81.0528 279.28C81.0241 279.825 80.7805 280.255 80.3218 280.57C79.8918 280.857 79.4188 281 78.9028 281C78.1001 281 77.6988 280.57 77.6988 279.71L77.9998 272.228C77.9998 271.597 77.9711 270.551 77.9138 269.089C77.8565 267.627 77.5555 266.466 77.0108 265.606C76.4948 264.746 75.5775 264.316 74.2588 264.316C71.9081 264.316 70.7328 265.233 70.7328 267.068Z" fill="#4D6990"/>
<path d="M106.096 260.919C107.357 260.919 107.988 261.994 107.988 264.144C107.988 264.373 107.988 264.617 107.988 264.875L107.902 267.885C107.873 268.831 107.859 269.763 107.859 270.68L108.504 280.398C108.504 281.115 107.773 281.473 106.311 281.473C106.225 281.473 106.01 281.473 105.666 281.473C105.35 281.473 105.121 281.344 104.978 281.086C104.863 280.828 104.849 280.513 104.935 280.14C105.049 279.767 105.021 279.352 104.849 278.893C103.53 280.298 101.781 281 99.6026 281C95.5606 281 93.5396 277.875 93.5396 271.626C93.5396 268.157 94.1846 265.534 95.4746 263.757C96.7933 261.98 98.6709 261.091 101.108 261.091C102.254 261.091 103.401 261.292 104.548 261.693C104.92 261.177 105.436 260.919 106.096 260.919ZM101.624 264.832C99.9896 264.832 98.7712 265.305 97.9686 266.251C97.1659 267.197 96.7646 268.931 96.7646 271.454C96.7646 275.697 97.9112 277.818 100.205 277.818C100.807 277.818 101.466 277.546 102.183 277.001C102.928 276.456 103.444 275.84 103.731 275.152C104.275 273.604 104.548 271.913 104.548 270.078C104.548 268.243 104.318 266.91 103.86 266.079C103.43 265.248 102.684 264.832 101.624 264.832Z" fill="#4D6990"/>
<path d="M126.546 274.593C127.55 274.593 128.051 275.439 128.051 277.13C128.051 278.047 127.55 278.965 126.546 279.882C125.572 280.771 124.497 281.215 123.321 281.215C121.573 281.215 120.283 280.326 119.451 278.549C119.079 279.266 118.477 279.896 117.645 280.441C116.843 280.957 116.026 281.215 115.194 281.215C114.392 281.215 113.689 281.057 113.087 280.742C112.514 280.398 112.041 279.896 111.668 279.237C111.324 278.578 111.038 277.947 110.808 277.345C110.608 276.714 110.45 275.955 110.335 275.066C110.192 273.633 110.077 271.339 109.991 268.186C109.934 265.004 109.905 261.98 109.905 259.113C109.905 256.218 109.934 254.24 109.991 253.179C110.077 252.09 110.249 251.387 110.507 251.072C110.794 250.728 111.224 250.556 111.797 250.556C113.059 250.556 113.689 251.058 113.689 252.061C113.689 252.835 113.618 254.856 113.474 258.124C113.36 261.392 113.302 264.316 113.302 266.896C113.302 269.476 113.403 271.554 113.603 273.131C113.947 275.883 114.435 277.259 115.065 277.259C115.696 277.259 116.183 276.815 116.527 275.926C116.642 275.582 116.857 275.281 117.172 275.023C117.488 274.736 117.889 274.593 118.376 274.593H118.462C118.204 272.07 118.075 268.143 118.075 262.811C118.075 257.45 118.104 254.24 118.161 253.179C118.247 252.09 118.419 251.387 118.677 251.072C118.964 250.728 119.394 250.556 119.967 250.556C121.229 250.556 121.859 251.058 121.859 252.061C121.859 252.835 121.788 254.856 121.644 258.124C121.53 261.392 121.472 264.316 121.472 266.896C121.472 269.476 121.573 271.554 121.773 273.131C122.117 275.883 122.605 277.259 123.235 277.259C123.866 277.259 124.353 276.815 124.697 275.926C124.812 275.582 125.027 275.281 125.342 275.023C125.658 274.736 126.059 274.593 126.546 274.593Z" fill="#4D6990"/>
<path d="M146.977 260.962C149.041 260.962 150.732 261.951 152.051 263.929C153.398 265.907 154.072 268.286 154.072 271.067C154.072 273.819 153.384 276.17 152.008 278.119C150.661 280.068 148.855 281.043 146.59 281.043C144.354 281.043 142.548 280.054 141.172 278.076C139.796 276.069 139.108 273.848 139.108 271.411C139.108 268.286 139.739 265.792 141 263.929C142.347 261.951 144.34 260.962 146.977 260.962ZM146.461 264.488C145.257 264.488 144.268 265.119 143.494 266.38C142.72 267.641 142.333 268.974 142.333 270.379C142.333 272.558 142.763 274.22 143.623 275.367C144.483 276.514 145.458 277.087 146.547 277.087C148.496 277.087 149.743 276.241 150.288 274.55C150.517 273.747 150.632 272.744 150.632 271.54C150.632 266.839 149.242 264.488 146.461 264.488Z" fill="#4D6990"/>
<path d="M162.557 250.9C163.016 250.556 163.403 250.37 163.718 250.341C164.062 250.284 164.822 250.255 165.997 250.255C167.201 250.255 168.19 250.427 168.964 250.771C169.738 251.115 170.125 251.803 170.125 252.835C170.125 253.867 169.709 254.383 168.878 254.383C168.706 254.383 168.219 254.24 167.416 253.953C166.613 253.638 166.097 253.48 165.868 253.48C164.865 253.48 164.263 254.082 164.062 255.286C164.005 255.716 163.976 256.605 163.976 257.952C163.976 259.271 163.976 260.36 163.976 261.22H166.986C168.247 261.277 168.878 261.722 168.878 262.553C168.878 263.757 168.018 264.388 166.298 264.445C166.04 264.474 165.725 264.488 165.352 264.488C164.979 264.488 164.549 264.474 164.062 264.445C164.119 265.592 164.248 267.641 164.449 270.594C164.65 273.518 164.75 276.37 164.75 279.151C164.75 279.724 164.521 280.183 164.062 280.527C163.603 280.871 163.13 281.043 162.643 281.043C161.869 281.043 161.482 280.584 161.482 279.667C161.482 277.087 161.382 274.579 161.181 272.142C160.98 269.705 160.837 267.14 160.751 264.445C158.171 264.445 156.666 264.187 156.236 263.671C156.064 263.47 155.978 263.212 155.978 262.897C155.978 262.152 156.279 261.664 156.881 261.435C157.512 261.206 158.228 261.091 159.031 261.091C159.834 261.091 160.407 261.091 160.751 261.091C160.837 256.418 161.095 253.523 161.525 252.405C161.783 251.717 162.127 251.215 162.557 250.9Z" fill="#4D6990"/>
<path d="M195.789 261.134C196.162 261.134 196.52 261.263 196.864 261.521C197.237 261.779 197.423 262.066 197.423 262.381C197.423 263.212 196.205 267.713 193.768 275.883C191.332 284.053 189.526 289.786 188.35 293.083C188.092 293.857 187.691 294.244 187.146 294.244C186.602 294.244 186.172 294.043 185.856 293.642C185.541 293.269 185.383 292.71 185.383 291.965C185.383 291.22 185.856 289.428 186.802 286.59C187.777 283.781 188.365 281.989 188.565 281.215C187.849 280.011 185.426 273.991 181.298 263.155C181.241 263.012 181.212 262.825 181.212 262.596C181.212 262.367 181.384 262.066 181.728 261.693C182.072 261.32 182.545 261.134 183.147 261.134C183.749 261.134 184.237 261.435 184.609 262.037C185.011 263.069 185.67 264.875 186.587 267.455C187.505 270.006 188.207 271.855 188.694 273.002C189.21 274.149 189.698 275.338 190.156 276.571C190.558 275.224 191.246 272.615 192.22 268.745C193.195 264.846 193.754 262.625 193.897 262.08C194.012 261.449 194.643 261.134 195.789 261.134Z" fill="#4D6990"/>
<path d="M207.866 260.962C209.93 260.962 211.621 261.951 212.94 263.929C214.287 265.907 214.961 268.286 214.961 271.067C214.961 273.819 214.273 276.17 212.897 278.119C211.55 280.068 209.744 281.043 207.479 281.043C205.243 281.043 203.437 280.054 202.061 278.076C200.685 276.069 199.997 273.848 199.997 271.411C199.997 268.286 200.628 265.792 201.889 263.929C203.236 261.951 205.228 260.962 207.866 260.962ZM207.35 264.488C206.146 264.488 205.157 265.119 204.383 266.38C203.609 267.641 203.222 268.974 203.222 270.379C203.222 272.558 203.652 274.22 204.512 275.367C205.372 276.514 206.347 277.087 207.436 277.087C209.385 277.087 210.632 276.241 211.177 274.55C211.406 273.747 211.521 272.744 211.521 271.54C211.521 266.839 210.131 264.488 207.35 264.488Z" fill="#4D6990"/>
<path d="M217.512 262.596C217.626 262.109 217.87 261.707 218.243 261.392C218.615 261.048 218.988 260.876 219.361 260.876C219.762 260.876 220.063 260.948 220.264 261.091C220.493 261.234 220.622 261.363 220.651 261.478C220.708 261.593 220.765 261.793 220.823 262.08C220.651 264.316 220.565 266.337 220.565 268.143C220.565 269.92 220.78 271.97 221.21 274.292C221.64 276.585 222.113 277.732 222.629 277.732C223.403 277.732 224.377 277.302 225.553 276.442C226.757 275.582 227.617 274.679 228.133 273.733C227.789 269.605 227.617 266.065 227.617 263.112C227.617 262.51 227.803 261.994 228.176 261.564C228.577 261.134 229.05 260.919 229.595 260.919C230.483 260.919 230.928 261.521 230.928 262.725C230.928 264.76 231.071 267.785 231.358 271.798C231.673 275.811 231.988 278.363 232.304 279.452C232.361 279.681 232.39 279.954 232.39 280.269C232.39 280.556 232.189 280.828 231.788 281.086C231.415 281.373 230.913 281.516 230.283 281.516C229.681 281.516 229.279 281.172 229.079 280.484C229.021 279.911 228.878 279.051 228.649 277.904C226.642 279.997 224.621 281.043 222.586 281.043C221.64 281.043 220.794 280.685 220.049 279.968C219.303 279.251 218.716 278.277 218.286 277.044C217.54 274.665 217.168 272.429 217.168 270.336C217.168 268.243 217.282 265.663 217.512 262.596Z" fill="#4D6990"/>
<path d="M240.232 251.416L239.845 266.079C239.845 267.656 239.86 268.688 239.888 269.175C239.774 269.548 239.544 269.877 239.2 270.164C238.885 270.451 238.527 270.594 238.125 270.594C237.724 270.594 237.394 270.279 237.136 269.648C236.706 262.424 236.491 256.347 236.491 251.416C236.749 250.699 237.409 250.341 238.469 250.341C239.53 250.341 240.118 250.699 240.232 251.416ZM237.265 278.936C236.835 278.42 236.62 277.904 236.62 277.388C236.62 276.872 236.821 276.399 237.222 275.969C237.624 275.539 238.154 275.324 238.813 275.324C239.501 275.324 239.989 275.453 240.275 275.711C240.591 275.969 240.748 276.528 240.748 277.388C240.748 278.907 240.118 279.667 238.856 279.667C238.226 279.667 237.695 279.423 237.265 278.936Z" fill="#4D6990"/>
<path d="M23.1792 22.301L23.2202 19.103L23.5892 1.965C23.5892 1.637 23.7669 1.37734 24.1222 1.186C24.4775 0.994669 24.9285 0.899002 25.4752 0.899002C26.7872 0.899002 27.4432 1.36367 27.4432 2.293C27.4432 2.59367 27.2792 4.88967 26.9512 9.181C26.6505 13.4723 26.5002 16.0417 26.5002 16.889C26.5002 16.889 26.5002 18.3377 26.5002 21.235C26.5002 23.285 26.6369 24.4057 26.9102 24.597C27.3202 24.7337 27.7985 24.802 28.3452 24.802L34.2492 24.392C35.5339 24.392 36.1762 24.8567 36.1762 25.786C36.1762 26.524 35.8209 27.0707 35.1102 27.426C34.4269 27.754 33.7435 27.9453 33.0602 28C32.3769 28.0273 31.5432 28.041 30.5592 28.041C26.2679 28.041 23.9445 27.9043 23.5892 27.631C23.3979 27.467 23.2885 26.852 23.2612 25.786C23.2339 24.6927 23.2065 23.9273 23.1792 23.49C23.1792 23.0527 23.1792 22.6563 23.1792 22.301Z" fill="#4D6990"/>
<path d="M46.1421 8.894C48.1101 8.894 49.7227 9.837 50.9801 11.723C52.2647 13.609 52.9071 15.8777 52.9071 18.529C52.9071 21.153 52.2511 23.3943 50.9391 25.253C49.6544 27.1117 47.9324 28.041 45.7731 28.041C43.6411 28.041 41.9191 27.098 40.6071 25.212C39.2951 23.2987 38.6391 21.1803 38.6391 18.857C38.6391 15.8777 39.2404 13.4997 40.4431 11.723C41.7277 9.837 43.6274 8.894 46.1421 8.894ZM45.6501 12.256C44.5021 12.256 43.5591 12.8573 42.8211 14.06C42.0831 15.2627 41.7141 16.5337 41.7141 17.873C41.7141 19.9503 42.1241 21.5357 42.9441 22.629C43.7641 23.7223 44.6934 24.269 45.7321 24.269C47.5907 24.269 48.7797 23.4627 49.2991 21.85C49.5177 21.0847 49.6271 20.128 49.6271 18.98C49.6271 14.4973 48.3014 12.256 45.6501 12.256Z" fill="#4D6990"/>
<path d="M67.1882 26.319C66.2042 27.467 64.9606 28.041 63.4572 28.041C61.9539 28.041 60.6556 27.5763 59.5622 26.647C57.2662 24.8703 56.1182 22.1507 56.1182 18.488C56.1182 15.618 56.9109 13.322 58.4962 11.6C60.0815 9.85067 62.0359 8.976 64.3592 8.976C66.6826 8.976 68.2679 9.76867 69.1152 11.354C69.8532 12.748 70.2222 14.8527 70.2222 17.668L70.1402 21.03C70.1402 22.6153 70.2086 24.8157 70.3452 27.631C70.5092 30.419 70.5912 32.5237 70.5912 33.945C70.5912 36.2957 70.0036 38.0177 68.8282 39.111C67.6802 40.2317 65.9172 40.792 63.5392 40.792C62.1179 40.792 60.6692 40.4913 59.1932 39.89C57.7172 39.2887 56.9792 38.5917 56.9792 37.799C56.9792 37.225 57.1296 36.7877 57.4302 36.487C57.7582 36.1863 58.1272 36.036 58.5372 36.036C58.9472 36.036 59.8629 36.3367 61.2842 36.938C62.7329 37.5393 63.7715 37.84 64.4002 37.84C66.3682 37.84 67.3522 36.2273 67.3522 33.002C67.3522 29.7767 67.2976 27.549 67.1882 26.319ZM67.1472 17.668C67.1472 15.6727 66.8465 14.2787 66.2452 13.486C65.6712 12.666 64.7556 12.256 63.4982 12.256C62.2409 12.256 61.2296 12.83 60.4642 13.978C59.6989 15.126 59.3162 16.5883 59.3162 18.365C59.3162 20.1143 59.6716 21.5083 60.3822 22.547C61.1202 23.5857 62.2409 24.105 63.7442 24.105C65.2476 24.105 66.2179 23.4627 66.6552 22.178C66.9832 21.1393 67.1472 19.636 67.1472 17.668Z" fill="#4D6990"/>
<path d="M85.118 8.853C86.3207 8.853 86.922 9.878 86.922 11.928C86.922 12.1467 86.922 12.379 86.922 12.625L86.84 15.495C86.8127 16.397 86.799 17.2853 86.799 18.16L87.414 27.426C87.414 28.1093 86.717 28.451 85.323 28.451C85.241 28.451 85.036 28.451 84.708 28.451C84.4074 28.451 84.1887 28.328 84.052 28.082C83.9427 27.836 83.929 27.5353 84.011 27.18C84.1204 26.8247 84.093 26.4283 83.929 25.991C82.6717 27.3303 81.0044 28 78.927 28C75.073 28 73.146 25.0207 73.146 19.062C73.146 15.7547 73.761 13.2537 74.991 11.559C76.2484 9.86433 78.0387 9.017 80.362 9.017C81.4554 9.017 82.5487 9.20834 83.642 9.591C83.9974 9.099 84.4894 8.853 85.118 8.853ZM80.854 12.584C79.296 12.584 78.1344 13.035 77.369 13.937C76.6037 14.839 76.221 16.4927 76.221 18.898C76.221 22.9433 77.3144 24.966 79.501 24.966C80.075 24.966 80.7037 24.7063 81.387 24.187C82.0977 23.6677 82.5897 23.08 82.863 22.424C83.3824 20.948 83.642 19.3353 83.642 17.586C83.642 15.8367 83.4234 14.5657 82.986 13.773C82.576 12.9803 81.8654 12.584 80.854 12.584Z" fill="#4D6990"/>
<path d="M91.2927 26.729L90.8417 10.083C90.8417 9.56367 91.0194 9.14 91.3747 8.812C91.73 8.484 92.0854 8.32 92.4407 8.32C93.3154 8.32 93.821 8.689 93.9577 9.427C94.067 10.165 94.1217 10.9303 94.1217 11.723C95.5977 9.78234 97.4427 8.812 99.6567 8.812C103.046 8.812 104.741 12.6797 104.741 20.415C104.741 21.1257 104.741 22.2053 104.741 23.654C104.741 25.0753 104.659 26.114 104.495 26.77C104.303 27.59 103.716 28 102.732 28C102.076 28 101.748 27.5627 101.748 26.688L101.789 24.392C101.789 21.2213 101.679 19.062 101.461 17.914C101.269 16.7387 101.078 15.8093 100.887 15.126C100.422 13.65 99.6704 12.912 98.6317 12.912C97.265 12.912 96.3084 13.404 95.7617 14.388C95.1604 15.454 94.805 16.7113 94.6957 18.16C94.5044 20.702 94.4087 23.3943 94.4087 26.237C94.4087 26.7837 94.2037 27.221 93.7937 27.549C93.3837 27.877 92.8917 28.041 92.3177 28.041C91.6344 28.041 91.2927 27.6037 91.2927 26.729Z" fill="#4D6990"/>
<path d="M132.072 6.639C132.072 8.06033 131.689 9.24934 130.924 10.206C130.186 11.1353 128.956 12.133 127.234 13.199C127.562 13.691 128.095 14.4427 128.833 15.454C129.571 16.4653 130.022 17.094 130.186 17.34L131.457 19.431C132.277 18.0917 132.755 17.0803 132.892 16.397C133.111 15.577 133.671 15.167 134.573 15.167C135.038 15.167 135.42 15.3037 135.721 15.577C136.022 15.823 136.172 16.1647 136.172 16.602C136.172 17.668 135.106 19.4857 132.974 22.055C133.821 23.695 134.45 25.1163 134.86 26.319C134.805 26.729 134.614 27.0843 134.286 27.385C133.958 27.6857 133.589 27.836 133.179 27.836C132.769 27.836 132.4 27.672 132.072 27.344C131.853 27.016 131.676 26.647 131.539 26.237C131.402 25.827 131.17 25.2393 130.842 24.474C129.585 25.8133 128.532 26.729 127.685 27.221C126.838 27.6857 125.854 27.918 124.733 27.918C123.64 27.918 122.533 27.4807 121.412 26.606C120.291 25.7313 119.444 24.6517 118.87 23.367C118.296 22.219 118.009 21.071 118.009 19.923C118.009 18.119 118.474 16.6703 119.403 15.577C120.332 14.4563 121.699 13.3767 123.503 12.338C122.218 10.0147 121.576 8.01934 121.576 6.352C121.576 4.68467 122.082 3.359 123.093 2.375C124.132 1.391 125.375 0.899002 126.824 0.899002C128.273 0.899002 129.503 1.50034 130.514 2.703C131.553 3.90567 132.072 5.21767 132.072 6.639ZM126.906 4.015C125.485 4.015 124.747 5.163 124.692 7.459C124.829 8.63433 125.225 9.80967 125.881 10.985C127.794 9.837 128.751 8.70267 128.751 7.582C128.751 6.434 128.546 5.54567 128.136 4.917C127.781 4.31567 127.371 4.015 126.906 4.015ZM124.692 24.433C126.113 24.433 127.685 23.5583 129.407 21.809C129.298 21.645 129.161 21.44 128.997 21.194C128.833 20.9207 128.587 20.5517 128.259 20.087C127.958 19.595 127.494 18.9253 126.865 18.078C126.264 17.2033 125.717 16.2877 125.225 15.331L124.897 14.757C124.022 15.3857 123.407 15.864 123.052 16.192C121.822 17.258 121.207 18.5017 121.207 19.923C121.207 21.317 121.685 22.5197 122.642 23.531C123.189 24.1323 123.872 24.433 124.692 24.433Z" fill="#4D6990"/>
<path d="M161.13 1.186C162.962 1.186 164.984 1.54133 167.198 2.252C167.69 2.63467 167.936 3.05834 167.936 3.523C167.936 3.96034 167.704 4.35667 167.239 4.712C166.802 5.04 166.296 5.204 165.722 5.204C164.246 4.82133 162.866 4.63 161.581 4.63C158.629 4.63 156.388 5.50467 154.857 7.254C153.327 9.00333 152.561 11.6 152.561 15.044C152.561 18.488 153.463 21.1803 155.267 23.121C156.197 24.1323 157.304 24.638 158.588 24.638C159.873 24.638 161.923 23.9547 164.738 22.588C165.722 22.1233 166.378 21.891 166.706 21.891C167.417 21.891 167.772 22.26 167.772 22.998C167.772 23.736 167.431 24.351 166.747 24.843C164.397 26.073 162.565 26.9067 161.253 27.344C159.941 27.754 158.807 27.959 157.85 27.959C155.882 27.959 154.201 27.2347 152.807 25.786C150.32 23.1073 149.076 19.4583 149.076 14.839C149.076 10.1923 150.252 6.762 152.602 4.548C154.98 2.30667 157.823 1.186 161.13 1.186Z" fill="#4D6990"/>
<path d="M182.813 8.853C184.016 8.853 184.617 9.878 184.617 11.928C184.617 12.1467 184.617 12.379 184.617 12.625L184.535 15.495C184.508 16.397 184.494 17.2853 184.494 18.16L185.109 27.426C185.109 28.1093 184.412 28.451 183.018 28.451C182.936 28.451 182.731 28.451 182.403 28.451C182.103 28.451 181.884 28.328 181.747 28.082C181.638 27.836 181.624 27.5353 181.706 27.18C181.816 26.8247 181.788 26.4283 181.624 25.991C180.367 27.3303 178.7 28 176.622 28C172.768 28 170.841 25.0207 170.841 19.062C170.841 15.7547 171.456 13.2537 172.686 11.559C173.944 9.86433 175.734 9.017 178.057 9.017C179.151 9.017 180.244 9.20834 181.337 9.591C181.693 9.099 182.185 8.853 182.813 8.853ZM178.549 12.584C176.991 12.584 175.83 13.035 175.064 13.937C174.299 14.839 173.916 16.4927 173.916 18.898C173.916 22.9433 175.01 24.966 177.196 24.966C177.77 24.966 178.399 24.7063 179.082 24.187C179.793 23.6677 180.285 23.08 180.558 22.424C181.078 20.948 181.337 19.3353 181.337 17.586C181.337 15.8367 181.119 14.5657 180.681 13.773C180.271 12.9803 179.561 12.584 178.549 12.584Z" fill="#4D6990"/>
<path d="M188.127 14.06C188.127 12.4473 188.701 11.1627 189.849 10.206C190.997 9.24934 192.323 8.771 193.826 8.771C195.357 8.771 196.819 9.04434 198.213 9.591C199.607 10.1377 200.304 10.862 200.304 11.764C200.304 12.2287 200.126 12.5977 199.771 12.871C199.416 13.1443 199.101 13.281 198.828 13.281C198.582 13.281 198.377 13.281 198.213 13.281C198.076 13.2537 197.53 12.994 196.573 12.502C195.644 12.01 194.783 11.764 193.99 11.764C193.197 11.764 192.514 11.969 191.94 12.379C191.393 12.7617 191.12 13.3357 191.12 14.101C191.12 14.8663 191.434 15.4677 192.063 15.905C192.719 16.3423 193.853 16.725 195.466 17.053C197.079 17.3537 198.309 17.791 199.156 18.365C200.031 18.939 200.468 20.005 200.468 21.563C200.468 23.8317 199.867 25.4443 198.664 26.401C197.489 27.3303 196.054 27.795 194.359 27.795C192.664 27.795 191.216 27.5627 190.013 27.098C188.838 26.6333 188.25 25.9363 188.25 25.007C188.25 23.941 188.783 23.408 189.849 23.408C190.122 23.408 190.724 23.5993 191.653 23.982C192.582 24.3647 193.498 24.556 194.4 24.556C195.329 24.556 196.026 24.269 196.491 23.695C196.983 23.0937 197.229 22.4103 197.229 21.645C197.229 20.8797 196.915 20.333 196.286 20.005C195.657 19.6497 194.701 19.3627 193.416 19.144C192.131 18.9253 191.188 18.693 190.587 18.447C188.947 17.791 188.127 16.3287 188.127 14.06Z" fill="#4D6990"/>
<path d="M203.902 14.06C203.902 12.4473 204.476 11.1627 205.624 10.206C206.772 9.24934 208.098 8.771 209.601 8.771C211.132 8.771 212.594 9.04434 213.988 9.591C215.382 10.1377 216.079 10.862 216.079 11.764C216.079 12.2287 215.902 12.5977 215.546 12.871C215.191 13.1443 214.877 13.281 214.603 13.281C214.357 13.281 214.152 13.281 213.988 13.281C213.852 13.2537 213.305 12.994 212.348 12.502C211.419 12.01 210.558 11.764 209.765 11.764C208.973 11.764 208.289 11.969 207.715 12.379C207.169 12.7617 206.895 13.3357 206.895 14.101C206.895 14.8663 207.21 15.4677 207.838 15.905C208.494 16.3423 209.629 16.725 211.241 17.053C212.854 17.3537 214.084 17.791 214.931 18.365C215.806 18.939 216.243 20.005 216.243 21.563C216.243 23.8317 215.642 25.4443 214.439 26.401C213.264 27.3303 211.829 27.795 210.134 27.795C208.44 27.795 206.991 27.5627 205.788 27.098C204.613 26.6333 204.025 25.9363 204.025 25.007C204.025 23.941 204.558 23.408 205.624 23.408C205.898 23.408 206.499 23.5993 207.428 23.982C208.358 24.3647 209.273 24.556 210.175 24.556C211.105 24.556 211.802 24.269 212.266 23.695C212.758 23.0937 213.004 22.4103 213.004 21.645C213.004 20.8797 212.69 20.333 212.061 20.005C211.433 19.6497 210.476 19.3627 209.191 19.144C207.907 18.9253 206.964 18.693 206.362 18.447C204.722 17.791 203.902 16.3287 203.902 14.06Z" fill="#4D6990"/>
<path d="M221.687 2.088C222.179 2.088 222.643 2.32034 223.081 2.785C223.518 3.24967 223.737 3.74167 223.737 4.261C223.737 4.753 223.491 5.25867 222.999 5.778C222.534 6.29734 222.042 6.557 221.523 6.557C221.003 6.557 220.525 6.33834 220.088 5.901C219.678 5.46367 219.473 4.90333 219.473 4.22C219.473 2.908 220.183 2.19734 221.605 2.088C221.632 2.088 221.659 2.088 221.687 2.088ZM223.409 23.572L223.45 26.442C223.45 26.9613 223.245 27.3987 222.835 27.754C222.425 28.082 221.987 28.246 221.523 28.246C220.839 28.246 220.484 27.9043 220.457 27.221C220.101 18.5017 219.924 13.6773 219.924 12.748C219.924 11.8187 219.965 10.6843 220.047 9.345C220.101 8.853 220.416 8.607 220.99 8.607C222.438 8.607 223.258 9.19467 223.45 10.37C223.532 10.9713 223.573 11.4497 223.573 11.805L223.409 14.388V23.572Z" fill="#4D6990"/>
<path d="M234.054 9.017C235.502 9.017 236.883 9.44067 238.195 10.288C239.507 11.1353 240.163 12.1877 240.163 13.445C240.163 14.675 239.63 15.8777 238.564 17.053C237.498 18.201 236.076 18.898 234.3 19.144C233.534 19.2533 232.386 19.308 230.856 19.308C231.156 21.6313 231.744 23.162 232.619 23.9C232.892 24.2007 233.261 24.351 233.726 24.351C235.42 24.351 236.842 23.818 237.99 22.752C239.138 21.6587 239.958 21.112 240.45 21.112C240.668 21.112 240.996 21.317 241.434 21.727C241.871 22.137 242.09 22.5197 242.09 22.875C242.09 23.5857 241.229 24.6107 239.507 25.95C238.741 26.5787 237.812 27.1117 236.719 27.549C235.653 27.959 234.655 28.164 233.726 28.164C231.348 28.164 229.598 26.6333 228.478 23.572C227.767 21.686 227.412 19.6087 227.412 17.34C227.412 15.0713 227.945 13.117 229.011 11.477C230.077 9.837 231.758 9.017 234.054 9.017ZM234.259 11.846C233.22 11.846 232.332 12.4337 231.594 13.609C231.32 14.019 231.061 14.9483 230.815 16.397C234.641 16.397 236.555 15.454 236.555 13.568C236.555 12.42 235.789 11.846 234.259 11.846Z" fill="#4D6990"/>
<path d="M36.4272 110.827C35.1552 112.311 33.5475 113.053 31.6042 113.053C29.6609 113.053 27.9825 112.452 26.5692 111.251C23.6012 108.954 22.1172 105.439 22.1172 100.704C22.1172 96.994 23.1419 94.026 25.1912 91.8C27.2405 89.5387 29.7669 88.408 32.7702 88.408C35.7735 88.408 37.8229 89.4327 38.9182 91.482C39.8722 93.284 40.3492 96.0047 40.3492 99.644L40.2432 103.99C40.2432 106.039 40.3315 108.884 40.5082 112.523C40.7202 116.127 40.8262 118.848 40.8262 120.685C40.8262 123.724 40.0665 125.95 38.5472 127.363C37.0632 128.812 34.7842 129.536 31.7102 129.536C29.8729 129.536 28.0002 129.147 26.0922 128.37C24.1842 127.593 23.2302 126.692 23.2302 125.667C23.2302 124.925 23.4245 124.36 23.8132 123.971C24.2372 123.582 24.7142 123.388 25.2442 123.388C25.7742 123.388 26.9579 123.777 28.7952 124.554C30.6679 125.331 32.0105 125.72 32.8232 125.72C35.3672 125.72 36.6392 123.635 36.6392 119.466C36.6392 115.297 36.5685 112.417 36.4272 110.827ZM36.3742 99.644C36.3742 97.0647 35.9855 95.2627 35.2082 94.238C34.4662 93.178 33.2825 92.648 31.6572 92.648C30.0319 92.648 28.7245 93.39 27.7352 94.874C26.7459 96.358 26.2512 98.2483 26.2512 100.545C26.2512 102.806 26.7105 104.608 27.6292 105.951C28.5832 107.294 30.0319 107.965 31.9752 107.965C33.9185 107.965 35.1729 107.135 35.7382 105.474C36.1622 104.131 36.3742 102.188 36.3742 99.644Z" fill="#4D6990"/>
<path d="M54.1987 88.302C56.7427 88.302 58.8274 89.521 60.4528 91.959C62.1134 94.397 62.9438 97.3297 62.9438 100.757C62.9438 104.149 62.0958 107.046 60.3997 109.449C58.7391 111.852 56.5131 113.053 53.7217 113.053C50.9657 113.053 48.7397 111.834 47.0437 109.396C45.3477 106.923 44.4997 104.184 44.4997 101.181C44.4997 97.3297 45.2771 94.2557 46.8317 91.959C48.4924 89.521 50.9481 88.302 54.1987 88.302ZM53.5627 92.648C52.0787 92.648 50.8597 93.4253 49.9057 94.98C48.9517 96.5347 48.4747 98.1777 48.4747 99.909C48.4747 102.594 49.0047 104.644 50.0647 106.057C51.1247 107.47 52.3261 108.177 53.6688 108.177C56.0714 108.177 57.6084 107.135 58.2798 105.05C58.5624 104.061 58.7038 102.824 58.7038 101.34C58.7038 95.5453 56.9901 92.648 53.5627 92.648Z" fill="#4D6990"/>
<path d="M67.5187 88.249L70.1687 88.302C70.7694 88.302 71.1051 88.2843 71.1757 88.249V77.384C71.2111 76.7833 71.5114 76.271 72.0767 75.847C72.6421 75.423 73.1721 75.211 73.6667 75.211C74.1614 75.211 74.5501 75.37 74.8327 75.688C75.1507 76.006 75.2921 76.5007 75.2567 77.172C75.2214 77.8433 75.2037 81.518 75.2037 88.196L81.4047 87.984C82.4647 87.984 82.9947 88.6023 82.9947 89.839C82.9947 90.7577 82.7121 91.4467 82.1467 91.906C81.6167 92.3653 81.0337 92.6127 80.3977 92.648C79.7971 92.6833 79.1964 92.701 78.5957 92.701L75.3627 92.648C75.3627 94.0967 75.5041 96.9587 75.7867 101.234C76.1047 105.509 76.3521 108.283 76.5287 109.555C76.7054 110.792 76.7407 111.604 76.6347 111.993C76.5287 112.346 76.3344 112.594 76.0517 112.735C75.5924 112.947 74.9741 113.053 74.1967 113.053C73.4194 113.053 72.9601 112.629 72.8187 111.781C72.1121 107.152 71.6351 100.792 71.3877 92.701C71.0697 92.7363 69.8507 92.754 67.7307 92.754C65.6107 92.754 64.5507 92.1357 64.5507 90.899C64.5507 89.1323 65.5401 88.249 67.5187 88.249Z" fill="#4D6990"/>
<path d="M99.6483 113.053C98.7297 113.053 98.182 112.541 98.0053 111.516C98.0053 104.379 97.5813 98.0187 96.7333 92.436C96.7333 91.7293 96.9807 91.0933 97.4753 90.528C98.0053 89.9627 98.5883 89.68 99.2243 89.68C99.8957 89.68 100.39 90.051 100.708 90.793C102.016 89.0617 103.765 88.196 105.955 88.196C108.747 88.196 110.902 89.5387 112.421 92.224C114.188 89.68 116.52 88.408 119.417 88.408C122.35 88.408 124.541 89.574 125.989 91.906C126.943 93.3547 127.615 95.2627 128.003 97.63C128.392 99.9973 128.586 103.354 128.586 107.7C128.586 109.396 128.41 110.721 128.056 111.675C127.703 112.594 126.961 113.053 125.83 113.053C124.912 113.053 124.452 112.47 124.452 111.304L124.611 104.679C124.611 96.729 122.544 92.754 118.41 92.754C117.103 92.754 116.184 93.2133 115.654 94.132C115.054 95.2273 114.7 96.3757 114.594 97.577C114.453 99.697 114.382 101.623 114.382 103.354V111.039C114.382 111.604 114.1 112.081 113.534 112.47C112.969 112.859 112.386 113.053 111.785 113.053C111.008 113.053 110.513 112.541 110.301 111.516L110.46 100.545C110.46 96.6583 109.807 94.238 108.499 93.284C107.863 92.8247 106.892 92.595 105.584 92.595C104.312 92.595 103.358 93.072 102.722 94.026C102.122 94.98 101.821 96.517 101.821 98.637L102.139 108.495C102.139 111.534 101.309 113.053 99.6483 113.053Z" fill="#4D6990"/>
<path d="M147.438 88.249C148.992 88.249 149.77 89.574 149.77 92.224C149.77 92.5067 149.77 92.807 149.77 93.125L149.664 96.835C149.628 98.001 149.611 99.1493 149.611 100.28L150.406 112.258C150.406 113.141 149.505 113.583 147.703 113.583C147.597 113.583 147.332 113.583 146.908 113.583C146.519 113.583 146.236 113.424 146.06 113.106C145.918 112.788 145.901 112.399 146.007 111.94C146.148 111.481 146.113 110.968 145.901 110.403C144.275 112.134 142.12 113 139.435 113C134.453 113 131.962 109.149 131.962 101.446C131.962 97.1707 132.757 93.9377 134.347 91.747C135.972 89.5563 138.286 88.461 141.29 88.461C142.703 88.461 144.116 88.7083 145.53 89.203C145.989 88.567 146.625 88.249 147.438 88.249ZM141.926 93.072C139.912 93.072 138.41 93.655 137.421 94.821C136.431 95.987 135.937 98.1247 135.937 101.234C135.937 106.463 137.35 109.078 140.177 109.078C140.919 109.078 141.731 108.742 142.615 108.071C143.533 107.4 144.169 106.64 144.523 105.792C145.194 103.884 145.53 101.799 145.53 99.538C145.53 97.2767 145.247 95.6337 144.682 94.609C144.152 93.5843 143.233 93.072 141.926 93.072Z" fill="#4D6990"/>
<path d="M160.243 105.262L160.296 110.721C160.296 111.357 159.995 111.94 159.395 112.47C158.829 113 158.264 113.265 157.699 113.265C156.886 113.265 156.374 112.629 156.162 111.357C156.126 111.074 155.985 108.495 155.738 103.619C155.49 98.7077 155.013 94.8563 154.307 92.065C153.989 90.7223 153.83 89.9273 153.83 89.68C153.83 88.514 154.536 87.931 155.95 87.931C156.55 87.931 157.027 88.1607 157.381 88.62C157.734 89.0793 157.946 89.5563 158.017 90.051C158.123 90.5103 158.211 91.1463 158.282 91.959C158.352 92.7717 158.405 93.284 158.441 93.496C159.183 91.7293 160.296 90.4043 161.78 89.521C163.264 88.6377 164.889 88.196 166.656 88.196C169.553 88.196 171.002 88.938 171.002 90.422C171.002 91.164 170.737 91.7647 170.207 92.224C169.712 92.648 169.129 92.86 168.458 92.86C165.454 92.86 163.334 93.814 162.098 95.722C160.861 97.63 160.243 100.81 160.243 105.262Z" fill="#4D6990"/>
<path d="M180.635 105.262L180.688 110.721C180.688 111.357 180.388 111.94 179.787 112.47C179.222 113 178.657 113.265 178.091 113.265C177.279 113.265 176.766 112.629 176.554 111.357C176.519 111.074 176.378 108.495 176.13 103.619C175.883 98.7077 175.406 94.8563 174.699 92.065C174.381 90.7223 174.222 89.9273 174.222 89.68C174.222 88.514 174.929 87.931 176.342 87.931C176.943 87.931 177.42 88.1607 177.773 88.62C178.127 89.0793 178.339 89.5563 178.409 90.051C178.515 90.5103 178.604 91.1463 178.674 91.959C178.745 92.7717 178.798 93.284 178.833 93.496C179.575 91.7293 180.688 90.4043 182.172 89.521C183.656 88.6377 185.282 88.196 187.048 88.196C189.946 88.196 191.394 88.938 191.394 90.422C191.394 91.164 191.129 91.7647 190.599 92.224C190.105 92.648 189.522 92.86 188.85 92.86C185.847 92.86 183.727 93.814 182.49 95.722C181.254 97.63 180.635 100.81 180.635 105.262Z" fill="#4D6990"/>
<path d="M197.689 79.504C198.325 79.504 198.925 79.8043 199.491 80.405C200.056 81.0057 200.339 81.6417 200.339 82.313C200.339 82.949 200.021 83.6027 199.385 84.274C198.784 84.9453 198.148 85.281 197.477 85.281C196.805 85.281 196.187 84.9983 195.622 84.433C195.092 83.8677 194.827 83.1433 194.827 82.26C194.827 80.564 195.745 79.6453 197.583 79.504C197.618 79.504 197.653 79.504 197.689 79.504ZM199.915 107.276L199.968 110.986C199.968 111.657 199.703 112.223 199.173 112.682C198.643 113.106 198.077 113.318 197.477 113.318C196.593 113.318 196.134 112.876 196.099 111.993C195.639 100.722 195.41 94.4853 195.41 93.284C195.41 92.0827 195.463 90.6163 195.569 88.885C195.639 88.249 196.046 87.931 196.788 87.931C198.66 87.931 199.72 88.6907 199.968 90.21C200.074 90.9873 200.127 91.6057 200.127 92.065L199.915 95.404V107.276Z" fill="#4D6990"/>
<path d="M213.675 88.461C215.548 88.461 217.332 89.0087 219.028 90.104C220.724 91.1993 221.572 92.5597 221.572 94.185C221.572 95.775 220.883 97.3297 219.505 98.849C218.127 100.333 216.29 101.234 213.993 101.552C213.004 101.693 211.52 101.764 209.541 101.764C209.93 104.767 210.69 106.746 211.82 107.7C212.174 108.089 212.651 108.283 213.251 108.283C215.442 108.283 217.279 107.594 218.763 106.216C220.247 104.803 221.307 104.096 221.943 104.096C222.226 104.096 222.65 104.361 223.215 104.891C223.781 105.421 224.063 105.916 224.063 106.375C224.063 107.294 222.95 108.619 220.724 110.35C219.735 111.163 218.534 111.852 217.12 112.417C215.742 112.947 214.453 113.212 213.251 113.212C210.177 113.212 207.916 111.233 206.467 107.276C205.549 104.838 205.089 102.153 205.089 99.22C205.089 96.2873 205.778 93.761 207.156 91.641C208.534 89.521 210.707 88.461 213.675 88.461ZM213.94 92.118C212.598 92.118 211.449 92.8777 210.495 94.397C210.142 94.927 209.806 96.1283 209.488 98.001C214.435 98.001 216.908 96.782 216.908 94.344C216.908 92.86 215.919 92.118 213.94 92.118Z" fill="#4D6990"/>
<path d="M239.828 88.196L239.775 77.967C239.775 76.059 240.375 75.105 241.577 75.105C242.813 75.105 243.502 75.635 243.644 76.695C243.714 77.1543 243.803 79.928 243.909 85.016C244.015 90.104 244.174 94.874 244.386 99.326C244.633 103.778 244.757 107.93 244.757 111.781C244.757 112.841 243.962 113.371 242.372 113.371C241.312 113.371 240.782 112.629 240.782 111.145C239.262 112.346 237.46 112.947 235.376 112.947C232.726 112.947 230.57 111.958 228.91 109.979C227.284 108 226.472 105.562 226.472 102.665C226.472 99.7677 227.055 97.0647 228.221 94.556C229.422 92.012 231.277 90.1923 233.786 89.097C235.34 88.4257 236.842 88.09 238.291 88.09C238.821 88.09 239.333 88.1253 239.828 88.196ZM240.093 95.457C239.845 94.6797 239.545 94.0967 239.192 93.708C238.838 93.284 238.45 93.0367 238.026 92.966C237.637 92.86 237.16 92.807 236.595 92.807C236.029 92.807 235.34 93.019 234.528 93.443C233.715 93.867 233.026 94.556 232.461 95.51C231.33 97.418 230.765 99.432 230.765 101.552C230.765 103.637 231.171 105.35 231.984 106.693C232.832 108 234.015 108.654 235.535 108.654C237.089 108.654 238.308 107.894 239.192 106.375C240.075 104.856 240.517 102.912 240.517 100.545C240.517 97.895 240.375 96.199 240.093 95.457Z" fill="#4D6990"/>
<path d="M20.9219 172.68C20.9219 170.813 22.0885 169.88 24.4219 169.88C25.4952 169.88 26.1252 170.533 26.3119 171.84V182.34C26.3119 184.3 26.3352 186.26 26.3819 188.22C27.3152 187.94 28.5052 187.8 29.9519 187.8C34.4785 187.8 37.9785 189.317 40.4519 192.35C42.9252 195.383 44.1619 199.187 44.1619 203.76C44.1619 208.333 42.6919 212.207 39.7519 215.38C36.8585 218.507 33.1252 220.07 28.5519 220.07C23.9785 220.07 21.6919 218.787 21.6919 216.22C21.6919 213.607 21.5519 207.027 21.2719 196.48C21.0385 185.887 20.9219 177.953 20.9219 172.68ZM35.0619 195.22C33.3819 193.913 31.6085 193.26 29.7419 193.26C28.7152 193.26 27.6652 193.447 26.5919 193.82C26.8719 197.647 27.0119 204.437 27.0119 214.19C27.8052 214.47 28.6219 214.61 29.4619 214.61C31.2819 214.61 33.1019 213.933 34.9219 212.58C37.6285 210.713 38.9819 207.867 38.9819 204.04C38.9819 200.167 37.6752 197.227 35.0619 195.22Z" fill="#4D6990"/>
<path d="M54.2495 175.76C55.0895 175.76 55.8829 176.157 56.6295 176.95C57.3762 177.743 57.7495 178.583 57.7495 179.47C57.7495 180.31 57.3295 181.173 56.4895 182.06C55.6962 182.947 54.8562 183.39 53.9695 183.39C53.0829 183.39 52.2662 183.017 51.5195 182.27C50.8195 181.523 50.4695 180.567 50.4695 179.4C50.4695 177.16 51.6829 175.947 54.1095 175.76C54.1562 175.76 54.2029 175.76 54.2495 175.76ZM57.1895 212.44L57.2595 217.34C57.2595 218.227 56.9095 218.973 56.2095 219.58C55.5095 220.14 54.7629 220.42 53.9695 220.42C52.8029 220.42 52.1962 219.837 52.1495 218.67C51.5429 203.783 51.2395 195.547 51.2395 193.96C51.2395 192.373 51.3095 190.437 51.4495 188.15C51.5429 187.31 52.0795 186.89 53.0595 186.89C55.5329 186.89 56.9329 187.893 57.2595 189.9C57.3995 190.927 57.4695 191.743 57.4695 192.35L57.1895 196.76V212.44Z" fill="#4D6990"/>
<path d="M85.3738 217.13C83.6938 219.09 81.5705 220.07 79.0038 220.07C76.4372 220.07 74.2205 219.277 72.3538 217.69C68.4338 214.657 66.4738 210.013 66.4738 203.76C66.4738 198.86 67.8272 194.94 70.5338 192C73.2405 189.013 76.5772 187.52 80.5438 187.52C84.5105 187.52 87.2172 188.873 88.6638 191.58C89.9238 193.96 90.5538 197.553 90.5538 202.36L90.4138 208.1C90.4138 210.807 90.5305 214.563 90.7638 219.37C91.0438 224.13 91.1838 227.723 91.1838 230.15C91.1838 234.163 90.1805 237.103 88.1738 238.97C86.2138 240.883 83.2038 241.84 79.1438 241.84C76.7172 241.84 74.2438 241.327 71.7238 240.3C69.2038 239.273 67.9438 238.083 67.9438 236.73C67.9438 235.75 68.2005 235.003 68.7138 234.49C69.2738 233.977 69.9038 233.72 70.6038 233.72C71.3038 233.72 72.8672 234.233 75.2938 235.26C77.7672 236.287 79.5405 236.8 80.6138 236.8C83.9738 236.8 85.6538 234.047 85.6538 228.54C85.6538 223.033 85.5605 219.23 85.3738 217.13ZM85.3038 202.36C85.3038 198.953 84.7905 196.573 83.7638 195.22C82.7838 193.82 81.2205 193.12 79.0738 193.12C76.9272 193.12 75.2005 194.1 73.8938 196.06C72.5872 198.02 71.9338 200.517 71.9338 203.55C71.9338 206.537 72.5405 208.917 73.7538 210.69C75.0138 212.463 76.9272 213.35 79.4938 213.35C82.0605 213.35 83.7172 212.253 84.4638 210.06C85.0238 208.287 85.3038 205.72 85.3038 202.36Z" fill="#4D6990"/>
<path d="M123.649 219.93C122.062 219.93 120.592 219.393 119.239 218.32C119.239 218.32 118.935 218.063 118.329 217.55V238.55C118.049 239.483 117.559 240.253 116.859 240.86C116.159 241.513 115.412 241.84 114.619 241.84C113.405 241.84 112.799 241.023 112.799 239.39V190.6C113.079 189.387 113.405 188.523 113.779 188.01C114.199 187.497 114.829 187.24 115.669 187.24C116.555 187.24 117.115 187.45 117.349 187.87C117.629 188.243 117.955 189.317 118.329 191.09C118.515 190.157 119.262 189.293 120.569 188.5C121.875 187.707 123.625 187.31 125.819 187.31C130.579 187.31 133.962 189.037 135.969 192.49C137.975 195.943 138.979 200.027 138.979 204.74C138.979 209.407 137.602 213.117 134.849 215.87C132.142 218.577 128.409 219.93 123.649 219.93ZM118.329 198.93V211.95C118.609 212.09 118.935 212.323 119.309 212.65C120.662 213.863 122.132 214.47 123.719 214.47C130.159 214.47 133.379 211.157 133.379 204.53C133.379 198.883 131.932 195.313 129.039 193.82C127.825 193.167 126.332 192.84 124.559 192.84C122.832 193.073 121.362 193.843 120.149 195.15C118.935 196.41 118.329 197.67 118.329 198.93Z" fill="#4D6990"/>
<path d="M162.06 187.31C164.113 187.31 165.14 189.06 165.14 192.56C165.14 192.933 165.14 193.33 165.14 193.75L165 198.65C164.953 200.19 164.93 201.707 164.93 203.2L165.98 219.02C165.98 220.187 164.79 220.77 162.41 220.77C162.27 220.77 161.92 220.77 161.36 220.77C160.847 220.77 160.473 220.56 160.24 220.14C160.053 219.72 160.03 219.207 160.17 218.6C160.357 217.993 160.31 217.317 160.03 216.57C157.883 218.857 155.037 220 151.49 220C144.91 220 141.62 214.913 141.62 204.74C141.62 199.093 142.67 194.823 144.77 191.93C146.917 189.037 149.973 187.59 153.94 187.59C155.807 187.59 157.673 187.917 159.54 188.57C160.147 187.73 160.987 187.31 162.06 187.31ZM154.78 193.68C152.12 193.68 150.137 194.45 148.83 195.99C147.523 197.53 146.87 200.353 146.87 204.46C146.87 211.367 148.737 214.82 152.47 214.82C153.45 214.82 154.523 214.377 155.69 213.49C156.903 212.603 157.743 211.6 158.21 210.48C159.097 207.96 159.54 205.207 159.54 202.22C159.54 199.233 159.167 197.063 158.42 195.71C157.72 194.357 156.507 193.68 154.78 193.68Z" fill="#4D6990"/>
<path d="M178.972 209.78L179.042 216.99C179.042 217.83 178.645 218.6 177.852 219.3C177.105 220 176.359 220.35 175.612 220.35C174.539 220.35 173.862 219.51 173.582 217.83C173.535 217.457 173.349 214.05 173.022 207.61C172.695 201.123 172.065 196.037 171.132 192.35C170.712 190.577 170.502 189.527 170.502 189.2C170.502 187.66 171.435 186.89 173.302 186.89C174.095 186.89 174.725 187.193 175.192 187.8C175.659 188.407 175.939 189.037 176.032 189.69C176.172 190.297 176.289 191.137 176.382 192.21C176.475 193.283 176.545 193.96 176.592 194.24C177.572 191.907 179.042 190.157 181.002 188.99C182.962 187.823 185.109 187.24 187.442 187.24C191.269 187.24 193.182 188.22 193.182 190.18C193.182 191.16 192.832 191.953 192.132 192.56C191.479 193.12 190.709 193.4 189.822 193.4C185.855 193.4 183.055 194.66 181.422 197.18C179.789 199.7 178.972 203.9 178.972 209.78Z" fill="#4D6990"/>
<path d="M198.626 187.31L202.126 187.38C202.919 187.38 203.362 187.357 203.456 187.31V172.96C203.502 172.167 203.899 171.49 204.646 170.93C205.392 170.37 206.092 170.09 206.746 170.09C207.399 170.09 207.912 170.3 208.286 170.72C208.706 171.14 208.892 171.793 208.846 172.68C208.799 173.567 208.776 178.42 208.776 187.24L216.966 186.96C218.366 186.96 219.066 187.777 219.066 189.41C219.066 190.623 218.692 191.533 217.946 192.14C217.246 192.747 216.476 193.073 215.636 193.12C214.842 193.167 214.049 193.19 213.256 193.19L208.986 193.12C208.986 195.033 209.172 198.813 209.546 204.46C209.966 210.107 210.292 213.77 210.526 215.45C210.759 217.083 210.806 218.157 210.666 218.67C210.526 219.137 210.269 219.463 209.896 219.65C209.289 219.93 208.472 220.07 207.446 220.07C206.419 220.07 205.812 219.51 205.626 218.39C204.692 212.277 204.062 203.877 203.736 193.19C203.316 193.237 201.706 193.26 198.906 193.26C196.106 193.26 194.706 192.443 194.706 190.81C194.706 188.477 196.012 187.31 198.626 187.31Z" fill="#4D6990"/>
<path d="M243.268 187.66C243.875 187.66 244.458 187.87 245.018 188.29C245.625 188.71 245.928 189.177 245.928 189.69C245.928 191.043 243.945 198.37 239.978 211.67C236.011 224.97 233.071 234.303 231.158 239.67C230.738 240.93 230.085 241.56 229.198 241.56C228.311 241.56 227.611 241.233 227.098 240.58C226.585 239.973 226.328 239.063 226.328 237.85C226.328 236.637 227.098 233.72 228.638 229.1C230.225 224.527 231.181 221.61 231.508 220.35C230.341 218.39 226.398 208.59 219.678 190.95C219.585 190.717 219.538 190.413 219.538 190.04C219.538 189.667 219.818 189.177 220.378 188.57C220.938 187.963 221.708 187.66 222.688 187.66C223.668 187.66 224.461 188.15 225.068 189.13C225.721 190.81 226.795 193.75 228.288 197.95C229.781 202.103 230.925 205.113 231.718 206.98C232.558 208.847 233.351 210.783 234.098 212.79C234.751 210.597 235.871 206.35 237.458 200.05C239.045 193.703 239.955 190.087 240.188 189.2C240.375 188.173 241.401 187.66 243.268 187.66Z" fill="#4D6990"/>
</svg>
